/* XPM */
static char *result[] = {
/* columns rows colors chars-per-pixel */
"64 64 197 2 ",
"   c #161515",
".  c #181717",
"X  c #1B1B1B",
"o  c #211A1F",
"O  c #261C23",
"+  c #39172E",
"@  c #252425",
"#  c #292929",
"$  c #33262E",
"%  c #34322D",
"&  c #3C2E37",
"*  c #3E2B38",
"=  c #373737",
"-  c #3A3337",
";  c #3B3A3B",
":  c #4A1E29",
">  c #501F2C",
",  c #4C153A",
"<  c #461E39",
"1  c #4A1A3B",
"2  c #52173F",
"3  c #57202F",
"4  c #412739",
"5  c #4A203D",
"6  c #542137",
"7  c #5C2332",
"8  c #403E39",
"9  c #594F3F",
"0  c #5A1A46",
"q  c #5C1C47",
"w  c #661C4E",
"e  c #6C1E52",
"r  c #731F58",
"t  c #563446",
"y  c #57314B",
"u  c #612B4D",
"i  c #62314C",
"p  c #672F55",
"a  c #7A205E",
"s  c #73285A",
"d  c #753559",
"f  c #79365D",
"g  c #79385E",
"h  c #7C2360",
"j  c #424142",
"k  c #4E4C44",
"l  c #494748",
"z  c #715B53",
"x  c #6C6558",
"c  c #716D5C",
"v  c #70705F",
"b  c #795462",
"n  c #992342",
"m  c #A52648",
"M  c #AF284B",
"N  c #BF2D55",
"B  c #B52B58",
"V  c #852466",
"C  c #8E266D",
"Z  c #942872",
"A  c #992976",
"S  c #9F2B7A",
"D  c #943974",
"F  c #B42D69",
"G  c #A42C7E",
"H  c #A4377E",
"J  c #C52E59",
"K  c #CC2F58",
"L  c #CC3061",
"P  c #CA327A",
"I  c #89625F",
"U  c #884C67",
"Y  c #875364",
"T  c #8C516B",
"R  c #955E73",
"E  c #896461",
"W  c #926C6C",
"Q  c #847D68",
"!  c #97726F",
"~  c #996874",
"^  c #9F6D7B",
"/  c #9A7673",
"(  c #A4797A",
")  c #8C826C",
"_  c #8D8872",
"`  c #928D76",
"'  c #9D9378",
"]  c #A7987A",
"[  c #B4A37C",
"{  c #BAA47C",
"}  c #A52C80",
"|  c #AA2E83",
" . c #AA3A86",
".. c #B23089",
"X. c #B23B89",
"o. c #BE3392",
"O. c #C53596",
"+. c #C53598",
"@. c #CB379C",
"#. c #CF389F",
"$. c #D238A1",
"%. c #D83BA6",
"&. c #DF3CAB",
"*. c #E23CAE",
"=. c #EC3FB5",
"-. c #B25189",
";. c #AD7186",
":. c #C64198",
">. c #EC40B5",
",. c #F743BE",
"<. c #FF45C4",
"1. c #9E9A83",
"2. c #AB8486",
"3. c #B4898C",
"4. c #A89E83",
"5. c #B2968D",
"6. c #B99A94",
"7. c #AAA387",
"8. c #BEA283",
"9. c #BDAA83",
"0. c #BCA193",
"q. c #BBB394",
"w. c #C59F97",
"e. c #C1AC83",
"r. c #C2AA8C",
"t. c #C6B388",
"y. c #C5B38A",
"u. c #CAB68C",
"i. c #CDBA8E",
"p. c #D3BB8E",
"a. c #D9BF8F",
"s. c #C5A595",
"d. c #C5A299",
"f. c #C9B695",
"g. c #CCBB93",
"h. c #CABE9B",
"j. c #D3BD93",
"k. c #CBB4A5",
"l. c #D6BCA6",
"z. c #CEC19D",
"x. c #D4C195",
"c. c #DAC396",
"v. c #D4C49A",
"b. c #DBC69B",
"n. c #D6C89E",
"m. c #DBCA9D",
"M. c #E4CC9E",
"N. c #CDC4A5",
"B. c #D2C5A3",
"V. c #D7C8A3",
"C. c #DDCCA2",
"Z. c #D3C5AA",
"A. c #D5CBAC",
"S. c #DACDAB",
"D. c #DFD2A4",
"F. c #DED8A6",
"G. c #DCD2AC",
"H. c #D7CDB1",
"J. c #D9CDB0",
"K. c #DDD2B4",
"L. c #DED5B9",
"P. c #E2CEA3",
"I. c #E3D2A5",
"U. c #E9D4A5",
"Y. c #E4D4AA",
"T. c #EAD6AB",
"R. c #E6D9AD",
"E. c #EBDAAD",
"W. c #F1DDAD",
"Q. c #E2D5B3",
"!. c #ECD7B7",
"~. c #E5D9B5",
"^. c #EDDDB3",
"/. c #E0D6B8",
"(. c #E6DBBB",
"). c #EADDBA",
"_. c #F1DEB3",
"`. c #EEE0B3",
"'. c #E7E0BB",
"]. c #EBE2BD",
"[. c #F3E2B5",
"{. c #F4E5BB",
"}. c #F9E7BB",
"|. c #F5E9BE",
" X c #FAEABE",
".X c #E5DCC0",
"XX c #EDE5C1",
"oX c #EEE9C4",
"OX c #F1E6C1",
"+X c #F3EAC4",
"@X c #FDEEC2",
"#X c #F5EEC9",
"$X c #FFF2C6",
"%X c #F6F1C9",
"&X c #FFF5C9",
"*X c #FFF9CC",
"=X c #FFFBD3",
/* pixels */
"K..XZ.A.A.(.K.K.Z.L.K.Q.S.Q.(.(.L.L.'.oXoX|.|.'.F.K.n.G.~.].].'.A.K.~.G.(.Q.L.Q.J.Z.B.K.L.J.K.K.J.H.J.L.J.Q.(.(.~.A.B.q.h.S.(..X",
"H.$X{.|. XC.V.E.g.Y.C.Y.b.{.$X&X*X%X'.*X$X|.|.`.F.`.F.x.F.{.&X=XN.i.x.x.c. X&X&X&X&X&X&X&X@XP.@X*XXX].=X*X{.c.^.}.}.U.P.T.P. X%X",
"(.*X&X&X@Xb.T.u.9.x.D.v.v.F.|.$X$X|.`. X&X XI.R.|.{.'.D.y.g.$X=XA.z.I.I.c.^.&X&X&X@X}.U.T.W.W.&X&X+XXX*X=X@X{._. X X_.u.e.P.|.&X",
"Q.*X*X&X&X XM.T.R.m.u.U. X[._.$X$X].z.F.E.F.E.*X*X*X*X XD.w w w w w w W y.Y.@X@X@X[.b._.^._.}.&X&XoX).*X&X&X$X&X$X@X X_.[ ^._.|.",
"S.*X*X&X&X@X@X}.}.@X X@X$X@X$X@X X'.'. X*X X*X*X*X*X&X*X$Xw w w w w u ! z.g.D.[._.b.P. X@X_.@X$X@XoX].*X&X&X$X&X&X&X@X{.j.p.j.j.",
"N.*X&X&X&X&X&X@X@X$X&X$X$X@X@X^.V.G.'. X X&X*X*X*X*X*X*X&Xw w w w w w ;. X Xv.i.u.r.P. X@X@X@X@X@XoXXX&X&X&X&X&X@X&X@X@XOX_.P.C.",
"B.*X&X&X$X@X@X@X@X&X$X&X$X$X|.E.F.`.'. X*X*X' 8 8 j g g g >.>.>.=.=.=.X.f f ~ T._.@X@X@X@X@X@X@X@XOXXX&X&X&X$X$X&X@X$X@X X{.P.x.",
"B.*X&X$X$XOX{._. X@X@X$X$X$X$X[.{.].`.*X X*X` @ @ $ w w w <.<.<.<.<.<...w w T |.).@X@X$X$X@X@X@X@XOX.X&X&X&X$X$X$X&X@X|.[.P.x.j.",
"J.*X&X$X@X}.}._.}.@X@X$X$X$X@X{.^.XXXX*X*X*X` @ @ $ w w w <.<.<.<.<.<...w w T $X@X$X$X@X$X@X@X@X@XOX.X&X&X$X&X$X$X@X_.M.T.P.C.T.",
"A.&X&X&X&X@X}._.}.}.}.@X$X@X@X[.[.].].*X*X*X2.0 0 a %.%.%.+.+.+.O.O.+.#.%.%.+.T T R @X@X@X@X@XOX{.!..X&X$X$X$X$X$X@X[.!.!.i.{ P.",
"J.&X&X&X@X}.@XY.P._.b.[.[.b._.^.^.].XX*X&X&X3.w w C <.<.<.............%.<.<.%.w w f $X@X@X@X@X_.T.h.XX&X$X$X$X$X$X$X@XOX_.I.j.T.",
"J.*X&X&X}.}._.{._.j.P.u.u.b.g.E.`.XXXX%X*X&X3.w w C <.<.<.............%.<.<.%.w w f $X@X@X@X@X_.C.S..X&X&X$X$X@X@X$X@X@X}._.}.&X",
"J.&X&X&X@X}.OX@X Xj.j.[.[.U.y.b.~ ~ ~ ;.( ^ -.+.O.o.@.@.#.............O.@.#.$.O.+.:.^ ^ ^ ^ ^ ~ l.XX).&X$X&X$X$X$X@X$X@X@X@X$X&X",
"H.*X&X$X&X@X$X@X$X{.v.t.9.m.C.j.d w w w w w ..<.<.>.........................O.<.<.=.w w w w w w w.XX.X&X&X$X@X@X$X$X$X$X$X@X$X&X",
"H.&X&X$X&X$X&X$X$X X}._.{ Y.R.y.d w w e w w ..<.<.>.........................O.<.<.>.w w w w w w d.XXOX@X$X@X_.OX@X@X$X$X$X@X@X&X",
"A.&X&X$X@X&X@X$X@X@X X}.] ( ~ ( X.....A V C ..%.%.#.........................o.%.%.#.C C C | ....;.2.;.s.@X$X@X@X@X$X@X$X@X$X@X=X",
"Z.&X&X&X&X$X$X@X$X$X@X{.e.w w w =.<.<.#.................................................| ,.<.<.G w w R ^. X@X@X@X$X@X$X@X$X$X&X",
"L.J.).!.~.(.!.(.!.~.~.S.f.w w w =.<.<.#...................................................,.<.<.S w w U y.^.|. X|.|.OX{.{.).)..X",
"L.#X+X#X#XOXXXV.f.h.f.f.f.w w w $.*.*.+...........| | | | | | } } | } | | | | ............&.*.*.Z w w ~ G.].OXOXOX+XOX+X{.).).OX",
"(.=X*X*X&X&X$X@X{.Y.m.e.s.w w w | ................| A A A A A A A A A A A A S ..................V w w ^ *X*X*X&X&X&X&X&X&X&X$X=X",
").*X*X&X&X&X$X@X}.P.j.j.u.q w w | ................| A A A A A A A A A A A A S ..................V w w ^ &X&X&X&X@X$X&X$X$X&X$X=X",
".X=X&X&X&X$X@X_.T.j.u.v.r.D T T H S S } | | | | | } A A A A A A A A A A A A S | | | | | | G G S D U T 6.&X$X$X$X{.@X$X$X&X$X$X*X",
"].*X&X&X$X_.V.!.P.C.P._.Y.I._.@Xf w w V A A A A A A A A A A A A A A A A A A A A A A S A A e w w 0.].$X@X[._.$X$X@X@X$X$X$X$X$X&X",
").*X&X&X@X}.E._.p.{ P._.}.}.@X@Xf w e V A A A A A A A A A A A A A A A A A A A A A A A A A e w w s.].&X{.I.T.}.@X&X@X$X$X$X$X$X=X",
"XX&X&X&X$X$XOX}.U.v.I.{.@X@X@X@Xd q q h C C Z A A A A A A A A A A A A A A A A A A A C Z C w 0 0 s.].|.I.u.9.Y. X@X&X@X&X@X&X@X*X",
".X&X&X&X$X&X@X}._.}.@X$X$X$X@X$X% X X + , , r A A A A A A A A A A A A A A A A A A C , , 1 o X X 7.).m.[ m.b.m. X&X@X&X$X&X@X$X*X",
"'.&X&X&X$X$X&X@X$X@X@X$X@X@X@X@X= X X + , , s A A A A A A A A A A A A A A A A A A C , , 1 o X X ] '.u.Y. X XW.{.@X@X$X$X$X$X$X*X",
"].$X$X@X&X$X$X&X$X$X@X$X&X@X@X@X% X X + , , r A A A A A A A A A A A A A A A A A A Z , , , o X X 7.].W.{.&X@Xc.t.T.@X$X$X$X$X$X@X",
"(. X}.$X$X$X$X@X$X@X$X@XQ.X X X = = = = = = 4 , , 0 w w w w w w w w w w w w q , , 1 = = = = = = @ X X c $X&X}.T.I.+X$X@X$X$X@X@X",
").&X$X$X$X&X$X&X$X$X@X$XQ.X X X = = = = = = 4 , , 2 w w w w w w w w w w w w w , , 1 = = = = = = @ X X c &X&X&X$X}.@X$X$X$X@X{.+X",
"~.$X$X$X$X$X$X@X$X@X$X$XQ.X X X # = = = = = 4 , , 2 w w w w w w w w w w w w q , 1 1 = = = = = = @ X X c &X&X$X$X X$X$X&X@X`.C.P.",
"A.).+X X+X X|.|.OXOX{.{.V.X X X = = = = = = - & & 4 2 2 2 2 2 2 2 2 , 0 , 0 1 * & - = = = = = = @ X X x  X X{.}.[.@X@X|.m.{ { S.",
"L.'.+X+X+XOXOX`.~.+X].].N.X X X = = = = = = = = = & , , , , , , , , , , , , < = = = = = = = = = @ X X x z.B.G.A.K.'.K.f.[ z.G.H.",
"(.*X=X*X*X&X{.F.n. X$X&XR.X . X % = = = = = = = = & , , , , , , , , , , , , < - = = = = = = = = @ X X v =X*X*X*X*X*X$X&X&X*X*X%X",
"XX*X*X*X*X*X X[.|.&X&X&X|.] ' ' # @ @ % = = = = = = 4 & 4 4 4 8 * * * * * * * = = = = = = @ @ @ v 1.1.N.*X*X*X*X*X*X*X&X*X*X*XoX",
"'.*X*X*X&X*X$XW. X&X*X*X$X%XD.{.% X X % = = = = = = = = = = = = - = = = = = = = = = = = = @ X X 7.oX'.*X*X*X*X*X*X*X&X*X*X*X*X%X",
"XX&X&X&X*X&X X[.|.$X$X$X$X$XE.D.% X X # = = = = = = = = % = = = = = = = = - = = = = = = = X X X 7.oX].*X*X*X*X&X*X*X*X*X*X&X*X%X",
"~.}. X&X$X X X[.}.$X$X&X&X$X$X X` ) ) k # # # # # # # # # # # # # # # # # # # # # # # # # Q _ _ A.oX'.*X*X*X&X$X$X*X$X*X&X&X X%X",
"E.M.c.p.x.c.[.[. X$X$X&X&X&X&X&X%XoXXXv X X X X X X X X X X X X X X X X X X X X X X X X X ~.&X&X*XoX].*X*X*X*X&X*X*X*X$X*X&X&X%X",
"B.m.`.E.E.e.D.I. X$X$X$X&X&X$X$X$XoXXXc X . X X X X X X X X X . X X X X X X X X X X X X X ~.&X&X%XoX%X*X*X*X*X&X*X$X*X*X X$X$X*X",
").p.i.Y.E.I.9.C.W.|.&X&X$X&X&X&Xs.5.5.b 5 5 6 7 3 3 : : : : : : : : : : : : > 7 7 7 0 4 1 5.6.0.~.oX].*X&X*X&X&X$X*X$X*X$X$X*X*X",
").|.E.g.{ ^.I.I.{.|.$X$X$X&X$X$Xy 1 1 a A A F K K N n n n n n n n n n n n n m K K J A A Z 0 , , 0.oX].&X&X&X&X&X*X$X$X*X*X$X$X*X",
"(.$X Xj.i.[.t.[.$X$X$X&X$X&X&X&Xi 1 , a A A F K K N n n n n n n n n n n n n m K L J A A A 0 , , 0.oX].&X&X*X&X&X X$X$X$X&X&X$X*X",
"].&X$Xm.[ v.^. X@X$X$X$X$Xl.l.l.s e e Z G G F K K J m m m m m m m m m m m m M K K J } } } e e e 3.k.k.Q.&X&X&X&X*X*X*X$X$X&X&X*X",
"].&X@XT.W. X@X$X&X$X$X$X!.w w w O.@.@.@.#.@.P K K K K K K K K K J K K K K K K K K L @.#.@.@.@.#.C w w ^ &X&X$X$X|.|. X$X&X&X$X*X",
"'.&X X{.@X&X$X$X$X$X$X&X!.w w w O.@.@.@.@.#.P K K K K K K K K K K K K K K K K K K L @.@.@.@.@.@.C w w ( &X&X&X XF.`.|.&X$X$X&X*X",
"].$X$X$X$X&X$X$X$X$X$X$X!.w w w O.#.#.#.@.@.P J N J K K K K K K K K K K K K J N N B #.@.#.#.#.$.C w w ;.&X&X$X$X+X|.|.$X&X$X$X&X",
"'.&X@X&X$X$X&X$X&X$X$X&X!.w w w >.<.<.*.@.@.A w w V K K K K K K K K K K K K M w w s #.#.@.<.<.<.S w w ~ &X&X&X&X&X$X&X X X$X&X&X",
"(.&X$X&X$X$X$X&X$X$X$X$X^.w w w =.<.<.&.@.@.A w w V K K K K K K K K K K K K B w w s @.@.@.,.<.<.S w w ^ &X&X$X&X$X$X@X X@X$X$X+X",
"Z.~.~.).).'.~.~.~.~.~.'.Z.w w w =.<.<.&.@.@.A w w r K K K K K K K K K J K K B w w a @.@.@.,.<.<.S w w ~ OX@X|.+X|.|.|.|.{.OX{.(.",
"~.%X+XOXm.'.'.|.{.|.'.R.G.].].].f w w w w w y l l l 9 j l l l l l l l l l l l l l t w w w w w w 6./.oX#X#X+XOXOX{.OXOXOX+X+XOX).",
"].*X*X*X`.D.D.t.m.R.U.I.|.*X&X*Xf w w w w w y l l l l j l l l l l l l l l l l l l l w w w w w w d.oXXX=X*X&X&X&X&X$X}.E.@X&X$X#X",
"].=X=X*X&X&X{.`. X X X X&X*X&X*Xg w w w w w y l l l l l l l l l l l l l l l l l l l w w w w w w d.#X+X*X&X&X&X&X$X@XE.I._.@X@X&X",
"XX*X*X*X*X*X&X$X X X*X$X&X&X*X&X!.(.J.x O O - l l l l l l ; ; ; 8 ; ; j l l l l l j O O O l.!.!.OXOXXX*X&X&X@X}. X^.i.y.u.{.@X*X",
"].*X=X*X*X&X&X&X X*X$X$X&X&X&X&X&X&XXXc X X = l l l l l l ; ; ; ; ; ; j l l l l l j X X X Q.$X$X@XOXOX&X&X&X}.Y.m.t.e.Y.t.[.$X&X",
"'.*X*X*X&X&X&X&X X X$X&X$X*X&X&X&X&X.Xv X X $ l l l l l l = ; = = ; = j l l l l l j o X X Q.$X@X$XOXOX&X&X$X@X^.9.x.^.+X{.^. X&X",
"'.*X*X*X*X&X&X&X*X*X$X$X*X*X$X*X&X*X].x     u  . . . . . .@ @ @ @ @ @ p  . . . . .H     . K.@X$X@XOXOX&X X X[.W.[.[. X$XW.t.a.@X",
"'.*X&X*X&X&X&X&X*X*X*X*X$X$X*X$X&X&XY.z     s @.@.+.@.+.@.X X o X X o s @.@.@.+.@...      R.@X@X X{.~.|. XW.U.}. X$X X$X$X[.P.{.",
"'.*X*X&X*X&X&X&X$X*X*X*X*X$X$X*X&X*Xj.k     p #.@.@.@.@.@.X o X X X X s @.+.@.@.@...      D.[.{.{.P.D.M.m.c.W. X&X$X&X$X$X$X}. X",
"'.*X*X&X&X$X&X&X*X X$X X X*X*X X&X*Xz.] ' ) Y r a r a a a 4.4.7.1.7.' Y a a a a a h ] ' ) p.I.p.b.b.`. X XW.c.[.$X X$X$X$X$X X&X",
"'.*X*X*X&X&X&X&X&X&X*X X$X*X$X$X&X*XQ.{.v.v./ 1 , , , , , @X@X*Xh.y.g.W 1 , , , , y W.P.j._.|.@X{.b.).&X&X XW.[. X X X}.}.|.[.$X",
"'.*X&X*X&X&X&X&X&X&X&X&X*X$X$X*X&X*X!.$Xb.P.E , , , , , , `.@X*XG.^.y.! , , , , , y P.j.c.{.@X@X@X{.).&X*X X[.U.|.}.R.t.n.E.Y.$X",
"'.*X*X&X*X&X&X&X&X&X&X X$X*X$X*X&X%X).&X Xb.r./ ! I / ;.( ^.@X&XQ.$X@Xl./ E / b W / C.V.I.[.@X@X@X{.Q.$X&X|.{.I.x.D.9.R.Y.n.{.&X",
"G.+X+X|.|.|.|.|.|.{.|.|.|.|.{.{.@X.XJ.|.|.}.`.^.{.`.].{.{.].{.).N.{.|.|._.j.{ i.8.u.t.v.n.D.^.|.{.Q.K. X}.`.}.}.`.R.9.x.[ [ R.]."
};
