/* XPM */
static char *result[] = {
/* columns rows colors chars-per-pixel */
"64 64 185 2 ",
"   c #161515",
".  c #1B1B1B",
"X  c #261C23",
"o  c #33182A",
"O  c #252525",
"+  c #2A2A2A",
"@  c #35222F",
"#  c #352731",
"$  c #3F2A38",
"%  c #373737",
"&  c #3B3037",
"*  c #3B3A3B",
"=  c #401B34",
"-  c #4C153A",
";  c #422538",
":  c #4A213D",
">  c #792138",
",  c #551842",
"<  c #591A45",
"1  c #661C4E",
"2  c #721F58",
"3  c #5A2248",
"4  c #57314B",
"5  c #5F3050",
"6  c #60244D",
"7  c #722359",
"8  c #79235D",
"9  c #73295C",
"0  c #79395E",
"q  c #414041",
"w  c #4F4D46",
"e  c #494748",
"r  c #534349",
"t  c #59444A",
"y  c #5B584E",
"u  c #7E435F",
"i  c #794D5E",
"p  c #6A6555",
"a  c #756D5B",
"s  c #7B725C",
"d  c #7A7467",
"f  c #8C2540",
"g  c #992342",
"h  c #8C2854",
"j  c #992553",
"k  c #A02A49",
"l  c #B2294D",
"z  c #A62854",
"x  c #BF2C52",
"c  c #812363",
"v  c #8C276B",
"b  c #91276F",
"n  c #962873",
"m  c #992976",
"M  c #9F2C7A",
"N  c #973B74",
"B  c #B22C67",
"V  c #A42C7B",
"C  c #C62E55",
"Z  c #CC2F58",
"A  c #CA3278",
"S  c #894F6B",
"D  c #934F70",
"F  c #896B69",
"G  c #847C67",
"H  c #857B6B",
"J  c #95716F",
"K  c #9D6B77",
"L  c #9B7578",
"P  c #A07D7A",
"I  c #87816C",
"U  c #8D8771",
"Y  c #8D8B74",
"T  c #948D78",
"R  c #A3837E",
"E  c #A29B7F",
"W  c #B49F77",
"Q  c #ADA77B",
"!  c #B4A37C",
"~  c #BBA47C",
"^  c #A52C80",
"/  c #A92D82",
"(  c #B23089",
")  c #BE3492",
"_  c #CB379C",
"`  c #CF389F",
"'  c #D83AA6",
"]  c #DF3CAB",
"[  c #E23CAE",
"{  c #E53EB0",
"}  c #EB3FB5",
"|  c #A55981",
" . c #9F7580",
".. c #AB6B88",
"X. c #A67B83",
"o. c #B2718A",
"O. c #B27C8A",
"+. c #F241BA",
"@. c #FF45C4",
"#. c #9D9982",
"$. c #AB8485",
"%. c #B28487",
"&. c #B28689",
"*. c #B2898C",
"=. c #BB9B98",
"-. c #A9A388",
";. c #BEAA84",
":. c #BCAA93",
">. c #C59F96",
",. c #C1AC83",
"<. c #C5B38A",
"1. c #C6B489",
"2. c #CBB68B",
"3. c #CDBA8E",
"4. c #D3BB8E",
"5. c #D9BF8F",
"6. c #C7A59B",
"7. c #C5B895",
"8. c #CCBB93",
"9. c #CABE9B",
"0. c #D2BD93",
"q. c #CEBDAB",
"w. c #D8BAA6",
"e. c #D8BEAA",
"r. c #CEC199",
"t. c #D4C195",
"y. c #DAC396",
"u. c #D4C49A",
"i. c #DBC69A",
"p. c #D6C99E",
"a. c #DBCA9D",
"s. c #E4CC9E",
"d. c #CCC2A2",
"f. c #CFC5AA",
"g. c #D3C5A3",
"h. c #D5C9A4",
"j. c #DDCCA2",
"k. c #D2C5AA",
"l. c #D9C1AB",
"z. c #D5CAAD",
"x. c #DACCAB",
"c. c #DFD2A4",
"v. c #D9D4A9",
"b. c #DCD2AC",
"n. c #D7CDB1",
"m. c #D9CEB1",
"M. c #DDD2B4",
"N. c #DED5B9",
"B. c #E2CEA3",
"V. c #E3D2A5",
"C. c #E9D2A5",
"Z. c #E8DAA7",
"A. c #E5D4AA",
"S. c #EAD6AB",
"D. c #E6D8AD",
"F. c #EBDAAD",
"G. c #F1DDAD",
"H. c #E2D5B4",
"J. c #ECD5B6",
"K. c #E5D9B5",
"L. c #EDDDB3",
"P. c #E0D6B8",
"I. c #E6DCBB",
"U. c #EADDBA",
"Y. c #F1DEB3",
"T. c #EEE0B3",
"R. c #E7E0BB",
"E. c #EBE2BD",
"W. c #F3E2B5",
"Q. c #F4E5BB",
"!. c #F9E7BB",
"~. c #F5E9BE",
"^. c #FAEABE",
"/. c #E7DDC0",
"(. c #EDE5C1",
"). c #EEE9C4",
"_. c #F1E6C1",
"`. c #F3EAC3",
"'. c #FEEEC3",
"]. c #F4EECA",
"[. c #FFF2C6",
"{. c #F6F1C9",
"}. c #FFF5C9",
"|. c #FFF9CC",
" X c #FFFBD2",
/* pixels */
"M./.k.z.n.I.m.N.k.N.H.M.z.H.I.K.I.N.N.).`.E.~.R.v.N.p.v.T.E.R.R.m.b.K.v.I.H.H.N.n.z.g.N.M.m.N.M.n.n.M.N.M.H.I./.K.z.g.:.r.z.I.I.",
"n.[.W.~.^.a.h.F.8.Z.j.A.a.!.[.}.|.).E. X[.^.~.T.v.W.c.r.v.T.|. Xf.3.t.t.u.^.}.}.[.}.}.[.[.[.V.'.}.(.(.|.|.W.0.Y.!.!.C.B.F.V.^.{.",
"I.|.|.}.[.i.S.2.;.t.c.u.u.c.^.[.}.~.R.}.}.^.Z.Z.~.~.T.c.1.r.{. Xz.r.Z.Z.y.L.[.}.}.[.^.C.S.F.G.[.}.`.(.|.|.'.Q.Y.^.!.G.2.;.B.Q.}.",
"H.|.|.}.[.'.i.S.S.a.2.V.^.W.L.[.[.R.8.Z.Z.c.F.|.|.|.}.[.c.a.r.|.k.K.p.1.<.D.'.'.'.W.y.J.L.W.^.'.[.).I.|. X}.[.}.[.[.'.L.W L.W.~.",
"z.|.|.[.}.[.[.^.^.[.^.'.}.'.[.[.^.R.K.^.}.^.}.|.|.|.}.|.^.~.p.W.d.T.Z.r.r.7.V.W.Y.i.C.!.'.Y.'.[.[.).(.}.}.}.}.[.|.[.'.W.0.0.0.4.",
"d.|.|.[.}.[.[.'.'.[.[.[.[.'.^.L.v.b.T.^.}.^.}.}.|.|.|.|.|.|.[.T.k.!.^.!.'.^.u.3.2.,.B.'.'.'.'.'.[._./.|.}.}.}.[.[.[.[.'.'.U.V.a.",
"g.|.}.|.[.'.'.'.'.[.[.[.[.[.~.F.c.T.T.}.}.}.}.|.|.}.|.}.|.}.}.|.M.|.}.[.[.'.W.S.U.'.'.'.'.'.'.'.'._.(.}.}.|.[.}.[.[.[.'.~.W.j.t.",
"g.|.}.[.[._.Q.L.^.'.[.[.[.[.[.W.W.E.R.^.}.}.}.}.}.|.}.|.}.}.~.E.q.U.J.J.Q.[.^.Q.Y.'.'.[.'.'.'.'.'.(.U.|.[.[.[.[.[.[.[.Q.W.V.y.0.",
"m.}.[.|.[.W.!.Y.^.'.[.[.[.[.'.W.T._.).|.|.}.}.}.}.}.}.}.}.}.*.1 1 1 1 1 &.'.'.'.'.'.[.'.'.[.'.'.'._./.}.[.[.[.[.[.[.Y.i.S.B.j.S.",
"z.|.|.[.[.'.^.Y.^.W.!.'.'.[.'.W.W.E.E.|.|.}.|.}.}.|.}.}.|.}.*.1 1 1 1 1 &.'.[.[.[.[.'.[.'.[.'._.Q.H.(.[.[.[.[.[.[.'.!.J.J.4.W B.",
"m.}.}.[.'.^.'.A.B.Y.i.W.Y.i.Y.L.F.R.).|.|.}.}.}.K.r.d.q.e.e.o.v v v v v o.w.e.J.'.'.'.[.'.'.'.J.S.9.(.}.}.[.[.[.'.[.'._.W.V.0.J.",
"n.|.[.'.^.^.Y.Q.Y.0.s.2.3.i.3.L.Q.E.E.|.|.}.}.}.Y O O = 1 1 ( @.@.@.@.@.( 1 1 &.[.[.'.'.'.'.'.J.j.x./.|.[.[.[.[.[.'.[.'.!.Y.!.}.",
"m.}.}.}.'._.^.'.'.u.t.Y.W.B.<.j.V.U.R.|.}.}.[.}.T O O = 1 1 ( @.@.@.@.@.( 1 1 &.'.'.'.'.'.'.'.'.'.(.U.[.[.[.[.[.[.[.[.'.'.'.[.|.",
"m.|.}.[.[.[.[.'.'.W.u.<.;.a.j.0.L.U.E.|.}.[.}.}.T # # 6 v v ) } } } } } ) v v o.w.e.J.'.[.'.'.'.'.(.(.}.[.[.[.'.'.'.[.'.'.'.'.|.",
"n.}.[.[.[.[.'.[.'._.W.W.! A.D.<.T.E.E.|.|.}.}.}.*.1 1 ( @.@.' ( ( ( ( ( ' @.@.( 1 1 &.'.'.'.'.'.'.(.(.[.'.[.'.U.'.[.'.[.[.'.'.|.",
"k.|.[.}.[.[.[.[.[.'.'.Q.W <.0.A.'.(.E.|.|.}.[.|.*.1 1 ( @.@.' ( ( ( ( ( ' @.@.( 1 1 &.'.'.'.'.'.'.E.J.S.'.'.'.'.'.[.[.'.[.'.[.|.",
"k.|.}.}.[.[.[.[.'.'.'.Q.2.S.Q.^.'.(.f.e.l.e.e.e.o.v v ) } } _ ( ( ( ( ( ` } } ) v v o.w.w.w.w.w.J.(.g.B.L.^.'.'.[.'.[.[.'.'.[.|.",
"M.M.U.U.I.I.J.I.U.J.I.x.j.H.K.K.I.M. .1 1 1 1 1 ( @.@.' ( ( ( ( ( ( ( ( ( ( ( ' @.@.( 1 1 1 1 1 X.H.:.,.<.L.~.~.~.Q.Q.Q.E.U.U./.",
"M.].`.`.`._./.l.7.9.2.9.l.A.p.u.K.I.X.1 1 1 1 1 ( @.@.' ( ( ( ( ( ( ( ( ( ( ( ' @.@.( 1 1 1 1 1 X.P.d.I.M.E._._._.`._.`._.U.U._.",
"/. X|.|.|.}.[.[.W.A.g.<.r.3.D.l.>.>.| M M b v 8 ( [ { _ ( ( ( ( ( ( ( ( ( ( ( _ [ [ ( c c b M M o.=.=.H.|.}.|.}.|.}.}.}.}.[.[. X",
"U.|.|.}.}.}.[.^.Y.S.0.0.s.S.'.&.1 1 ( @.@.' ( ( ( ( ( ( ( ( ( ( ( ( ( ( ( ( ( ( ( ( ( ( ( ' @.@.( 1 1 *.}.|.}.}.[.[.[.}.[.}.[. X",
"/.|.|.|.}.[.'.W.S.0.2.0.0.B.Y.&.1 1 ( @.@.' ( ( ( ( ( ( ( ( ( ( ( ( ( ( ( ( ( ( ( ( ( ( ( ' @.@.( 1 1 &.[.[.[.[.W.'.[.}.[.[.[.|.",
"(.}.|.[.[.Y.j.S.C.B.B.Y.A.B.Y.O.1 1 ^ [ [ _ ( ( ( ( ( / / / / / / / / / / / / / ( ( ( ( ( _ [ [ / 1 1 %.W.Y.'.[.'.'.[.[.[.[.[. X",
"I.|.}.}.'.!.J.Y.0.W s.Y.!._.'.&.1 1 v ( ( ( ( ( ( ( ( ^ m m m m n m m n m m m V ( ( ( ( ( ( ( ( v 1 1 X.V.S.^.'.[.[.[.[.[.[.'.|.",
"(.}.}.[.[.[.'.Q.S.0.A.Q.'.'.'.&.1 1 v ( ( ( ( ( ( ( ( ^ m m m m m m m m m m m / ( ( ( ( ( ( ( ( v 1 1 J 2.;.V.'.'.[.[.[.[.[.[.|.",
"(.}.}.[.}.[.'.W.W.^.'.[.[.[.[.6.K K D m n ^ / / / / / M m m m m m m m m m m m M ^ / / / / M n m D J D L j.u.a.'.[.[.[.[.[.[.[.|.",
"I.|.}.[.[.[.[.[.[.'.[.'.[.'.[.'.'.'. .1 1 8 m m m m n m m m m m m m m m m m m m m m m m m c 1 1 &.Y.<.A.^.^.Y.W.'.[.[.[.[.[.[.}.",
"(.[.[.[.[.[.[.[.[.[.'.[.[.'.'.'.'.`. .1 1 c m m m m m m m m m m m m m m m m m m m m m n m 8 1 1 &.(.G.Q.[.'.5.2.F.'.'.[.[.[.'.[.",
"I.~.Q.[.[.[.[.[.[.'.[.'.'.[.'.[.[.`.F = = < 7 7 c m m m m m m m m m m m m m m m m m v 2 2 < = @ R E.'.}.[.[.^.Z.A.~.[.[.[.[.'.'.",
"U.}.[.[.[.[.[.[.[.[.[.'.[.'.'.'.'.`.d . . o - - 2 m m m m m m m m m m m m m m m m m 2 - - o . . U (.`.}.}.}.[.[.Q.'.[.[.[.'.Q.`.",
"K.[.[.[.}.[.[.[.[.[.[.'.'.'.'.[.[./.d . . o - - 2 m m m m m m m m m m m m m m m m m 2 - - o . . U R.`.}.}.}.[.[.^.[.}.[.^.W.j.V.",
"z.U.`.^.~.~.`.Q._.Q.Q._._.Q.Q.7.U H w + + # ; ; 3 2 2 8 c c c c c 8 c c c c 8 8 2 2 3 ; ; # + + y I G 7.^.^.!.^.W.^.'.~.a.~ ~ z.",
"N.R.`.`.`._.~.E.K.).E.E.R.b.z.a . . + % % % % % ; - - < 1 1 1 1 1 1 1 1 1 1 1 < - - ; % % % % % + . . d r.h.z.v.N.I.M.7.Q r.b.m.",
"I.|. X|.|.}.Q.c.u.^.}.}.}.K.Q s . . + % % % % % ; - - < 1 1 1 1 1 1 1 1 1 1 1 < - - ; % % % % % + . . Y  X|.|.|.|.|.[.}.}.|.|.{.",
"(.|.|.|.|.|.^.W.!.|.}.}.}.^.Z.G . . + % % % % % & $ $ : , , , , < , , , , , , , $ $ & % % % % * + . . Y |.|.|.|.|.|.|.}.|.|.{.{.",
"R.|.|.|.|.}.[.G.!.}.}.}.[.{.c.I . . + % % % % % % % % $ - - - - - - - - - - - $ % % % * % % % % + . . Y |.|.|.|.}.|.|.|.|.|.|.{.",
"E.}.}.}.}.}.[.W.^.[.}.[.[.[.F.s . . O % % % % % % % % ; - - - - - - - - - - - $ % % % % % * % % + . . Y |.|.|.}.}.|.|.}.}.}.|.{.",
"K.!.^.}.}.^.!.Y.~.[.^.}.}.[.}.h.E E y O O + * % % % % & $ $ $ $ $ $ $ $ $ $ $ $ % % % % % + O O p #.#.v.|.|.}.[.}.}.}.}.}.}.}.{.",
"D.s.y.4.4.y.W.W.^.[.}.}.}.}.}.}.}.).d . . + % * % % % % % % % % % % % % % % % % % % % % % + . . Y ).).|.|.|.}.}.|.}.}.}.}.}.[.[.",
"g.a.F.W.F.,.c.V.^.[.[.}.}.[.}.[.{.).d . . + % % % % % % % % % % % % % % % % % % % % % % % + . . Y ).).|.|.}.|.}.}.}.}.}.}.[.[.}.",
"U.4.3.A.S.V.;.j.L.!.[.[.}.[.}.[.[.).9.-.-.p O O + O O O O O O O O O O O O O O O O O O O O p -.-.h.).R.|.|.}.}.}.}.}.}.}.[.}.[.|.",
"U.~.L.3.~ L.V.V.^._.[.[.[.}.[.[.}.].R.|.|.U . . . . . . . . . . . . . . . . . . . . . . . U }.[.}.).E.|.}.}.}.}.}.}.}.}.}.}.}.|.",
"I.[.^.0.4.W.<.W.[.[.[.[.[.[.}.[.}.).E.}.}.U . . . . . . . . . . . . . . . . . . . . . . . U }.}.}.).E.|.}.}.}.}.}.}.}.[.}.}.}.|.",
"E.}.}.a.! u.F.^.'.[.[.}.}.[.[.}.[.).$.i i 0 8 9 h k g f > > > > > > > > > > > f k j h 7 8 0 i i =.).E.|.|.}.}.}.}.[.[.}.[.}.}.|.",
"E.}.'.S.W.!.[.[.[.}.[.[.[.}.'.[.}.).J - - 2 n m B Z Z l g g g g g g g g g g g l Z Z B m m 7 - - R Q.(.}.}.}.}.[.^.~.`.[.[.}.[.|.",
"I.}.'.Q.^.}.[.[.[.}.[.[.[.[.[.{.}.).F , - 2 m m B Z Z l g g g g g g g g g g g l Z Z B m m 2 - - T H._.|.}.}.[.^.v.T.~.[.}.[.[.|.",
"E.}.'.[.[.}.[.[.[.[.[.}.[.}.[.>.S S N / / ) ) ) A Z Z C x x x x x x x x x x x C Z Z A ) _ ( V / N u S 6.}.}.}.[.^.~.^.[.}.[.}.}.",
"R.[.[.}.[.[.[.[.[.[.[.[.[.[.}.*.1 1 m _ _ _ _ _ A Z Z Z Z Z Z Z Z Z Z Z Z Z Z Z Z Z A _ _ _ _ _ m 1 1 *.}.}.[.}.}.[.[.~.'.[.[.}.",
"K.}.[.[.[.[.}.[.[.[.[.}.[.[.[.&.1 1 n _ ` _ _ _ A C Z Z Z Z Z Z Z Z Z Z Z Z Z Z Z C A _ _ _ _ _ m 1 1 *.}.[.}.}.[.[.[.^.'.[.[.`.",
"z.K.K.U.U.R.K.K.K.U.K.K.K.U.K.X.1 1 / +.+.] ` _ V h 2 z Z Z Z Z Z Z Z Z Z Z Z z h h V _ _ [ +.+./ 1 1 O.~.'.`.~.~.~.Q.Q.Q._.E.I.",
"N.{.`._.p.R.T.E.E.Q.E.D.v.R.R.$.1 1 ( @.@.{ _ _ m 1 1 j Z Z Z Z Z Z Z Z Z Z Z j 1 1 m ` _ { @.@.( 1 1 $.].`._._.Q._._._.`.].`.U.",
"E.|.|.|.W.c.c.1.a.Z.V.Z.^.|.|.*.1 1 ( @.@.{ _ ` m 1 1 j Z Z Z Z Z Z Z Z Z Z Z j 1 1 m _ _ { @.@.( 1 1 *.|.|.}.}.}.[.^.F.'.[.[.'.",
"E.|. X|.|.}.Q.W.^.}.^.^.|.|.|.`.U.P...8 8 8 2 2 5 r e r t t w t t t t t t t t r 4 e 4 7 8 8 2 8 O.P.M.`.}.[.}.[.}.'.S.B.L.'.'.}.",
"). X|.|.|.}.}.[.^.^.|.}.}.}.|.}.}.}. .1 1 1 1 1 4 e e e e e e e e e e e e e e e q e 4 1 1 1 1 1 &._.(.|.|.}.'.!.^.L.8.<.<.Q.'.|.",
"E.|.|.|.|.}.}.}.^.^.^.}.}.}.}.}.|.}.X.1 1 1 1 1 4 e e e e e e w e e e e e e e e e e 4 1 1 1 1 1 *._._.|.[.[.'.A.a.1.;.D.1.W.[.}.",
"R.|.|.|.|.}.}.}.^.}.[.}.}.}.}.}.}.[.H.J.J.H X X & e e e e e ; q q * * * q e e e e e % X X H J.J.Q._._.[.}.[.'.J.1.8.T.^.Q.L.^.}.",
"R.|.|.|.}.}.|.}.}.}.}.^.|.}.}.}.}.|.U.'.'.H . . % e e e e e 4 * % * * * q e e e e e % . . Y [.'.'.`._.}.^.^.W.G.Y.Y.!.[.F.1.5.^.",
"R.|.|.|.|.}.}.}.}.}.}.}.}.}.}.}.}.|.K.B.2.G . . + e e e e e q * * * * * q e e e e q + . . U '.'.^.U.U.^.^.G.C.!.^.[.[.[.[.W.V.!.",
"R.|.|.}.}.}.}.}.}.}.}.|.}.}.^.|.}.|.8.1.C.s     9 _ _ _ ) _ 9 . . . . O 7 _ _ _ _ _ 7   . G W.W.!.B.B.j.i.y.G.^.[.^.}.[.[.[.!.^.",
"R.|.|.}.[.}.}.}.}.}.^.}.^.}.}.}.[.|.9.c.W.s     5 _ _ _ _ _ 9 . . . . . 9 _ _ _ _ _ 7     s V.4.i.y.T.^.^.F.y.!.[.[.[.[.[.[.^.}.",
"E.|.|.|.}.}.}.}.|.|.}.}.}.}.}.^.}.|.H.W.u.p     7 _ _ _ _ _ 9 . . . . . 9 _ _ _ _ _ 7     G Q.'.W.j.U.}.}.[.F.G.[.^.^.Q.!.!.W.[.",
"R.|.|.}.}.}.}.}.}.^.}.^.}.}.}.|.}.|.U.[.y.B.<.;.F - - - - - P |.H.L.<.A.J - - - - - J 8.y.Q.'.[.[.W.U.[.[.[.Y.C.~.Q.Z.<.p.F.V.[.",
"R.|.|.}.}.}.}.}.}.[.|.}.^.}.}.}.}.[.E.[.^.i.C.S.L - - - - - P [.K.'.'.'.P - = - - - J a.V.W.'.'.'.Q.H.[.[.^.W.A.t.a.,.A.Z.p.~.}.",
"m.`.~.~.~.~.~.~.~.~.~.~.~.~.~.~.`./.m.^.Q.!.L.L.Q.Y.U.W.Q.Q.Q.U.f.Q._.Q.Y.0.;.8.;.<.<.r.p.c.U.Q.Q.K.x.'.Q.Y.~.~.W.Z.<.8.! ! D.R."
};
