/* XPM */
static char *result[] = {
/* columns rows colors chars-per-pixel */
"64 64 200 2 ",
"   c black",
".  c #1D130E",
"X  c #181514",
"o  c #1C1C1C",
"O  c #201713",
"+  c #231A19",
"@  c #36182D",
"#  c #361A2D",
"$  c #242324",
"%  c #2C2C2C",
"&  c #35202F",
"*  c #3C2E38",
"=  c #373737",
"-  c #383635",
";  c #3D3639",
":  c #3A393A",
">  c #4C153A",
",  c #461A38",
"<  c #55173A",
"1  c #66182C",
"2  c #681A3D",
"3  c #5F2F2C",
"4  c #4C3325",
"5  c #44342C",
"6  c #55302C",
"7  c #462039",
"8  c #483839",
"9  c #7C2937",
"0  c #5F402F",
"q  c #744938",
"w  c #5A1845",
"e  c #5E1C49",
"r  c #661C4E",
"t  c #681C4D",
"y  c #6A1E52",
"u  c #721F57",
"i  c #721F58",
"p  c #572E47",
"a  c #612F4B",
"s  c #62314B",
"d  c #672653",
"f  c #7A215D",
"g  c #76345C",
"h  c #79365D",
"j  c #7E2360",
"k  c #444243",
"l  c #484647",
"z  c #494748",
"x  c #59444A",
"c  c #545247",
"v  c #794D5D",
"b  c #646153",
"n  c #716D5B",
"m  c #767060",
"M  c #801D37",
"N  c #84273A",
"B  c #922244",
"V  c #9B2343",
"C  c #992553",
"Z  c #B0284C",
"A  c #832465",
"S  c #8B276B",
"D  c #99286F",
"F  c #883C68",
"G  c #942871",
"H  c #992976",
"J  c #9F2B7A",
"K  c #993677",
"L  c #A52D7F",
"P  c #B42E74",
"I  c #CC2F58",
"U  c #855941",
"Y  c #805E4C",
"T  c #A87458",
"R  c #B57A5A",
"E  c #8E576D",
"W  c #8C696D",
"Q  c #8F6870",
"!  c #976573",
"~  c #9F6D7B",
"^  c #8D7E70",
"/  c #A57F6F",
"(  c #BF805E",
")  c #968F75",
"_  c #BA8C73",
"`  c #AE9074",
"'  c #ADA77B",
"]  c #B4A37C",
"[  c #BAA47C",
"{  c #C88664",
"}  c #D5906B",
"|  c #E59A72",
" . c #E89E77",
".. c #A92E82",
"X. c #AA3A86",
"o. c #B23089",
"O. c #BB318B",
"+. c #BC3290",
"@. c #C53598",
"#. c #CC379D",
"$. c #D83AA6",
"%. c #E23CAE",
"&. c #E73EB2",
"*. c #B25D8B",
"=. c #A37682",
"-. c #B27A8A",
";. c #EC40B5",
":. c #F543BD",
">. c #FF45C4",
",. c #B2888B",
"<. c #A49983",
"1. c #B89A8C",
"2. c #BA9A93",
"3. c #AAA287",
"4. c #B8A687",
"5. c #BEAA84",
"6. c #BBA193",
"7. c #BBB395",
"8. c #C69F98",
"9. c #C1AC83",
"0. c #C4B38A",
"q. c #C6B489",
"w. c #CBB58B",
"e. c #CDBA8E",
"r. c #D3BB8E",
"t. c #D9BF8F",
"y. c #C6A49A",
"u. c #C9B697",
"i. c #CCBB93",
"p. c #C6BC9B",
"a. c #CBBE9B",
"s. c #D3BD93",
"d. c #F5B08A",
"f. c #FFBD99",
"g. c #CFADA0",
"h. c #CEBAA3",
"j. c #D2BAA3",
"k. c #D9BDA9",
"l. c #CDC195",
"z. c #CEC19E",
"x. c #D4C195",
"c. c #DAC396",
"v. c #D4C49A",
"b. c #DBC69A",
"n. c #D6C99E",
"m. c #DBCA9D",
"M. c #E2C99D",
"N. c #CEC3A4",
"B. c #CFC5A9",
"V. c #D4C5A3",
"C. c #DDCCA2",
"Z. c #D9C8A6",
"A. c #D3C5AA",
"S. c #D5CBAC",
"D. c #DACCAB",
"F. c #DED2A4",
"G. c #DED8A6",
"H. c #DCD2AC",
"J. c #D7CDB1",
"K. c #D9CEB1",
"L. c #DDD2B4",
"P. c #DDD4B8",
"I. c #E2CEA3",
"U. c #E3D2A5",
"Y. c #E9D3A6",
"T. c #E8DAA7",
"R. c #E4D4AA",
"E. c #EAD6AB",
"W. c #E6D8AD",
"Q. c #EBDAAD",
"!. c #F1DDAD",
"~. c #E2D6B3",
"^. c #EBD7B6",
"/. c #E5DAB5",
"(. c #ECDDB2",
"). c #E0D6B8",
"_. c #E6DCBA",
"`. c #EADDBA",
"'. c #F1DEB3",
"]. c #F1E1AF",
"[. c #EEE0B3",
"{. c #E7E0BB",
"}. c #EBE2BD",
"|. c #F3E2B5",
" X c #F4E5BA",
".X c #F9E7BB",
"XX c #F5E9BE",
"oX c #FAEABE",
"OX c #E5DCC0",
"+X c #EDE5C1",
"@X c #EEE9C5",
"#X c #F2E6C1",
"$X c #F3EAC4",
"%X c #FEEEC3",
"&X c #F4EEC9",
"*X c #FFF2C6",
"=X c #F6F1C9",
"-X c #FFF5C9",
";X c #FFF9CC",
":X c #FFFBD2",
/* pixels */
"L.OXA.S.S._.J.L.B.P.~.L.S.~._.^._.P._.@X@X}.}.}.G.G.N.H.{.}.}.{.S.L._.F._.~.).~.J.A.V.L.L.L.L.L.J.J.L.P.K.)._.`.).S.V.7.p.S._._.",
"J.*X XXXoXC.C.(.i.R.C.R.m..X-X-X-X@X}.;X*XoXXX[.W.[.G.l.G.[.-X:XB.e.l.x.v.oX-X-X-X-X-X-X-X%XI.%X;X+X+X;X;X Xs.'..X.XY.I.E.Y.XX-X",
"_.;X-X-X%Xb.E.w.5.x.F.v.v.G..X*X-X@X[.-X-XoXT.T.$XXX[.G.q.i.=X:XS.l.T.U.c.(.-X-X*X%X.XY.E.!.!.-X-X$X+X;X;X*X X'.oX.X'.w.5.U. X-X",
"~.;X;X-X-X%XM.E.E.m.e.I.oX|.(.*X*X{.l.T.T.G.Q.;X;X;X-X%XF.F.l.;XS.W.n.i.0.R.%X%X%X.Xv.'.(.'..X*X-X@X_.;X-X-X-X*X*X*XoX'.] ^.'.XX",
"S.;X-X-X-X%X%X.X.X*XoX%X*X*X*X%XoX}.{.oXoXoX-X;X;X;X;X-X*XXXn.[.N.|.W.l.a.i.F.'.'.b.Y..X%X'.%X*X%X$X`.;X;X-X*X-X-X-X%X Xs.i.s.r.",
"N.;X-X-X-X-X-X%X%X*X*X-X*X%XoX(.V.H./.oX;X-X-X-X;X;X;X-X-X-X*X[.A..XoX.X%XoXv.e.w.9.I.$X%X%X%X%X*X+X+X;X-X-X-X-X*X*X%X%XoX'.U.C.",
"V.;X-X-X-X*X%X%X%X*X*X*X*X*XXXQ.G.[.[.oX-X-X-X;X-X-X;X-X;X;X-X;XL.-X*X%X*X%X|.E.'.%X%X%X%X%X%X%X%X#X+X-X-X-X*X*X*X*X*X%XoX XC.c.",
"V.;X-X-X%X.X X(.oX%X*X*X*X*X*X|.[.XX{.-X-X-X-X-X;X-X-X;X-X-X-X;XP.-X-X*X*X%X%XXX`.%X%X%X*X%X%X%X%X+XOX-X-X*X*X*X-X%X%XXX|.C.c.s.",
"K.-X-X-X-X.X X XoX%X*X*X*X*X%X X[.}.@X;X;X;X-X-X-X-X-X-X-X;X=X:XJ.-X-X*X*X%X%X*X%X%X*X%X%X%X%X%X%X#XOX-X*X*X*X*X%X%X'.b.^.I.C.E.",
"S.-X-X-X%XoX.X'..X X.X%X*X%X%X|.|.}.}.;X;X-X;X-X-X;X-X-X-X-X-X:XL.-X-X-X-X%X*X*X%X*X%X%X%X%X*X#X X).+X*X*X*X*X*X-X%X.XE.E.r.[ I.",
"J.-X-X*X%X.X.XE.I.!.b.|.|.b.(.Q.Q.}.@X;X;X-X-X-X-X-X-X-X-X-Xg.=.! ~ ~ ~ #X%X%X-X*X%X*X%X%X%X%X'.E.a.+X*X*X*X*X*X%X%X%X$X|.Y.s.^.",
"J.-X-X-XoX.X'. X'.s.I.w.w.b.e.'.[.@X}.;X-X-X-X-X-X-X-X-X-X-X,.r r r r r ^.*X*X%X*X*X%X%X%X%X%X^.C.S.+X-X*X-X*X*X%X-X*X%X X'..X*X",
"L.-X-X-X%X.X$X%XoXs.x.'.|.U.0.C.U._.}.;X-X*X*X-X-X-X-XXX`.^.-.f i i f f k.^.^.~.~.`.%X%X%X%X%X%X%X+X`.-X*X*X*X*X*X*X*X%X%X%X%X;X",
"J.;X-X-X-X%X%X*X*X Xv.0.5.m.C.s.[.[.}.;X-X*X-X-X-X-X-Xk.r r O.>.>.>.>.>.f r r $ $ m *X%X%X%X%X%X%X+X+X-X*X*X*X%X%X*X%X*X%X%X%X;X",
"J.-X*X*X-X%X%X-X%XoX X|.] R.R.0.[.}.}.;X;X-X-X-X-X*X-Xk.r r o.>.>.>.>.>.f r e $ $ m -X%X%X%X%X%X%X+X`.*X%X*X%X`.%X*X*X%X*X%X*X;X",
"A.-X*X-X-X%X-X*X%X%XoX X] 0.s.R.oX@X}.;X-X-X-X-X-X,.,.-.o...@.$.$.$.$.$.+.o...& , Q %X%X*X%X%X%X%X+X^.E.%X%X%X%X%X*X%X*X%X*X*X-X",
"S.-X-X-X*X%X-X%X%X%X%X Xw.E. XoX%X+X_.;X-X;X-X-X-Xt t S >.>.$.o.o.o.o.o.>.>.&.y t ~ %X%X*X%X%X%X%XOXZ.Y.'.oX%X%X%X*X%X%X%X*X*X-X",
"J.L.`._._._._._._._./.D.Z.~./.)._.L.J.+X}.}.+X}.{.t r S >.>.$.o.o.o.o.o.:.>.&.r t ! L.).^.'.`.`.`.~.7.5.0.(.XXoXXXXXXX#X X`._.OX",
").&X$X&X&X#X`.Z.u.i.u.u.Z.R.V.v./._._.=.h h h h g ;.;.$.+.+.O.o.o.o.o.o.+.+.@.&.&.@.g g g g g A.}.~.h._.H.{.#X#X#X$X#X$X#X`.`.#X",
"_.:X;X;X;X-X*X%X XR.b.0.l.e.Q.oX%X-X}.~ r t t t t >.>.&.o.o.o.o.o.o.o.o.o.o.+.>.>.@.r r r r r k.-X@X@X;X;X;X;X-X-X-X-X-X-X-X-X;X",
"OX;X;X-X-X-X%X%X#XI.r.s.b.E.%X%X_.y.2.*.J J A A A %.%.$.o.o.o.o.o.o.o.o.o.o.o.%.%.+.A A G L J -.y.2.$X;X;X-X-X-X*X%X-X-X*X*X-X;X",
"OX;X-X-X-X*X%X'.R.s.r.s.s.I.'.%X8.r r @.>.>.@.o.o.o.o.o.o.o.o.o.o.o.o.o.o.o.o.o.o.o.o.o.%.>.>.S r r %X-X-X*X*X*X`.%X*X*X*X-X*X;X",
"+X-X-X-X*X'.Z.E.I.I.I.'.R.Y.^.%X8.r r +.>.>.@.o.o.o.o.o.o.o.o.o.o.o.o.o.o.o.o.o.o.o.o.o.$.>.>.S r r -X%X|.'.*X-X*X%X*X-X*X*X*X-X",
"}.;X-X-X%X.X'.'.r.[ I.!..X$X%X%X8.r r ..@.@.O.o.o.o.o.H r r t t r r r e r t y o.o.o.o.o.@.@.@.A r r -X.XU.E..XoX*X%X*X*X*X*X*X;X",
"`.-X-X-X-X*X$X.XE.v.Y. X%X%X%X%X8.r r H o.o.o.o.o.o.o.G > > > > > > > > > > w o...o.o.o.o.o.o.f r t  XU.w.5.U.%X%X-X*X*X*X%X*X;X",
"+X;X-X-X*X*X%X'.'..X%X*X*X*X*X*Xg.h h K ....o.o.o.L ..G > > > > w > > > > > w ......o.o.......F h g m.] C.v.m.%X*X*X*X*X*X-X*X;X",
"_.-X-X*X-X*X-X%X*X%X%X*X%X%X%X*X*X*X`.~ r r L o...> > > > > < t e r r r > > > > > u o.o.A r r k.*X/.i.U.oXXX!.|.%X*X*X*X*X*X*X-X",
"}.-X%X*X*X*X*X-X*X*X%X*X*X%X*X%X%X%XR.! r t J o.o.> > > > > r t r r r r > > > > > i o.o.A r r k.-X}.!. X*X%Xc.w.E.%X%X-X*X*X%X*X",
"_.%X X*X*X*X*X%X*X%X*X%X%X*X%X%X*X$XR.W # # r i i > > > w w t t r r r r w w w > > w i i 7 # # N.*X}.*X-X*X*XoXT.R.XX*X*X*X*X%X%X",
"_.*X*X*X*X*X*X-X*X*X*X*X*X%X*X%X%X$X`.n o o @ > > > > > y y t t r r r r r r r > > > > > @ o o 7.*X}.oX-X-X-X*X*X X%X*X*X*X%X|.$X",
"/.*X*X*X-X-X*X%X%X%X*X%X%X%X%X*X*X`.+Xn o o @ > > > > w t t t t r r r r r r r > > > > > $ o X z.-X}.#X-X-X-X*X*XoX*X*X*XoX|.C.R.",
"S.`.$XoXXXXXXXXX#X#XXX X#X X X X<.o o % = = = = = f.f._     v M.f.f.f.f.O   X f.f._ = = = - = $ o o W.oXoXoX.X.X|.%X%XXXm.[ [ S.",
"P.{.$X@X$X#XXX}./.@X}.}.{.K.K.N.) o o % = = = = = f.f.{     Y f.f.f.f.f.O   O f.f._ = = = = = $ o o B.L.z.V.H.S.~._.L.p.' z.H.K.",
"_.:X;X;X;X-X.XU.n.oX-X*X=X[.' W.<.o o % = = = = = d.d._     Y f.f.f.f.f.O   X d.d.) = = = = = $ o o {.;X;X:X;X;X;X;X*X-X*X;X;X&X",
"+X;X;X;X;X;XoX|..X-X-X;X-XXXT.].) o o % = = = = = | | T     Y f.f.f.f.f.O   . | | T = = = = = $ o o @X;X;X;X;X;X;X;X;X-X;X-X;X$X",
"{.;X;X;X-X;X*X].oX-X-X;X*X*XF. X) o o % = : = = = | | T     U M.f.f.f.f.O   . | | T = = = = = $ o o }.;X;X;X;X;X;X;X;X;X;X;X;X=X",
"}.-X-X;X;X*XoX|..X*X-X*X*XoX[.F.z.3.V.b o o - = = 0 0 U { { }  . . . . .{ { R 0 3 0 = = $ o $ 7.G.J.}.;X;X;X;X-X-X-X;X-X-X-X;X=X",
"/..X.X-X*XoXoX]..X*X*X-X-X*X*XoX|./.{.n o o % : = 4 4 q | | | | | | | | | | } 4 4 5 = = $ o o p.;X@X+X;X;X;X-X-X;X;X-X;X-X-X*X=X",
"R.Y.c.r.x.c.|.|.oX*X*X*X-X-X*X-X*X@X}.) c c 8 * - 3 3 q ( ( ( ( ( ( ( ( ( ( T 3 3 3 * * 0 z c S.=X@X@X;X;X;X-X-X-X-X;X-X;X*X*X=X",
"n.m.Q.|.Q.5.F.U.oX*X*X-X*X-X-X-X=X+X+X*X-X=Xv > > V B B 4 4 4 4 4 4 4 4 4 4 6 V V t , , 6.:X*X-X;X@X@X;X;X;X-X-X-X-X*X;X*X*X*X-X",
"/.s.i.R.E.U.5.m.|..X*X*X-X-X-X*X*X@X+X-X-X*Xv > > V V N 4 4 4 4 4 4 4 4 6 4 3 V V M w > 2.-X-X-X-X@X}.;X-X-X-X-X-X-X;X*X-X-X-X;X",
"`..XQ.i.[ (.R.R. XXX*X-X*X*X*X*X-X&X}.6.Q Q F i j P P P 9 9 9 9 9 9 9 9 N M N N V B j i E Q Q /.-X@X}.;X-X-X-X-X-X-X*X-X-X*X*X;X",
"_.%X%Xs.e.|.9.|.%X*X*X*X-X-X-X*X*X@X}.Q > > S J H #.#.O.V V V V V V N V V N V N V C H H y > > j.*X@X}.;X;X-X-X-X-X;X-X-X-X-X-X;X",
"}.-X*Xm.[ v.].oX%X*X*X-X*X*X*X*X*X@X}.Q > > S J J #.#.O.B B V V V V V Z V V Z Z V C D D t > > j.-X@X}.;X-X-X-X-X-XoX-X*X*X-X-X;X",
"{.-X%XE.].oX%X*X*X*X*X*X-X*X%X*X-X@X_.~ y r o.#.#.#.#.o.r r C I I I I I I I I I I Z V V t > > j.*X@X}.;X-X-X-X*XXXXXoX*X*X*X-X;X",
"{.-X%X X%X*X*X*X-X*X*X-X*X*X=X*X-X+X^.~ t r o.#.#.#.#.o.r r C I I I I I I I I I I I V V 2 > > j.XXH.#X;X-X-X-XoXG.[.XX*X-X*X*X;X",
"}.-X%X*X*X-X*X*X*X*X*X-X*X*X*X*X%X+X^.~ r r @.&.;.#.#.o.r r C I I I I I I I I I I Z M M 1 > > u.T.z.#X;X-X-X-X*XoX$XoX=X*X-X-X-X",
"}.*X%X-X*X*X-X*X-X*X*X*X*X*X*X-X*X&X~.! r t $.>.>.#.#.o.r r C I I I I I I I I I I V 1 1 < > > y.oX{.$X;X-X-X*X-X*X-X*X.X*X*X*X-X",
"_.-X*X*X-X-X*X*X*X*X*X*X*X*X*X*X*X@Xz.E t r $.>.>.#.#.o.y r C I I I I I I I I I I Z 1 1 < > > a.%X{.}.;X-X-X*X-X*X*X%XoX%X=X*X$X",
"A././._.{./././._././._._._././._.L.7.u.4.4.F i i u i d ; ; p z x x x x x x x x p 8 $ + ^ h.h.Z._.K.L.}.$X%XXX$XXXXXXXXX XXX X_.",
"P.=X$X$Xn.}.{.XX}. X}.W.H.{.}.[./.h.+X/./.}.E r t y t e : : k z l l l l z z z z z : o o <.$X$X$X$X_.+X&X&X$X#X#X X#X#X#X$X$X#X`.",
"}.;X;X;X].F.F.q.m.T.Y.U.XX;X;X;X-X/.+X-X;X;X2.~ ~ , , 7 : : : k k l k l l z l l z = o o 3.-X-X-X*X$X+X;X;X-X-X-X-X*X.XQ.%X*X*X=X",
"}.;X:X;X;X-X X[.oX-XoXoX;X;X-X;X;X=X#X;X-X*X-X-X-XX X o : : : : = : : : l l l l z = o o 3.*X*X*X-X#X$X;X;X-X-X-X-X%XE.R.'.%X%X-X",
"@X;X;X;X;X-X-X*XoXoX-X-X-X;X;X-X;X=X+X-X-X-X-X%X-XX X + : : : : = : : : l l l l z = o o 3.*X*X*X*X#X+X-X-X-X%X.XoXQ.i.0.0.XX%X;X",
"}.;X;X;X;X-X-X*XoXoXoX-X*X;X-X-X-X=X+X-X-X*X*X-X*Xp.p.<., , & $ $ $ $ $ K X.X.X.X.S , @ 6.*X*X*X*X#X+X;X-X*XoXR.m.0.5.R.0.|.%X;X",
"}.;X;X;X;X-X-X-XoX-X*X;X*X-X-X-X-X*X+X-X*X*X-X%X*X*X%Xj.> > # o o o o o o.#.#.#.@.J > > 2.%X*X*X%X#X#X-X-X*X%XQ.q.i.(.%X|.Q.%X-X",
"{.;X;X;X*X;X;X-X-X-X-XoX;X-X-X-X-X-X}.%XoXoX%X%X%X%X%XZ.a a 8 - = - - - L O.O.O.O.J a a y.-X*X%X*X#X#X-XoX.X.X!.|.].oX*XQ.w.r.oX",
"{.;X;X;X;X-X*X-X-X-X-X-X-X-X-X-X-X-X/.I.w.b.'.%X%X%X%X%X|.Y.c.R./.-X-X*Xs > > > > Q *X%X*X*X*XoXoX|./.oXoX!.Y..XoX*X%X*X%X|.U..X",
"{.;X;X;X;X*X;X-X-X-X-X;X-X-X-XoX-X;Xi.w.E.s.M. X'.%X'.M.t.!.|.|.L.*X*X.Xp > > > > Q %X%X%X.X|. X XY.D.M.b.t.!..X*X*X*X*X*X*X.XoX",
"{.;X;X;X*X*X-X-X-X-XoX-XoX-X-X;X-X;Xa.C.|.q.C.s.^.E.E.w.Q..X%X-X/.*X'.M./ / ` 1.1.g.%X'.Y.b.Y.r.b.v.(.*XoXQ.c..X%X*X*X*X*X*XoX-X",
"{.;X;X;X*X;X*X-X-X-X-XoX-X-X-X-X-X;X~. Xv.v.R.w.I.m.I.v.[.%X*X-Xu.7.i.v.`.R.` Y.(..X'.I.s.Q.XX%X|.C.`.*X-X*XT.].*XoXoX X.X.X|.*X",
"{.;X;X-X;X*X;X*X*X-X-X=X-X-X;XoX-X;X/.*Xv.Y.0.4.s.Z.z.i.F.|.%X-XG.(.0.I.^.m.C.v.i.R.I.r.b. X%X*X%X X`.*X-X*X'.U..X XQ.0.m.Q.T.=X",
"{.-X-X-X;X-X;X-X-X*X*X*X-X*X-X-X-X=X}.*XoXb.E.Y.b.w.I. X'.(.%X*X~.*X%X*XQ.q.W.0.C.s.C.n.U.|.%X%X*X|.~.*X-X.X XR.x.m.5.T.R.n. X-X",
"S.=X$XoXXXXXXXXXXXXXXXXXXXXXXXXX$X_.L.XXXX.X(.(. X|.|. X}. X|.`.B. XXXXX(.s.[ a.4.0.0.v.n.F.(.#X X/.D.%X.X(..XXX[.T.q.e.] ] W.}."
};
