/* XPM */
static char *result[] = {
/* columns rows colors chars-per-pixel */
"64 64 197 2 ",
"   c black",
".  c #13050E",
"X  c #1D130E",
"o  c #1C1B1C",
"O  c #241A1A",
"+  c #2E1B26",
"@  c #311D22",
"#  c #232323",
"$  c #2C2329",
"%  c #2B2B2B",
"&  c #3A2834",
"*  c #373737",
"=  c #393733",
"-  c #3B3A3A",
";  c #4C1221",
":  c #5B1728",
">  c #4C153A",
",  c #4A1A3A",
"<  c #5A1737",
"1  c #66182C",
"2  c #6F1F34",
"3  c #771C33",
"4  c #463023",
"5  c #4C3325",
"6  c #58332D",
"7  c #432639",
"8  c #43303D",
"9  c #60253A",
"0  c #664432",
"q  c #724D38",
"w  c #76513D",
"e  c #591844",
"r  c #5A1845",
"t  c #6C1B41",
"y  c #661C4E",
"u  c #701E55",
"i  c #592847",
"p  c #473541",
"a  c #503E4A",
"s  c #61304C",
"d  c #79215D",
"f  c #763459",
"g  c #793261",
"h  c #444344",
"j  c #494748",
"k  c #494949",
"l  c #545045",
"z  c #59554A",
"x  c #784A5A",
"c  c #6B5256",
"v  c #635F54",
"b  c #785260",
"n  c #787363",
"m  c #8F2743",
"M  c #9A2342",
"N  c #972845",
"B  c #A52648",
"V  c #B93054",
"C  c #802262",
"Z  c #8C266C",
"A  c #872C69",
"S  c #8C316E",
"D  c #932871",
"F  c #992976",
"G  c #9F2B7A",
"H  c #953074",
"J  c #B32D6E",
"K  c #A42C7F",
"L  c #A82D7B",
"P  c #CC2F58",
"I  c #865743",
"U  c #945C4F",
"Y  c #8F6047",
"T  c #96654A",
"R  c #8E6A54",
"E  c #AC7356",
"W  c #864A68",
"Q  c #8C526C",
"!  c #815B68",
"~  c #955A74",
"^  c #906E6F",
"/  c #877A63",
"(  c #9A6575",
")  c #9F6B7B",
"_  c #9C7878",
"`  c #B5716C",
"'  c #8E8771",
"]  c #978B72",
"[  c #A58374",
"{  c #A69476",
"}  c #B39D7A",
"|  c #ADA77B",
" . c #B4A37C",
".. c #BAA47C",
"X. c #CF8E6A",
"o. c #E59A72",
"O. c #AE2F87",
"+. c #A73883",
"@. c #B23089",
"#. c #BA318E",
"$. c #BC3290",
"%. c #C83797",
"&. c #CB369C",
"*. c #D93BA6",
"=. c #DA3AA7",
"-. c #E23DAD",
";. c #EB3FB5",
":. c #B74990",
">. c #A97584",
",. c #EB40B6",
"<. c #F442BC",
"1. c #FF45C4",
"2. c #A58381",
"3. c #A98188",
"4. c #B28688",
"5. c #B2898C",
"6. c #B3928B",
"7. c #BA9D92",
"8. c #BEAA84",
"9. c #BBAB89",
"0. c #BBA593",
"q. c #BBB394",
"w. c #D99586",
"e. c #C39C97",
"r. c #C1AC83",
"t. c #C4B38A",
"y. c #C6B489",
"u. c #CCB58B",
"i. c #CDBA8E",
"p. c #D3BB8E",
"a. c #D9BF8F",
"s. c #C5A29A",
"d. c #C7B897",
"f. c #CCBB93",
"g. c #CBBE9B",
"h. c #D3BD93",
"j. c #FDBB97",
"k. c #D3BAA4",
"l. c #D6BDA9",
"z. c #CCC19A",
"x. c #D4C195",
"c. c #DAC396",
"v. c #D4C49A",
"b. c #DBC69A",
"n. c #D6C99E",
"m. c #DBCA9D",
"M. c #E2C99C",
"N. c #CDC2A4",
"B. c #CFC5A9",
"V. c #D3C5A3",
"C. c #D3C7A7",
"Z. c #DDCCA2",
"A. c #D5CBAD",
"S. c #DACCAB",
"D. c #DED2A4",
"F. c #DED8A6",
"G. c #DCD2AC",
"H. c #D7CDB1",
"J. c #D9CEB1",
"K. c #DDD2B4",
"L. c #DED5B9",
"P. c #E2CEA3",
"I. c #E3D2A5",
"U. c #E8D5A6",
"Y. c #E5D4AA",
"T. c #EAD6AB",
"R. c #E6D8AD",
"E. c #EBDAAD",
"W. c #F1DDAD",
"Q. c #E2D5B3",
"!. c #E5DAB5",
"~. c #ECDDB2",
"^. c #E0D7BA",
"/. c #E6DCBA",
"(. c #EADDBA",
"). c #F1DEB3",
"_. c #F1E1AF",
"`. c #EEE0B3",
"'. c #E7E0BB",
"]. c #EBE2BD",
"[. c #F3E2B5",
"{. c #F4E5BA",
"}. c #F9E7BB",
"|. c #F5E9BE",
" X c #FAEABE",
".X c #E5DCC0",
"XX c #EDE5C1",
"oX c #EEE9C5",
"OX c #F2E6C1",
"+X c #F3EAC4",
"@X c #FDEEC2",
"#X c #F4EEC9",
"$X c #FFF2C6",
"%X c #F6F1C9",
"&X c #FFF5C9",
"*X c #FFF9CC",
"=X c #FFFBD2",
/* pixels */
"K..XA.A.A.^.K.L.C.L.Q.K.A.Q./.!./.L./.oX+X].|.'.F.L.n.G.`.'.'.'.A.G./.G.L.Q.L.L.H.C.V.K.L.J.L.K.H.H.K.L.J.Q./..X/.A.V.q.g.S./..X",
"H.$X[.|. XZ.V.E.z.Y.Z.Y.b.}.&X&X*X+X].*X$X X|._.F.`.F.f.F.{.&X=XB.i.x.x.c. X&X&X&X&X&X&X&X@XP.@X&XXXXX*X*X{.h.).}.}.U.P.T.P. X%X",
"/.*X&X&X$Xb.T.u.8.x.I.v.v.Y.}.$X*XoX`.&X&X XU.F. X|.`.F.y.z.%X=XH.z.U.I.c.`.$X&X&X@X}.P.T.W.W.$X&X+XXX*X*X$X{.).}.}.W.u.8.P.{.$X",
"Q.*X*X&X$X@XM.T.U.m.u.I.|.[.~.$X X'.z.U.E.F.E.*X*X*X*X+XD.m.z.*XA.R.n.f.f.E. X X@X{.b.~.~.). X$X$XoX/.*X*X&X$X&X$X$X@X~.} ~.[.|.",
"A.*X*X&X&X$X@X X X$X X@X$X X$X$X|.'.!. X&X X&X*X*X*X*X&X$X|.n.`.N.`.T.g.z.f.D.`.{.b.P.@X@X}.@X$X$XoX].*X&X&X&X$X$X$X@X{.h.f.h.p.",
"V.*X&X&X&X$X$X@X@X$X$X$X$X$X@XE.Z.G.'. X X&X&X*X*X*X*X*X*X&X$XE.C.}. X X X Xv.i.u.r.P.}.@X}.@X@X$XOX.X*X&X&X&X$X$X$X$X@X@X[.Z.Z.",
"V.*X&X&X&X$X@X@X@X$X$X$X$X$X XE.F.`.`. X&X&X&X*X&X&X&X&X&X*X*X*XK.*X$X@X$X@X[.T.).}.@X@X@X@X@X@X@XOXXX&X&X*X$X&X$X$X$X@X X{.P.x.",
"V.&X&X$X@XOX{.~. X@X$X$X$X$X$X[.{.].'.&X&X*X&X&X&X*X*X&X&X&X&X6.>.5.5.4.5.4.5.[ k.$X@X$X@X@X@X@X@XXX(.*X$X$X$X$X$X$X@X|.).I.x.h.",
"J.*X*X$X@X}.}.[. X@X@X$X$X$X@X{.~.XXXX*X*X*X&X&X$X&X&X&X&X&X&Xy y y y y y y y y s.@X$X@X$X@X@X@X@XOX.X&X&X&X&X$X$X$X).P.T.P.S.T.",
"A.*X$X&X$X@X}.).}.{.}.$X$X@X@X[.[.XX].*X*X*X&X&X*X&X*X*X&X&X&Xy y y y y y y y y s.@X@X$X@X$X@X X{.Q.XX$X@X$X$X$X$X@X).E.~.p.X.P.",
"H.*X&X$X@X XOXT.M.[.b.[.[.b.).~.E.].XX*X*X*X&X&Xl.Q Q Q Q Q Q G G F &.=.*.*.*.=.:.Q Q b z z z z l z XX&X&X@X$X$X$X@X$XOX{.Y.N.R.",
"J.$X$X$X}. X~.{.).h.M.i.u.b.f.E.`.XX].*X$X&X$X&Xs.y y y y y y @.@.O.1.1.1.1.1.1.F y y 7 # # # # # = .X&X&X&X$X@X$X$X@X@X).).{.&X",
"K.&X&X$X@X X X@X@Xh.x.[.[.I.t.Z.I.(.].*X&XOX(./.e.u u u u u u @.@.@.,.<.1.<.<.<.K d d i $ $ = - 8 z ].$X&X$X$X$X&X@X@X@X@X@X@X=X",
"H.*X&X$X$X$X@X$X@X[.v.t.8.b.Z.h.).(.XX*X$X5.y y C @.@.@.@.@.@.@.@.@.@.@.@.O.@.@.-.1.1.@.y y ) @X$X].].&X&X$X@X@X@X$X$X$X$X@X@X*X",
"H.&X&X$X$X$X$X$X$X+X{.[. .I.R.t.[.]..X*X*X5.y y C @.@.@.@.@.@.@.@.@.@.@.@.@.@.@.-.1.1.@.y y ( @X@XXX].$X$X@X@X(.@X$X$X@X$X@X@X*X",
"A.&X&X&X$X$X$X$X@X@X X[. .y.x.4.4.3.3.5.5.~ C C D @.@.@.@.@.@.@.@.@.@.@.@.@.@.@.&.*.*.G y y ) @X@X].~.E.@X@X@X@X@X@X$X@X$X$X@X*X",
"B.&X$X&X$X$X$X$X@X@X@X{.u.T.[.Q y y y y y C F F G O.@.@.@.@.@.@.@.@.@.@.@.@.@.@.@.@.O.Z y y ) @X@X.XZ.I.~. X@X@X@X$X$X$X@X$X@X*X",
"K.J.(./././././././.!.S.S.Q.Q.W y y y y y d F F O.@.@.@.@.@.@.@.@.@.@.@.@.@.@.O.@.@.@.Z y y ( (.(.Q.9.9.t.~.|. X+X{.{.{.].(.(..X",
"^.#X#X#X+XOX(.S.d.f.t.d.~ W W A Z Z Z Z Z F F F F G F O.@.@.@.@.@.@.@.@.@.d y y y y y ) l.k.L.OXXXL.B./.G.].OXOX+X+XOX+XOX(.(.OX",
"/.*X*X*X&X&X@X@X{.Y.m.y.f y y Z F F F F F F F F F F F G @.@.@.@.@.@.@.@.@.y > > > > > 3.&X&X*X$X$X+XXX*X*X*X*X&X$X&X&X&X&X$X$X=X",
".X=X=X&X&X&X$X@X{.P.p.h.f y y Z F F F F F F F F F F F G @.O.O.O.O.O.K K K y > > > > e _ /.(.OX$X&XXX+X*X&X&X$X*X@X$X$X&X$X$X&X=X",
".X&X&X&X&X&X@X).Y.v.i.v.f y y Z F F F F F F F F F F F F F F F F F F e > > > > > r y y y y y ) $X$XXX@X*X&X&X$X$X{.@X$X&X$X&X$X*X",
"(.*X&X&X&X).Z.T.Y.Z.P.).f y y Z F F F F F F F F G F F G F F F F F G e > > > > > e y y y y y ) $X$XXX$X@X[.).$X$X@X@X$X$X$X$X$X*X",
".X*X&X&X$X).~.~.g.X.P.).7.>.5.S C C C C C C C d C C d C C d C d C d > > > > > > e e e e e e x 2.2.2.$X|.P.T.}.@X$X@X$X$X$X$X$X*X",
"XX*X$X$X$X$X@X{.Y.h.Y. X@X@X@XQ y y y y y y y y y y y y y y y y y y > > , > > > > > > > > > > > , i {.I.y.8.Y. X@X$X$X$X$X$X$X*X",
"].&X&X&X&X$X@X{.).}.@X@X@X$X@XQ y y y y y y y y y y y y y y y y y y > > > > > > > < > > > > > > > i m. .Z.b.m.$X$X$X$X$X@X$X$X*X",
"/.*X&X$X&X$X$X@X@X$X$X$X@X$X@Xc + + & 8 8 8 8 - p a a a a a a w.w.w.@ . . U ` X.I 6 6 / k.k.k.k.k.k.t.Y. X XE.[.@X$X$X$X$X$X$X*X",
"].$X$X$X$X$X$X$X$X@X$X@X$X@X@Xl o o % - * * * * - k j j k k k j.j.j.O     E o.o.T 0 q } $X$X&X$X$X]._.}.$X@Xc.u.E.@X$X$X$X$X$X@X",
"/.@X}.$X$X$X$X$X$X$X@X$X@X@X$Xl o o % * * * * * - k k k k k k j.j.j.O     E o.o.T 0 0 } &X$X$X$X$X].$X$X$X$X XT.Y.|.$X$X$X$X@X@X",
"(.$X$X$X$X$X$X$X@X$X$X$X$X@X$Xl o o % * * * * * - - * - k k k o.o.o.X     E o.o.I 5 4 { $X$X&X$X$X].%X$X*X$X$X$X{.@X$X$X$X@X{.+X",
"!.$X$X$X$X$X$X$X$X@X$X$X$X@X$Xl o o % * * * * * * * * - k k k o.o.o.X     E o.o.I 5 4 { &X&X$X$X&X].|.$X*X$X$X$X@X@X$X$X@X`.Z.P.",
"A.(.+X X+X X|.|.OXOX{.{.OX{.(.{ / n h % % * * * * * * - h - h R R R w q q Y T T R / ] z.%X X$X$X$X'.Q. X X X[. X`.@X@X|.m.....S.",
"L./.#X+X+X+X{.].!.oX].'.'.K.A.B.L.K.v o o % * * * * * * * * * * = = X.o.o.q 5 5 { B.B.H.H.L.L.Q.K.K.A.K.z.V.G.A.K.'.K.d.| z.G.K.",
"/.=X*X*X*X&X{.D.n. X&X$X&XR.| R.+XXXv o o % * * * * * * * * * * * * X.o.o.q 5 5 9.*X=X=X*X*X*X*X*X'.'.*X=X*X*X*X*X*X$X&X$X*X*X%X",
"XX*X*X*X*X&X X[.}.&X&X*X&X XU.`.R.oXg.N.q.n # # # # # # # # # # + o 0 q q 9.V.z.OX*X*X*X*X*X*X*X*XoXoX*X*X*X*X*X*X*X*X$X*X*X*XoX",
"'.*X*X*X*X&X$X_. X&X*X*X*X|.D.{.!.XX'.*X*X' o o o o o o o o o o o o 4 5 5 V.&X$X$X*X*X*X*X*X*X*X*XoX].*X*X*X*X*X*X*X*X*X*X*X*X%X",
"].$X*X*X*X&X$X[. X&X&X&X$X$X_.m.m.d./.$X&X' O O O + O + @ @ @ @ @ O 5 6 5 0.(./.+X*X*X&X$X*X*X&X&XoX].*X*X*X*X*X*X&X&X&X&X*X&X%X",
"!.}. X$X$X X}._.}. X X&X&X$X$X$X{.!.'.&X$X[ ; ; 1 M M B P P P P P P B M M 9 > > 7.&X*X*X*X*X$X*X&XoXXX*X*X*X*X$X&X*X&X&X$X*X$X%X",
"T.P.c.p.p.c.[.[. X&X&X&X&X&X$X*X$XoX'.&X$X[ ; ; 1 M M B P P P P P P B M M < > > 7.&X&X&X&X&X*X$X&XoXXX*X*X*X&X$X&X&X&X&X&X$X$X&X",
"V.m.E.[.E.r.D.I. X X&X&X$X*X$X$X$XoX0.[ [ x : : 2 M M B P P P P P P J J J L K K >.5.5.C.*X$X$X&X&XoXoX*X*X*X&X&X&X&X&X&X&X&X$X&X",
"!.p.i.U.E.I.8.m.[.}.$X$X$X*X*X$X$XoX! > > < 1 1 3 M M B P P P P P P %.&.&.<.1.1.G y y 5.$X$X*X&X$XoX].*X&X*X&X$X*X&X&X&X&X&X$X*X",
"]. XE.d...~.I.U.{.{.$X$X$X$X$X$X&X#X! > > < 1 1 3 M M B P P P P P P &.&.&.<.1.1.G y y 5.*X$X$X$X&XoX].*X*X&X&X&X&X&X&X$X&X$X&X*X",
"/.$X Xx.i.[.y.[.$X$X$X$X$X$X$X$X%XoX! > > < 1 1 3 M M B P P P t t 2 %.%.&.<.1.1.G y y 5.&X&X$X$X$XoX].*X&X&X&X&X&X&X&X&X$X&X&X*X",
"].$X$Xm. .v.~. X@X$X&X&X$X*X$X$X&XoX! > > : 1 1 3 M M B P P P > > > %.&.&.<.1.1.G y y 5.$X&X&X$X$XoX].&X*X&X&X&X$X$X$X&X&X&X&X*X",
"].&X@XT.). X$X@X&X$X$X$X$X$X$X$X$XoX^ s s 9 : : 2 m m N V V V , > > O.$.$.-.;.;.H f f 7.$X$X$X$X&XoX].*X&X&X$X$X|.|. X$X$X$X&X*X",
"'.$X@X{. X$X$X$X$X$X$X$X$X$X$X$X&XXX!.$X X' o o % k k h - - - - - * , > > r y y e.$X@X$X$X$X$X$X|.K.+X&X*X$X&X@XF.`.|.$X$X&X$X*X",
"].$X@X$X$X&X&X$X$X$X$X$X$X$X$X$X$XoX/. X)./ + o % k k h - - - - * - , > > y y y s.&X$X@X].{.|.}.R.z.|.*X&X&X&X$X|.|.+X$X&X$X$X*X",
"'.&X$X&X$X$X$X$X&X$X$X&X$X$X$X&X$XoX6._ _ W S S g k k p - - - % % % & 7 7 A F F ) >.2.d.T.I.{.{. X'.OX*X&X&X&X&X$X$X$X|.$X$X$X$X",
"/.$X$X&X&X$X$X$X$X$X$X$X$X$X$X$X$XXXb > > G <.1.$.k k h - - - o o o * - * +.&.&.u > > _ ).).(.@X$X'.XX&X$X&X$X$X$X&X$X+X@X$X$X+X",
"A.!.!./.(././.!././.Q././.'.!.Q./.K.x > > +.1.1.:.k j h - - - o o o * - * +.&.&.d > > _ J.Q.!.L.!.K.K.].+X@X+X|.|.|.{.{.|.{.{./.",
"^.%X+XOXn.`.`.].].|.`.R.G.`.].].!.N.! > > D =.*.$.+.+.S # # # o o o H +.+.$.&.&.d e > _ +X+X+X+X+X/.XX#X#X+XOXOX{.OX+XOX+X+XOX(.",
"].*X*X*X[.D.D.y.c.E.U.F. X*X*X*X$X/.! > > C &.&.&.&.&.+.o o o o o o @.&.&.&.&.&.u > > 3.$X&X&X&X$XoXXX*X*X*X&X&X&X$X}.E.@X$X$X#X",
"].*X*X*X*X&X`.|. X X X X*X*X*X&X*X%X^ s s S #.#.#.#.#.+.* * * = * = O.@.#.#.#.#.g s s 5.$X$X$X$X$X+X+X*X&X&X$X$X$X@XR.P.[.@X@X*X",
"oX*X=X*X*X&X&X$X X X&X&X&X&X&X*X*X%X].&X$X2.> > > > > x $X$X$X*XXX*Xi > > > > > 7.&X$X$X$X$X$X$X$XOXXX&X&X&X@X X@X).f.t.t.{.@X*X",
"].*X*X*X*X&X&X&X X*X X*X&X&X&X*X*X&X].&X$X3.> > > > > x $X$X@X&X/.*Xs > > > > , 7.$X$X$X$X$X@X&X$XOXOX*X&X$X@XT.b.y.8.R.t.[.@X*X",
"].*X*X*X*X&X&X&X X X$X*X$X&X&X&X&X&X].&X$Xk.2.2.2.2.2.7.$X$X$X&X].*X6.3.2.2.2.>.S.@X$X$X$X@X&X@X@XOXXX&X&X$X@XR.y.f.~.@X[.E.@X&X",
"'.*X*X*X&X&X*X&X*X*X&X X*X&X&X&X&X*X].@X@X X@X@X@X@X@X@X@X$X@X@X/.*X&X$X$X$X$X$X@X@X@X@X$X@X&X@X$XOXOX$X X X[._.[.E. X@XE.u.p. X",
"'.*X&X*X&X&X&X&X&X&X&X&X&X&X&X&X&X&XQ.P.u.c.).@X@X@X}.@X[.U.c.I./.$X$X$X$X@X@X@X@X@X@X&X&X@X@X@X X)./. X XW.U.}.@X$X$X@X$X[.I.}.",
"'.*X*X&X*X&X&X&X&X&X&X*X&X&X&X X&X*Xf.u.T.h.M.}. X@X).M.a.~.[.[.G.$X$X}.I.U.{. X@X@X@X@X@X@X).).{.P.Z.P.c.a.W. X$X$X$X$X$X$X}. X",
"'.*X*X*X$X$X&X&X&X&X X&X X&X&X*X&X*Xg.Z.[.y.V.h.~.T.T.u.T. X@X&X!.@X[.M.u.M.c.}.}.@X@X).T.h.T.p.b.b.(.@X@XW.c.[.@X$X$X$X$X$X X$X",
"].*X*X*X&X$X*X&X$X*X*X|.&X&X&X&X$X*XQ.{.v.v.R.t.P.m.P.v.`.@X$X&Xd.t.f.g.[.I.{ T.).}.).P.h.~. X@X{.m.(.$X&X$XE._. X X X[. X}.[.$X",
"'.*X*X&X&X&X&X&X&X$X$X$X&X&X*X X&X*X(.$Xb.P.t.8.f.V.x.g.D.[.@X&XG.~.y.Y.E.Z.V.v.f.P.I.f.c.{.@X$X@X{.(.$X$X$X_.U. X}.E.y.n.E.R. X",
"'.*X&X*X*X&X$X*X&X&X$X$X&X&X&X&X&X%X(.$X Xb.T.U.m.u.P.{.).~.@X&X!.@X@X$XE.y.E.y.V.v.Z.n.I.[.@X@X@X[.Q.$X$X|.{.R.x.m.8.R.R.n.|.&X",
"J.+X|.|.|.|.|.|.|.|.|.{.|.|.|.|.@X.XJ.OX{. X~.~.{.).[.{.].{.[.(.B.{.{.{.~.h.8.h.8.t.t.v.n.D.~.OX{.!.J.@X XE.}.|.`.R.y.i. . .R.'."
};
