/* XPM */
static char *result[] = {
/* columns rows colors chars-per-pixel */
"64 64 195 2 ",
"   c black",
".  c #1C1B1C",
"X  c #260A1D",
"o  c #39271D",
"O  c #242324",
"+  c #2C2C2C",
"@  c #35332E",
"#  c #3D2134",
"$  c #363636",
"%  c #3A393A",
"&  c #441722",
"*  c #4C1221",
"=  c #5F1729",
"-  c #441D37",
";  c #4C153A",
":  c #5C1631",
">  c #52173F",
",  c #66182C",
"<  c #7C1D3F",
"1  c #4C3325",
"2  c #56392B",
"3  c #5C3D2D",
"4  c #43273A",
"5  c #562A37",
"6  c #64303C",
"7  c #46443C",
"8  c #664432",
"9  c #624B39",
"0  c #76503A",
"q  c #5B1A46",
"w  c #6C1B42",
"e  c #661C4E",
"r  c #7C1E45",
"t  c #6B1C52",
"y  c #731F58",
"u  c #4E2942",
"i  c #582647",
"p  c #4B3A46",
"a  c #5D3841",
"s  c #57324B",
"d  c #612F4B",
"f  c #62314C",
"g  c #733545",
"h  c #79375D",
"j  c #70385E",
"k  c #7F2261",
"l  c #793865",
"z  c #434243",
"x  c #4E4A41",
"c  c #494748",
"v  c #494949",
"b  c #5A524C",
"n  c #594552",
"m  c #775A45",
"M  c #75584D",
"N  c #734C5C",
"B  c #794D5D",
"V  c #615D53",
"C  c #6E695B",
"Z  c #7C5662",
"A  c #8C243E",
"S  c #882848",
"D  c #992342",
"F  c #833449",
"G  c #AC284A",
"H  c #B62D50",
"J  c #832465",
"K  c #8C266B",
"L  c #892C6C",
"P  c #922A70",
"I  c #992976",
"U  c #9D2B79",
"Y  c #A32B7E",
"T  c #CC2F58",
"R  c #83594E",
"E  c #985756",
"W  c #94755D",
"Q  c #AC7557",
"!  c #8C566A",
"~  c #975E6C",
"^  c #9E4C7A",
"/  c #915E73",
"(  c #93666C",
")  c #8F7E64",
"_  c #9F6B7B",
"`  c #B26C73",
"'  c #A17478",
"]  c #BF805E",
"[  c #8E846C",
"{  c #918973",
"}  c #BC8365",
"|  c #AE9477",
" . c #B4A37C",
".. c #BBA47C",
"X. c #D28D68",
"o. c #C99578",
"O. c #E59A72",
"+. c #A82D82",
"@. c #B23089",
"#. c #BD328A",
"$. c #C2348F",
"%. c #CA369B",
"&. c #D239A1",
"*. c #DF3CAC",
"=. c #E23CAE",
"-. c #B06E87",
";. c #EC40B5",
":. c #F642BD",
">. c #FF45C4",
",. c #A58480",
"<. c #AE8585",
"1. c #B18386",
"2. c #B28689",
"3. c #B2898C",
"4. c #B79A88",
"5. c #B8A787",
"6. c #BEAA84",
"7. c #B7A993",
"8. c #C09F8E",
"9. c #C1AC83",
"0. c #C2A88E",
"q. c #D1A085",
"w. c #C8B387",
"e. c #C4B38B",
"r. c #CBB68C",
"t. c #CDBA8E",
"y. c #D4BB8E",
"u. c #D9BF8F",
"i. c #C5A89D",
"p. c #CDBB93",
"a. c #CAB899",
"s. c #D3BD94",
"d. c #D2B99C",
"f. c #F5B08A",
"g. c #FFBD99",
"h. c #C7AFA1",
"j. c #C7B6A1",
"k. c #D5BAA5",
"l. c #D2BDA4",
"z. c #CEC19A",
"x. c #D5C195",
"c. c #DAC396",
"v. c #D4C49A",
"b. c #DBC59A",
"n. c #D6C89E",
"m. c #DBCA9D",
"M. c #E3C99D",
"N. c #CCC2A3",
"B. c #CFC5AA",
"V. c #D3C5A3",
"C. c #DCCCA2",
"Z. c #D5C6A8",
"A. c #D5CBAC",
"S. c #DACCAB",
"D. c #DED2A4",
"F. c #DCD4AB",
"G. c #D7CDB1",
"H. c #D9CEB1",
"J. c #DDD2B4",
"K. c #DED5B9",
"L. c #E2CEA3",
"P. c #E1CAA9",
"I. c #E3D2A5",
"U. c #E7D6A9",
"Y. c #E5D4AA",
"T. c #EAD6AB",
"R. c #EBDAAD",
"E. c #F1DDAD",
"W. c #E2D6B4",
"Q. c #E7D6B6",
"!. c #E5DAB5",
"~. c #ECDDB2",
"^. c #E6DCBA",
"/. c #EADEBA",
"(. c #F1DEB3",
"). c #F1E1AF",
"_. c #EDE0B5",
"`. c #EBE2BD",
"'. c #F3E2B5",
"]. c #F4E5BA",
"[. c #F9E7BB",
"{. c #F5E9BE",
"}. c #FAEABE",
"|. c #E5DCC0",
" X c #EDE5C1",
".X c #EEE9C5",
"XX c #F1E6C1",
"oX c #F3EAC4",
"OX c #FDEEC2",
"+X c #F5EEC9",
"@X c #FFF2C6",
"#X c #F6F1C9",
"$X c #FFF5C9",
"%X c #FFF9CC",
"&X c #FFFBD3",
/* pixels */
"J.|.Z.A.G.^.G.J.B.K.W.J.S.J.^.^.!.K.^..XoX`.`.`.F.!.n.F._.`.`.`.A.H._.A.!.!.K.K.J.Z.N.J.K.H.J.J.G.A.J.K.J.J.^.^.^.A.Z.7.z.S./.^.",
"G.@X'.oX}.m.C.R.p.Y.C.Y.b.[.@X$X%X.X`.%X}.@X{._.D.).D.z.F.].$X&XB.t.x.x.v.}.@X%X@X$X$X$X$XOXI.OX%X X X%X%X].c.R.[.[.L.L.R.I.}.#X",
"^.%X$X$X@Xm.T.r.6.x.D.v.v.D.{.@X%X.X_.$X%X}.I.U.#X{._.D.e.p.OX&XA.p.Y.I.c.(.@X%X@XOX}.I.T.R.E.@X$XoX X%X%XOX].'.}.[.E.r...I.{.@X",
"W.%X%X$X@X}.M.T.T.m.t.I.}.'.(.@X}.`.z.I.R.D.).%X%X%X%X{.D.' ! _ / ( ! ! ! ( _ _ Q.[.c.(.~.'.[.@X@X.X^.%X%X$X@X$X@X@XOX~. .Q.'.{.",
"S.%X%X@X@X@X@X[.[.@XOXOX@XOX@X@X}._.!.{.@X@X$X%X%X%X%X%X}.! e e e e e e e e e e i.b.L.}.OX[.OX@X@XoX`.%X%X$X$X@X@X@XOX].s.p.s.y.",
"N.%X%X$X@X@X@XOXOX@X@X@X@X@XOXR.A.F._.@X$X@X$X$X%X$X%X%X%X! e e e e e e e e e e | w.L.}.OX[.OXOXOX.X.X%X$X$X$X@X@X@X@XOXOX'.I.m.",
"Z.%X$X$X%XOX@XOXOX@X@X@X@X@X{.R.D._._.}.@X@X3.3.3.3.3.3.3.^ J K K @.@.@.@.@.@.@.-.' 1.<.{ { { { { { [ K.$X$X@X@X@X@X@XOX[.].C.c.",
"V.$X$X@XOXoX].~.OXOXOX@X@X@X@X'._.`.`.%X@X%Xe e e e e e e U @.@.@.>.>.>.>.>.>.>.K e e e O O O O O O O j.@X$X@X@X@X@XOX{.'.I.x.s.",
"H.$X%X@X@X[.[.'.[.OXOX@X@X@XOX].~.XX X$X%X$Xe e e e e e e U @.@.@.>.>.>.>.>.>.>.K e e i O O O O O O O j.@X@X@X@X@X@X(.P.T.P.C.T.",
"A.%X$X$XOXOX[.(.[.].[.OX@XOXOX'.(. Xh.i.i.i.J J k J J J J Y @.@.@.=.=.=.=.=.=.=.@.Y Y P # # 4 x C C C G.@X@X@X@X@XOX(.R.~.y...L.",
"H.$X$X@XOX[.OXI.L.(.M.'.'.b.(.~.R.`./ e e e @.@.@.@.@.@.@.@.@.@.@.@.@.@.@.@.@.@.;.>.>.=.e e e 1.Q.a. X$X@X@X@X@X@X@XOXXX(.Y.s.T.",
"H.$X@X@X[.OX(./.(.s.m.r.r.b.t.~.'. X/ e e e @.@.@.@.@.@.@.@.@.@.@.@.@.@.@.@.@.@.;.>.>.:.e e e ' C.F.|.$X$X@X@X@X@XOX@XOX(.(.[.@X",
"K.$X$X$XOX[.OX@X}.x.s.P.P.d...a.d.S.! t t t @.@.@.@.@.@.@.@.@.@.@.@.@.@.@.@.@.@.=.:.:.=.e e e 1.OX X/.@X@X@X@X@X@X@X@XOX@XOXOX%X",
"G.$X$X@X@X@XOX@X@X].d.e e e e e e e K I I I @.@.@.@.@.@.@.@.@.@.@.@.@.@.@.@.@.@.@.@.@.+.e e e 2.OX X X@X@X@X@XOXOXOX@X@X@X@X@X$X",
"G.$X@X@X@X@XOX@XOX}.(.t e e e e e e J I I I @.@.@.@.@.@.@.@.@.@.@.@.@.@.@.@.@.@.@.@.@.+.e e e 2.OX X X@X@X@X(.XXOX@X@XOXOXOXOX$X",
"G.$X@X$X@X@X@X@X@XOXOXe e e e e e e J I I I @.@.@.@.@.@.@.@.@.@.@.@.@.@.@.@.@.@.@.@.@.+.e e e 2.OX`.Q.R.OX@XOXOXOX@X@X@X@X@XOX&X",
"B.$X$X@X@X@X@X-.e e e I I I I I I I I I I I I I I Y @.@.@.@.@.@.@.@.@.@.K ; ; ; > ; ; f OXOXOXOXOX XV.L.(.OXOXOXOXOXOXOX@X@XOX%X",
"K.H./././.^.^./ e e e I I I I I I I I I I I I I I Y @.@.@.@.@.@.@.@.@.@.K ; ; ; ; ; ; i Q././. X/.W.7.9.e.~.{.{.}.XX{.XX].^./.|.",
"K.+X+XoXoXXX/./ e e e I I I I I I I I I I I I I I Y @.@.@.@.@.@.@.@.@.@.K ; ; ; ; ; ; d oXXXoXoX X^.V.^.F.`. XoXXXoXoXoXXX/./.XX",
"^.%X%X%X%X%XOX_ e e e I I I I I I I I I I I I I I I U U U I U U Y > q q > ; ; ; q e e e h h l 4.@X.X X%X%X$X%X$X$X$X$X@X$X$X@X%X",
"|.&X&X$X$X@X@X_ e e e I I I I I I I I I I I I I I I I I I I I I I ; ; ; ; ; ; ; q e e e e e e 2.@X XOX$X$X%X$X$X@XOX$X$X@X@X@X%X",
"|.$X@X$X$X@XoX_ e t e I I I I I I I I I I I I I I I I I I I I U I ; ; ; ; ; ; ; e e e e e e e 2.@X XOX$X$X@X@XOX(.OX@X$X@X$X$X%X",
" X%X$X$X$X(.M.d.8.8.4.y y y y y y y y y y y y y y y y y y y y y y ; ; ; ; ; ; ; > > > > q ; q f B N B S.'.(.@X@X@XOX@X@X@X@X@X%X",
" X@X$X$X@X(.R.~.y...M.e e e e e e e e e e e e e e e e e e e e e w ; ; ; ; ; ; ; ; ; ; ; ; ; ; ; ; ; ; i.L.T.}.OXOX@X@X@X@X@X@X%X",
"^.@X$X$X@X@XOX].T.d.Y.e e e e e e e e e e e e e e e e e e e e e e ; > > ; ; ; ; : > ; ; ; ; ; ; ; > ; 4.w.6.U.OX@X@X@X@X@X@X@X%X",
" X%X$X@X$X@XOX].(.[.}.- # - - u u u u u u u s s s s s s s ~ ` ` ` X X X 5 E E E 6 2 5 6 ,.| ,.,.| { ( | C.n.m.}.@X@X@X@X@X@X@X%X",
"^.%X$X$X@X@X@X@XOX@X@X. . . O $ % $ $ $ $ % v v v v v v v q.g.g.M.      2 O.O.O.R 8 8 m @X@X$X@XoXQ.e.U.}.}.R.].OXOXOX@X@X@X@X$X",
" X@XOX@X@X@X@X@X@X@XOX. . . O $ $ $ $ $ $ $ v v v v v v v q.g.g.g.      2 O.O.O.m 8 8 m @X@X@X@XOX X).].@XOXc.r.Q.OX@X@X@X@X@X@X",
"^.}.].@X@X@X@X@X@XOX@X. . . O $ $ $ $ % $ $ z z z z v v v o.f.f.f.      2 O.O.O.0 8 2 0 $X@X$X@X@X^.OX@X@X@X}.T.I.oX@X@X@X@XOX@X",
"^.@X@X@X@X@X@X@X@X@XOX. . . O $ % $ $ $ % $ $ % % % v v v } O.O.O.      2 O.O.O.0 1 1 9 @X@X@X@X@X XOX%X%X@X@X@X].OX@X@XOXOX].XX",
"^.@X@X@X@X@X@XOX@XOXOX. . . O $ $ % % $ $ $ % $ $ % v v v } O.O.O.      3 O.O.O.0 1 1 9 $X$X@X$X@X`.oX@X@X@X@X@XOXOX@X@XOX'.L.C.",
"A./.{.OXoX}.{.{.{.{.{.x x x 7 + @ + $ $ $ $ $ $ $ z z z v W } } X.o o o 0 ] ] Q m b m ) OXOXOX@XOX`.W.OX}.}.[.}.'.OXOX{.m.....S.",
"K.`.oX+XoXoXXX_.!..X_.`.|.F.5.. . . + $ $ $ $ $ $ $ $ $ $ $ $ $ $ O.O.O.Q 1 1 1 5.N.N.G.G.K.K.K.J.J.A.J.z.V.A.A.K.`.K.e. .z.F.G.",
"^.&X%X%X%X$X].D.v.}.%X@X%XF.[ . . . + $ % $ % $ $ $ $ $ % $ % $ $ O.O.O.Q 1 1 1 V.%X&X%X%X&X%X%X%X`.`.%X%X&X%X%X%X%X@X@X%X%X%X#X",
" X%X%X%X%X$X}.'.}.%X$X%X#X{.6.$ @ @ + $ $ $ + + $ $ + $ $ $ $ + + X.X.X.Q 9 9 9 n.%X%X%X%X%X%X%X%X.X`.%X%X%X%X%X%X%X%X@X%X%X%X+X",
"`.$X%X%X$X$X@X).}.@X%X%X%X}.D.'._.`.V . . . . . . . . . . . . . . 1 1 1 [ %X$XOX@X%X%X%X%X%X%X%X%X.X`.%X%X%X%X$X%X%X%X%X#X%X%X#X",
"`.@X%X%X%X@X}.[.{.@X%X@X@X@X).m.m.p.V . . . . . . . . . . . . . . 1 1 1 ) %X%X%X%X%X%X%X@X%X%X$X%X X`.%X%X%X%X%X%X%X$X%X%X%X@X#X",
"K.[.}.@X@X}.}.).[.@X}.@X@X@X@X@X'.!.V . . . . . . . . . . . . . . 1 1 1 ) %X%X%X$X%X$X$X%X%X@X$X%X X X%X%X%X$X$X@X$X%X$X%X%X@X#X",
"T.M.x.y.x.c.'.'.}.@X%X@X@X%X$X$X$X.XM & & & A A A D G H H H H H H A A A F f f f S.%X@X%X$X%X$X$X$X.X.X%X%X%X$X$X%X@X$X%X$X@X}.$X",
"Z.m.).).R.9.C.I.}.@X@X%X$X$X@X@X@X.XR * * * D D D G T T T T T T T G D A < ; ; ; l.%X%X@X%X@X$X$X$X X.X%X%X%X$X$X$X%X$X$X@X$X@X%X",
"!.y.t.U.U.I.6.C.'.].@X@X$X@X@X@X@X.XZ * * * A A D G T T T T T T T A D D r ; ; ; l.$X$X$X@X$X$X$X@X.X`.%X@X%X%X@X$X%X@X%X@X@X@X%X",
"`.{.~.t.5.R.I.I.].{.@X@X$X@XS.B B N : = , = A G D G T T T T T T T #.Y $.$.&.&.&.^ ! ! / $X$X@X@X%X.X`.%X%X%X@X%X@X@X%X@X@X%X%X%X",
"^.@XOXs.t.'.w.'.@X@X@X$X@X$Xl.; q ; : , , , G A D G T T T T T T T &.&.&.*.>.>.>.K e t h $X$X@X@X@X.X`.%X%X@X%X@X%X%X@X%X@X%X@X%X",
"`.@X@Xm. .n.R.}.OX@X@X@X$X@Xl.; ; ; : : , , D A D G T T T T T T T %.%.&.*.>.>.>.K e e h @X$X@X@X@X.X`.%X@X%X@X%X@X@X@X@X@X@X%X%X",
"`.$XOXT.).}.OX@X@X$X@X@X@X@Xl.; ; ; : , , , D D D G T T T S r w A %.&.%.=.=.>.>.K e e h $X@X@X@X@X`..X%X@X%X@X@XoX].OX@X@X%X@X%X",
"^.@XOX{.OX@X@X@X@X$X@X@X@X@Xl.; ; ; : , , , D D D G T T T w ; ; ; %.%.%.=.>.>.>.K e e h @X@X@X@X{.W.{.%X%X@X@X}.F._.].@X@X@X@X%X",
"`.@X@X@X$X@X@X@X@X@X@X@X@X$Xl.; ; ; : , , , D D D G T T T w q ; ; %.%.%.=.>.>.>.K e e h '.{.{.{.U.z..X%X@X%X@X@X{.{.OX@X@X@X@X%X",
"`.$X@X@X@X@X@X@X@X@X@X@X@X@X!.,.,.,.a & & * g g g g F F S u # u 4 K K K Y @.@.@.-.3.3.3.U.D.].].{.`.oX@X%X@X%X@X%X@X@X{.@X@X@X@X",
"!.@X@X@X$X@X$X@X@X@X@X@X@X$X@X@X$X.Xb . . . c c c z $ % % % % $ $ ; ; ; q e e e k.@X@X~.(.].].OX@X`.`.$X@X$X@X$X@X@XOX}.OX@X@XoX",
"A.!.^.^.!.^.!.!.!.^.!.!._.^.W.K.K.G.b . . . c c c p % % % % % % % ; ; q q e e e h.!.W.!.S.J.W.K.^.J.J.`.XXOXoX{.{.{.{.{.].XX].^.",
"K.#XoXoXD._._.`.`.]._.!.F.`.W.7.7.3.N q s u c c v z % $ % $ @ @ @ - - - q k y k 2.i.h.h.oXXX+XoXoX^. XoX+XoXXXXX].XXoXXXoX+XoX^.",
"`.%X%X%X).D.D.r.m.R.U.I.}.%XZ.; - q @.>.>.>.c c v z % % % O . . . % $ $ j %.%.%.t ; ; f @X@X$X@X$X.X X%X%X%X$X%X$X@X[.R.OX@X@XOX",
"`.%X&X%X$X$X]._.{.%X}.@X%X%Xl.; ; ; @.>.>.>.v v c z % % % O . O . % % % j %.%.%.t ; ; s @X@X@X@X@XoXoX%X$X$X@X$X@XOXR.I.~.OXOX%X",
".X%X%X%X%X%X$X@X}.}.@X@X@X%XV.; ; ; @.>.=.:.n p n p $ $ $ O . . . p p p l %.%.%.t ; ; f @X@X@X@X@XXX X$X$X$XOX[.OX~.t.e.e.].OX%X",
"`.%X%X%X%X$X$X$X}.}.$X$X$X$Xl.; ; ; I %.&.&.%.%.%.L . . . . O . . %.%.%.%.%.%.%.t ; ; f @X@X@X@X@XXXXX%X$X@XOXU.m.w.6.Y.w.'.OX%X",
"`.%X%X%X$X$X$X$X}.}.@X$X@X@Xl.; ; ; I %.%.%.%.%.%.L . . . . . . . %.%.%.%.%.%.%.t ; ; f OX@X@X@XOXXXXX$X$X@XOXR.e.p.~.OX].Q.OX@X",
"`.%X%X%X$X$X%X$X%X%X$X$X$X%Xn.; ; ; I %.%.%.%.%.%.L . . . . . . . %.%.%.%.%.%.%.t ; ; f @X@X@XOX@XoX.X@X}.}.'.E.).).}.OX(.w.u.OX",
"`.%X$X%X$X$X$X$X$X$X$X$X$X}.@X%X$X%XZ ; ; ; ; ; ; ( [.}.'.U.c.I.J.q ; ; ; ; ; ; h.OXOXOX@XOXOXOX}.~./.}.}.E.U.[.OXOX@XOXOX'.L.].",
"^.%X%X%X$X$X$X$X$X$X$X%X@X%X@X%X$X%XN ; ; ; ; ; ; ( (.M.s.(.].).J.; ; ; ; ; ; ; d.OXOXOXOX[.(.(.[.L.P.L.c.c.E.}.@X@X@X@X@X@X}.}.",
"`.%X$X$X@X$X$X$X$X$X$X}.@X@X%X@X$X%XN ; ; ; ; ; ; ! T.r.R.}.OX$XJ.; ; ; ; ; ; ; d.OXOX(.T.b.T.p.b.c.~.}.}.E.c.[.OX@X@X@X@XOXOX@X",
"`.%X%X%X$X$X$X$X@X%X%X}.@X%X@X@X$X%XA.P.0.e.d.5.a.p.C.v.).OX@X$Xa.4.5.e.Z.a.{ s.Y.].(.L.s.~.[.OX'.b.^.$X%X@XU.).}.}.}.[.}.].'.@X",
"^.%X%X#X$X$X$X$X%X@X@X@X@X@X@X%X$X%X/.OXb.I.w.6.p.C.z.z.D.].OX$XF.~.e.P.U.n.C.b.p.Y.L.p.b.{.OXOX@X]./.$X@X@X).I.{.].R.e.n.R.U.#X",
"`.%X%X$X%X%X$X$X@X@X$X#X$X$X@X%X@X@X|.@X}.b.T.I.b.r.L.].'.~.}.@XW.@XOXOXR.e.Q.e.C.d.D.C.I.'.OXOXOX].W.@X@X{.].U.x.D.6.U.U.n.].@X",
"A.oX{.{.{.{.{.{.{.{.{.{.].{.].].OX^.J.[.{.{.~.(.].~.].]._.].]./.B.].].{.(.s.6.y. .e.e.v.n.C.~.].].!.J.}.].).{.{.).U.9.z. . .W.]."
};
