/* XPM */
static char *result[] = {
/* columns rows colors chars-per-pixel */
"64 64 203 2 ",
"   c black",
".  c #1C0816",
"X  c #1C1C1C",
"o  c #261B1F",
"O  c #311D22",
"+  c #371B2E",
"@  c #232323",
"#  c #2E2E2E",
"$  c #373737",
"%  c #383634",
"&  c #3A393A",
"*  c #4C1221",
"=  c #561727",
"-  c #4C153A",
";  c #53173F",
":  c #63172E",
">  c #66182C",
",  c #4C3325",
"<  c #553A2B",
"1  c #4A2A38",
"2  c #5C3235",
"3  c #62342E",
"4  c #622934",
"5  c #664432",
"6  c #624B39",
"7  c #724D39",
"8  c #7C533E",
"9  c #551E44",
"0  c #5A1845",
"q  c #5F1A49",
"w  c #661C4E",
"e  c #6D1D53",
"r  c #731F58",
"t  c #4A2E41",
"y  c #592749",
"u  c #463C43",
"i  c #523749",
"p  c #53384A",
"a  c #612F4B",
"s  c #762557",
"d  c #79215D",
"f  c #7A365D",
"g  c #7F2261",
"h  c #7A2960",
"j  c #434343",
"k  c #494748",
"l  c #494949",
"z  c #75504D",
"x  c #774A5A",
"c  c #696659",
"v  c #746B5B",
"b  c #8E2442",
"n  c #992342",
"m  c #8A2E50",
"M  c #A62647",
"N  c #AD2953",
"B  c #BD2C52",
"V  c #AB3554",
"C  c #812363",
"Z  c #8C266C",
"A  c #962873",
"S  c #9A2D73",
"D  c #992976",
"F  c #9E2B79",
"G  c #B22D6F",
"H  c #A52D7F",
"J  c #A93277",
"K  c #CC2F58",
"L  c #D8325D",
"P  c #DD3362",
"I  c #E53563",
"U  c #FF3B6E",
"Y  c #F23A79",
"T  c #805E4C",
"R  c #8E6A56",
"E  c #A9665C",
"W  c #AA7458",
"Q  c #864A66",
"!  c #88576A",
"~  c #924C78",
"^  c #8F6066",
"/  c #8E676F",
"(  c #996D68",
")  c #8F7B62",
"_  c #9F697B",
"`  c #A77C6F",
"'  c #988E74",
"]  c #A69777",
"[  c #B7977A",
"{  c #ADA77B",
"}  c #B4A37C",
"|  c #BBA47C",
" . c #D48E69",
".. c #C6807D",
"X. c #E59A72",
"o. c #A62C80",
"O. c #AB2E84",
"+. c #A93885",
"@. c #B23089",
"#. c #BA358F",
"$. c #BC3290",
"%. c #C53598",
"&. c #CB369C",
"*. c #CE389F",
"=. c #D83AA6",
"-. c #D93AA7",
";. c #E63EB1",
":. c #AE7C87",
">. c #EB40B5",
",. c #F642BD",
"<. c #FE45C3",
"1. c #A58480",
"2. c #B08286",
"3. c #B2888B",
"4. c #A49986",
"5. c #B6968A",
"6. c #BC9F91",
"7. c #ABA58A",
"8. c #BDAA84",
"9. c #B7A788",
"0. c #BCA193",
"q. c #BCB598",
"w. c #C19C92",
"e. c #C1AC83",
"r. c #C4B38A",
"t. c #C6B489",
"y. c #CCB58B",
"u. c #CDBA8E",
"i. c #D3BB8E",
"p. c #D5BB8E",
"a. c #C9AC97",
"s. c #C4A29A",
"d. c #C9B696",
"f. c #CCBB92",
"g. c #C6BD9D",
"h. c #CBBE9B",
"j. c #D3BD93",
"k. c #D1B79F",
"l. c #D2BF9B",
"z. c #FFBD99",
"x. c #C9B6A3",
"c. c #D2BAA3",
"v. c #D5BAA5",
"b. c #CDC19A",
"n. c #D4C195",
"m. c #DAC396",
"M. c #D4C39A",
"N. c #DBC69B",
"B. c #D5CB9E",
"V. c #DBCA9D",
"C. c #E2C99D",
"Z. c #CEC3A3",
"A. c #CFC5A9",
"S. c #D4C5A3",
"D. c #DAC5A6",
"F. c #DDCCA2",
"G. c #D4C5AB",
"H. c #D5CAAD",
"J. c #DACCAB",
"K. c #DED2A4",
"L. c #DED8A6",
"P. c #DCD2AC",
"I. c #D8CBB1",
"U. c #DBCDB1",
"Y. c #DDD2B4",
"T. c #DDD4B8",
"R. c #E2CEA3",
"E. c #E3D2A5",
"W. c #E8D5A6",
"Q. c #E5D4AA",
"!. c #EAD6AB",
"~. c #E6D8AD",
"^. c #EBDAAD",
"/. c #F1DDAD",
"(. c #E2D5B3",
"). c #E9D4B2",
"_. c #E5DAB5",
"`. c #ECDCB3",
"'. c #E0D7BA",
"]. c #E6DBBA",
"[. c #EADDBA",
"{. c #F1DEB3",
"}. c #F1E1AF",
"|. c #EEE0B3",
" X c #E7E0BB",
".X c #EBE2BD",
"XX c #F3E2B5",
"oX c #F4E5BA",
"OX c #F9E7BB",
"+X c #F5E9BE",
"@X c #FAEABE",
"#X c #E5DCC0",
"$X c #EDE5C1",
"%X c #EEE9C4",
"&X c #F1E6C1",
"*X c #F3EAC4",
"=X c #FEEEC2",
"-X c #F4EEC9",
";X c #FFF2C6",
":X c #F6F1C9",
">X c #FFF5C9",
",X c #FFF9CC",
"<X c #FFFBD1",
/* pixels */
"Y.#XG.G.H.'.Y.Y.G.T.(.Y.J.(.].].|.T.T.%X%X+X%X.XL.Y.B.P. X|. X XH.Y. XK._._.(.T.I.H.S.T.T.Y.Y.Y.I.H.Y.T.U.(.].].].H.S.q.h.J.].].",
"I.;XoX+X=XV.B.`.f.Q.F.Q.V.XX>X>X,X*X.X<X;X+X+X}.L.|.L.f.L.oX>X<XA.u.n.n.M.+X;X>X>X>X;X;X;X=XE.=X,X$X.X<X,XoXj.{.OXOXR.R.!.R.+X,X",
"].,X,X>X;XN.W.y.8.n.K.M.M.L.OX;X>X%X|.,X;X@XW.L.;X+X|.L.t.f.:X<XH.b.E.K.m.`.;X>X;X;XOXW.Q././.;X>X*X$X,X,X;XoX{.OXOX{.u.8.E.oX;X",
"(.,X>X,X;X=XC.!.!.V.u.R.OXXX{.;X@X.Xb.L.^.L.^.,X>X,X,X*XK.K.n.,XH._.B.f.r.~.=X=X=XXXN.).`.XXOX;X;X%X.X,X,X>X>X;X;X;X@X{.} ).`.@X",
"J.,X,X;X;X;X;XOXOX;XOX=X;X=X;X=X;X|.T.@X,X@X>X,X>X,X,X>X;X+XB.}.b.XX~.b.b.u.E.XX{.N.R.=XOX=X=X;X;X%X.X,X>X;X>X>X;X;X=XoXj.u.j.i.",
"Z.,X,X>X>X;X;X=X=X;X>X;X;X;X*X`.S.P. X@X,X@X>X,X>X,X,X,X,X>X:X|.G.OX@XOX*X@XN.f.y.r.R.=X=X&X=X=X;X$X$X,X>X>X>X;X;X;X;X=X=XXXF.F.",
"S.,X>X>X;X=X;X=X;X;X;X;X;X;X@X^.K.|..X@X@X,X>X,X>X,X>X>X>X,X>X,XY.,X;X;X;X=XXXQ.{.{.=X=X=X=X=X=X=X&X.X>X>X;X,X;X;X;X;X=XOXoXR.n.",
"S.,X>X;X;X*XoX`.OX=X;X;X;X;X;XXX}.+X.X,X@X,X>X>X,X>X>X,X>X>X>X,XT.>X;X;X;X;X=XoX&X=X=X=X=X=X=X=X=X&X#X>X>X;X;X;X;X;X=X+XXXE.n.n.",
"U.,X>X>X;XOXoXoXOX=X;X;X;X;X=XXX|.$X$X,X,X,X>X>X;X,X,X;X>X>X,X<XI.,X;X;X;X=X;X=X=X=X;X=X;X=X=X=X=X$X#X>X;X;X;X;X;X;X{.D.!.R.F.!.",
"H.,X>X>X;X@XOX{.OXOX@X;X;X=X=XXXXX.X.X,X,X>X,X>X>X,X;X,X,X>X>X<XY.:X,X;X;X=X;X=X;X;X=X;X=X=X=X&X{.].$X>X;X;X;X;X;X=XoX).^.i.[ R.",
"I.>X>X;X=XOX*XW.R.{.N.XXXXN.{.^.~..X%X,X,X>X,X>X>X>X,X;X;X>X>X,XY.,X;X;X;X;X;X;X=X;X;X=X=X=X&X{.).h.&X;X>X;X;X;X=X;X=XOX{.Q.N.W.",
"I.>X>X;XOXOX{.oX{.j.C.y.u.N.i.`.|.%X$X,X>X>X;X>X>Xf w w w w w w w w _ ;X;X;X=X;X=X=X;X=X=X=X=X[.F.J.#X>X>X;X;X;X;X;X;X=XoX{.+X>X",
"Y.>X>X>X=XOXOX=X=Xn.n.XXXXE.r.V.K._..X,X,X>X>X,X>Xf w w w w w w w w _ =X;X;X=X=X;X=X=X=X=X=X=X=X=X$X[.;X;X;X;X;X;X;X;X=X=X=X=X,X",
"I.,X>X;X;X;X;X;X=XXXM.r.8.M.F.8.] 4.4.7.7.7.s.a.a.F F F F H F Z C C _ s.s.s.s.s.x.=X=X;X=X=X=X=X=X$X$X>X;X;X;X=X=X=X;X=X=X=X=X,X",
"I.>X>X;X;X;X;X=X=X*XOXXX} Q.~.' # @ @ @ @ @ w w w >.<.<.<.<.<.=.@.@.A w w w w w h =X;X=X=X=X=X-X=X$X.X;X;X;X&X{.;X;X=X;X;X=X;X,X",
"G.>X>X;X;X;X;X;X;X=XOXoX} e.j.9.@ @ @ @ @ @ w w w >.<.<.<.<.<.=.@.@.A w w w w w f =X=X=X=X=X=X=X=X.X).^.=X=X;X=X=X=X;X=X;X=X;X,X",
"G.,X>X;X;X;X;X;X=X=X=XoXu.!.XX`.g.q.7.9 9 9 =.=.=.*.%.%.%.%.%.$.@.@.O.F F F F F J ! ~ Q ).=X=X;X=X$XS.R.`.OX=X*X;X;X=X=X;X=X;X,X",
"Y.Y.[.[.[.].].].].]._.J.D.Q.]._.].T.x.w w w <.<.<.$.@.@.@.@.@.@.@.@.@.@.@.@.@.@.O.w w w v.[.[.[.[.(.q.e.r.XX@X@X+X+X+X+X.X[.[.#X",
"T.:X*X-X-X&X[.D.d.f.d.f.D.P.S.M.)..XG.w w w ,.,.,.$.@.@.@.@.@.@.@.@.@.@.@.@.@.@.o.e e e v.U.T.U.I.v.a.].P. X&X&X&X&X&X*X&X[.{.&X",
"].,X,X,X>X>X;X=XoXQ.B.e.b.u.^.@X=X:XG.e w w @.@.@.@.@.@.@.@.@.@.@.@.@.@.@.@.@.@.@.D D D e e w w w e 0.,X,X,X,X,X>X>X>X>X;X>X;X<X",
"#X,X,X,X>X>X;X=XOXR.i.j.C.R.&X;X;X,XI.w w w @.@.@.@.@.@.@.@.@.@.@.@.@.@.@.@.@.@.@.A D D e e w w w w 6.,X>X>X;X>X;X;X;X>X>X>X;X,X",
".X,X>X>X>X;X=XXX!.l.u.M.j.R.=X=X=X,XU.3.3.3.g g C C d C F @.@.@.@.@.@.@.@.O.o.o.H A D D g h g g g g _ 3.3.v.;X;X{.=X;X>X;X;X>X,X",
"$X;X,X;X;X{.N.).R.R.R.{.R.R.{.=X;X,X.X;X;X;X- - - - - - Z @.@.@.@.@.@.@.@.O.D D D D D D D D D D D D h w e 2.-X;X;X=X;X;X;X;X;X,X",
"#X,X;X,X=XOX`.{.j.[ R./.OX=X=X=X=X,X].=X;X;X- - - - - - Z @.@.@.@.@.@.@.@.O.D D D D D D D D D D D D g w w :.@X*X=X;X;X;X>X;X;X>X",
"$X>X>X;X;X;X=XoXQ.M.R.OX=X=X=X=X;X>XI.f f f w w q - - - ; 0 0 d F F D F F F D D D D D D D D D D D D d w w ^ W.;X;X;X;X;X;X;X;X,X",
".X>X;X,X;X>X=XoXXXOX=X=X=X;X=X;X=X;XI.w w w w w w - - - - - - e D D D D D A D D D D D D D D D D D D d w w ( N.@X;X;X;X;X;X;X;X,X",
"].>X,X;X;X;X=X;X;X=X;X=X;X=X=X[.v.c.3.w q q 0 w w - - - - - - e Z Z Z Z Z Z Z Z Z Z Z Z Z Z Z Z Z Z C ! ! w.^.XX=X=X;X;X;X;X;X>X",
".X;X;X;X;X;X;X;X;X;X;X;X;X=X;Xv.- - - - - - - - - - - - - - - 0 w w w w w w w w w w w w w w w w w w 5.+X=X=Xm.y.).=X;X;X;X=X;X;X",
" X=XOX;X;X;X;X;X;X;X=X;X=X=X;Xv.- - - - - - - - - - - - - - - 0 w e w w w w w w w w w w w w w w w w s.;X;X;X@X!.W.@X;X;X;X;X;X=X",
"].;X;X;X;X;X;X;X;X=X;X;X;X=X;X{.6.5.5.0.0.6.2 2 2 E E E 2 . . z ....^ i i i p p i t t 1 t t t + + + 7.>X>X;X>X;X+X*X;X;X;X=XoX&X",
"_.;X;X;X;X;X>X;X;X;X=X;X;X;X;X;X=X.X.X;X;X;X5 5 5  .X.X.<     T z.z.[ k l l l l l $ $ $ $ $ $ @ X X 4.;X>X>X;X;X@X;X;X;X=X|.F.R.",
"G. X@X*X*XOX@X+X&XoX+XoX&X{.oX[.&X'.(.*X*X+X5 5 5  .X.X.<     T z.z.5.l l l l l l $ $ $ $ $ $ @ X X ] @X@X@XOXOXXX=X*X@XV.| | J.",
"T.].-X*X*X*X+X[._.$X.X XT.P.P.A.'.T.T.].&X&X, , ,  .X.X.<     7 X.X.W l l j $ $ $ $ $ $ $ $ $ @ X X ' I.b.S.P.J.Y. XY.d.{ b.P.Y.",
"].<X,X,X,X;XoXL.B.@X>X>X>X X{ ~.=X$X$X,X,X=X, , ,  .X.X.<     7 X.X.` k l j $ $ $ $ $ $ $ $ $ @ X X 4.,X<X,X,X,X,X,X;X,X>X,X,X-X",
"$X,X,X,X,X>X@XXXOX>X>X,X>X@XW.|.~.$X$X,X;X;X) ) ) W W W 8 < < 8 W W v u j j $ $ $ $ $ $ # # # c v c q.<X,X,X,X,X,X,X,X;X,X,X,X%X",
" X,X,X,X,X>X;X}.@X>X>X,X,X@XK.oX).$X].>X,X>X>X>X;X6 , , W X.X.R $ $ % % $ $ $ $ $ $ $ $ X X X g.,X%X X,X,X,X,X,X,X,X,X,X>X,X,X-X",
"$X;X>X,X>X>X;XXX+X>X>X@X;X;X}.V.V.f.].>X>X;X,X;X;X6 , , W X.X.R % % % % $ $ $ $ $ $ $ $ X X X x.,X%X.X,X,X,X,X>X>X,X,X,X>X,X>X:X",
"_.OX@X;X>X@XOX}.OX;X;X>X;X;X;X;XXX_.].>X>X>X;X;X;XM.M.M.` 7 7 , @ @ @ @ @ @ @ @ @ @ @ @ 7.Z.b.&X,X$X.X,X,X,X,X;X>X,X>X>X>X>X;X:X",
"~.C.m.p.p.m.XXXX@X>X>X>X;X,X,X;X;X%X.X>X;X;X;X;X;X;X;X=X) , , O X X X X X X X X X X X X T.>X>X;X:X%X%X,X,X,X,X>X>X>X>X>X>X;X;X:X",
"S.K.^.|.^.8.K.W.@X@X>X;X,X;X;X;X;X%X$X>X,X;X;X;X;X).).).R 3 3 , O o O O O o o o o X X @ L.>X>X>X>X%X%X,X,X,X>X;X,X>X>X>X>X>X;X,X",
"_.j.f.Q.!.E.e.K.|.+X;X;X;X>X;X,X;X%X$X;X;X>X;X;X>X4 * * B U U I K K K K K B n n b - - - ).>X>X>X;X%X.X,X>X,X>X,X>X>X>X>X>X,X>X,X",
"[.OX^.u.| `.E.E.oX@X;X;X>X;X;X;X;X-X$X;X>X;X;X;X>X4 * * B U U I K K K K K B n n b - - - ).;X>X;X;X%X.X,X,X>X>X;X@X>X>X>X>X@X>X,X",
"[.;X*Xj.i.XXe.XX;X;X;X>X;X;X;X;X;X%X$X,X>X;X1.1.' > = = N I I P K K L I I P G G G Z Z Z :.3.3.{.>X%X.X,X>X;X;X,X,X>X@X>X;X>X>X,X",
".X>X;XV.} M.{.@X=X;X;X;X;X>X>X;X;X%X.X;X;X;X- - ; > > > M K K K K K P U U Y *.&.&.&.*.&.r w e D.;X%X.X>X,X,X,X;X,X>X,X>X>X>X>X,X",
".X,X=X!.}.@X;X=X;X;X>X;X>X;X;X:X;X%X[.=X;X;X- - - : : > M K K K K K P U U Y *.*.*.&.&.*.r w w v.;X%X.X,X>X>X>X;X+X+X@X;X;X;X>X,X",
" X;X@XoX*X;X;X;X>X;X;X;X;X;X;X;X;X%X].;X=X=X- - - : > > M K K K K K N r s S ,.,.,.&.&.&.r w w v.+X_.$X,X>X>X;X+XL.|.+X;X;X>X>X>X",
".X;X=X;X>X;X;X;X;X;X;X;X;X;X;X;X;X%X).=X{.C.- - - : : : M K K K K K N w w Z ,.<.,.&.&.&.r w w k.!.b.&X,X>X>X>X>X+X+X;X;X;X>X;X>X",
".X;X;X>X;X;X>X;X>X;X;X;X;X;X;X;X;X-X).)./.y.x x x 4 = * m V V V V V m y w s -.-.=.@.@.@.Q Q Q v.@X X*X,X>X>X>X;X;X>X;X+X@X;X;X>X",
"].:X;X;X;X;X;X;X>X;X>X;X;X;X;X;X;X%Xb.F.E.M.}.;X;X% X X $ l l j l l j & & t w w w w w w F.oXoX;X;X X X,X,X;X>X>X;X>X=X@X*X-X;X*X",
"H._._. X[.[._._.]._._._._.]._._.].Y.q.M.f.d.B. X|.% X X $ l l l k l j & & t w w w w w w g._.Y.Y._.Y.Y..X+XOX@X+X+X+X+X+X@X+XoX].",
"(.:X-X+XB. X|.+X.X+X.X~.P. X.X X_.Z.[.]._..Xx ^ v +.+.+.f j k j u u & @ @ # t t i H o.o.! ! ! U.*X].$X-X-X-X&X&XoX&X*X&X*X-X&X[.",
".X,X,X,X}.K.K.t.V.W.W.W.+X,X,X,X;X[.$X>X,X,X; - - >.<.<.~ k k j & & # X X @ & & i &.&.&.0 - - c.;X*X$X,X,X>X,X>X:X;XOX/.@X;X;X-X",
".X,X<X,X>X:X+XXX@X,X@X,X,X,X>X,X,X:X&X,X,X;X- - - ;.<.<.~ u l j & & # X X @ & $ i &.&.%.0 - - v.;X*X*X,X>X>X;X>X;X=X~.E.XX=X=X>X",
"%X<X,X,X,X,X,X@X@X@X@X@X>X>X,X>X,X:X$X>X;X=X- - - ;.<.<.=.%.%.h X X X X X 1 &.&.%.%.&.&.0 - - v.;X&X$X,X>X>X;X@X=X`.u.r.t.oX=X,X",
".X,X,X,X,X>X>X>X@X@X>X>X>X>X>X>X,X:X$X>X,X;X- - - ;.<.<.-.&.&.s X @ X X X 1 &.&.&.&.&.&.q - - v.;X&X$X>X>X;X=X!.V.t.8.~.t.XX;X>X",
".X,X,X,X,X,X>X>X@X,X@X>X>X>X,X>X;X;X$X>X;X;X/ / / #.$.$.O.D D Q c v v v v x D D D D D D ! / / D.=X&X*X>X>X;XOX).e.f.|.@XoX`.@X;X",
" X,X,X,X>X>X,X>X,X@X,X>X>X,X>X>X,X>X.X=X@X@X=X=X@Xa - - - - 9 1.#X,X;X;X;Xc.- - - - - - ).=X=X;X;X&X&X;X@X@XXX}.XXXXOX;X^.y.p.@X",
" X,X,X,X,X>X>X>X,X,X,X@X@X,X@X,X>X,X).E.u.m.{.=X=Xa - - - - - ` ].:X;X;X;Xk.- - - - - - ).=X=X=X@X|.[.@X@X/.W.OX;X@X;X;X;XXXE.OX",
" X,X,X>X>X>X>X>X,X,X,X,X@X,X,X,X;X,Xf.y.!.j.C.XXOXk.a.[ 4.s.a.R.Y.;X;XOXQ.N.a.h.c.c.k.c.=XOX{.{.oXE.J.C.m.m./.@X;X@X;X;X;X;XOX@X",
" X,X>X,X;X>X>X>X,X@X@X,X,X,X,X@X;X,Xg.F.XXr.F.l.`.!.!.y.!.OX;X;X(.;XXXC.y.C.m.oXOX=XOX{.!.N.!.i.N.N.`.=X@X^.m.XX;X;X;X;X;X;X@X>X",
" X,X,X,X>X>X>X>X>X>X,X@X@X>X>X>X>X,X(.oXM.M.Q.d.R.N.F.M.}.*X;X,Xg.r.f.M.{.R.] !.`.OX{.R.j.`.+X=XXXF.[.>X;X;X^.}.@X@X@XOX@XOXXX@X",
" X,X,X>X>X>X>X>X>X>X>X>X,X>X@X>X;X,X[.;Xm.E.t.8.f.F.b.b.K.XX@X,XY.).r.E.`.V.F.N.f.E.R.d.m.oX=X=X;XXX[.;X;X;XXXW.+X+X^.e.B.^.~.;X",
"|.,X>X>X>X>X>X>X>X;X>X@X>X>X,X>X>X>X.X;X@XN.W.E.N.y.R.oXXX`.*X;X_.=X=X=X`.e.~.r.F.j.F.F.E.XX=X=X=XXX(.;X;XOXoXW.n.V.8.~.~.N.oX>X",
"P.:X*X+X+X+X+X+X+X+X+XoX+X+X+X+X*X].U.+X+XOX{.`.oX{.oXoXXXoXoX[.A.oXoX+X{.j.8.f.9.r.r.M.B.K.`.+X+X_.Y.OX+X}.+X+X|.^.t.f.} { ~..X"
};
