/* XPM */
static char *result[] = {
/* columns rows colors chars-per-pixel */
"64 64 203 2 ",
"   c black",
".  c #1E1511",
"X  c #1C1B1C",
"o  c #231118",
"O  c #39261D",
"+  c #2D1926",
"@  c #381628",
"#  c #242424",
"$  c #282728",
"%  c #2D2D2D",
"&  c #373737",
"*  c #3A393A",
"=  c #4C1221",
"-  c #471E29",
";  c #541727",
":  c #4C153A",
">  c #471D39",
",  c #551636",
"<  c #66182C",
"1  c #463024",
"2  c #4C3325",
"3  c #5A3C2D",
"4  c #5D2332",
"5  c #592C36",
"6  c #664432",
"7  c #77503B",
"8  c #551841",
"9  c #5A1844",
"0  c #661C4E",
"q  c #721F57",
"w  c #4E2942",
"e  c #5A2647",
"r  c #5E2D48",
"t  c #4C3F47",
"y  c #56324A",
"u  c #5E3852",
"i  c #62284C",
"p  c #66344B",
"a  c #733E4D",
"s  c #7A215E",
"d  c #7F2261",
"f  c #793864",
"g  c #434343",
"h  c #4F4C44",
"j  c #494748",
"k  c #494949",
"l  c #565046",
"z  c #59564B",
"x  c #735C4F",
"c  c #694459",
"v  c #734659",
"b  c #794C5D",
"n  c #79634D",
"m  c #676457",
"M  c #716D5C",
"N  c #764666",
"B  c #767161",
"V  c #88343E",
"C  c #861F40",
"Z  c #9B2343",
"A  c #952D49",
"S  c #B3294D",
"D  c #AB3554",
"F  c #812263",
"G  c #8C266C",
"H  c #8C386C",
"J  c #962873",
"K  c #992976",
"L  c #9E2B79",
"P  c #A82A64",
"I  c #B22B62",
"U  c #A42C7E",
"Y  c #C32D55",
"T  c #CC2F58",
"R  c #D3315C",
"E  c #DC3363",
"W  c #E93664",
"Q  c #FE3B6E",
"!  c #8C5553",
"~  c #8F6A52",
"^  c #98735D",
"/  c #A97458",
"(  c #8C4F6D",
")  c #8B5367",
"_  c #954873",
"`  c #A4516B",
"'  c #906E6D",
"]  c #8F7B63",
"[  c #9B776B",
"{  c #996575",
"}  c #9F6D7B",
"|  c #B26C73",
" . c #A6777A",
".. c #BF805E",
"X. c #928970",
"o. c #A58279",
"O. c #AE9778",
"+. c #ADA77B",
"@. c #B4A37C",
"#. c #BAA57D",
"$. c #CF8E6B",
"%. c #E59A72",
"&. c #A52C80",
"*. c #AA2D82",
"=. c #AA3A84",
"-. c #B23089",
";. c #C53598",
":. c #CB369C",
">. c #CE389F",
",. c #D23899",
"<. c #D339A2",
"1. c #D83AA6",
"2. c #E23DAE",
"3. c #B25C8A",
"4. c #9F7580",
"5. c #A56F81",
"6. c #A57A82",
"7. c #EB40B5",
"8. c #F442BC",
"9. c #FE45C3",
"0. c #A78480",
"q. c #B28589",
"w. c #B2878A",
"e. c #B8978B",
"r. c #B39A8F",
"t. c #ADA488",
"y. c #BCA787",
"u. c #BCA294",
"i. c #BDB395",
"p. c #C59F98",
"a. c #C1AA85",
"s. c #C6B489",
"d. c #C5B48B",
"f. c #CBB58C",
"g. c #CDBA8E",
"h. c #D3BB8E",
"j. c #D9BF8F",
"k. c #C4A39A",
"l. c #C9AC9B",
"z. c #CCBB93",
"x. c #C8BA97",
"c. c #D3BD93",
"v. c #D1B498",
"b. c #F5B08A",
"n. c #FFBD99",
"m. c #C7B1A0",
"M. c #D9BCA6",
"N. c #CEC199",
"B. c #D4C195",
"V. c #DAC396",
"C. c #D4C49A",
"Z. c #DBC59A",
"A. c #D6C99E",
"S. c #DBCA9D",
"D. c #E3C99D",
"F. c #CEC4A5",
"G. c #D3C5A3",
"H. c #DDCCA2",
"J. c #D5C5A8",
"K. c #D5CBAD",
"L. c #DACDAB",
"P. c #DED2A4",
"I. c #DCD3AB",
"U. c #D7CDB1",
"Y. c #D9CEB1",
"T. c #DCD2B4",
"R. c #DDD4B8",
"E. c #E3CEA3",
"W. c #E3D2A5",
"Q. c #E8D5A6",
"!. c #E4D4AA",
"~. c #EAD6AB",
"^. c #E6D8AD",
"/. c #EBDAAD",
"(. c #F1DDAD",
"). c #E2D6B3",
"_. c #E5D5B6",
"`. c #E5D9B5",
"'. c #ECDDB2",
"]. c #E6DCBA",
"[. c #EADEBA",
"{. c #F1DEB3",
"}. c #F1E1AF",
"|. c #EEE0B3",
" X c #E7E0BB",
".X c #EBE2BD",
"XX c #F3E2B5",
"oX c #F4E5BA",
"OX c #F9E7BB",
"+X c #F5E9BE",
"@X c #FAEABE",
"#X c #E5DCC0",
"$X c #EDE5C1",
"%X c #EEE9C4",
"&X c #F1E6C1",
"*X c #F3EAC4",
"=X c #FDEEC2",
"-X c #F5EEC9",
";X c #FFF2C6",
":X c #F6F1C9",
">X c #FFF5C9",
",X c #FFF9CC",
"<X c #FFFBD2",
/* pixels */
"T.#XK.K.U.].T.T.F.R.T._.K.).].].].R.].%X&X+X.X.XI.I.A.I. X X X XY.I. XP.].R.).R.L.J.J.T.R.T.T.T.L.U.T.R.Y._.].]._.K.G.i.x.L.].#X",
"U.;XXX+X@XS.A.'.z.!.H.!.S.XX>X>X>X*X X<X;X*X+X}.^.}.P.N.I.oX>X,XF.g.B.C.B.@X>X>X;X>X>X>X>X=XW.=X,X$X$X,X,XoXB.{.OXOXQ.E./.E.@X:X",
"].,X>X>X=XZ.~.f.y.B.P.C.C.W.OX;X>X%X[.>X;X@XQ.^.@X+X XP.s.g.:X<XU.N.Q.W.V.'.>X>X>X;XOXQ.!./.(.;X>X*X$X,X<X=XoX{.@XOX(.f.a.!.+X;X",
"_.,X,X>X>X=XD.~./.D.g.E.@XXX'.;X;X.Xz.W./.P./.,X,X,X,X@XP.P.N.,XK.`.A.d.d./.=X@X=XoXV.'.'.XXOX;X>X%X].,X>X>X;X>X;X;X=X'.O.^.XX+X",
"K.,X,X>X>X=X=XOXOX;X@X=X>X@X;X;X@X X`.;X;X;X,X,X,X,X,X,X;XoXA.|.F.XX!.N.N.z.P.XXXXD.D.@X=X&X=X;X=X*X.X,X>X>X;X>X;X>X=X+Xc.g.c.h.",
"F.,X>X>X;X>X>X=X@X;X>X;X;X;X=X/.A.T.[.c.} } } 4.} } } } } } l.|.J.OX@X@X@X@XC.g.l.f.E.@X=X=X=X=X=X%X$X>X>X>X>X>X>X>X=X=X@XoXW.H.",
"G.,X>X>X>X=X=X=X;X;X;X;X;X;X@X/.E.[.'.k.i 0 0 0 i 0 0 0 0 0 w.<XT.>X;X=X;X=XXX/.{.{.=X=X=X=X=X=X=X&X$X>X>X>X;X;X=X>X;X=X@XXXH.V.",
"G.,X>X;X=X*XoX'.@X=X;X;X;X;X;XXXXX.X[.k.0 0 0 0 0 0 0 0 0 0 w.<XR.>X>X;X;X=X=XoX[.=X=X=X=X=X=X=X=X&X#X>X>X>X;X;X;X=X=XOX|.W.B.c.",
"Y.>X>X>X;XOXoXoXG.M B B B B B M { { { 3.;.;.;.;.;.:.-.J J J _ 5.{ 5.} } } e.;X=X=X=X;X;X=X=X=X=X=X&X].>X>X=X;X;X;X=X{.E.~.E.H.~.",
"K.>X>X>X;X@XOX{.x.# # # # # # # 0 0 0 L 9.9.9.9.9.9.9.-.-.-.G 0 9 0 0 0 0 ) ;X;X;X=X=X=X=X;X=X&XoX_.$X>X>X>X;X;X;X=X{./.'.v.#.E.",
"U.>X>X;X=XOXOX!.@.# # $ # # # # 0 0 0 L 9.9.9.9.9.9.8.-.-.-.G 0 0 0 0 0 0 ( ;X;X;X;X=X;X=X=X=X{.!.v.$X>X>X=X;X;X;X;X=X&X{.!.c.~.",
"U.>X>X>X@XOX{.oX!.] X.X.c 8 > w ;.;.;.:.>.>.<.>.>.>.:.-.-.-.&.J J J J J J J } } 5.M.=X=X=X=X=X{.H.U.#X>X;X>X;X;X;X=X;X=X{.{.OX;X",
"T.>X>X>X=XOX@X=X@XB.B.XX{ 0 0 0 9.9.9.2.-.-.-.-.-.-.-.-.-.-.-.-.-.-.-.-.-.K 0 0 0 p.=X=X=X;X=X=X=X$X.X>X;X;X;X;X;X;X>X=X;X;X=X>X",
"U.,X>X>X;X;X=X>X>XXXB.s.) 0 0 0 9.9.9.2.-.-.-.-.-.-.-.-.-.-.-.-.-.-.-.-.-.L 0 0 0 p.=X>X=X=X=X=X=X$X.X;X>X>X=X=X=X=X=X;X;X=X=X<X",
"U.>X;X;X;X;X;X=X;XOXoXXX) 0 0 0 1.1.1.:.-.-.-.-.-.-.-.-.-.-.-.-.-.-.-.-.-.&.d d d { 6.6.6.q.q.q.l.$X$X;X=X=X=X[.=X;X;X=X=X=X=X>X",
"J.>X>X>X;X;X;X;X;X;X@XoXb 0 0 0 -.-.-.-.-.-.-.-.-.-.-.-.-.-.-.-.-.-.-.-.-.*.K K K s q 0 q 0 0 0 } $X^./.=X=X=X=X=X;X=X;X;X;X=X<X",
"K.>X>X;X;X=X;X;X=X>X=XoX) 0 0 0 -.-.-.-.-.-.-.-.-.-.-.-.-.-.-.-.-.-.-.-.-.*.K K J s 0 0 0 0 0 0 } &XG.W.{.=X=X=X=X=X=X=X=X;X;X>X",
"T.Y.[.[.[.].].].].]._.L.e. .6.4.d d d d d d d &.-.-.-.-.-.-.-.-.-.-.&.&.&.&.K K K G F d F d F d _ } {  .y.'.oX+XOX&X+X&XoX[.[.#X",
"R.-X*X-X-X&X[.J.f.x.z.z.J.!.G.C.: : : : : : : K -.-.-.-.-.-.-.-.-.-.K K K K K K K K K K K K K K F 0 0 0 k..X&X&X*X&X&X&X&X[.[.&X",
"].<X,X,X>X>X;X=XoX!.A.a.z.z./.@X: : : : : : : K -.-.-.-.-.-.-.-.-.-.L K K K K K K K K K K K K K G 0 0 0 J.,X>X>X,X>X>X,X>X>X;X<X",
"[.<X>X>X>X>X=X=XoXE.h.c.e. .q.w.9 9 9 : : : : s d d F &.&.&.&.&.&.&.K K K K K K K K K K K K K K F 0 0 0 J.>X>X>X=X;X;X>X;X;X;X<X",
"#X<X>X>X>X>X=X{.!.Z.f.C.) 0 0 0 0 0 0 0 : : : : : : 8 K K K K K K K K K K K K K K K K K K K K K G 0 0 0 M.;X>X=X{.=X;X>X;X>X;X,X",
"$X,X>X>X;X{.H.~.).H.W.XX{ 0 0 0 0 0 i 9 : : : : : : 8 K K K J J K K K K K K K K K K K K K K K K F 0 0 0 v.{.=X;X;X=X;X;X;X;X;X<X",
"[.>X>X>X=XOX'.{.a.! '  .a , 9 9 9 9 9 : : : : : : : 8 F d d d d F d F F d F d F d F d d d d d d _ 6.w.q.v.^.@X=X=X;X;X;X;X;X;X>X",
"#X,X>X>X>X;X*XOXk.: : : : : : : : : : : : : : : : : : 0 0 0 0 0 0 0 0 0 0 0 0 0 0 0 0 0 0 0 0 0 } .XXXW.f.y.!.@X;X>X;X;X=X=X;X,X",
"$X>X>X>X;X;X=X{.l., : : : : : : : : : : , ; : : : : , 0 0 0 0 0 0 0 0 0 0 0 0 0 0 i 0 0 0 0 0 0 }  XS.#.S.Z.S.=X>X=X;X;X>X>X;X,X",
" X>X>X=X>X;X>X=X_.0.o.o.0.6.0.6.5 4 5 a ! / ! = o o @ | | | ! y y y y y y y w w w w w w w > @ > ' `.s.!.@X@X/.XX=X=X=X>X;X;X;X>X",
".X;X=X>X;X;X;X;X=X=X=X>X;X;X=X=X6 6 6 ~ %.%.%.O     o n.n.n.o.k k k k k k g & * & & & & & X X X M .X}.oX;X;XV.f./.=X>X=X;X;X=X;X",
"].=XOX;X;X;X;X;X>X=X;X;X=X;X;X=X6 6 6 ~ %.%.%.O     o n.n.n.o.h k k k k k j & & & & & & & X X X M  X;X>X;X;X@XQ.W.@X;X;X;X;X=X=X",
"].;X;X;X;X;X;X>X=X>X;X=X;X=X=X=X3 3 3 ~ %.%.%.O     . b.b.b.[ k k k g g t * & & & & & & & X X X M .X*X>X>X>X>X;XoX=X;X;X;X=XoX*X",
"`.;X;X;X>X>X;X=X=X;X=X=X=X;X;X;X2 2 2 ~ %.%.%.O     . %.%.%.^ k k k * & & & & & & & & & & X X X M .X+X>X>X>X;X;X=X=X;X>X@XXXH.E.",
"K.[.*X@X+X+X+X+X&X+X+X+XoXoX[.OX2 2 2 7 %.%.%.O     . %.%.%.^ k k k * & & & & * & & & & & X X X M  X^.@X@X@XoX@X|.=X=X+XS.#.#.K.",
"R. X*X*X-X&X%X|.`.+X.X X XI.U.F.M ] ] ^ / / / 7 3 3 3 / / / x g g g * & & & * & & % % % % m m m X.R.K.T.N.G.I.K.T.].I.x.+.N.I.U.",
"].<X,X,X,X>XoX!.C.@X>X>X:X X+.^.@X.X Xy.2 2 2 ..%.%.$.& & & & & & & & & & & & & & $ X X X <X,X,X:X$X X,X<X,X,X<X,X,X>X>X>X,X,X-X",
"$X,X,X,X,X>X@XXX+X,X>X,X,X+XQ.}.^.oX.Xi.2 2 2 ..%.%.$.& & & & & & & & & & * & & & # X X X ,X,X,X,X%X$X<X,X,X,X,X,X,X,X>X,X,X,X-X",
" X,X,X,X>X>X;X}.@X>X>X,X,X@XP.oX|..X XC.^ X.^ ~ / / ^ % % % % $ % % % % % % % % % z M M M ,X>X,X,X%X X,X,X,X,X,X,X,X>X,X>X,X,X-X",
".X>X>X,X,X,X@XXX@X;X>X;X;X;X|.S.P.x.`.>X>X>X>Xn 1 2 1 X X X X X X X X X X X X X X t.,X,X>X>X>X>X>X%X.X,X,X,X,X>X>X,X,X>X,X>X>X:X",
"`.OX@X>X@X@X@X}.oX;X@X>X>X;X@X;X|.`. X>X>X;X;Xn 2 2 1 X X X X X X X X X X X X X X t.,X,X,X>X>X>X>X%X$X,X,X,X,X;X>X,X>X,X>X>X>X:X",
"^.D.V.h.B.V.XXXX@X>X>X>X;X>X>X>X;X$X X'.y.e.#.` V V V 4 4 4 4 4 4 4 - - - @ + + + t.,X>X>X>X>X>X>X%X$X,X,X,X>X>X>X>X>X>X>X;X;X:X",
"G.P./.(./.a.P.W.@X@X>X>X>X>X;X>X;X%X$Xy.= = = R Q Q Q T T T T T T T Z Z Z C : > : u.>X>X>X>X>X>X>X%X%X,X,X,X>X>X,X>X>X>X>X;X;X>X",
"'.c.z.!.~.E.a.S.|.OX>X>X;X>X>X;X>X%X$Xy.= = = R Q Q Q T T T T T T T Z Z Z C : : : u.>X>X>X>X>X>X>X%X.X,X,X>X>X>X>X>X>X>X>X>X@X,X",
"[.+X/.z.#.'.W.W.OXoX;X;X>X;X;X;Xu.r.w.' ; ; ; Y W W W T T T R E E W I P P P s s s 5.k.k.k.;X>X=X>X%X.X,X>X>X>X>X>X>X;X>X>X;X>X,X",
"].=X=Xc.h.XXs.XX;X;X;X>X;X;X>X;X: : : , < < < S T T T T T T W Q Q Q ,.,.:.>.:.>.>.G 0 0 0 >X;X;X;X%X.X,X>X>X>X>X>X,X>X>X>X>X>X,X",
".X>X;XS.@.C.'.@X=X;X;X;X>X;X;X;X: : : , < < < S T T T T T T W Q Q Q ,.:.:.>.:.:.:.G 0 0 0 >X>X>X>X%X.X,X,X>X>X>X>X@X>X>X>X>X>X,X",
" X>X=X~.XX@X=X;X;X;X>X;X;X;X;X;X: : , , < < < S T T T T T T R E E E <.1.1.1.:.>.:.G 0 0 0 ;X;X;X;X$X.X,X>X>X;X;X+X+X@X;X;X;X>X,X",
" X>X=XoX@X;X;X;X>X;X;X;X>X;X;X;X: : : , < < < S T T T T T R A 0 0 0 7.9.9.8.:.>.>.G 0 0 0 ;X;X;X+X^.%X,X>X>X>X+XI.|.+X;X>X;X;X,X",
".X;X;X;X;X;X;X;X;X;X;X;X;X;X;X;X: : : , < < < S T T T T T T A 0 0 0 2.9.9.8.:.>.:.G 0 0 0 +X+X+X^.N.+X,X>X>X>X;X@X+X*X;X;X>X>X>X",
".X>X=X;X>X>X;X>X>X;X;X;X;X;X>X>Xb v c a ; ; ; Z D D D D D P F e e e >.1.1.>.-.-.-.H ( ) ) E.XXoX=X X*X>X>X>X>X>X;X>X;XOX=X;X;X>X",
").>X;X>X>X;X;X;X>X;X>X>X;X>X;X;X:X%XF.X.X X X t j j j j j j g * * * 0 0 0 0 0 0 0 k.=X'.|.XXoX=X=X$X X,X>X>X;X>X;X>X=X@X=X=X>X*X",
"K.`.`.[.[.[.`.`.`.`.`.`.`.].`.).#XU.i.X.X X X * j j j j j j * * * * 0 0 0 0 0 0 0 e.R._.I.T._._.).U.T..X*X+X+X+X+X+X+X+X+X+X.X].",
"_.:X*X&XS. X X+XoX$X.X^.I..X.X|.r.r.k.B w 9 w t j j j g t g * & % & e e 9 0 d d d q.m.m.m.*X&X&X*X].$X-X-X-X&X&XoX&X*X&X*X*X&X[.",
" X,X,X,X}.P.P.s.S.Q.Q.W.@X,X,X,X: 8 8 G 9.9.9.N j j j & * * % X X X & * * u ;.:.:.s : : : ;X>X>X>X*X$X,X,X>X>X>X>X=XOX/.=X;X;X-X",
"$X,X,X,X,X>XoX|.@X>X@X@X,X,X>X,X: : : G 9.9.9.N j j k * * * % X X X * * * u :.:.:.s : : : ;X>X;X;X*X*X,X>X>X>X>X;X=X^.W.{.=X=X,X",
"%X,X<X,X,X>X>X;X@X@X>X>X>X>X>X,X: : : G 9.9.9.H c c u & % & $ X X X t u u f :.:.:.s : : : >X=X>X;X&X$X>X>X>X=XOX@X{.g.s.f.oX=X,X",
" X,X,X,X,X>X>X>X@X@X@X>X>X>X>X,X: : : G 9.9.9.<.:.:.-.X X # X X X X -.:.:.;.;.:.:.s : : : =X;X;X;X&X$X,X>X>X@X!.S.s.y.!.d.{.=X,X",
" X<X,X,X,X>X>X>X@X>X;X>X>X>X>X>X: : : G 9.9.9.1.:.:.-.X X X X X X X -.:.:.:.:.:.:.q : : : ;X;X=X=X&X&X>X>X;X=X/.s.z.'.=XoX'.@X>X",
" X,X,X,X>X>X,X,X>X>X>X>X>X>X>X>Xb b v ` 1.<.>.-.*.U J l l l l l k z =.&.*.*.*.*.*.H b b b ;X=X;X=X*X&X;X@X@XXX(.XX}.@X=X/.f.j.=X",
" X,X>X,X>X>X>X;X>X>X>X>X@X,X>X>X>X,X).0.: : : : : : p @XXXQ.B.W.].,Xp : : : : : : e.;X;X;X@X=X@X@X[.[.@X@X(.Q.OX=X=X;X;X=XXXW.XX",
" X,X,X,X,X>X,X,X>X>X>X,X>X>X>X>X>X,Xx.[ : : : : : : i D.V./.oXXX).=Xp : : : : : , r.=X=X;XOXXXoXOXE.!.S.V.V.(.@X;X;X;X;X;X;X@X@X",
".X,X,X,X@X>X;X,X>X>X@X>X@X,X@X>X>X,Xx.O.r e r e r i v f.~.@X=X>X).=Xv e e r e r i k.=X{.Q.Z.Q.h.Z.Z.|.@X@X/.V.oX=X;X;X=X;X=X@X>X",
".X,X,X,X;X>X>X;X>X>X>X;X>X>X>X>X;X,X).oXC.C.^.d.H.S.E.C.|.=X=X>Xx.d.x.B.{.!.O.W.'.oX{.E.c.{.+X=XXXH.[.>X>X;XQ.}.@X@X@XOX@XoXXX;X",
" X,X>X>X,X:X>X>X>X>X;X@X>X>X>X>X>X,X[.;XZ.W.s.y.z.S.N.N.P.oX=X>XT.'.d.W./.H.A.C.z.W.E.c.V.oX=X=X;XXX[.;X;X;XXXQ.+XOX^.d.A./.!.;X",
" X,X,X>X,X,X;X,X;X>X>X;X>X,X@X>X>X>X[.>X@XZ.Q.Q.Z.f.E.XX|.'.@X>X).;X=X=X/.a./.d.G.B.H.H.W.XX=X=X=XXX).=X;X@XoX!.B.P.y.Q.Q.A.oX>X",
"L.:X+X+X+X+X+X+X+X+X+X+XoX+X+X+X*X#XY.OXoX+X'.'.oXXXoXoX|.oXoX[.F.oX+X+XXXc.y.z.y.d.d.C.A.H.'.+X+X`.Y.=XoX|.OX+X}.^.s.z.@.@.^..X"
};
