/* XPM */
static char *result[] = {
/* columns rows colors chars-per-pixel */
"65 65 107 2 ",
"   c #382F33",
".  c #4E312B",
"X  c #4F322C",
"o  c #45373A",
"O  c #45383A",
"+  c #433A3E",
"@  c #6D3E35",
"#  c #613F38",
"$  c #703F38",
"%  c #375133",
"&  c #227938",
"*  c #237938",
"=  c #227939",
"-  c #237939",
";  c #237A39",
":  c #237A3A",
">  c #247C39",
",  c #247C3A",
"<  c #247E3A",
"1  c #33793F",
"2  c #4C5A3D",
"3  c #674039",
"4  c #75443C",
"5  c #77443D",
"6  c #4A4245",
"7  c #4E4648",
"8  c #4E4649",
"9  c #4E464A",
"0  c #584444",
"q  c #524C4F",
"w  c #5D4948",
"e  c #5E4848",
"r  c #5E4948",
"t  c #595255",
"y  c #654C4B",
"u  c #7B564E",
"i  c #745954",
"p  c #775C57",
"a  c #486B44",
"s  c #526F42",
"d  c #427845",
"f  c #4E7D46",
"g  c #4B7F4A",
"h  c #6F696B",
"j  c #8B5B54",
"k  c #896A61",
"l  c #8E6E64",
"z  c #936961",
"x  c #986B64",
"c  c #9A6F67",
"v  c #9F726B",
"b  c #9F736B",
"n  c #9D716C",
"m  c #9E736C",
"M  c #9F736C",
"N  c #9F746C",
"B  c #A2766E",
"V  c #24823B",
"C  c #25823B",
"Z  c #26843C",
"A  c #25863C",
"S  c #26883C",
"D  c #268A3D",
"F  c #278C3E",
"G  c #28923F",
"H  c #289540",
"J  c #299740",
"K  c #2A9940",
"L  c #299A40",
"P  c #2A9A41",
"I  c #2A9B41",
"U  c #2B9B41",
"Y  c #448048",
"T  c #45984C",
"R  c #4E9750",
"E  c #579654",
"W  c #B78A7B",
"Q  c #B98B7B",
"!  c #B98C7C",
"~  c #BA8D7D",
"^  c #918C8E",
"/  c #908D8E",
"(  c #969294",
")  c #AC9A98",
"_  c #A7A3A4",
"`  c #A7A4A4",
"'  c #A6A4A5",
"]  c #AAA7A7",
"[  c #ADACAC",
"{  c #B1AFB0",
"}  c #B2AFB0",
"|  c #B2B0B0",
" . c #C2A9A5",
".. c gray78",
"X. c #D3D3D2",
"o. c gray83",
"O. c #DEDFDE",
"+. c #E6E8E6",
"@. c #E7E9E7",
"#. c gray91",
"$. c #E9E9E9",
"%. c #E8EAE8",
"&. c #E9EAE9",
"*. c #E9EBE9",
"=. c #EAEAEA",
"-. c #EAEBEA",
";. c None",
/* pixels */
";.;.;.;.;.;.;.;.;.;.;.M b b N b ;.;.;.;.;.;.;.;.;.;.;.;.;.;.;.;.;.;.;.;.;.;.;.;.;.;.;.;.;.;.;.;.;.;.;.;.;.;.;.;.;.;.;.;.;.;.;.;.;.",
";.;.;.;.;.;.;.;.;.M M M M M M M M M ;.;.;.;.;.;.;.;.;.;.;.;.;.;.;.;.;.;.;.;.;.;.;.;.;.;.;.;.;.;.;.;.;.;.;.;.;.;.;.;.;.;.;.;.;.;.;.",
";.;.;.;.;.;.;.;.M M M M M M M M M M M ;.;.;.;.;.;.;.;.;.;.;.;.;.;.;.;.;.;.;.;.;.;.;.;.;.;.;.;.;.;.;.;.;.;.;.;.;.;.;.;.;.;.;.;.;.;.",
";.;.;.;.;.;.;.;.M M M M M M M M M M M ;.;.;.;.;.;.;.;.;.;.;.;.;.;.;.;.;.;.;.;.;.;.;.;.;.;.;.;.;.;.;.;.;.;.;.;.;.;.;.;.;.;.;.;.;.;.",
";.;.;.;.;.;.;.;.x M M M M M M M M M z ;.;.;.;.;.;.;.;.;.;.;.;.;.;.;.;.;.;.;.;.;.;.;.;.;.;.;.;.;.;.;.;.;.;.;.;.;.;.;.;.;.;.;.;.;.;.",
";.;.;.;.;.;.;.;.4 j x M M M M M c u ;.;.;.;.;.;.;.;.;.;.;.;.;.;.;.;.;.;.;.;.;.;.;.;.;.;.;.;.;.;.;.;.;.;.;.;.;.;.;.;.;.;.;.;.;.;.;.",
";.;.;.;.;.;.;.;.;.;.@ $ 5 3 # . X ;.;.;.;.;.;.;.;.;.;.;.;.;.;.;.;.;.;.;.;.;.;.;.;.;.;.;.;.;.;.;.;.;.;.;.;.;.;.;.;.;.;.;.;.;.;.;.;.",
";.;.;.;.;.;.;.;.;.;.R f s 2 % a Y P P P P P P P P P P P U U U U U U U U U U U U U U U H > - : : : : : : : : : : ;.;.;.;.;.;.;.;.;.",
";.;.;.;.;.;.;.;.;.;.I I I V ; ; C I I I I I I I I I I I I I I I I I I I I I I I I I I Z ; ; ; ; ; ; ; ; ; ; ; - ;.;.;.;.;.;.;.;.;.",
";.;.;.;.;.;.;.;.;.;.I I I V ; ; C I I I I I I I I I I I I I I I I I I I I I I I I I D ; ; ; ; ; ; ; ; ; ; ; ; ;.;.;.;.;.;.;.;.;.;.",
";.;.;.;.;.;.;.;.;.;.I I I V ; ; C I I I I I I I I I I I I I I I I I I I I I I I I G ; ; ; ; ; ; ; ; ; ; ; ; * ;.;.;.;.;.;.;.;.;.;.",
";.;.;.;.;.;.;.;.;.;.I I I V ; ; C I I I I I I I I I I I I I I I I I I I I I I I J < ; ; ; ; ; ; ; ; ; ; ; ; ;.;.;.;.;.;.;.;.;.;.;.",
";.;.;.;.;.;.;.;.;.;.I I I V ; ; C I I I I I I I I I I I I I I I I I I I I I I I < ; ; ; ; ; ; ; ; ; ; ; ; - ;.;.;.;.;.;.;.;.;.;.;.",
";.;.;.;.;.;.;.;.;.;.I I I V ; ; C I I I I I I I I I I I I I I I I I I I I I I S ; ; ; ; ; ; ; ; ; ; ; ; ; ;.;.;.;.;.;.;.;.;.;.;.;.",
";.;.;.;.;.;.;.;.;.;.I I I V ; ; C I I I I I I I I I I I I I I I I I I I I I F ; ; ; ; ; ; ; ; ; ; ; ; ; : ;.;.;.;.;.;.;.;.;.;.;.;.",
";.;.;.;.;.;.;.;.;.;.I I I V ; ; A I I I I I I I I I I I I I I I I I I I I J , ; ; ; ; ; ; ; ; ; ; ; ; ; ;.;.;.;.;.;.;.;.;.;.;.;.;.",
";.;.;.;.;.;.;.;.;.;.I I I V ; ; A I I I I I I I I I I I I I I I I I I I J < ; ; ; ; ; ; ; ; ; ; ; ; ; : ;.;.;.;.;.;.;.;.;.;.;.;.;.",
";.;.;.;.;.;.;.;.;.;.I I I < ; ; A I I I I I I I I I I I I I I I I I I I Z ; ; ; ; ; ; ; ; ; ; ; ; ; ; ;.;.;.;.;.;.;.;.;.;.;.;.;.;.",
";.;.;.;.;.;.;.;.;.;.I I I < ; ; A I I I I I I I I I I I I I I I I I I D ; ; ; ; ; ; ; ; ; ; ; ; ; ; ; & ;.;.;.;.;.;.;.;.;.;.;.;.;.",
";.;.;.;.;.;.;.;.;.;.I I I < ; ; A I I I I I I I I I I I I I I I I I G ; ; ; ; ; ; ; ; ; ; ; ; ; ; ; ; ; ;.;.;.;.;.;.;.;.;.;.;.;.;.",
";.;.;.;.;.;.;.;.;.;.I I I < ; ; A I I I I I I I I I I I I I I I I J < ; ; ; ; ; ; ; ; ; ; ; ; ; ; ; ; ; & ;.;.;.;.;.;.;.;.;.;.;.;.",
";.;.;.;.;.;.;.;.;.;.I I I < ; ; A I I I I I I I I I I I I I I I I < ; ; ; ; ; ; ; ; ; ; ; ; ; ; ; ; ; ; ; ;.;.;.;.;.;.;.;.;.;.;.;.",
";.;.;.;.;.;.;.;.;.;.I I I < ; ; A I I I I I I I I I I I I I I I S ; ; ; ; ; ; ; ; ; ; ; ; ; ; ; ; ; ; ; ; & ;.;.;.;.;.;.;.;.;.;.;.",
";.;.;.;.;.;.;.;.;.;.I I I < ; ; A I I I I I I I I I I I I I I F ; ; ; ; ; ; ; ; ; ; ; ; ; ; ; ; ; ; ; ; ; ; ;.;.;.;.;.;.;.;.;.;.;.",
";.;.;.;.;.;.;.;.;.;.I I I < ; ; A I I I I I I I I I I I I I J , ; ; ; ; ; ; ; ; ; ; ; ; ; ; ; ; ; ; ; ; ; ; = ;.;.;.;.;.;.;.;.;.;.",
";.;.;.;.;.;.;.;.;.;.I I I < ; ; A I I I I I I I I I I I I J < ; ; ; ; ; ; ; ; ; ; ; ; ; ; ; ; ; ; ; ; ; ; ; ; ;.;.;.;.;.;.;.;.;.;.",
";.;.;.;.;.;.;.;.;.;.I I I < ; ; A I I I I I I I I I I I I Z ; ; ; ; ; ; ; ; ; ; ; ; ; ; ; ; ; ; ; ; ; ; ; ; ; : ;.;.;.;.;.;.;.;.;.",
";.;.;.;.;.;.;.;.;.;.E T I < 1 d g K K K K K K K K K K L G : : : : : : : : : : : : : : : ; - - - - - - - - - - - ;.;.;.;.;.;.;.;.;.",
";.;.;.;.;.;.;.;.;.;.~ ~ ~ B M M v ;.;.;.;.;.;.;.;.;.;.;.;.;.;.;.;.;.;.;.;.;.;.;.;.;.;.;.;.;.;.;.;.;.;.;.;.;.;.;.;.;.;.;.;.;.;.;.;.",
";.;.;.;.;.;.;.;.;.;.~ ~ ~ B M M v ;.;.;.;.;.;.;.;.;.;.;.;.;.;.;.;.;.;.;.;.;.;.;.;.;.;.;.;.;.;.;.;.;.;.;.;.;.;.;.;.;.;.;.;.;.;.;.;.",
";.;.;.;.;.;.;.;.;.;.~ ~ ~ B M M v ;.;.;.;.;.;.;.;.;.;.;.;.;.;.;.;.;.;.;.;.;.;.;.;.;.;.;.;.;.;.;.;.;.;.;.;.;.;.;.;.;.;.;.;.;.;.;.;.",
";.;.;.;.;.;.;.;.;.;.~ ~ ~ B M M m ;.;.;.;.;.;.;.;.;.;.;.;.;.;.;.;.;.;.;.;.;.;.;.;.;.;.;.;.;.;.;.;.;.;.;.;.;.;.;.;.;.;.;.;.;.;.;.;.",
";.;.;.;.;.;.;.;.;.;.~ ~ ~ B M M n ;.;.;.;.;.;.;.;.;.;.;.;.;.;.;.;.;.;.;.;.;.;.;.;.;.;.;.;.;.;.;.;.;.;.;.;.;.;.;.;.;.;.;.;.;.;.;.;.",
";.;.;.;.;.;.;.;.;.;.~ ~ ~ B M M n ;.;.;.;.;.;.;.;.;.;.;.;.;.;.;.;.;.;.;.;.;.;.;.;.;.;.;.;.;.;.;.;.;.;.;.;.;.;.;.;.;.;.;.;.;.;.;.;.",
";.;.;.;.;.;.;.;.;.;.~ ~ ~ M M M n ;.;.;.;.;.;.;.;.;.;.;.;.;.;.;.;.;.;.;.;.;.;.;.;.;.;.;.;.;.;.;.;.;.;.;.;.;.;.;.;.;.;.;.;.;.;.;.;.",
";.;.;.;.;.;.;.;.;.;.~ ~ ~ M M M n ;.;.;.;.;.;.;.;.;.;.;.;.;.;.;.;.;.;.;.;.;.;.;.;.;.;.;.;.;.;.;.;.;.;.;.;.;.;.;.;.;.;.;.;.;.;.;.;.",
";.;.;.;.;.;.;.;.;.Q ~ ~ ~ M M M n ;.;.;.;.;.;.;.;.;.;.;.;.;.;.;.;.;.;.;.;.;.;.;.;.;.;.;.;.;.;.;.;.;.;.;.;.;.;.;.;.;.;.;.;.;.;.;.;.",
";.;.;.;.;.;.;.;.;.Q ~ ~ ~ M M M n ;.;.;.;.;.;.;.;.;.;.;.;.;.;.;.;.;.;.;.;.;.;.;.;.;.;.;.;.;.;.;.;.;.;.;.;.;.;.;.;.;.;.;.;.;.;.;.;.",
";.;.;.;.;.;.;.;.;.Q ~ ~ ~ M M M n ;.;.;.;.;.;.;.;.;.;.;.;.;.;.;.;.;.;.;.;.;.;.;.;.;.;.;.;.;.;.;.;.;.;.;.;.;.;.;.;.;.;.;.;.;.;.;.;.",
";.;.;.;.;.;.;.;.;.Q ~ ~ ~ M M M n ;.;.;.;.;.;.;.;.;.;.;.;.;.;.;.;.;.;.;.;.;.;.;.;.;.;.;.;.;.;.;.;.;.;.;.;.;.;.;.;.;.;.;.;.;.;.;.;.",
";.;.;.;.;.;.;.;.;.Q ~ ~ ~ M M M n ;.;.;.;.;.;.;.;.;.;.;.;.;.;.;.;.;.;.;.;.;.;.;.;.;.;.;.;.;.;.;.;.;.;.;.;.;.;.;.;.;.;.;.;.;.;.;.;.",
";.;.;.;.;.;.;.;.;.Q ~ ~ ~ M M M n ;.;.;.;.;.;.;.;.;.;.;.;.;.;.;.;.;.;.;.;.;.;.;.;.;.;.;.;.;.;.;.;.;.;.;.;.;.;.;.;.;.;.;.;.;.;.;.;.",
";.;.;.;.;.;.;.;.;.Q ~ ~ ~ M M M n ;.;.;.;.;.;.;.;.;.;.;.;.;.;.;.;.;.;.;.;.;.;.;.;.;.;.;.;.;.;.;.;.;.;.;.;.;.;.;.;.;.;.;.;.;.;.;.;.",
";.;.;.;.;.;.;.;.;.Q ~ ~ ~ M M M n ;.;.;.;.;.;.;.;.;.;.;.;.;.;.;.;.;.;.;.;.;.;.;.;.;.;.;.;.;.;.;.;.;.;.;.;.;.;.;.;.;.;.;.;.;.;.;.;.",
";.;.;.;.;.;.;.;.;.Q ~ ~ ~ M M M n ;.;.;.;.;.;.;.;.;.;.;.;.;.;.;.;.;.;.;.;.;.;.;.;.;.;.;.;.;.;.;.;.;.;.;.;.;.;.;.;.;.;.;.;.;.;.;.;.",
";.;.;.;.;.;.;.;.;.Q ~ ~ ~ M M M n ;.;.;.;.;.;.;.;.;.;.;.;.;.;.;.;.;.;.;.;.;.;.;.;.;.;.;.;.;.;.;.;.;.;.;.;.;.;.;.;.;.;.;.;.;.;.;.;.",
";.;.;.;.;.;.;.;.;.Q ~ ~ ~ M M M n ;.;.;.;.;.;.;.;.;.;.;.;.;.;.;.;.;.;.;.;.;.;.;.;.;.;.;.;.;.;.;.;.;.;.;.;.;.;.;.;.;.;.;.;.;.;.;.;.",
";.;.;.;.;.;.;.;.;.Q ~ ~ ~ M M M n ;.;.;.;.;.;.;.;.;.;.;.;.;.;.;.;.;.;.;.;.;.;.;.;.;.;.;.;.;.;.;.;.;.;.;.;.;.;.;.;.;.;.;.;.;.;.;.;.",
";.;.;.;.;.;.;.;.;.Q ~ ~ ~ M M M n ;.;.;.;.;.;.;.;.;.;.;.;.;.;.;.;.;.;.;.;.;.;.;.;.;.;.;.;.;.;.;.;.;.;.;.;.;.;.;.;.;.;.;.;.;.;.;.;.",
";.;.;.;.;.;.;.;.;.Q ~ ~ ~ M M M ;.;.;.;.;.;.;.;.;.;.;.;.;.;.;.;.;.;.;.;.;.;.;.;.;.;.;.;.;.;.;.;.;.;.;.;.;.;.;.;.;.;.;.;.;.;.;.;.;.",
";.;.;.;.;.;.;.;.;.Q ~ ~ ~ M M M ;.;.;.;.;.;.;.;.;.;.;.;.;.;.;.;.;.;.;.;.;.;.;.;.;.;.;.;.;.;.;.;.;.;.;.;.;.;.;.;.;.;.;.;.;.;.;.;.;.",
";.;.;.;.;.;.;.;.;.Q ~ ~ W M M M ;.;.;.;.;.;.;.;.;.;.;.;.;.;.;.;.;.;.;.;.;.;.;.;.;.;.;.;.;.;.;.;.;.;.;.;.;.;.;.;.;.;.;.;.;.;.;.;.;.",
";.;.;.;.;.;.;.;.;.Q ~ ~ W M M M ;.;.;.;.;.;.;.;.;.;.;.;.;.;.;.;.;.;.;.;.;.;.;.;.;.;.;.;.;.;.;.;.;.;.;.;.;.;.;.;.;.;.;.;.;.;.;.;.;.",
";.;.;.;.;.;.;.;.;.! ~ ~ W M M M ;.;.;.;.;.;.;.;.;.;.;.;.;.;.;.;.;.;.;.;.;.;.;.;.;.;.;.;.;.;.;.;.;.;.;.;.;.;.;.;.;.;.;.;.;.;.;.;.;.",
";.;.;.;.;.;.;.;.;.! ~ ~ W M M M ;.;.;.;.;.;.;.;.;.;.;.;.;.;.;.;.;.;.;.;.;.;.;.;.;.;.;.;.;.;.;.;.;.;.;.;.;.;.;.;.;.;.;.;.;.;.;.;.;.",
";.;.;.;.;.;.;.;.;.! ~ ~ W M M M ;.;.;.;.;.;.;.;.;.;.;.;.;.;.;.;.;.;.;.;.;.;.;.;.;.;.;.;.;.;.;.;.;.;.;.;.;.;.;.;.;.;.;.;.;.;.;.;.;.",
";.;.;.;.;.;.;.;.;.! ~ ~ W M M M  .%.%.$.=.=.&.&.&.&.&.&.&.&.&.&.&.&.&.&.&.&.&.=.=.=.%.%.@.@.;.;.;.;.;.;.;.;.;.;.;.;.;.;.;.;.;.;.;.",
";.;.;.;.;.;.7 6 q l ~ ~ W M M M ) ..&.&.&.&.&.&.&.&.&.&.&.&.&.&.&.&.&.&.&.&.&.&.&.&.&.&.&.&.&.&.&.&.&.-.&.=.#.;.;.;.;.;.;.;.;.;.;.",
";.;.%.( +         k ~ ~ W M M M e   9 ' &.&.&.&.&.&.&.&.&.&.&.&.&.&.&.&.&.&.&.&.&.&.&.&.&.&.&.&.&.&.&.&.&.&.&.&.&.&.-.=.@.;.;.;.;.",
"=.&.{             k ~ ~ W M M M e       / &.&.&.&.&.&.&.&.&.&.&.&.&.&.&.&.&.&.&.&.&.&.&.&.&.&.&.&.&.&.&.&.&.&.&.&.&.&.&.&.&.&.;.;.",
"%.&.X.8           k ~ ~ W M M M 0       | &.&.&.&.&.&.&.&.&.&.&.&.&.&.&.&.&.&.&.&.&.&.&.&.&.&.&.&.&.&.&.&.&.&.&.&.&.&.&.&.&.&.$.;.",
";.;.@.=.` h 8     O w i p y r o   t ^ X.&.&.&.&.&.&.&.&.&.&.&.&.&.&.&.&.&.&.&.&.&.&.&.&.&.&.&.&.&.&.&.&.&.&.&.&.&.&.&.&.&.=.+.;.;.",
";.;.;.;.;.;.;.o.[ ] _ _ _ _ } X.O.&.&.&.&.&.&.&.&.&.&.&.&.&.&.&.&.&.&.&.&.&.&.&.&.&.&.&.&.&.&.&.&.&.&.&.&.&.&.&.=.&.%.;.;.;.;.;.;.",
";.;.;.;.;.;.;.;.;.;.;.;.;.;.;.@.%.*.=.&.&.=.&.&.&.&.&.&.&.&.&.&.&.&.&.&.&.&.&.&.&.&.&.&.&.=.&.&.=.*.%.@.;.;.;.;.;.;.;.;.;.;.;.;.;.",
";.;.;.;.;.;.;.;.;.;.;.;.;.;.;.;.;.;.;.;.;.;.;.;.;.;.;.;.;.;.;.;.;.;.;.;.;.;.;.;.;.;.;.;.;.;.;.;.;.;.;.;.;.;.;.;.;.;.;.;.;.;.;.;.;."
};
