/* XPM */
static char *f4bec85c0df34c73821eafd6c551ac812DttY6XvR4RJJewg[] = {
/* columns rows colors chars-per-pixel */
"64 64 178 2 ",
"   c #4F4B1F",
".  c #574F1D",
"X  c #57551F",
"o  c #59531F",
"O  c #544F23",
"+  c #584D21",
"@  c #575326",
"#  c #5A5224",
"$  c #5A5429",
"%  c #5D592C",
"&  c #615D31",
"*  c #856C00",
"=  c #896E04",
"-  c #877001",
";  c #8C7304",
":  c #8E7609",
">  c #8F7809",
",  c #927A05",
"<  c #91770A",
"1  c #957D0D",
"2  c #997E0A",
"3  c #867519",
"4  c #967D11",
"5  c #997E11",
"6  c #857C3F",
"7  c #978303",
"8  c #96800A",
"9  c #99810D",
"0  c #9F8A0F",
"q  c #978012",
"w  c #9B8314",
"e  c #9C8816",
"r  c #9D851A",
"t  c #9F881A",
"y  c #A18D0E",
"u  c #A18616",
"i  c #A38A15",
"p  c #A1871A",
"a  c #A48B1D",
"s  c #A88F1A",
"d  c #A69116",
"f  c #AC941C",
"g  c #AD991D",
"h  c #B0961C",
"j  c #B39B1D",
"k  c #B8A21F",
"l  c #A58D22",
"z  c #A98F21",
"x  c #A79024",
"c  c #AC9424",
"v  c #AE9923",
"b  c #AE962A",
"n  c #B19625",
"m  c #B49C24",
"M  c #B89F25",
"N  c #B19629",
"B  c #B59C2A",
"V  c #B99E2C",
"C  c #A49437",
"Z  c #A79639",
"A  c #A8973B",
"S  c #A9983C",
"D  c #B69E30",
"F  c #B99F33",
"G  c #B7A023",
"H  c #BAA225",
"J  c #BEA826",
"K  c #B6A02E",
"L  c #BAA22C",
"P  c #BFA82D",
"I  c #B7A332",
"U  c #BCA434",
"Y  c #BEA836",
"T  c #BEA63A",
"R  c #BFA939",
"E  c #C3AB2E",
"W  c #C0A636",
"Q  c #C3AB35",
"!  c #C8AE35",
"~  c #C1A73A",
"^  c #C4AC3D",
"/  c #C9AE3E",
"(  c #C7B036",
")  c #CAB135",
"_  c #C6B03F",
"`  c #C9B13D",
"'  c #CFBA3F",
"]  c #8E8649",
"[  c #9B9253",
"{  c #A59C5B",
"}  c #AEA242",
"|  c #B2A344",
" . c #B8A74B",
".. c #BAAB4E",
"X. c #BEB04E",
"o. c #BFAE52",
"O. c #ABA264",
"+. c #B1A76A",
"@. c #B4AC6F",
"#. c #B7AD71",
"$. c #B9AF71",
"%. c #BCB374",
"&. c #C1A740",
"*. c #C7AE40",
"=. c #C7AD42",
"-. c #C4AF42",
";. c #C6AE42",
":. c #C7AF43",
">. c #C4AD41",
",. c #C6AB45",
"<. c #C7AD44",
"1. c #C7AF45",
"2. c #C7AD46",
"3. c #C7AE41",
"4. c #CAAC40",
"5. c #C8AF41",
"6. c #C8AF43",
"7. c #CCAD41",
"8. c #C8AE45",
"9. c #C8AF42",
"0. c #C9AF48",
"q. c #C7B041",
"w. c #C7B341",
"e. c #C5B043",
"r. c #C4B141",
"t. c #C6B144",
"y. c #C7B245",
"u. c #C7B041",
"i. c #C9B040",
"p. c #C8B140",
"a. c #C9B241",
"s. c #C9B042",
"d. c #C8B142",
"f. c #CBB143",
"g. c #CEB042",
"h. c #C9B044",
"j. c #C8B144",
"k. c #CBB145",
"l. c #C9B245",
"z. c #CAB345",
"x. c #C8B046",
"c. c #CBB047",
"v. c #CAB347",
"b. c #CCB246",
"n. c #CBB544",
"m. c #C9B447",
"M. c #CDB444",
"N. c #CDB446",
"B. c #CDB647",
"V. c #CEB545",
"C. c #CAB143",
"Z. c #CDB348",
"A. c #CDB34A",
"S. c #CCB14B",
"D. c #CBB448",
"F. c #CAB548",
"G. c #CDB549",
"H. c #CCB74A",
"J. c #CFB74B",
"K. c #CEB449",
"L. c #CDB44A",
"P. c #CEB849",
"I. c #D0B747",
"U. c #D0B646",
"Y. c #D2B946",
"T. c #D0B74B",
"R. c #D3B74A",
"E. c #D0B94C",
"W. c #D3B94C",
"Q. c #D2BB4F",
"!. c #D2B94B",
"~. c #C0AF53",
"^. c #C0AF53",
"/. c #C2B154",
"(. c #C3B354",
"). c #C5B458",
"_. c #D6BC53",
"`. c #D3B852",
/* pixels */
"@ @...>.^ ^ ^ ^ >.>.r.>.>.>.>.>.r.r.r.r.4.4.4.4.~ ^ ` Q ; L - l.>.>.>.>.l.l.l.l.l.l.l.l.>.l.y.T T <.T <.>.S.~ 8.8.8.8.8.l.>.>.>.",
"% %.~.l.7./ _ r.y.y.D.m.l.l.l.l.p.p.r.r.4.4.4.4.8.~ ` f i N * ~ l.l.l.l.l.l.l.l.l.l.l.l.>.l.>.U B W U 4.>.S.~ l.4.4.8.8.4.p.4.4.",
"@ @...>.4./ / ^ ^ ^ r.l.l.l.l.l.p.p.r.r.p.>.>.4._.>./ ; g N 4 &.l.l.l.l.>.>.>.>.l.l.l.l.l.D.>.D c U U p./ B.~ p.4.4.4.4.p.l.l.l.",
"@ @...>.4./ / ^ J.>.>.>.p.p.p.4.l.l.>.l.p.>./ b.S.<.9 m m N = <.>.W.l.W.>.>.>.>.>.>.r.r.l.~ ^ v V V L Q ` I ^ / >.>.>.>.p.l.4.4.",
"@ @...>.4./ / >.>.>.c J.4.B.p.^ l.4.>.U p.p./ ~ ~ ~ 9 m m N = <.>.J.>.>.>.>.>.>.>.>.p.p.p.>.~ N B B B L L U ' U / >.>.>.4.4.4.b.",
"@ @...>.4./ / >.>.T * x p.^ ^ ^ T.W J.>.>.b.>.b ,.w c f m N = <.l.~ l.D.>.>.>.>.>.>.r.r.` p.T N B B m B m L Q L >.>.>.4.4.4.4.4.",
"@ @...>.4./ / _ ~ l.p c ; U W.^ U 4 F p.^ U./ < W : c m m N - >.~ p.W : >.>.>.>.>.>.r.p./ B.I V B B B m L f B U / >.>.>.4.4.4.4.",
"  O.| U F U I I D I ^ : N u 1 p.w c a 1 ~ ` i n , f M h h m , ^ U ; ; D D D D D r.r.p.p.>.l._ T T T T T T T T T ^ >.r.>.r.r.r.r.",
"$ #.o.>./ / / ^ p.T >.b 9 N b b N g m N 2 f i m h h h m f m - , q - U / / / >.>.>.>.r.r.p.p.p.` / / / / ^ ^ / / / / r.r.r.r.r.r.",
"% %./.D.g.g.p.r.B.~ p.~ q s V c m f f m h m h m M m m m N f 9 n * W / B.r.r.r.r.r.r.r.r.p.p.p.p.p.p.p.p.r.r.r.r.p.r.r.r.r.r.r.r.",
"$ #...>./ / ^ ^ / ^ >.~ W ; z B g h h f d d n m m s s n s N c a c U.B.4.^ ~ ^ ^ / >.r.r.p.p.r.r.r.r.r.r.r.r.r.r.p.r.r.r.p.r.p.p.",
"$ #...>.7./ _ _ U.U./ / / / / / B B / / / B B / / 4.4.4.>.>.4.4.4.4.p.4.r.>.>.>.P./ ~ ~ p.p.r.r.~ R p.l.~ T ~ p.p.R r.r.p.p.p.p.",
"$ #...>.4./ _ p.g.g./ ~ ^ / / / B B / / / V V / 4.8.4.4.>.>.4.4.4.4.p.4.r.>.>.>.B.p.R./ r.r.r.r.p.~ c / m.r.B.~ p.R.l.l.r.r.p.p.",
"$ #...>.4./ _ p./ / Q Q ~ / / / m m ( / ! m m / >.8.8.<.>.>.>.4.l.l.l.>.r.>.>.>.>.>.~ B.r.r.r.r.~ T - l.~ / R l.l.~ r.p.r.r.p.p.",
"$ #...r.4./ _ _ / ~ W U / / / / m m ) ! ! M m / >.<.<.>.>.>.>.p.l.4.4.4.r.>.>.>.l.4 >.>.>.>.>.>.>.: p p.T : r.P.R.w ~ ~ r.r.r.p.",
"$ #...r.r./ _ / B.~ F V 4./ / / L J J J ) G G L Y.B.p.>.T ~ >.r.p.p.p.r.>.>.>.>.>.- b >.>.w <.J.4 t b D q >.>.c < w / ~ r.r.r.p.",
"$ #...r.r./ / ~ p.W M B g./ U M H H H H E H H H ` / ~ R T ~ >.r.p.r.r.r.>.r.>.>./ t * T >.q : w B b a t w w * c - l.l.B.r.r.r.r.",
"# #...r.r./ ~ T Q L m m Q L m f m m m m H H L m Q T L V Y R >.r.p.>.r.r.>.>./ / ` , v q 8 f v f v v g g 0 g g 9 ~ ~ p.>.r.r.r.r.",
"@ $...r./ ~ ~ U L G j h h j j j j m m m L L B N L K B v Y ^ _ _ p.>.>.>.>.>./ / M., m v f g m d G m g f k H y g Q U / p.r.r.r.r.",
"+ $.} r./ ^ ~ W m m G G G G H H H M M M L L L L L I I I / / / _ >.>.>.>.>.>./ / Q , v v m m m m j j m m g G 7 Q Y R ~ T T T T T ",
"+ @.| ^ >.>./ ~ Q Q Q Q Q Q Q Q Q Q ~ ~ Q Q Q ~ ~ ~ ~ ^ ^ / / / >.>.>.>.>.>./ / _ T Y I L L L L L L L L v ; ' Q _ r.r.>.>./ / / ",
"# +...R ^ >.4.p.g.M.M.g.p.p.p.p.g.g.p.p./ / / 4.>.r._ _ / / / / r.r.>.>.>.>./ _ p.D.m.l.>.>.>.>.^ ^ ~ ~ p.n.^ B.p.l.l.l.p.r.r.r.",
"# O.X.R ~ ^ >.>.p.p.4.4.p.p.p.p.7.7.7.7.4.4.p.p.r.r.r._ / / / >.r.r.>.>.>./ / / l.>.S.<.<.<.<.<.<.<.<.<.l.W.~ >.>.>.>.>.>./ / / ",
"o { ).B ^ / >.r.r.p.p.>.>.^ ~ ~ ^ ~ W W >.>.>.4.U U U U >.^ >.>.>.>.4.p./ L U g.b.l.8.8.8.F 8.S.l.l.l.l.l.p.l.l.8.8.8.l.>.p.W p.",
". [ | I ^ 4.<.<.>.r.r.>.>./ ^ ^ ^ ^ ^ ^ >.>.>.>.>.>.>.>./ / >.>.>.>.4./ / U L Q ^ >.4.l.^ W p.b.l.l.l.l.p.p.l.l.8.8.8.8.>.~ I p.",
"o { | R / 4.<.y.4.p.r.>.>.>./ / >.>.>.>.4.>.p.4.p.p.p.p.r.>.>.>.4.4.4./ ^ P B K U ~ >.p.T p.>.p.p.p.p.p.p.p.l.l.8.8.l.8./ U N ' ",
"o %.(./ 4.4.<.y.4.p.p.>.>.>.>.p.4.p.p.p.4.4.>.>./ / / / / / >.>.4.4.4./ ~ U B g B U / g.I B./ 4.p.p.p.p.4.4.l.l.l.l.l.p./ B g ' ",
"o %.(.>.4.4.<.y.4.p.p.p.J.^ J.p.~ B.^ g.4.4.>.>.>.>.>.>./ >.>.>.4.4.4./ ^ Q L m L m M.^ B T T p.p.p.p.p.4.4.p.4.B.p.T ` Q m H ) ",
"o %.(.>.4.4.<.y.>.r.p.p./ ~ T - >.W B./ >.>.>.>.>.>.4.4.>.>.>.>.>.>.>.>./ Q L m B m ^ Q N ~ L g.p.p.p.p.p.p.p.p./ U ` ' L m G E ",
"X %.(.>.7.4.<.y.r.r.r.p.~ m.q b T ~ ~ p 4.4.>.>.>.>.>.4.>.>.>.>.>.>.>.>./ Q L m m m P L L N ` ^ p.p.p.p.p.p.p.p.~ L ^ ( m j k J ",
"# %.(.>.7.7.<.y.>.>.r.r.>.~ > c * W U w >.4.>.>.>.>.4.4.>.>.>.>.>.>./ >./ Q L N B B N m B L / / p.p.p.p.p.p.p.p.^ Q B Q g m G G ",
"# %./.>.7.7.<.r.r.4.>.>./ I a D b p q b T c q / N J.W 4.W J.V : >.>.>.>./ / / >.>.>./ >.>.>.>.>./ / 4.4.p.p.p.4.` / _ / / / / ` ",
"@ %./.r.7.7.r.r.p.B.: b / a c I B N b u p 1 N 1 1 ~ p.p.a * - W >.>.>.>.>.>.4.4.4.4.>.>.>.>.>.>.4./ 4.4.p.p.p.4.4./ / / 4.>.4.>.",
"@ %././ / / _ _ p.B.: u < w N c n N m N c f d N f ~ w w z 1 T ^ >.>.>.>.>.>.4.4.4.4.>.>.>.>.4.>.4./ / / p.p.p.4.4.>.>.>.4.4.>.>.",
"@ %./.r./ / _ _ >.4./ p N B f m c c m m h h f N c 1 b b 1 ^ >.l.>.>.4.4.>.>.>.>.4.>.>.>.4.4.>.>./ / / / p.p.p.4.4.>.>.>.4.>.>.>.",
"@ %./.r./ / _ _ W R.~ w n n n n N B m d g h f N N n c a 4.4.p.p.8.8.4.4.p.p.p.p.4.4.4.4.4.4.4.4./ / / / / p.p.~ >.>.>.>.T >.B.~ ",
"@ %./.>.7.7._ _ 4.b.p.~ / / / / ~ ` ^ U ^ ( Q ` g.p.p.>.>.4.p.p.8.8.4.>.>./ >.>.>.>.4.4.4.4.4.p./ / / / W p.p.^ >.>.>.4.N D >./ ",
"@ %./.>.7.7._ r.p.4.b.T.^ ~ ^ ^ T ^ ~ F ^ >.~ ^ ~ ~ / >.4.4.4.4.4.4.4.4.>.>.>.>.4.4.4.4.4.4.p.p./ ` ` / U >.B.p.>.>.>.4.p 4 p.>.",
"@ %./.>.7.7.r._ 4.g.4.W g.g.g.g.W >.^ I p.b.>.b.T ~ 4.l.8.4.4.4.4.p.p.4.V V V V 4.4.4.4.p.r.p./ ` ` ` ` V ^ B.b.>.4.4.4.N z p b ",
"& %.).~ 4.U.p.I p.g.4.4.b.~ ^ T.<.8.~ V g.p.>.S.V T >.J.8.8.W B.p.p.p.p.p.p.p.p.p.p.p.p.p.I / ^ ` L U U B ^ b.l.4.p.p.p.U a b q ",
"% $. .D n ~ ` ~ p.4.4.4.T.4.W ^ >.p.~ B Q p.>.8.B I >.S.8.<.U ` p.p.p.p.p.p.p.p.p.p.p.p.4.U ~ / ` B P L B ~ b.l.4.4.4.4.>.1 N N ",
"  @./.1 a ~ m./ p.7.4.4./ 4.p.^ <.l.Q B B ` 4.>.B N l.<.l.>.V Q ` p.p.p.p.p.p.p.p.p.p.p.>.~ U ` ^ m L B B ^ b.l.4.4.4.4.~ p.~ 4.",
"+ #.3 l n / B._ p.4.4.4.z ^ W.b.>.p.Q m g ^ p.^ N g p.^ l./ N L ` / >.p.p.p.p.p.p.p.p.p.^ / F p.Q g m N B ~ l.l.l.4.4.4.b.^ >.^ ",
"+ 6 A r V B w w / ~ a * V ^ b.4.^ ^ m m P P T T m m / / >.^ m m / / / / p.p.p.p.p.p.p.p.I >.V N B B B B T ~ >.l.l.l.p.p.J.>.b./ ",
"@ ] Z p * u a I ; 5 1 U ^ ^ ^ ^ / ^ m G J L P P m h Q W W Q m G Q / / W p.p.p.p.p.p.p.p.~ b B N L L L L N F W 4.l.l.p.l.p.4./ / ",
"$ [ Z c n B w e B p p ^ p.~ W U Q Q j j H H L L G h P V V U j G L / / V p.p.p.p.p.p.p.p./ N I B m m m m B U >.8.l.l.p.p.^ p.I ~ ",
"$ { C B N U b K t < p.Q.p.^ U N V L g h G m B B m h L N N L m L N / / N p.p.4.4.p.p.p.p.^ R.~ T ^ ^ ^ ^ ^ >.8.l.p.4.p.4.W p.N Q ",
"$ O.S c c c c c < T P.U l.l.~ U N N N N B B N N N N N N N N N B I I I I >.>.4.4.4.4.4.4.>.<.<.<.>.>.<.<.8.8.0.8.` ^ >.>.4.p.B B ",
"& #...T g.g.p.w.U ^ r.~ ^ m.m.^ / / 4.4.p.p.p.p.4.4./ / / / 4.4.^ ~ / / / / >.>.4.4.4.4.<.<.<.<.<.<.<.<.8.8.8.>.^ Q / >.4.p.B B ",
"& %./.D.4./ _ w.m.r.^ r.~ ^ m.l./ / / / >.>.>.4./ / ^ ^ ^ / / >./ / / / >.>.>.>.r.4.4.4.4.>.>.<.<.<.<.<.8.8.8.>.^ Q / >.p.p.B m ",
"O +.o.l.7.7.p.r.R r.P.p.r.~ ^ m.p.r.r.r.p.p.p.p.4.4.>.>.>.>.4.p.p.` p./ 4.>.>.>.4.p.p.p.p.>.>.>.l.>.>.>.4.4.>./ ^ Q ^ >.p.p.m m ",
"@ $.o.T 4./ / _ >.r.>.r.>.>.>.>.p.r.r.>.>./ >.>.4.p.p.p.p.p.p.p.p./ / / >.>.>.>.8.8.p.p.p.^ ^ r.b.~ T ^ b.I / ` P m ~ >.p.p.m G ",
"@ %.~.~ W W T U >.>.>.>.>.>.>.>.p.p.p.>.>./ / / U U U U U U U T ~ ~ / / / / 4.4.4.4.4.4.4.~ ~ 4.p.T I T L B ` ' P m ~ >.p.p.m G ",
"@ #.o.~ b.g.n.r.>.>.>.>.>.>.>.>.p.p.p.r.4.>.>.>./ / ^ ^ ^ / / / / / / / / / 4.4.4.p.p.p.p.~ ~ p.^ L B L m m ( Q P m Q / 4.` m G ",
"@ $.o.~ ~ ~ ~ ^ >.>.>.>.4.>.8.8.4.r.r.r.>.>.>.>.>.>./ / / >.>.p./ / / / / >.>.>.p.4.4.>.p.~ ~ ` Q B m L m L Q h P h Q ^ ` ` m G ",
"$ #.o.~ / / / ^ >.8.4./ / U 8.S.l.p.p.4.4.>.>.>.>.>.>.>.>.>.>.p.4.4.^ ^ >.>.>.>.p.4.4./ / ~ Q Q L L L H m G G G m m m L L L H H ",
"$ #.o.>./ / / ^ <.<./ / ^ V 8.S.l.p.p.4.r.>.>.>.>.>.4.4.>.>.>.>.4.p.B.l.p.>.>.>.p.4./ / B.` T L L L L L L L H H H H H m m m m H ",
"$ #.o.>./ / / ^ <.<./ ^ Q B >.>.l.p.p.p.r.r.p.p.>.>.4.4.4.4.>.4.4.>./ ^ / >.>.>.4.4./ / B./ T L B m m m m m m m m m m m L L L L ",
"$ #.o.>.4./ ^ / >.>.^ ( P N ~ >.l.p.p.p.p.r.4.4.>.>.4.4.>.4.>.>.B.~ V c >.4.>.4.p.p./ / / / / / / / / / ^ ^ ^ ^ ^ ^ ^ ^ ^ ^ ^ ^ ",
"% #.o.>.7.g.~ R b.g.m m j m ^ / 4.4.4.4.r.4.4.4.p.4.4.4.4.4.4.p.R.p.w : B.4.4.4.p.>.p.>.4./ 4.p.4./ / / / / / / / / / / / / / / ",
"% #.o.>.7.~ ~ I ~ / m G j j / / 4.4.r.r.r.r.4.4.p.p.4.4.4.4.p.p./ >.c < ~ 4.p.4.>.>.4.4.4.4.l.l.4.4.4.p.>.>.>.>.>.>.>.>.>.>.4.>.",
"% #.o.>.4.V ^ B L E j H j j ) ^ 4.4.4.4.p.r.4.4.p.p.4.4.4.4.p.r.~ F N w V / S.>.<.<.8.8.8.8.8.8.8.8.8.8.<.<.<.<.<.<.<.<.<.<.<.>.",
"% #.o.>.4.N / v m L j H j j ( ^ 4.4.4.p.p.p.4.4.r.p.p.4.4.p.r.r.>.l c N c ^ J.~ <.<.<.8.8.8.8.8.8.8.8.8.<.<.<.<.<.>.>.<.<.<.<.<.",
"$ #.o.>.7.~ K v m m k k j G Q ` ` 4.4.p.4.p.4.4.r.p.4.4.4.4.r.r.S.< N b ; U l.`.,.S.<.T ~ >.8.S.8.S.l.T <.<.<.8.<.>.T U F F F U "
};
