/* XPM */
static char *_1874bda7326438f80804384dac5c4d7E6gKM2FfDNVonJZ8[] = {
/* columns rows colors chars-per-pixel */
"74 64 165 2 ",
"   c #5F9015",
".  c #639515",
"X  c #669916",
"o  c #6A9D17",
"O  c #65961A",
"+  c #669819",
"@  c #6B9D1C",
"#  c #6DA114",
"$  c #6EA11C",
"%  c #73A917",
"&  c #72A51C",
"*  c #75A91C",
"=  c #6C9D21",
"-  c #6FA121",
";  c #72A423",
":  c #76AB23",
">  c #79AE24",
",  c #74A629",
"<  c #78A72C",
"1  c #76A929",
"2  c #7BAE2B",
"3  c #77B124",
"4  c #7AB125",
"5  c #77B02A",
"6  c #7CB22B",
"7  c #7EB82C",
"8  c #7CAE31",
"9  c #7EB132",
"0  c #80B52D",
"q  c #81B82E",
"w  c #80AF34",
"e  c #82B534",
"r  c #85BA35",
"t  c #89BD37",
"y  c #85B639",
"u  c #88B73C",
"i  c #86B83C",
"p  c #86BA3A",
"a  c #88B938",
"s  c #89B939",
"d  c #88BB38",
"f  c #89B93A",
"g  c #88BB3A",
"h  c #88BA3B",
"j  c #88BB3B",
"k  c #89BB3B",
"l  c #8ABA3A",
"z  c #8BBB3B",
"x  c #89BC39",
"c  c #8ABD38",
"v  c #8ABD39",
"b  c #89BC3B",
"n  c #8ABD3B",
"m  c #89BE3A",
"M  c #8BBE3B",
"N  c #8CBE3B",
"B  c #89B83D",
"V  c #89BB3D",
"C  c #8BBB3D",
"Z  c #89BB3E",
"A  c #8BBB3E",
"S  c #8ABD3C",
"D  c #8BBD3C",
"F  c #8BBD3F",
"G  c #8BBE3F",
"H  c #8DBD3D",
"J  c #8CBF3C",
"K  c #8CBE3D",
"L  c #8FBF3D",
"P  c #8CBC3E",
"I  c #8DBD3E",
"U  c #8CBC3F",
"Y  c #8DBC3F",
"T  c #8DBD3F",
"R  c #8CBE3E",
"E  c #8DBE3E",
"W  c #8CBF3E",
"Q  c #8CBE3F",
"!  c #8DBE3F",
"~  c #8DBF3F",
"^  c #8EBE3E",
"/  c #8EBF3E",
"(  c #8EBF3F",
")  c #8FBF3F",
"_  c #8BBD3D",
"`  c #91BE3F",
"'  c #8AC03B",
"]  c #8BC03F",
"[  c #8CC13C",
"{  c #8CC03D",
"}  c #8DC03D",
"|  c #8DC03E",
" . c #8DC03F",
".. c #8DC13F",
"X. c #8EC13E",
"o. c #8EC13F",
"O. c #8DC23F",
"+. c #8FC23F",
"@. c #8EC33F",
"#. c #8DC13E",
"$. c #90C13F",
"%. c #8BBD41",
"&. c #8BBF40",
"*. c #8EBD40",
"=. c #8DBF40",
"-. c #8DBF41",
";. c #8EBE40",
":. c #8EBF40",
">. c #8FBF40",
",. c #8FBE41",
"<. c #8FBF41",
"1. c #8DBF42",
"2. c #8DBE43",
"3. c #8DBF43",
"4. c #8FBE42",
"5. c #8FBF42",
"6. c #8DBE46",
"7. c #8DBF41",
"8. c #90BF41",
"9. c #90BF42",
"0. c #90BF42",
"q. c #8CC040",
"w. c #8DC040",
"e. c #8DC140",
"r. c #8DC041",
"t. c #8DC141",
"y. c #8EC040",
"u. c #8EC140",
"i. c #8EC041",
"p. c #8FC041",
"a. c #8EC141",
"s. c #8FC141",
"d. c #8DC240",
"f. c #8DC241",
"g. c #8EC241",
"h. c #8FC241",
"j. c #8EC042",
"k. c #8EC142",
"l. c #8FC142",
"z. c #8EC043",
"x. c #8FC143",
"c. c #8FC242",
"v. c #8FC243",
"b. c #8EC044",
"n. c #8EC144",
"m. c #8FC144",
"M. c #8EC145",
"N. c #8EC141",
"B. c #90C040",
"V. c #91C140",
"C. c #90C041",
"Z. c #91C141",
"A. c #90C042",
"S. c #91C142",
"D. c #90C043",
"F. c #91C043",
"G. c #90C143",
"H. c #91C143",
"J. c #90C342",
"K. c #90C243",
"L. c #90C044",
"P. c #91C144",
"I. c #90C244",
"U. c #91C347",
"Y. c #90C141",
/* pixels */
"u.u.b u.u.u.u.u.u.u.u.u.u.u.u.u.u.u.u.} 6 e > > 7 6 > e b 4 4 4 6 u.r h 2 V =.J.9.W h h W =.9.9.9.9.9.J.=.=.I.J.J.J.9.9.=.} } } } W u.u.u.W e e 6 4 ",
"u.W e u.u.u.u.u.u.u.u.u.u.u.=.u.u.u.u.u.y 2 6 4 4 4 4 4 4 4 4 4 4 7 6 6 9 W u.u.9.W W W 9.9.9.9.Y 9.9.W y W J.J.J.J.9.9.9.9.J.J.9.=.W 9.J.W d 6 6 4 ",
"D r 2 =.u.u.u.u.u.u.u.u.u.y 2 u.u.u.u.u.} h x d x x d p r x x x x r x b h u.u.u.J.J.J.J.J.J.J.J.V W W h 2 W =.J.J.9.9.9.J.J.J.J.; W J.J.J.J.W h p d ",
"0 2 2 u.u.u.u.D =.u.u.u.u.6 ; u.b.u.u.u.u.u.u.u.u.} } } u.} } } } } @.u.u.u.u.u.J.J.J.J.J.J.J.W W r b 6 2 W } u.=.W Y =.J.J.J.h @ V J.J.J.J.J.b.b.b.",
"6 4 7 D b.u.=.%.=.u.u.u.=.$ @ V u.u.u.u.u.u.u.u.u.u.u.%.%.u.u.u.u.u.u.u.u.u.u.u.9.I.J.J.J.J.9.W e 6 6 2 2 } } u.=.W =.=.J.J.9.w ; 2 J.J.J.J.I.I.b.I.",
"7 6 6 V b.u.u.u.u.u.u.b.=.& $ < b.u.u.u.u.u.p p } } } r p h b h h p W u.} } u.u.w u =.9.J.J.9.W y e 6 6 6 r } u.u.J.J.9.J.J.W , ; & J.J.J.I.I.u.%.9 ",
"d b N =.u.u.u.I.u.u.u.u.u.$ ; ; < =.V 8 D 2 . u.u.u.=.b.b.b.b.b.b.b.I.u.u.u.9 =.@ ; y J.=.=.9.9.W D b b b } u.u.u.u.} u.=.W =.; & X 8 3.3.9 =.i . y ",
"} } } u.p u.u.u.u.I.W 2 h @ ; @ @ 2 X ; @ . e u.u.u.u.u.u.u.u.u.b.b.b.u.u.u.; ; O = @ W = V 9.9.J.J.u.} } u.h W u.u.} } J.; W @ & & O 8 = = = O ; u.",
"u.u.' r e u.u.u.b.u.u.- @ $ & & & # & & ; ; u.u.u.u.u.u.u.u.u.u.u.u.u.u.b.u.8 - @ ; @ @ ; 9.9.J.J.J.u.u.} ' 6 } } u.u.} W e X @ * * * # * * & @ h u.",
"u.u.' 7 e u.=.=.u.u.} h 1 2 6 4 4 4 6 6 : r u.u.u.u.u.u.u.u.u.u.u.u.u.u.b.b.W ; 2 2 2 2 e J.9.9.J.J.u.u.} e 6 ' } } } W W D 2 2 2 4 4 4 4 4 2 6 u.u.",
"u.u.r 4 q } h b u.p x D $.} u.u.u.u.u.u.u.u.u.u.u.u.u.u.u.D @ u.u.u.u.J.I.I.u.=.9.9.9.J.J.J.=.J.u.u.u.} b 4 > ' } r } h b D u.=.=.=.u.u.J.u.u.u.u.u.",
"} x 6 3 7 } d 7 ' 7 6 6 D b u.u.b.b.u.u.u.u.u.u.b.b.u.u.J.2 + D u.u.J.J.J.J.u.=.9.9.9.9.J.9.W h u.u.u.' e 3 : ' ' 6 t r 6 2 D D %.u.u.b.b.u.u.u.u.u.",
"' 6 3 3 7 ' 9 6 e 6 > 2 b e J.u.u.u.u.u.u.u.u.u.b.b.b.b.u.; @ p J.J.J.J.J.J.J.=.9.9.=.=.=.=.W 2 D W u.e 4 3 3 D i 6 e r 2 2 e r D u.u.u.u.u.u.u.u.u.",
"r > 4 4 4 4 4 4 4 4 4 > 2 e W u.b.b.u.u.u.u.I.u.I.b.b.b.p @ & 9 u.u.J.J.J.J.u.=.9.=.V u y V W 2 2 8 y 2 > 3 3 6 4 4 4 4 4 > 6 6 u.u.u.u.u.u.u.u.u.u.",
"r r r r d e e e r d d r r p D h V V D =.- V =.u.D u.u.e 2 & * 1 %.=.=.u.u.u.u.=.9.I.I.9.J.9.=.h h p r r d d d r r r r r d r r r D D V V D D 8 9 =.u.",
"u.u.u.u.u.%.Z %.b.u.u.} b h p h V i V V e O , < @ 2 D + X * * $ i , e V V V D =.9.I.I.9.J.9.=.=.W } } u.u.u.u.u.D D u.u.u.=.%.V V V V V V i V O @ 9 ",
"u.u.u.u.u.u.} u.u.u.u.u.} u.u.u.u.u.u.u.u.; $ $ & X $ @ & * * @ @ 1 =.9.9.=.u.u.b.b.b.u.u.u.u.u.u.u.u.u.b.b.b.u.} } u.u.b.3.3.b.u.u.b.b.b.b.u.2 @ $ ",
"u.u.u.u.u.u.u.u.u.u.u.u.u.u.u.u.u.u.=.=.u.V ; > : 2 2 2 > > > : 1 W =.J.9.J.u.u.u.b.b.u.u.u.u.u.u.u.u.u.b.b.b.u.u.u.u.u.b.b.b.b.u.=.b.b.b.b.u.u.2 : ",
"u.u.u.u.u.u.u.u.u.u.u.u.u.u.W D D D D =.u.V y p D W W } W W } } W } J.J.9.9.u.u.=.b.b.u.u.D h u.p W W u.u.I.b.u.u.u.u.u.b.3.b.b.b.V V V %.%.=.D V i ",
"b } D u.u.u.u.u.u.u.u.h u.u.u.u.u.b.b.b.u.=.=.=.=.} u.u.u.u.} u.u.u.u.u.u.u.u.=.y u.u.u.} p e u.e 6 e u.D W b.u.u.u.u.u.u.%.=.b.b.=.=.3.3.3.=.=.=.=.",
"r D h u.u.u.u.u.u.J.0 @ u.} u.u.u.u.u.u.=.D } u.} u.u.u.W D p y y y p p y V D =.8 V =.u.D e e N e e 6 W h W u.u.u.u.u.u.W + y u.u.u.b.b.b.b.b.D W u.",
"} } } u.u.u.u.u.u.h o ; u.} u.u.u.u.u.I.p 7 d u.h } u.u.u.u.W W W W } } W u.u.} u.u.u.W } } } } } } } } } u.u.u.u.u.u.u.@ - 6 u.b.b.b.b.u.u.u.9 p D ",
"W u.} u.u.u.u.u.u., & @ =.} b.b.b.b.b.9.V 5 6 D e W } u.u.u.u.u.u.u.u.u.u.u.} } } h e u.=.} D h W } b W } u.u.u.u.u.J.e @ ; 2 u.u.u.u.u.u.u.' 6 2 r ",
"; r } } D u.u.h p @ & @ %.} 3.b.b.b.b.9.p 6 5 6 9 p W u.u.u.D u.u.u.D u.u.u., =.e + , D D W u.u.u.u.e 1 W } W u.u.u.p ; ; & 2 u.u.u.u.u.u.} b 6 > 6 ",
"2 + 1 9 @ 2 } - + & * @ %., 8 %.%.3.b.u.e 6 6 6 6 r u.u.u.W @ 9 u.b.= 9 1 ; + 1 - @ V < , V e y p y e + = e @ ; h e @ $ * & 2 9 ; D %.=.u.} r 2 6 6 ",
"D = ; ; : & & # & * : @ @ = %.%.%.3.b.u.=.W W W W W u.u.u.u.@ - $ ; $ $ $ & * : ; + @ = =.u.=.W W W } 1 @ $ & & & # & * * & .   i %.%.=.=.=.=.W W N ",
"u.h ; > * > > * > > 2 1 , %.3.b.b.b.b.b.u.u.J.=.=.W u.u.u.u.h @ > : > > > > > > 2 $ e =.=.u.=.u.J.9.J.W > : : : > * : : > > ; y 3.u.u.u.u.=.=.9.9.9.",
"W =.b.r 0 u.r 0 u.u.} u.b.b.3.b.b.b.=.b.u.u.y D u.=.} u.u.u.} W b } } } } W W W D W =.=.=.u.=.9.J.9.J.W } } 9 D b 4 t @.@.J.u.I.b.b.u.u.u.u.u.=.D y ",
"r D b.r 6 D r 4 } u.u.u.=.=.=.b.b.e =.b.b.V = i 8 =.9 D u.u.} } } } } } } } } } b.b.b.u.u.u.u.J.J.9.W y } ' 6 p t : b } } } u.u.u.u.u.D p =.=.b.; e ",
"6 r b 9 6 r 7 > b =.i =.=.=.=.b.b.; , e 1 ; = @ , O , =.} u.} } } } u.u.u.u.u.u.u.b.b.b.u.u.u.I.J.u.r 6 d q 6 e e > r } D b } } u.u.I.V + i ; < O ; ",
"2 6 6 4 4 6 > 4 r e p =.=.u.u.u.u.; @ o $ & $ ; @ @ b.=.W } } } } u.u.u.u.u.u.u.u.b.u.u.u.u.=.I.D D 9 6 7 6 4 4 4 4 7 e 6 W } } u.u.J.p o o & $ & & ",
"6 2 6 4 6 6 6 6 6 9 u.u.u.u.=.=.u.; : : * * : : $ y %.p y y y b b } u.D =.V V V D =.=.=.u.u.D u.h 9 6 6 6 6 6 6 6 4 6 6 r N } } u.u.} r $ & * : : : ",
"} } u.u.} u.} } } u.u.u.u.u.I.V } W W D D W W W D u.u.u.u.u.} } r } W e =.u.u.u.u.=.u.u.=.u.e =.=.=.u.} } } u.} } u.u.u.} } u.u.u.W b } b b b b W =.",
"W u.D h h p h D h V V =.u.u.u.y b } u.u.} u.u.u.u.u.u.u.u.} u.} e } x e u.u.u.u.u.u.u.u.u.V y V =.D D u.W h h p V D D V h W u.u.u.b r } } } W W =.u.",
"W u.W D b p b W D D D =.u.u.b.e 0 b W p W } u.u.u.u.u.u.b p u.b 4 } d 4 } u.u.u.b.b.b.b.u.V 9 %.=.=.D =.D D D V p =.=.=.W W u.u.} b 2 t N b D u.u.b.",
"u.u.u.} } u.} =.=.=.=.=.u.u.u.e > 6 W e W W u.u.u.u.u.} e e u.d > e q > b J.D W u.b.b.b.b.=.D u.u.u.u.u.u.W u.=.u.u.u.u.u.u.u.} } b : > b y W u.u.u.",
"u.u.h @ W h =.=.=.=.=.=.u.u.=.y > > 0 e y } u.u.u.u.h b 4 7 6 4 4 4 4 4 r e e W u.u.b.b.b.u.u.u.u.u.u.u.u.@ h D V u.u.u.u.u.u.} } t > > 6 0 e W u.u.",
"I.J.e @ 2 @ Y h V =.=.=.V u.u.e 6 6 6 6 r } u.u.u.u.V e 4 6 6 6 4 4 4 4 6 2 p } u.u.u.u.u.u.u.u.u.u.u.u.V $ , 1 ; y D W u.W p b } r 6 4 6 6 e u.u.u.",
"8 y , , @ @ @ ; = =.8 @ e =.=.W u.} } u.u.u.u.u.u.u.u.} } } D D D D D D D D u.u.u.u.u.u.u.u.u.u.u.u.i 8 2 : @ @ X @ X e e @ , } u.} D W W D } u.u.u.",
"8 @ & * & * & & o @ @ y =.J.9.9.u.u.u.u.u.u.u.u.u.u.u.u.u.u.u.i 1 b.%.u.u.u.u.u.u.u.u.u.u.u.u.u.u.u.D @ $ & & & & & @ . . 2 u.u.u.u.u.u.u.u.u.u.u.u.",
"W 2 0 6 6 6 6 0 6 2 h J.9.J.9.9.J.J.u.u.u.J.u.D } u.u.u.e u.D @ , ; D u.u.u.u.u.u.u.u.u.u.u.u.u.u.u.=.9 9 6 6 6 6 0 9 9 9 u.u.u.u.u.u.u.u.u.u.u.u.J.",
"J.W $.=.=.y =.=.h =.=.J.J.u.Y s h W W W } u.} r b } u.u.$ e @ ; . = =.u.u.u.u.u.u.u.u.u.u.u.u.u.u.u.u.=.=.=.=.p V u.h D W } u.u.W h h W } W } u.u.W ",
"J.J.W 9.=.0 u.9.e =.=.u.u.u.=.W W W J.D W } r 6 b u.u.J.@ @ ; ; ; 8 =.u.u.u.u.u.u.u.u.u.u.u.u.u.u.u.u.u.u.u.u.y y u.p h } u.} u.u.D D } } W h } b e ",
"=.W } W u.2 W u.6 =.u.V =.u.u.J.J.J.W W e b 2 2 b } J.u.r h h h e u.=.u.u.u.u.u.u.D p I.V =.y @ b.=.u.u.u.u.u.e e } e e W } p u.u.J.J.$.u.D e D 6 2 ",
"2 , b ' b > r b > p q.e e W =.` J.J.W y 2 e 2 2 b $.J.W } } W u.u.u.=.u.u.u.u.u.u.8 O , = < = = 9 8 e - y } } 6 0 t 6 0 b b 6 } J.J.J.J.u.p e 9 2 4 ",
". r 7 d d 4 6 7 4 6 e e 2 N W $.J.J.W y 2 2 6 6 e $.J.J.W b W W =.u.u.u.u.u.u.u.u.2 ; $ $ $ ; @ @ $ + 8 p r t 4 4 7 4 6 6 r 2 b W J.9.9.u.b 6 2 6 > ",
"y } d > 6 4 6 > 4 > 4 > 2 y y ` J.J.$.W D b b D W W 9.J.u.e b =.=.W D =.=.D V V %.2 $ : * * * & & $ ; u.b 6 6 > > > 4 4 > > > 6 9 W 9.9.u.} D D b ' ",
"u.u.} r r d d d d d d r r p h W $.J.J.u.u.u.u.u.u.$.$.u.} 0 e =.u.=.W } } W D D D D p b b t t t t r W u.} h r d t t t d d t b h h u.J.J.W =.u.u.} } ",
"u.u.u.u.u.u.u.u.u.u.b.u.u.u.u.J.J.J.J.J.u.u.W W W } h W W 6 6 D u.} } u.u.J.u.u.u.W W u.u.u.u.u.u.u.} u.} u.u.u.=.=.=.=.u.u.u.u.u.J.9.9.W =.=.J.=.b ",
"u.u.u.u.u.=.V =.%.i i p p D u.J.9.` J.=.u.[ e 7 e b 2 u.b 6 4 r b } } } W W } u.u.u.} u.u.u.%.p p W u.u.u.u.u.=.V =.%.i i i y p u.u.9.9.J.W W u.h 6 ",
"u.u.W u.u.u.u.u.} =.W W W } u.J.` ` 9.=.y r 4 > q q > t t 6 4 4 e } } b 6 b } u.u.u.} } u.u.u.u.u.u.u.u.W u.u.u.W u.W W =.W D W u.=.J.J.J.J.y b 6 4 ",
"u.} y u.u.u.u.u.u.u.u.u.u.} u.J.9.9.9.=.e 6 4 4 4 4 4 4 7 4 4 : 4 d 7 e 2 b } u.u.D h b D W u.u.W } u.u.h } } u.u.u.u.u.u.u.u.u.u.} J.J.J.W r 6 2 > ",
"W h 9 u.} } u.u.u.u.u.u.u.W y 9.J.J.J.=.b 0 0 0 q 7 7 7 7 7 7 7 7 7 7 7 e N } u.u.} u.u.u.u.u.u.W W =.D e W } u.u.u.u.u.u.u.u.u.9 W W J.J.} W e e 7 ",
"y 6 2 u.u.u.u.u.} } u.u.u.p : } J.J.9.=.} u.u.u.=.u.9.9.9.9.9.9.9.9.$.} } } } u.u.u.u.u.u.u.} W D h b 4 > D } u.u.u.u.u.u.u.u.D @ V =.J.J.J.9.` ` ` ",
"7 2 6 } } u.=.h D } u.u.u.; $ $.J.J.J.u.u.u.u.b.=.9.I.9.9.9.9.I.9.9.9.=.u.u.u.u.b.b.u.u.u.u.u.W p 7 r 4 > b } u.u.h p W u.u.u.e @ e =.9.J.9.J.9.9.0.",
"2 2 6 b } } u.u.} u.u.J.b.@ @ e W J.J.u.u.u.=.%.u.u.u.D D D D D h h W =.u.u.u.b.%.3.b.u.u.u.u.u.r 6 6 6 2 r } u.} } } } u.u.u.1 ; 1 =.9.J.J.J.J.J.W ",
"p p x W } u.} } u.u.u.b.=.@ $ , h J.J.=.=.V = y =.=.u.W W W } } } } } =.=.=.=.=.< 8 u.J.u.u.u.u.p e y y r D W } } } W W u.u.u., : @ %.3.I.J.9.=., , ",
"u.u.u.u.W u.u.} u.u.W D =.@ ; @ @ =., @ h O , W J.J.J.9.J.J.J.J.J.J.J.J.9.=.= y + O ; I.w %.=.=.u.u.q.=.u.u.b } u.J.J.9.J.h u.- ; @ = y y @ e @ @ J.",
"u.u.b.D p u.} } u.u.} = 1 $ * & & $ & & X @ Y 9.J.J.J.9.J.J.J.J.J.J.J.J.J.J.< + o ; @ < + 3.b.=.u.u.u.u.u.} 6 } u.J.9.9.J., 1 @ & & $ o o ; X @ e J.",
"u.u.u.e e } u.} u.u.} e + & * * * * * : @ 2 9.9.J.J.J.J.J.J.` J.J.J.J.J.J.J.y @ : & & & 2 u.=.=.u.u.u.u.u.d 2 } } J.W 9.J.W @ @ & * % % * * & ; $.J.",
"u.u.b 4 q } b W } W } W D b N t t t t N d ` J.9.J.J.J.J.J.W 2 J.J.J.J.J.J.J.J.y W V V z W u.u.u.u.u.u.u.} 6 6 ' D h } } W } W D W D D =.W W W W J.J.",
"u.u.9 4 0 } b y } e e r u.u.u.I.I.9.9.J.9.9.9.9.J.J.J.$.} y . W J.J.J.J.J.J.J.9.9.=.W J.J.u.u.=.u.b.u.} r 4 4 ' ' 9 ' x r e } } u.J.b.b.I.b.u.9.J.J.",
"b.r 4 4 7 } r 6 d 6 > 6 D y =.9.9.9.9.9.9.=.=.9.J.J.J.$.9.< + h u.u.u.J.J.J.J.9.$.W W W J.u.W e =.b.u.r 7 4 > ' ' > r e 2 2 b b W } } } u.} } ` J.J.",
"D > 4 4 6 r 6 6 6 4 > > 7 6 J.9.9.9.9.9.J.9.9.9.J.J.J.J.W ; @ e I.u.b.J.J.J.J.9.W W y y y h D 2 e r W 6 > 4 4 r 7 4 6 6 6 6 6 6 W } u.u.u.u.} 9.J.J."
};
