/* XPM */
static char *result[] = {
/* columns rows colors chars-per-pixel */
"64 64 96 2 ",
"   c #A0906B",
".  c #AB9571",
"X  c #AC9A70",
"o  c #B49F75",
"O  c #B39E79",
"+  c #ACA67C",
"@  c #B5A37C",
"#  c #BAA47D",
"$  c #B9A782",
"%  c #BEAA83",
"&  c #BCAE8C",
"*  c #BDB28A",
"=  c #BDB395",
"-  c #C1AD84",
";  c #C4B185",
":  c #CDB187",
">  c #C4B38A",
",  c #CBB58B",
"<  c #C5BA8E",
"1  c #CDBA8E",
"2  c #D1B78C",
"3  c #D3BB8E",
"4  c #C8B693",
"5  c #C5BA93",
"6  c #CBBB92",
"7  c #C7BB9C",
"8  c #CBBE9B",
"9  c #D3BD93",
"0  c #DABF94",
"q  c #C5BCA2",
"w  c #CDC195",
"e  c #CEC19E",
"r  c #D4C195",
"t  c #DAC396",
"y  c #D4C49A",
"u  c #DBC69A",
"i  c #D6CA9E",
"p  c #DBCA9D",
"a  c #E1C69B",
"s  c #E1CA9D",
"d  c #E8CD9E",
"f  c #CDC2A4",
"g  c #CFC5A9",
"h  c #D4C5A3",
"j  c #D8C6A4",
"k  c #D5CAA2",
"l  c #DCCCA2",
"z  c #D2C6AA",
"x  c #D5CBAD",
"c  c #DACDAB",
"v  c #DED1A4",
"b  c #DED8A6",
"n  c #DCD2AC",
"m  c #D7CDB1",
"M  c #D9CEB1",
"N  c #DCD2B4",
"B  c #DDD4B8",
"V  c #E2CEA3",
"C  c #E3D2A5",
"Z  c #E9D3A6",
"A  c #E6DAA7",
"S  c #E9DAA7",
"D  c #E4D4AA",
"F  c #EAD6AB",
"G  c #E5D9AD",
"H  c #ECDAAD",
"J  c #F1DDAD",
"K  c #E2D5B3",
"L  c #E5DAB5",
"P  c #ECDDB2",
"I  c #E0D7BA",
"U  c #E6DCBA",
"Y  c #EADEBA",
"T  c #F1DEB3",
"R  c #F1E1AF",
"E  c #EEE1B4",
"W  c #E6E0BB",
"Q  c #EBE2BD",
"!  c #F3E2B5",
"~  c #FAE7B7",
"^  c #F4E5BA",
"/  c #F9E7BB",
"(  c #F5E9BD",
")  c #FAEABE",
"_  c #E5DCC0",
"`  c #EDE5C1",
"'  c #EEE9C4",
"]  c #F1E6C1",
"[  c #F3EAC4",
"{  c #FDEEC2",
"}  c #F5EEC9",
"|  c #FFF2C6",
" . c #F6F1C9",
".. c #FFF5C9",
"X. c #FFF9CC",
"o. c #FFFCD1",
/* pixels */
"N _ z x m I N B z K K N c N U U U B U ' ] ( Q Q b N e b L Q Q W c N L n U L B N M z 8 B B M B N m M M B N K U _ L x h = 7 c U _ ",
"m | ^ ( / p k H 6 D l D p ~ ....X.[ W X.| [ ( E G E A 5 b ^ | o.g 1 r r t ) ......X.X.....{ V { X.` ` o.X.^ 0 P / ~ Z V F V (  .",
"U X.......u Z 1 % r C y r b / | ..' E | | ) A G | ( E b * w | X.x w A C t P | ....{ / Z Z J T ....[ ` X.X.{ ^ T / / T 1 - V ~ ..",
"K X.X.....{ a F F p 1 V [ ^ T { | Q 5 A S A A X.X.X.X.[ v v w X.z L i < < G { { { T u T P T / { ..' Y X...........{ { P O P T ( ",
"c X.X.....{ { / / | ( { | { | { ) Q L ) ) ) ..X.| X...X.| ( i E f ! G w 6 < V ! T 0 D ] { T { { { ' Q X...........| { ^ 9 2 9 3 ",
"f X.....{ ..| { { | | ..| { { P k n W ) X.......X.X.X.X.X... .E z / ) / { { y 6 4 : V { { { { { { ' ` ........{ { ..| { [ ^ C l ",
"h ..........{ { { | | | | | ( H b E E ) ......X...X.......X...X.N X.| { ..{ T F T T { { { { { { { ] _ X...........{ | { / ^ l t ",
"h X.....{ [ ^ P ( { { | | | | ! E ( W ..............X.........X.B ......{ { { ~ ] { { { | { { { { ] Q ....{ { ..{ ..{ ( ! V r 9 ",
"M X.......^ / T ) { | | | | { ^ E ` ` X.X.X.................| o.m X...| | { | { { { } | { } { { { ] _ ..| | | | ..{ Y j F C j F ",
"x ......{ { / T / ~ ~ { { | { ! ! ` Q X.X...X.....X...........o.M ......| { | { | { | { { { { ] ^ K ` ....| ..| { { T F T 2 O Z ",
"M ......{ / { C V T u ! T u P P H Q ` X.X.........X...........o.m ....{ | | | { } { { { { { { T F 7 ] ..| | ..{ { ..{ { T D 0 F ",
"M ....{ / { T ^ T 9 V , 1 u 1 T E Q ` X.......................X.N ......| | | | | { | { { { { Y l c _ ..| ....{ ..{ { { ^ T / ..",
"M ......{ / / { [ 9 9 T T V > l C Y W X.X.| | ................o.M ....{ { ..| | { | { { { { { { { ` Y ..| | | | | { | { { { { o.",
"m X...{ ..{ ..{ | ^ y > % p V 9 P E ` X.....| ................X.N ......| { { | { { { { { } } { { ` _ ....| { { { | | | { { { X.",
"m ......| | { | { ( ~ ^ @ D D > E Q Q X.X.| ..................X.I ..{ { | | { | { } { { { { { { { ` ] | { | [ T | | { | { { { X.",
"x X...{ ..| | | | { [ / o > 9 D { Q Q X.X.X.........{ ..{ ....o.K ......| | | { { { { | { { { { { ` F H { { { { { { | { ..{ { X.",
"z ......{ { ..{ { { { ^ , Z ^ / { ] Y X...........{ ....{ ..| ..x { | ....{ { { { { { { { { { | { _ j D P ( { { { | ..{ | { { X.",
"B M U U U U U U U L L M c K L L U B m ` Q Q ` Q _ ` ` ] ^ ` U M x K L U L L L D K K n K P Y E ! Y K & - > E ( ( [ / ^ ^ Q Y Y _ ",
"I } } } } ] ] j 4 8 4 8 j D h y K U Y }  .{ ..} [ [ ] } ] ] ] ' I } } } } [ } } [ ] ` [ ] ] [ [ ` K g U n Q ] ] ] [ ] [ ] Y T ] ",
"U X.X.......{ { ^ C p & 9 6 F [ { ..Y X.X.........| ......{ ..o.Q o.o.X.X.X.X.......X...X.........' ` X.X.X.X.................o.",
"_ X.X.......{ { ] V 2 9 t Z { { { X.Y X.......{ | | ..| | | { X.` X.X.X.X.X...| ............| | ..` [ ..X...| ..{ { ....{ ....X.",
"` X.......{ { ^ D 0 2 0 9 V ] { { X.U X.........| | | | | ..{ X.Q X.X.X.X...{ | ......{ ..| ....| ` { ....| | | ^ { | | ..{ | X.",
"_ X.....{ T j F Z V Z T D C T { ..X.Y ....{ { ..| | | | { | { X.W X.X.X.....{ / ..{ { ......| ..{ Q ..{ ! T | | { { | | | | | X.",
"_ X...X.{ / P T 3 O V T T { { { { X._ { { ....{ { { { | { { { X.Q X.X...| ( ^ { ..........| | | ..Q ..^ C F / { { ..| | | | { o.",
"Q ......| | [ ^ Z y C / { { { | { .._ ..) { | { H V H / { { ) { Q X.X.| ~ V C | ......X.| | ..| | Q ^ C , % D ) { ....{ { ..{ o.",
"` ........| { ~ T / { { { ..| { { | ' { T ^ / C 2 u 0 F / { { ^ U X...D ; ; R ) | ..| | | | | | | Y p # l y p { ..{ ..{ ..{ { X.",
"Y ......| | | | ..{ { { { { { { { { Y T   > > 6 i E O 9 P ^ T T N | 6 X ; @ G | X.| | ..X.| | | { Y < C ( ( P ^ { ..{ ....{ ....",
"Q | | { ..| | | { { { ..{ ..{ { { { D P l ! 6 y D D r D - F V F n ! p > # < E ^ ) ......| | ..| | Q R / | { t : F { ..{ { { ..{ ",
"U ) ~ | ..| | | ..{ { { { ....{ { } K { { { { { / 6 V k > p l V L | | E r w C S | ........| | | | Q | | | | ) S D ) | | ....{ { ",
"Y ..| | | | | | ..{ ..{ { { { { { } Y ....{ | { { F 2 4 > , y 8 W |  .{ ( * i v ) | ) ..| ..| | | Q [ ..X.| | | ^ { | | { { ^ [ ",
"L | | | ..| | | { { ..{ { { | { { ` _ ..{ ..{ | { [ ~ T T T a T W ) ) ( i + w + G Q (  .| ......| Q [ | X.| | | ) | | | ) ! l C ",
"x Y [ ( / [ / ] [ ] ^ ^ ] ] ^ ^ ] L L / ] ( / ] / ^ / P P ] / K x b W b i v i * < b E ( [ { { | | Q G ) ) ) ~ / E { { ( p # # x ",
"B U } [ [ [ ^ Q L ' Q Q W N x g I I I U ] ] ] [ ] [ ] ] ` ] } _ N W ' W W ' W N c e f N N N B N N N x N e k c c N U N 5 + e n M ",
"W o.X.X.X.| ^ v i ) | | ..G + G [ ] _ X.{ { T Y T { .......... .B o.o.o.o.X.X.X.X.X.o.X.X.o.X.X.X.Q Q X.o.X.X.X.X.X...| ..X.X. .",
"` X.X.X.X...) ! ~ X.X.X...) A R F ` ` ....| { { | ........{ { X.' o.o.o.X.X.X.) ..X.X.X.X.X.X.X.X.' Q X.X.X.X.X.X.X.X.| X.X.X.' ",
"W ..X...X.X.| R ) | | X.|  .v ^ P ` _ ............| ..{ ........` o.o.X.X.X.X.{ | X...X.X.X. .X.X.' Q X.X.X.X.X.X.X.X.X...X.X. .",
"` | | X.....| ! ) | ..| | | R p p 6 Y ..........| | | | T { | X.` o.o.X.X.X.X.X.X.X.X.X.X...X.| X.` Q X.X.X.X.X...X...X.X.| X. .",
"L ( ) | | ) ~ ! ~ | | ....| | | ^ L Y ......| | | | | { ^ ~ { { ` o.X.X.X.X.X.X.X.X.| X.| X...X.X.` ` X.X.X.X.| ..X...X.| X.|  .",
"D d t 3 r t ! ! ) | | | | ..| X.| ` Q ....| | | | | | { { { { { W o.X.X.X.X.X.X.X.| X.| X.| ......' ` X.X.X.X.| ..........| | ..",
"h l H ! H % v C ) | | ..X.| ..| | ' ` ....| | | | | | | | { { ! B o.X.X.X.X.X.X.X.| X.X.| X.| ....` ' X.X.X.......X.....| ..| ..",
"L 9 6 F S V - l ! ( | | | | ..|  .[ ` ........{ | | | { { { ^ V L o. .( ( ......X.........| ......` Q X.X...........X.| ....| X.",
"Q ( F 6 $ P C C ^ ( | | | X.| | ..' Y ....{ { ..{ | { ^ H T y @ n X.^ b w E ....| ........| ..| ..' Q X...X.........| X...| ..X.",
"L | ) r 3 ! ; ! { | { ..| ..| | ..' ` ....{ ..{ | | { [ F , > C W { b b H 1 ( ! ( ) ........| | | ' Q X.............| ) ......X.",
"Q ..| p @ y P ) { { ....| | ..| ..' Y ......{ ..{ { { ~ P 9 i { W ..5 < v 1 r t A R ..) | ........' Q X.X...............| ....X.",
"Q X.{ F T ( | | ..{ ..{ | ..{ { ..' Y { { ..{ { { ( ~ Z ! / ( | W | E b E r b r i E ( ....| ..| | ` ' X.......| ) Q ) | | | ..X.",
"W | { ^ ) | | | ....| ..| ..| ....] U { { { ~ F t s V F ~ { | ..W ..X.....) b ( { | { |  .| | ) ( n [ ..| | ..) b E ( ....| | X.",
"Q | { | ..| | | ..{ ..| | | ..{ ..` L { T a 0 P ^ J 2 d ( { | ..W X.....X.........| | ) E ( ( ( G e ( X.........[ ) ) | | | | X.",
"W | { ..| | ..| { ..{ ..| | { ....' K T F 2 F { { { { t H ) ( | W X...X.......| ....| ( A C ^ ^ ) W ] X.......| | ..| ( | | | ..",
"U ..{ ....| ..| | | | | | | | | | ' e l D y ! | | | ) ~ ~ { [ | M X.X...........{ ..{ P P ^ ^ { | W Q X...| ....| ..| ( { | | [ ",
"x L L Y Y Y L L U L L L L Y L L L N = y 6 5 i P ! ( ! C 6 0 k 8 q U U U U L L L U L I L c K K I L M N Q [ [ ( ( ( ( ( / ^ ] ^ U ",
"L  .[ ] v E E Q Q Q Q G c Q Q Q L f _ L L Q Q Q ] ] ` ` _ Y ] ` K } } [ L j x l Y ] [ [ [ [ [ [ [ U ` } } [ [ ] ^ ] ] ] [ [ ] Y ",
"W X.X.X.R l V < p S C A ) X.X.X.| Y ] ..X.| X.| ..| ........| X._ X.X.X.{ / [ { ..........{ ....| [ ` X.X.........| / H { | ..} ",
"Q o.X.X.X...^ E ) ) ) ) ..X.X.X.X. .` X.................{ ....X.` X.....| | ....{ ......| | | | | [ [ X...........{ F D P { { X.",
"` X.o.X.X.X...| ) ) ............X. .Q X.....{ ..| | { ..{ ..{ X.` X.X.{ ....| | ..{ ..{ | | | | | ` ` X.....{ / { J 6 > , ^ { ..",
"W X.X.X.X.......) ..) X.X.X...X....._ ....{ ..{ | { ..{ ..{ { X.U X.......{ ..{ ..{ { { ..| { ..| ^ ` ......( F p > % D < ! | ..",
"` X.X.X.........) ..| | | | ........] X.{ ....{ | | { ..{ ......_ ..| ....{ ....{ ..{ ..{ | | { | ] ] X...| { F ; 6 P ( ^ F { ..",
"W X.X.X.X.| X.........) X.......X.X.Q { { ) { { { { { { { { { { Y X...{ ..| { ..{ { { ..{ | { { | [ ] ..{ ) ~ J ! R ) | J : 3 | ",
"W X.X.X.X.X.| ..................| X.D C 1 t T { { { ) ) ! S r C K ......{ { { { { { { { | { { { ) P Y ( ) J C ~ { { ) | { ! C ! ",
"W X.X.| | X.X.........X.........| X.6 : F 2 V ^ / { T a 0 P ! ! K { ../ C Z ^ { { { { { { { T ^ ^ V c s t 0 J ) | | | | | | ( { ",
"Q X.X.X.| | ..| ....) ..) ..X.) X.X.7 l ! > j 0 F F F 2 H ( { ..L { T s 2 a t ^ ) { ] T F u Z 2 u u P { ) H t ~ { | | | | | ) | ",
"Q X.X...| X.| X.....X.) ..........X.K ^ y y F 4 C p V u R { { X.7 > 6 w T D . D T ^ T V 0 T / ) ! p Y ..| | H R | ) ) / / ( ! | ",
"W X.X...X.| X.| ......) ....) ..| X.Y | t C > $ 8 j w 6 v ! { ..N P > D F l k y 6 D V 9 u ^ { | | ^ U | | | ! C ( ^ S > i H C | ",
"W X..... .X.............| ..X.......Y ..) u Z D p , l / ! P { | K { { { P - P > j r l k b ! [ { { ^ K { | ) ~ D r p - D D i ( ..",
"n [ ( ) ( ( ( ( ( ( ( ( ( ( ( ( [ _ M ( / / P P ^ P ^ / Q ! ^ Y g / / ^ T 9 - 6 # > < r i l Y / ^ L D [ ( P ! ( ! G ; 6 @ @ G Q "
};
