/* XPM */
static char *result[] = {
/* columns rows colors chars-per-pixel */
"64 64 4 1 ",
"  c black",
". c #010000",
"X c #C74C0C",
"o c #C84C0C",
/* pixels */
"oooooooooooooooooooooooooooo    oooooooooooooooooooooooooooo    ",
"oooooooooooooooooooooooooooo    oooooooooooooooooooooooooooo    ",
"oooooooooooooooooooooooooooo    oooooooooooooooooooooooooooo    ",
"oooooooooooooooooooooooooooo    oooooooooooooooooooooooooooo    ",
"oooooooooooooooooooooooooooo    oooooooooooooooooooooooooooo    ",
"oooooooooooooooooooooooooooo    oooooooooooooooooooooooooooo    ",
"oooooooooooooooooooooooooooo    oooooooooooooooooooooooooooo    ",
"oooooooooooooooooooooooooooo    oooooooooooooooooooooooooooo    ",
"oooooooooooooooooooooooooooo    oooooooooooooooooooooooooooo    ",
"oooooooooooooooooooooooooooo    oooooooooooooooooooooooooooo    ",
"oooooooooooooooooooooooooooo    oooooooooooooooooooooooooooo    ",
"oooooooooooooooooooooooooooo    oooooooooooooooooooooooooooo    ",
"                                                                ",
"                                                                ",
"                                                                ",
"                                                                ",
"oooooooooooo    oooooooooooooooooooooooooooo    oooooooooooooooo",
"oooooooooooo    oooooooooooooooooooooooooooo    oooooooooooooooo",
"oooooooooooo    oooooooooooooooooooooooooooo    oooooooooooooooo",
"oooooooooooo    oooooooooooooooooooooooooooo    oooooooooooooooo",
"oooooooooooo    oooooooooooooooooooooooooooo    oooooooooooooooo",
"oooooooooooo    oooooooooooooooooooooooooooo    oooooooooooooooo",
"oooooooooooo    oooooooooooooooooooooooooooo    oooooooooooooooo",
"oooooooooooo    oooooooooooooooooooooooooooo    oooooooooooooooo",
"oooooooooooo    oooooooooooooooooooooooooooo    oooooooooooooooo",
"oooooooooooo    oooooooooooooooooooooooooooo    oooooooooooooooo",
"oooooooooooo    oooooooooooooooooooooooooooo    oooooooooooooooo",
"oooooooooooo    oooooooooooooooooooooooooooo    oooooooooooooooo",
"                                                                ",
"                                                                ",
"                                                                ",
"                                                                ",
"oooooooooooooooooooooooooooo    oooooooooooooooooooooooooooo    ",
"oooooooooooooooooooooooooooo    oooooooooooooooooooooooooooo    ",
"oooooooooooooooooooooooooooo    oooooooooooooooooooooooooooo    ",
"oooooooooooooooooooooooooooo    oooooooooooooooooooooooooooo    ",
"oooooooooooooooooooooooooooo    oooooooooooooooooooooooooooo    ",
"oooooooooooooooooooooooooooo    oooooooooooooooooooooooooooo    ",
"oooooooooooooooooooooooooooo    oooooooooooooooooooooooooooo    ",
"oooooooooooooooooooooooooooo    oooooooooooooooooooooooooooo    ",
"oooooooooooooooooooooooooooo    oooooooooooooooooooooooooooo    ",
"oooooooooooooooooooooooooooo    oooooooooooooooooooooooooooo    ",
"oooooooooooooooooooooooooooo    oooooooooooooooooooooooooooo    ",
"oooooooooooooooooooooooooooo    oooooooooooooooooooooooXXXXX    ",
"                                                                ",
"                                                                ",
"                                                                ",
"                                                   .............",
"oooooooooooo    oooooooooooooooooooooooooooo    oooooooooooooooo",
"oooooooooooo    oooooooooooooooooooooooooooo    oooooooooooooooo",
"oooooooooooo    oooooooooooooooooooooooooooo    oooooooooooooooo",
"oooooooooooo    oooooooooooooooooooooooooooo    oooooooooooooooo",
"oooooooooooo    oooooooooooooooooooooooooooo    oooooooooooooooo",
"oooooooooooo    oooooooooooooooooooooooooooo    oooooooooooooooo",
"oooooooooooo    oooooooooooooooooooooooooooo    oooooooooooooooo",
"oooooooooooo    oooooooooooooooooooooooooooo    oooooooooooooooo",
"oooooooooooo    oooooooooooooooooooooooooooo    oooooooooooooooo",
"oooooooooooo    oooooooooooooooooooooooooooo    oooooooooooooooo",
"oooooooooooo    oooooooooooooooooooooooooooo    oooooooooooooooo",
"oooooooooooo    oooooooooooooooooooooooXXXXX    XXXXXXXXXXXXXXXX",
"                                                                ",
"                                                                ",
"                                                                ",
"                                                                "
};
