/* XPM */
static char *result[] = {
/* columns rows colors chars-per-pixel */
"51 50 121 2 ",
"   c black",
".  c #1D1002",
"X  c #1D1102",
"o  c #1F1601",
"O  c #1F1602",
"+  c #2F1C03",
"@  c #3A2104",
"#  c #3A2204",
"$  c #3C2604",
"%  c #3E2B03",
"&  c #3E2B04",
"*  c #202020",
"=  c #4D2C05",
"-  c #4E2D05",
";  c #473105",
":  c #573206",
">  c #593406",
",  c #533A04",
"<  c #5B3C06",
"1  c #633907",
"2  c #6D3F07",
"3  c #5D4005",
"4  c #6A4907",
"5  c #744308",
"6  c #7C5507",
"7  c gray38",
"8  c #7C7061",
"9  c gray50",
"0  c #91540A",
"q  c #9B6A09",
"w  c #9B6A0A",
"e  c #9C6B09",
"r  c #A3630B",
"t  c #B36F0C",
"y  c #CB760E",
"u  c #CC760E",
"i  c #CE7B0E",
"p  c #CF7F0E",
"a  c #DD8B0F",
"s  c #CC950C",
"d  c #D9960D",
"f  c #DA960D",
"g  c #DA9A0D",
"h  c #EF950F",
"j  c #EE980F",
"k  c #F1990F",
"l  c #F39D0F",
"z  c #E88610",
"x  c #E98710",
"c  c #EB8B10",
"v  c #ED9010",
"b  c #EE9810",
"n  c #EE9B1F",
"m  c #F4A20F",
"M  c #F5A20F",
"N  c #F7A60F",
"B  c #F6AA0F",
"V  c #F8AA0F",
"C  c #F9AB0F",
"Z  c #FAAF0F",
"A  c #FAB30F",
"S  c #FAB60F",
"D  c #FAB70F",
"F  c #FBBB0F",
"G  c #FBBD0F",
"H  c #FCBD0F",
"J  c #FCBF0F",
"K  c #F9AB10",
"L  c #F5A71E",
"P  c #CE842B",
"I  c #EB952D",
"U  c #FAB52D",
"Y  c #FAB92D",
"T  c #FBC30F",
"R  c #FCC00F",
"E  c #FCC20F",
"W  c #FDC30F",
"Q  c #FDC70F",
"!  c #FDC80F",
"~  c #FDCA0F",
"^  c #FECA0F",
"/  c #FECC0F",
"(  c #FCC21E",
")  c #FECD1E",
"_  c #FECF1E",
"`  c #FED22D",
"'  c #EEA54B",
"]  c #FAC04B",
"[  c #FED84B",
"{  c #FACA68",
"}  c #FACA69",
"|  c #FBCC69",
" . c #FEDF68",
".. c #FEDE69",
"X. c #FEE077",
"o. c #FEE278",
"O. c #9E9990",
"+. c #9F9F9F",
"@. c gray",
"#. c #FBD486",
"$. c #FBD586",
"%. c #F9DA94",
"&. c #FCDC95",
"*. c #FEE585",
"=. c #FEE586",
"-. c #FCDFA4",
";. c #FDE3A4",
":. c #FEEBA4",
">. c #F8E0C1",
",. c #FDE9C2",
"<. c #FEF1C2",
"1. c #FDF4DF",
"2. c #FDF3E0",
"3. c #FDF4E0",
"4. c #FEF7E0",
"5. c #FDF9EF",
"6. c #FEF9EF",
"7. c #FDFDFD",
"8. c #FEFEFD",
"9. c #FEFEFE",
"0. c None",
/* pixels */
"0.0.0.0.0.0.0.0.0.0.0.0.0.0.0.0.0.0.0.                          0.0.0.0.0.0.0.0.0.0.0.0.0.0.0.0.0.0.0.",
"0.0.0.0.0.0.0.0.0.0.0.0.0.0.0.0.0.0.0.                          0.0.0.0.0.0.0.0.0.0.0.0.0.0.0.0.0.0.0.",
"0.0.0.0.0.0.0.0.0.0.0.0.0.0.0.0.0.0.0., 3 3 3 3 3 3 3 3 < : : = 0.0.0.0.0.0.0.0.0.0.0.0.0.0.0.0.0.0.0.",
"0.0.0.0.0.0.0.0.0.0.0.0.0.            f C C C C C C C C l x x u             0.0.0.0.0.0.0.0.0.0.0.0.0.",
"0.0.0.0.0.0.0.0.0.0.0.0.0.            f C C C C C C C C l x x u             0.0.0.0.0.0.0.0.0.0.0.0.0.",
"0.0.0.0.0.0.0.0.0.0.0.0.0.o o o o o o g Z Z Z Z Z Z Z Z L I I P * * * . . . 0.0.0.0.0.0.0.0.0.0.0.0.0.",
"0.0.0.0.0.0.0.0.0.      % C C C C C C Q / / / / / / / /  .9.9.9.9.9.9.x x x #     0.0.0.0.0.0.0.0.0.0.",
"0.0.0.0.0.0.0.0.0.      % C C C C C C Q / / / / / / / /  .9.9.9.9.9.9.x x x #     0.0.0.0.0.0.0.0.0.0.",
"0.0.0.0.0.0.0.0.0.      % C C C C C C Q / / / / / / / /  .9.9.9.9.9.9.x x x #     0.0.0.0.0.0.0.0.0.0.",
"0.0.0.0.0.0.      6 C C A / / / / / / / / / / / / =.9.9.9.9.9.9.9.9.9.9.9.9.' x x :       0.0.0.0.0.0.",
"0.0.0.0.0.0.      6 C C A / / / / / / / / / / / / =.9.9.9.9.9.9.9.9.9.9.9.9.' x x :       0.0.0.0.0.0.",
"0.0.0.0.0.0.      6 C C A / / / / / / / / / / / / =.9.9.9.9.9.9.9.9.9.9.9.9.' x x :       0.0.0.0.0.0.",
"0.0.0.0.0.0.      6 C C A / / / / / / D A A A A A Y ] ] $.9.9.9.9.9.9.[ [ [ n x x :       0.0.0.0.0.0.",
"0.0.0.0.0.0.      6 C C A / / / / / / Z C C C C C C C C { 9.9.9.9.9.9./ / / b x x :       0.0.0.0.0.0.",
"0.0.0.0.0.0.      6 C C A / / / / / / Z C C C C C C C C { 9.9.9.9.9.9./ / / b x x :       0.0.0.0.0.0.",
"0.0.0.      4 e e s R R E / / ^ D D D &.-.-.-.-.-.-.-.-.#.} } | ....../ / / B l l t 0 0 1     0.0.0.0.",
"0.0.0.      q C C F / / / / / ! C C C 2.9.9.9.9.9.9.9.9.-.C C Z / / / / / / A C C h x x 0       0.0.0.",
"0.0.0.      q C C F / / / / / ! C C C 2.9.9.9.9.9.9.9.9.-.C C Z / / / / / / A C C h x x 0       0.0.0.",
"0.0.0.      q C C F / / ! J J ( { { { 6.9.9.9.9.9.9.9.9.;.D D D J J J / / / A C C h x x 0       0.0.0.",
"0.0.0.      q C C F / / W C C U 9.9.9.9.9.9.9.9.9.9.9.9.:./ / ! C C C / / / A C C h x x 0       0.0.0.",
"0.0.0.      q C C F / / W C C U 9.9.9.9.9.9.9.9.9.9.9.9.:./ / ! C C C / / / A C C h x x 0       0.0.0.",
"0.0.0.      q C C F / / W C C U 9.9.9.9.9.9.9.9.9.4.<.<.o./ / ! C C C / / / A C C h x x 0       0.0.0.",
"0.0.0.      q C C F / / W C C U 9.9.9.9.9.9.9.9.9.=./ / / / / ! C C C / / / A C C h x x 0       0.0.0.",
"0.0.0.      q C C F / / W C C U 9.9.9.9.9.9.9.9.9.=./ / / / / ! C C C / / / A C C h x x 0       0.0.0.",
"0.0.0.      q C C F / / W C C U 9.9.9.9.9.9.9.9.9.=./ / / / / ! C C C / / / A C C h x x 0       0.0.0.",
"0.0.0.      q C C #.9.9.,.C C U 9.9.9.9.9.9.[ / / / / / / / / ! C C C / / / A C C h x x 0       0.0.0.",
"0.0.0.      q C C #.9.9.,.C C U 9.9.9.9.9.9.[ / / / / / / / / ! C C C / / / A C C h x x 0       0.0.0.",
"0.0.0.      w K K #.9.9.,.C C U 9.9.9.8.8.8.[ / / / / / / / / ! C C C / / / A C C h x x 0       0.0.0.",
"0.0.0.      O.2.2.5.9.9.,.C C U 9.9.9.[ ` ` _ / / / / / / / / ! C C C / / / A C C h x x 0       0.0.0.",
"0.0.0.      +.9.9.9.9.9.,.C C U 9.9.9.` / / / / / / / / / / / ! C C C / / / A C C h x x 0       0.0.0.",
"0.0.0.      +.9.9.9.9.9.,.K K U 8.8.8.` / / / / / / / / / / / ! C C C / / / A C C h x x 0       0.0.0.",
"0.0.0.      +.9.9.9.9.9.6.-.-.-.} } } ) / / / / / / / / W D D D R R R / / / A C C h x x 0       0.0.0.",
"0.0.0.      +.9.9.9.9.9.9.9.9.3.C C C Q / / / / / / / / R C C Z / / / / / / A C C h x x 0       0.0.0.",
"0.0.0.      +.7.7.9.9.9.9.9.9.1.C C C Q / / / / / / / / R C C Z / / / / / / A C C h x x 0       0.0.0.",
"0.0.0.0.    7 9 9 @.9.9.4.*.*.X.F F F F F F F F F F F F F F F G / / / F F F m k k r 5 5 >     0.0.0.0.",
"0.0.0.0.0.0.      9 9.9.<./ / / / / / Z C C C C C C C C D / / / / / / C C C v x x :       0.0.0.0.0.0.",
"0.0.0.0.0.0.      9 9.9.<./ / / / / / Z C C C C C C C C D / / / / / / C C C v x x :       0.0.0.0.0.0.",
"0.0.0.0.0.0.      8 >.>.%./ / / / / / S A A A A A A A A H / / / / / / C C C v x x :       0.0.0.0.0.0.",
"0.0.0.0.0.0.      5 x x j / / / / / / / / / / / / / / / / / / / / / / C C C v x x :       0.0.0.0.0.0.",
"0.0.0.0.0.0.      5 x x j / / / / / / / / / / / / / / / / / / / / / / C C C v x x :       0.0.0.0.0.0.",
"0.0.0.0.0.0.      2 y y a T T T T T T / / / / / / / / / ~ Q Q Q Q Q Q N N N p u u -       0.0.0.0.0.0.",
"0.0.0.0.0.0.0.0.0.      @ x x x x x x T / / / / / / / / R C C C C C C x x x #     0.0.0.0.0.0.0.0.0.0.",
"0.0.0.0.0.0.0.0.0.      @ x x x x x x T / / / / / / / / R C C C C C C x x x #     0.0.0.0.0.0.0.0.0.0.",
"0.0.0.0.0.0.0.0.0.      @ z z z z z z T / / / / / / / / R C C C C C C x x x #     0.0.0.0.0.0.0.0.0.0.",
"0.0.0.0.0.0.0.0.0.0.0.0.0.X X X X X X g Z Z Z Z Z Z Z Z M c c i O O O X X X 0.0.0.0.0.0.0.0.0.0.0.0.0.",
"0.0.0.0.0.0.0.0.0.0.0.0.0.            f C C C C C C C C l x x u             0.0.0.0.0.0.0.0.0.0.0.0.0.",
"0.0.0.0.0.0.0.0.0.0.0.0.0.            d V V V V C C C C l x x u             0.0.0.0.0.0.0.0.0.0.0.0.0.",
"0.0.0.0.0.0.0.0.0.0.0.0.0.0.0.0.0.0.0.; & & & & & & & & $ # # + 0.0.0.0.0.0.0.0.0.0.0.0.0.0.0.0.0.0.0.",
"0.0.0.0.0.0.0.0.0.0.0.0.0.0.0.0.0.0.0.                          0.0.0.0.0.0.0.0.0.0.0.0.0.0.0.0.0.0.0.",
"0.0.0.0.0.0.0.0.0.0.0.0.0.0.0.0.0.0.0.                          0.0.0.0.0.0.0.0.0.0.0.0.0.0.0.0.0.0.0."
};
