/* XPM */
static char *result[] = {
/* columns rows colors chars-per-pixel */
"51 50 82 1 ",
"  c black",
". c #1D1002",
"X c gray8",
"o c #201902",
"O c #201A02",
"+ c #241E02",
"@ c #2F1C03",
"# c #2B2103",
"$ c #362004",
"% c #3A2204",
"& c #3A2704",
"* c #3C2604",
"= c #3E2B04",
"- c #202020",
"; c #252525",
": c #4D2C05",
"> c #573206",
", c #5B3C06",
"< c #5D4005",
"1 c #604205",
"2 c #AF650C",
"3 c #CC760E",
"4 c #CE7B0D",
"5 c #CE7E0E",
"6 c #BB800B",
"7 c #BD980B",
"8 c #BB8B29",
"9 c #CB8F0C",
"0 c #DA960D",
"q c #DA9A0D",
"w c #EB8B0F",
"e c #ED900F",
"r c #EF940F",
"t c #F1990F",
"y c #F19B0F",
"u c #F09D0F",
"i c #F29D0F",
"p c #F39D0F",
"a c #E98710",
"s c #EB8F10",
"d c #EC9010",
"f c #EE9810",
"g c #DDB20D",
"h c #DEB30D",
"j c #F1A10F",
"k c #F3A00F",
"l c #F5A20F",
"z c #F3A50F",
"x c #F7A60F",
"c c #F7A70F",
"v c #F3A90F",
"b c #F7AB0F",
"n c #F8A90F",
"m c #F8AA0F",
"M c #F8AB0F",
"N c #F9AB0F",
"B c #FAAF0F",
"V c #EDB80E",
"C c #F6B20F",
"Z c #FAB70F",
"A c #F8BB0F",
"S c #FBBB0F",
"D c #FBBD0F",
"F c #F9BF0F",
"G c #F8AE1E",
"H c #FAB52C",
"J c #EEA23C",
"K c #F2AE3C",
"L c #FCC00F",
"P c #FCC30F",
"I c #FDC60F",
"U c #FDCB0F",
"Y c #FECC0F",
"T c #FED22D",
"R c #EEA54B",
"E c gray",
"W c #F3C287",
"Q c gray87",
"! c #FEF1C2",
"~ c #FEF4D1",
"^ c #FEFEFE",
"/ c None",
/* pixels */
"//////////////////////          ///////////////////",
"//////////////////////          ///////////////////",
"//////////////////////1<<<<<,>>:///////////////////",
"///////////////////   6NNNNNpaa3   ////////////////",
"///////////////////   6NNNNNpaa3   ////////////////",
"///////////////////;--8HHGxxpww4...////////////////",
"////////////////   Q^^^^^WaarNNxaaa   /////////////",
"////////////////   Q^^^^^WaarNNxaaa   /////////////",
"////////////////   Q^^^^^WaarNNxaaa   /////////////",
"////////////////   hYYYYYvaarNNxaaa   /////////////",
"////////////////   hYYYYYvaarNNxaaa   /////////////",
"////////////////   hYYYYYvaarNNxaaa   /////////////",
"/////////////  XEEE!!!KffillcNNnlll222$  //////////",
"/////////////  -^^^^^^RaatNNNNNNNNNaaa%  //////////",
"/////////////  -^^^^^^RaatNNNNNNNNNaaa%  //////////",
"/////////////  -^^^^^^RaatNNNNNNNNNaaa%  //////////",
"/////////////  -^^^^^^RaatNNNNNNNNNaaa%  //////////",
"/////////////  -^^^^^^RaatNNNNNNNNNaaa%  //////////",
"/////////////  -^^^^^^RaatNNcpplZZZaaa%  //////////",
"/////////////  -^^^^^^RaatNNpaadYYYaaa%  //////////",
"/////////////  -^^^^^^RaatNNpaadYYYaaa%  //////////",
"/////////////  -^^^~!!JaatNNpaadYYYaaa%  //////////",
"/////////////  -^^^TYYfaatNNpaadYYYaaa%  //////////",
"/////////////  -^^^TYYfaatNNpaadYYYaaa%  //////////",
"/////////////  -^^^TYYfaatNNpaadYYYaaa%  //////////",
"/////////////  oYYYYYYfaavYYCaadYYYaaa%  //////////",
"/////////////  oYYYYYYfaavYYCaadYYYaaa%  //////////",
"/////////////  oYYYYYYfaavYYCaadYYYaaa%  //////////",
"/////////////  oYYYYYYfaavYYDxxbYYYaaa%  //////////",
"/////////////  oYYYYYYfaavYYLNNBYYYaaa%  //////////",
"/////////////  oYYYYYYfaavYYLNNBYYYaaa%  //////////",
"/////////////  oYYYYYYfaavYYLNNBYYYaaa%  //////////",
"/////////////  oYYYYYYfaavYYLNNBYYYaaa%  //////////",
"/////////////  oYYYYYYfaavYYLNNBYYYaaa%  //////////",
"/////////////  oYYYYYYfaavYYISSDYYYaaa%  //////////",
"/////////////  oYYYYYYfaavYYYYYYYYYaaa%  //////////",
"/////////////  oYYYYYYfaavYYYYYYYYYaaa%  //////////",
"/////////////  #777VPPueezAAFYYYYYY222$  //////////",
"////////////////   0NNNNNtaajYYYYYY   /////////////",
"////////////////   0NNNNNtaajYYYYYY   /////////////",
"////////////////   qBBBBByaajYYYYYY   /////////////",
"////////////////   hYYYYYvaajYYYYYY   /////////////",
"////////////////   hYYYYYvaajYYYYYY   /////////////",
"////////////////   gUUYYYvaajYYYYYY   /////////////",
"///////////////////+OO9BBMxxkss5OOO////////////////",
"///////////////////   6NNNNNpaa3   ////////////////",
"///////////////////   6mNNNNpaa3   ////////////////",
"//////////////////////&=====*%%@///////////////////",
"//////////////////////          ///////////////////",
"//////////////////////          ///////////////////"
};
