/* XPM */
static char *result[] = {
/* columns rows colors chars-per-pixel */
"51 50 114 2 ",
"   c black",
".  c #1D1002",
"X  c #1D1102",
"o  c #201A02",
"O  c #2F1C03",
"+  c #3A2204",
"@  c #3C2604",
"#  c #3F3304",
"$  c #202020",
"%  c #4D2C05",
"&  c #4E2D05",
"*  c #403303",
"=  c #483A05",
"-  c #573206",
";  c #593406",
":  c #583915",
">  c #633907",
",  c #614F06",
"<  c #744308",
"1  c #765F06",
"2  c #7F6607",
"3  c gray25",
"4  c #555555",
"5  c #5F5F5F",
"6  c #6D6D6D",
"7  c gray50",
"8  c #91540A",
"9  c #9F7F09",
"0  c #A4690B",
"q  c #B4760C",
"w  c #CC760E",
"e  c #CE7B0E",
"r  c #CE7E0D",
"t  c #B9880B",
"y  c #D1870E",
"u  c #EB8B0F",
"i  c #EB8E0F",
"p  c #EB8F0F",
"a  c #ED940F",
"s  c #EF940F",
"d  c #EF970F",
"f  c #EE980F",
"g  c #F39D0F",
"h  c #E88610",
"j  c #E88710",
"k  c #E98710",
"l  c #EB8B10",
"z  c #EB8F10",
"x  c #EC9010",
"c  c #EE9610",
"v  c #ED9810",
"b  c #EE9810",
"n  c #EF9C10",
"m  c #DBAA0D",
"M  c #DDB20D",
"N  c #DDB30D",
"B  c #DEB30D",
"V  c #F0A10F",
"C  c #F1A10F",
"Z  c #F4A00F",
"A  c #F4A10F",
"S  c #F5A20F",
"D  c #F6A40F",
"F  c #F7A60F",
"G  c #F3A90F",
"H  c #F4AD0F",
"J  c #F8AB0F",
"K  c #F9AB0F",
"L  c #F9AF0F",
"P  c #FAAF0F",
"I  c #E9B10E",
"U  c #F5B20F",
"Y  c #F6B20F",
"T  c #F7B40F",
"R  c #FAB30F",
"E  c #F9B50F",
"W  c #FAB70F",
"Q  c #FBB90F",
"!  c #F8BA0F",
"~  c #FBBB0F",
"^  c #FABF0F",
"/  c #FCBD0F",
"(  c #FCBF0F",
")  c #F1A110",
"_  c #F2A310",
"`  c #F3B23C",
"'  c #FAC20F",
"]  c #FBC30F",
"[  c #FCC00F",
"{  c #FCC30F",
"}  c #FCC40F",
"|  c #FDC40F",
" . c #FDC70F",
".. c #FDC80F",
"X. c #FDCB0F",
"o. c #FECA0F",
"O. c #FDCC0F",
"+. c #FECC0F",
"@. c #9F8C45",
"#. c #EEA54B",
"$. c #F0A94B",
"%. c #F3B95A",
"&. c #F1B469",
"*. c #FEDE69",
"=. c #9F9F9F",
"-. c #C7A984",
";. c #F3C287",
":. c #DBCFC0",
">. c gray87",
",. c #F8E0C2",
"<. c #FBEFE0",
"1. c #FEFEFD",
"2. c #FEFEFE",
"3. c None",
/* pixels */
"3.3.3.3.3.3.3.3.3.3.3.3.3.3.3.3.3.3.3.                          3.3.3.3.3.3.3.3.3.3.3.3.3.3.3.3.3.3.3.",
"3.3.3.3.3.3.3.3.3.3.3.3.3.3.3.3.3.3.3.                          3.3.3.3.3.3.3.3.3.3.3.3.3.3.3.3.3.3.3.",
"3.3.3.3.3.3.3.3.3.3.3.3.3.3.3.3.3.3.3.4 5 5 : - - - - - - - - % 3.3.3.3.3.3.3.3.3.3.3.3.3.3.3.3.3.3.3.",
"3.3.3.3.3.3.3.3.3.3.3.3.3.            >.2.2.#.k k k k k k k k w             3.3.3.3.3.3.3.3.3.3.3.3.3.",
"3.3.3.3.3.3.3.3.3.3.3.3.3.            >.2.2.#.k k k k k k k k w             3.3.3.3.3.3.3.3.3.3.3.3.3.",
"3.3.3.3.3.3.3.3.3.3.3.3.3.$ $ $ . . . :.<.<.$.u u u u u i p p r . . . . . . 3.3.3.3.3.3.3.3.3.3.3.3.3.",
"3.3.3.3.3.3.3.3.3.      3 2.2.<.k k k k k k S K K K K K W +.+.] k k k k k k +     3.3.3.3.3.3.3.3.3.3.",
"3.3.3.3.3.3.3.3.3.      3 2.2.<.k k k k k k S K K K K K W +.+.] k k k k k k +     3.3.3.3.3.3.3.3.3.3.",
"3.3.3.3.3.3.3.3.3.      3 2.2.<.k k k k k k S K K K K K W +.+.] k k k k k k +     3.3.3.3.3.3.3.3.3.3.",
"3.3.3.3.3.3.      7 2.2.,.k k l K K K K K K } +.+.+.+.+.+.+.+.+.+.+.+.+.+.+.b k k -       3.3.3.3.3.3.",
"3.3.3.3.3.3.      7 2.2.,.k k l K K K K K K } +.+.+.+.+.+.+.+.+.+.+.+.+.+.+.b k k -       3.3.3.3.3.3.",
"3.3.3.3.3.3.      7 2.2.,.k k l K K K K K K } +.+.+.+.+.+.+.+.+.+.+.+.+.+.+.b k k -       3.3.3.3.3.3.",
"3.3.3.3.3.3.      7 2.2.,.k k l K K K [ | | _ b b b b b b b b n +.+.+.+.+.+.b k k -       3.3.3.3.3.3.",
"3.3.3.3.3.3.      7 2.2.,.k k l K K K  .+.+.b k k k k k k k k x +.+.+.+.+.+.b k k -       3.3.3.3.3.3.",
"3.3.3.3.3.3.      7 2.2.,.k k l K K K  .+.+.b k k k k k k k k x +.+.+.+.+.+.b k k -       3.3.3.3.3.3.",
"3.3.3.      6 =.=.-.&.&.%.Y Y T [ [ [ _ ) ) A g g g g g g g g Z ) ) ) +.+.+.! Y Y q 8 8 >     3.3.3.3.",
"3.3.3.      =.2.2.;.k k f +.+.+.+.+.+.z k k S K K K K K K K K F k k k +.+.+.+.+.+.V k k 8       3.3.3.",
"3.3.3.      =.2.2.;.k k f +.+.+.+.+.+.z k k S K K K K K K K K F k k k +.+.+.+.+.+.V k k 8       3.3.3.",
"3.3.3.      =.2.2.;.k k f +.+...U U U d s s D K K K K K L W W E C C C ( ( ( o.+.+.V k k 8       3.3.3.",
"3.3.3.      =.2.2.;.k k f +.+.] k k k F K K K K K K K K W +.+.+.+.+.+.K K K } +.+.V k k 8       3.3.3.",
"3.3.3.      =.2.2.;.k k f +.+.] k k k F K K K K K K K K W +.+.+.+.+.+.K K K } +.+.V k k 8       3.3.3.",
"3.3.3.      =.2.2.;.k k f +.+.] k k k F K K K K K L R R / +.+.+.+.+.+.K K K } +.+.V k k 8       3.3.3.",
"3.3.3.      =.2.2.;.k k f +.+.] k k k F K K K K K ~ +.+.+.+.+.+.+.+.+.K K K } +.+.V k k 8       3.3.3.",
"3.3.3.      =.2.2.;.k k f +.+.] k k k F K K K K K ~ +.+.+.+.+.+.+.+.+.K K K } +.+.V k k 8       3.3.3.",
"3.3.3.      =.2.2.;.k k f +.+.] k k k F K K K K K ~ +.+.+.+.+.+.+.+.+.K K K } +.+.V k k 8       3.3.3.",
"3.3.3.      =.2.2.;.k k f +.+.] k k k F K K } +.+.+.+.+.+.+.+.+.+.+.+.K K K } +.+.V k k 8       3.3.3.",
"3.3.3.      =.2.2.;.k k f +.+.] k k k F K K } +.+.+.+.+.+.+.+.+.+.+.+.K K K } +.+.V k k 8       3.3.3.",
"3.3.3.      =.2.2.;.k k f +.+.] k k k F K K } +.+.+.+.+.+.+.+.+.+.+.+.K K K } +.+.V k k 8       3.3.3.",
"3.3.3.      =.2.2.;.k k f +.+.] k k k F K K } +.+.+.+.+.+.+.+.+.+.+.+.K K K } +.+.V k k 8       3.3.3.",
"3.3.3.      =.2.2.;.k k f +.+.] k k k F K K } +.+.+.+.+.+.+.+.+.+.+.+.K K K } +.+.V k k 8       3.3.3.",
"3.3.3.      =.1.1.;.k k f +.+.] k k k F K K } +.+.+.+.+.+.+.+.+.+.+.+.K K K } +.+.V k k 8       3.3.3.",
"3.3.3.      @.*.*.` k k f +.+...Y Y Y J K K } +.+.+.+.+.+.+.+.o.W W W [ [ [ ..+.+.V k k 8       3.3.3.",
"3.3.3.      9 +.+.G k k f +.+.+.+.+.+.P K K } +.+.+.+.+.+.+.+...K K K +.+.+.+.+.+.V k k 8       3.3.3.",
"3.3.3.      9 O.O.G k k f +.+.+.+.+.+.P K K } +.+.+.+.+.+.+.+...K K K +.+.+.+.+.+.V k k 8       3.3.3.",
"3.3.3.3.    , 2 2 t G G G G G H +.+.+./ ~ ~ ~ ~ ~ ~ ~ ~ ~ ~ ~ ~ ~ ~ ~ +.+.+.Y G G 0 < < ;     3.3.3.3.",
"3.3.3.3.3.3.      2 +.+.! k k x +.+.+.+.+.+.R K K K K K K K K P +.+.+.+.+.+.b k k -       3.3.3.3.3.3.",
"3.3.3.3.3.3.      2 +.+.! k k x +.+.+.+.+.+.R K K K K K K K K P +.+.+.+.+.+.b k k -       3.3.3.3.3.3.",
"3.3.3.3.3.3.      2 +.+.! k k x { { { o.+.+.Q R R R R R R R R W +.+.+.+.+.+.b k k -       3.3.3.3.3.3.",
"3.3.3.3.3.3.      2 +.+.! k k l K K K  .+.+.+.+.+.+.+.+.+.+.+.+.+.+.+.+.+.+.b k k -       3.3.3.3.3.3.",
"3.3.3.3.3.3.      2 +.+.! k k l K K K  .+.+.+.+.+.+.+.+.+.+.+.+.+.+.+.+.+.+.b k k -       3.3.3.3.3.3.",
"3.3.3.3.3.3.      1 M M I p p a F F F ^ ] ]  . . . . . . . . . .] ] ] ] ] ] y w w &       3.3.3.3.3.3.",
"3.3.3.3.3.3.3.3.3.      * +.+.] k k k k k k S K K K K K K K K F k k k k k k +     3.3.3.3.3.3.3.3.3.3.",
"3.3.3.3.3.3.3.3.3.      * +.+.] k k k k k k S K K K K K K K K F k k k k k k +     3.3.3.3.3.3.3.3.3.3.",
"3.3.3.3.3.3.3.3.3.      * X.X.' h h h k k k S K K K K K K K K F k k k k k k +     3.3.3.3.3.3.3.3.3.3.",
"3.3.3.3.3.3.3.3.3.3.3.3.3.o o o X X X m } } c l l l l l l l l e X X X X X X 3.3.3.3.3.3.3.3.3.3.3.3.3.",
"3.3.3.3.3.3.3.3.3.3.3.3.3.            B +.+.b k k k k k k k k w             3.3.3.3.3.3.3.3.3.3.3.3.3.",
"3.3.3.3.3.3.3.3.3.3.3.3.3.            N X.X.v j k k k k k k k w             3.3.3.3.3.3.3.3.3.3.3.3.3.",
"3.3.3.3.3.3.3.3.3.3.3.3.3.3.3.3.3.3.3.= # # @ + + + + + + + + O 3.3.3.3.3.3.3.3.3.3.3.3.3.3.3.3.3.3.3.",
"3.3.3.3.3.3.3.3.3.3.3.3.3.3.3.3.3.3.3.                          3.3.3.3.3.3.3.3.3.3.3.3.3.3.3.3.3.3.3.",
"3.3.3.3.3.3.3.3.3.3.3.3.3.3.3.3.3.3.3.                          3.3.3.3.3.3.3.3.3.3.3.3.3.3.3.3.3.3.3."
};
