/* XPM */
static char *result[] = {
/* columns rows colors chars-per-pixel */
"64 63 14 1 ",
"  c black",
". c #744308",
"X c #7F6607",
"o c gray50",
"O c #F1990F",
"+ c #E98710",
"@ c #F3A90F",
"# c #F9AB0F",
"$ c #FBBB0F",
"% c #FECC0F",
"& c #F3C287",
"* c #FEE586",
"= c #FEFEFE",
"- c None",
/* pixels */
"------------------------                ------------------------",
"------------------------                ------------------------",
"------------------------                ------------------------",
"----------------        oooo............        ----------------",
"----------------        ====++++++++++++        ----------------",
"----------------        ====++++++++++++        ----------------",
"----------------        ====++++++++++++        ----------------",
"------------    oooo....&&&&OOOOOOOO@@@@........    ------------",
"------------    ====++++++++########%%%%++++++++    ------------",
"------------    ====++++++++########%%%%++++++++    ------------",
"------------    ====++++++++########%%%%++++++++    ------------",
"--------    oooo&&&&OOOOOOOO$$$$$$$$%%%%@@@@@@@@....    --------",
"--------    ====++++########%%%%%%%%%%%%%%%%%%%%++++    --------",
"--------    ====++++########%%%%%%%%%%%%%%%%%%%%++++    --------",
"--------    ====++++########%%%%%%%%%%%%%%%%%%%%++++    --------",
"--------    ====++++####$$$$@@@@@@@@@@@@%%%%%%%%++++    --------",
"--------    ====++++####%%%%++++++++++++%%%%%%%%++++    --------",
"--------    ====++++####%%%%++++++++++++%%%%%%%%++++    --------",
"--------    ====++++####%%%%++++++++++++%%%%%%%%++++    --------",
"----    oooo&&&&@@@@$$$$@@@@OOOOOOOOOOOO@@@@%%%%@@@@....    ----",
"----    ====++++%%%%%%%%++++############++++%%%%%%%%++++    ----",
"----    ====++++%%%%%%%%++++############++++%%%%%%%%++++    ----",
"----    ====++++%%%%%%%%++++############++++%%%%%%%%++++    ----",
"----    ====++++%%%%@@@@OOOO########$$$$@@@@$$$$%%%%++++    ----",
"----    ====++++%%%%++++############%%%%%%%%####%%%%++++    ----",
"----    ====++++%%%%++++############%%%%%%%%####%%%%++++    ----",
"----    ====++++%%%%++++############%%%%%%%%####%%%%++++    ----",
"----    ====++++%%%%++++########$$$$%%%%%%%%####%%%%++++    ----",
"----    ====++++%%%%++++########%%%%%%%%%%%%####%%%%++++    ----",
"----    ====++++%%%%++++########%%%%%%%%%%%%####%%%%++++    ----",
"----    ====++++%%%%++++########%%%%%%%%%%%%####%%%%++++    ----",
"----    ====++++%%%%++++####$$$$%%%%%%%%%%%%####%%%%++++    ----",
"----    ====++++%%%%++++####%%%%%%%%%%%%%%%%####%%%%++++    ----",
"----    ====++++%%%%++++####%%%%%%%%%%%%%%%%####%%%%++++    ----",
"----    ====++++%%%%++++####%%%%%%%%%%%%%%%%####%%%%++++    ----",
"----    ====++++%%%%++++####%%%%%%%%%%%%%%%%####%%%%++++    ----",
"----    ====++++%%%%++++####%%%%%%%%%%%%%%%%####%%%%++++    ----",
"----    ====++++%%%%++++####%%%%%%%%%%%%%%%%####%%%%++++    ----",
"----    ====++++%%%%++++####%%%%%%%%%%%%%%%%####%%%%++++    ----",
"----    ****++++%%%%@@@@####%%%%%%%%%%%%$$$$$$$$%%%%++++    ----",
"----    %%%%++++%%%%%%%%####%%%%%%%%%%%%####%%%%%%%%++++    ----",
"----    %%%%++++%%%%%%%%####%%%%%%%%%%%%####%%%%%%%%++++    ----",
"----    %%%%++++%%%%%%%%####%%%%%%%%%%%%####%%%%%%%%++++    ----",
"----    XXXX@@@@@@@@%%%%$$$$$$$$$$$$$$$$$$$$%%%%@@@@....    ----",
"--------    %%%%++++%%%%%%%%############%%%%%%%%++++    --------",
"--------    %%%%++++%%%%%%%%############%%%%%%%%++++    --------",
"--------    %%%%++++%%%%%%%%############%%%%%%%%++++    --------",
"--------    %%%%++++$$$$%%%%$$$$$$$$$$$$%%%%%%%%++++    --------",
"--------    %%%%++++####%%%%%%%%%%%%%%%%%%%%%%%%++++    --------",
"--------    %%%%++++####%%%%%%%%%%%%%%%%%%%%%%%%++++    --------",
"--------    %%%%++++####%%%%%%%%%%%%%%%%%%%%%%%%++++    --------",
"--------    XXXX@@@@OOOO@@@@$$$$$$$$$$$$@@@@@@@@....    --------",
"------------    %%%%++++++++############++++++++    ------------",
"------------    %%%%++++++++############++++++++    ------------",
"------------    %%%%++++++++############++++++++    ------------",
"------------    XXXX....@@@@OOOOOOOOOOOO........    ------------",
"----------------        %%%%++++++++++++        ----------------",
"----------------        %%%%++++++++++++        ----------------",
"----------------        %%%%++++++++++++        ----------------",
"----------------        XXXX............        ----------------",
"------------------------                ------------------------",
"------------------------                ------------------------",
"------------------------                ------------------------"
};
