/* XPM */
static char *result[] = {
/* columns rows colors chars-per-pixel */
"51 50 124 2 ",
"   c black",
".  c #1D1002",
"X  c #1D1102",
"o  c #1F1601",
"O  c #1F1602",
"+  c #312203",
"@  c #3A2204",
"#  c #3E2B03",
"$  c #3E2B04",
"%  c #422705",
"&  c #4E2D05",
"*  c #473105",
"=  c #573206",
"-  c #573306",
";  c #593406",
":  c #533904",
">  c #533905",
",  c #533A04",
"<  c #6D3F07",
"1  c #5D4005",
"2  c #5D4006",
"3  c #735006",
"4  c #7C5507",
"5  c #864D09",
"6  c #91540A",
"7  c #8D6108",
"8  c #9B6A09",
"9  c #AF650C",
"0  c #B4760C",
"q  c #CC760E",
"w  c #BA800B",
"e  c #BB800B",
"r  c #BC880B",
"t  c #C4830C",
"y  c #D1870E",
"u  c #D8940D",
"i  c #D9960D",
"p  c #DA960D",
"a  c #DB990D",
"s  c #DA9A0D",
"d  c #EF940F",
"f  c #F39D0F",
"g  c #E98710",
"h  c #EB8B10",
"j  c #EB8F10",
"k  c #EC9010",
"l  c #EF9410",
"z  c #EE9810",
"x  c #EF9C10",
"c  c #DCA20D",
"v  c #E9A50E",
"b  c #F0A10F",
"n  c #F1A10F",
"m  c #F3A00F",
"M  c #F4A00F",
"N  c #F7A60F",
"B  c #F3A90F",
"V  c #F8A90F",
"C  c #F8AA0F",
"Z  c #F8AB0F",
"A  c #F9AB0F",
"S  c #F9AF0F",
"D  c #FAAF0F",
"F  c #F5B00F",
"G  c #F6B00F",
"H  c #F5B20F",
"J  c #F6B20F",
"K  c #FAB30F",
"L  c #F9B50F",
"P  c #FAB60F",
"I  c #FAB70F",
"U  c #FAB90F",
"Y  c #F8BA0F",
"T  c #F8BB0F",
"R  c #F9BB0F",
"E  c #FBBB0F",
"W  c #F9BF0F",
"Q  c #FABF0F",
"!  c #FCBD0F",
"~  c #FCBF0F",
"^  c #F1A110",
"/  c #DAA02B",
"(  c #FAB52C",
")  c #FBC30F",
"_  c #FCC00F",
"`  c #FCC20F",
"'  c #FCC30F",
"]  c #FCC40F",
"[  c #FCC50F",
"{  c #FCC60F",
"}  c #FDC70F",
"|  c #FDC80F",
" . c #FDCA0F",
".. c #FECA0F",
"X. c #FECC0F",
"o. c #FED22D",
"O. c #BC9547",
"+. c #FABF4A",
"@. c #DBB466",
"#. c #FBC84B",
"$. c #FED84B",
"%. c #FEDC59",
"&. c #FACA68",
"*. c #FACA69",
"=. c #FEDF68",
"-. c #FEDF69",
";. c #FBD177",
":. c #FBD486",
">. c #FCD887",
",. c #FCDB86",
"<. c #FBDC86",
"1. c #FEE586",
"2. c #FCDEA4",
"3. c #FDE5A4",
"4. c #FEEBA4",
"5. c #FDE9C2",
"6. c #FEF1C2",
"7. c #FEF2C2",
"8. c #FDF3E0",
"9. c #FDF4E0",
"0. c #FEF7E0",
"q. c #FEF9EF",
"w. c #FEFEFE",
"e. c None",
/* pixels */
"e.e.e.e.e.e.e.e.e.e.e.e.e.e.e.e.e.e.e.                          e.e.e.e.e.e.e.e.e.e.e.e.e.e.e.e.e.e.e.",
"e.e.e.e.e.e.e.e.e.e.e.e.e.e.e.e.e.e.e.                          e.e.e.e.e.e.e.e.e.e.e.e.e.e.e.e.e.e.e.",
"e.e.e.e.e.e.e.e.e.e.e.e.e.e.e.e.e.e.e., 1 1 1 1 1 1 1 1 1 1 1 : e.e.e.e.e.e.e.e.e.e.e.e.e.e.e.e.e.e.e.",
"e.e.e.e.e.e.e.e.e.e.e.e.e.            p A A A A A A A A A A A p             e.e.e.e.e.e.e.e.e.e.e.e.e.",
"e.e.e.e.e.e.e.e.e.e.e.e.e.            p A A A A A A A A A A A p             e.e.e.e.e.e.e.e.e.e.e.e.e.",
"e.e.e.e.e.e.e.e.e.e.e.e.e.o o o o o o / ( ( D D D D D D D D D a . . . . . . e.e.e.e.e.e.e.e.e.e.e.e.e.",
"e.e.e.e.e.e.e.e.e.      # A A A A A A 8.w.w.$.X.X.X.X.X.X.X.X.) g g g g g g @     e.e.e.e.e.e.e.e.e.e.",
"e.e.e.e.e.e.e.e.e.      # A A A A A A 8.w.w.$.X.X.X.X.X.X.X.X.) g g g g g g @     e.e.e.e.e.e.e.e.e.e.",
"e.e.e.e.e.e.e.e.e.      # A A A A A A 8.w.w.$.X.X.X.X.X.X.X.X.) g g g g g g @     e.e.e.e.e.e.e.e.e.e.",
"e.e.e.e.e.e.      4 A A +.w.w.w.w.w.w.o.X.X.X.X.X.X.X.X.X.X.X.X.X.X.X.X.X.X.z g g =       e.e.e.e.e.e.",
"e.e.e.e.e.e.      4 A A +.w.w.w.w.w.w.o.X.X.X.X.X.X.X.X.X.X.X.X.X.X.X.X.X.X.z g g =       e.e.e.e.e.e.",
"e.e.e.e.e.e.      4 A A +.w.w.w.w.w.w.o.X.X.X.X.X.X.X.X.X.X.X.X.X.X.X.X.X.X.z g g =       e.e.e.e.e.e.",
"e.e.e.      3 e e @.5.5.3.$.$.$.$.$.$.^ z z z z z z z z z z z x X.X.X.X.X.X.Q R R t 9 9 5       e.e.e.",
"e.e.e.      8 A A :.w.w.6.X.X.X.X.X.X.j g g g g g g g g g g g k X.X.X.X.X.X.X.X.X.b g g 6       e.e.e.",
"e.e.e.      8 A A :.w.w.6.X.X.X.X.X.X.j g g g g g g g g g g g k X.X.X.X.X.X.X.X.X.b g g 6       e.e.e.",
"e.e.e.      8 A A :.w.w.6.X.X.| ^ ^ ^ m f f f f f f f f f f f M ^ ^ ^ X.X.X.X.X.X.b g g 6       e.e.e.",
"e.e.e.      8 A A :.w.w.6.X.X.) g g g N A A A A A A A A A A A N g g g X.X.X.X.X.X.b g g 6       e.e.e.",
"e.e.e.      8 A A :.w.w.6.X.X.) g g g N A A A A A A A A A A A N g g g X.X.X.X.X.X.b g g 6       e.e.e.",
"e.e.e., 1 1 O.&.&.,.4.4.<.H H F d d d V A A A A A A A A S I I L n n n ~ ~ ~ ..X.X.J n n 0 = = % e.e.e.",
"      p A A 2.w.w.1.X.X.Y g g h A A A A A A A A A A A A I X.X.X.X.X.X.A A A ] X.X.X.X.X.J g g 9       ",
"      p A A 2.w.w.1.X.X.Y g g h A A A A A A A A A A A A I X.X.X.X.X.X.A A A ] X.X.X.X.X.J g g 9       ",
"      p A A >.6.6.-.X.X.Y g g h A A A A A A A A A S K K ! X.X.X.X.X.X.A A A ] X.X.X.X.X.J g g 9       ",
"      p A A ~ X.X.X.X.X.Y g g h A A A A A A A A A E X.X.X.X.X.X.X.X.X.A A A ] X.X.X.X.X.J g g 9       ",
"      p A A ~ X.X.X.X.X.Y g g h A A A A A A A A A E X.X.X.X.X.X.X.X.X.A A A ] X.X.X.X.X.J g g 9       ",
"      p A A ~ X.X.X.X.X.Y g g h A A A A A A A A A E X.X.X.X.X.X.X.X.X.A A A ] X.X.X.X.X.J g g 9       ",
"      p A A ~ X.X.X.X.X.Y g g h A A A A A A ] X.X.X.X.X.X.X.X.o.w.w.w.A A A ] X.X.X.X.X.J g g 9       ",
"      p A A ~ X.X.X.X.X.Y g g h A A A A A A ] X.X.X.X.X.X.X.X.o.w.w.w.A A A ] X.X.X.X.X.J g g 9       ",
"      p A A ~ X.X.X.X.X.Y g g h A A A A A A ] X.X.X.X.X.X.X.X.o.w.w.w.A A A ] X.X.X.X.X.J g g 9       ",
"      p A A ~ X.X.X.X.X.Y g g h A A A ] | |  .X.X.X.X.X.%.0.0.0.w.w.w.A A A ] X.X.X.X.X.J g g 9       ",
"      p A A ~ X.X.X.X.X.Y g g h A A A } X.X.X.X.X.X.X.X.=.w.w.w.w.w.w.A A A ] X.X.X.X.X.J g g 9       ",
"      i Z Z ~ X.X.X.X.X.Y g g h A A A } X.X.X.X.X.X.X.X.=.w.w.w.w.w.w.A A A ] X.X.X.X.X.J g g 9       ",
"e.e.e.> 2 2 r I I ` X.X.| J J G l l l [ X.X.X.X.X.%.4.4.7.w.w.q.*.*.*._ _ _ | X.X.J ^ ^ 0 - - ; e.e.e.",
"e.e.e.      8 A A E X.X.X.X.X.) g g g ) X.X.X.X.X.1.w.w.w.w.w.9.A A A X.X.X.X.X.X.b g g 6       e.e.e.",
"e.e.e.      8 A A E X.X.X.X.X.) g g g ) X.X.X.X.X.1.w.w.w.w.w.9.A A A X.X.X.X.X.X.b g g 6       e.e.e.",
"e.e.e.      8 A A E X.X.X.X.X.| B B B U E E E E E #.:.:.:.:.:.;.E E E X.X.X.X.X.X.b g g 6       e.e.e.",
"e.e.e.      8 A A E X.X.X.X.X.X.X.X.X.D A A A A A A A A A A A D X.X.X.X.X.X.X.X.X.b g g 6       e.e.e.",
"e.e.e.      8 A A E X.X.X.X.X.X.X.X.X.D A A A A A A A A A A A D X.X.X.X.X.X.X.X.X.b g g 6       e.e.e.",
"e.e.e.      7 w w c ' ' { X.X.X.X.X.X.P K K K K K K K K K K K I X.X.X.X.X.X.W T T y 9 9 <       e.e.e.",
"e.e.e.e.e.e.      4 A A K X.X.X.X.X.X.X.X.X.X.X.X.X.X.X.X.X.X.X.X.X.X.X.X.X.z g g =       e.e.e.e.e.e.",
"e.e.e.e.e.e.      4 A A K X.X.X.X.X.X.X.X.X.X.X.X.X.X.X.X.X.X.X.X.X.X.X.X.X.z g g =       e.e.e.e.e.e.",
"e.e.e.e.e.e.      3 u u v } } } } } } X.X.X.X.X.X.X.X.X.X.X.X.X.) ) ) ) ) ) y q q &       e.e.e.e.e.e.",
"e.e.e.e.e.e.e.e.e.      # A A A A A A } X.X.X.X.X.X.X.X.X.X.X.) g g g g g g @     e.e.e.e.e.e.e.e.e.e.",
"e.e.e.e.e.e.e.e.e.      # A A A A A A } X.X.X.X.X.X.X.X.X.X.X.) g g g g g g @     e.e.e.e.e.e.e.e.e.e.",
"e.e.e.e.e.e.e.e.e.      # C C C C C C } X.X.X.X.X.X.X.X.X.X.X.) g g g g g g @     e.e.e.e.e.e.e.e.e.e.",
"e.e.e.e.e.e.e.e.e.e.e.e.e.O O O O O O s D D D D D D D D D D D a X X X X X X e.e.e.e.e.e.e.e.e.e.e.e.e.",
"e.e.e.e.e.e.e.e.e.e.e.e.e.            p A A A A A A A A A A A p             e.e.e.e.e.e.e.e.e.e.e.e.e.",
"e.e.e.e.e.e.e.e.e.e.e.e.e.            i C C C C A A A A A A A p             e.e.e.e.e.e.e.e.e.e.e.e.e.",
"e.e.e.e.e.e.e.e.e.e.e.e.e.e.e.e.e.e.e.* $ $ $ $ $ $ $ $ $ $ $ + e.e.e.e.e.e.e.e.e.e.e.e.e.e.e.e.e.e.e.",
"e.e.e.e.e.e.e.e.e.e.e.e.e.e.e.e.e.e.e.                          e.e.e.e.e.e.e.e.e.e.e.e.e.e.e.e.e.e.e.",
"e.e.e.e.e.e.e.e.e.e.e.e.e.e.e.e.e.e.e.                          e.e.e.e.e.e.e.e.e.e.e.e.e.e.e.e.e.e.e."
};
