/* XPM */
static char *result[] = {
/* columns rows colors chars-per-pixel */
"64 63 13 1 ",
"  c black",
". c #744308",
"X c #7C5507",
"o c #F1990F",
"O c #E98710",
"+ c #F3A90F",
"@ c #F9AB0F",
"# c #FBBB0F",
"$ c #FECC0F",
"% c #FBD486",
"& c #FEE586",
"* c #FEFEFE",
"= c None",
/* pixels */
"========================                ========================",
"========================                ========================",
"========================                ========================",
"================        XXXXXXXXXXXXXXXX        ================",
"================        @@@@@@@@@@@@@@@@        ================",
"================        @@@@@@@@@@@@@@@@        ================",
"================        @@@@@@@@@@@@@@@@        ================",
"============    XXXXXXXX%%%%############........    ============",
"============    @@@@@@@@****$$$$$$$$$$$$OOOOOOOO    ============",
"============    @@@@@@@@****$$$$$$$$$$$$OOOOOOOO    ============",
"============    @@@@@@@@****$$$$$$$$$$$$OOOOOOOO    ============",
"========    XXXX%%%%%%%%&&&&$$$$$$$$$$$$++++++++....    ========",
"========    @@@@********$$$$$$$$$$$$$$$$$$$$$$$$OOOO    ========",
"========    @@@@********$$$$$$$$$$$$$$$$$$$$$$$$OOOO    ========",
"========    @@@@********$$$$$$$$$$$$$$$$$$$$$$$$OOOO    ========",
"====    XXXX%%%%&&&&&&&&++++++++++++++++$$$$$$$$++++....    ====",
"====    @@@@****$$$$$$$$OOOOOOOOOOOOOOOO$$$$$$$$$$$$OOOO    ====",
"====    @@@@****$$$$$$$$OOOOOOOOOOOOOOOO$$$$$$$$$$$$OOOO    ====",
"====    @@@@****$$$$$$$$OOOOOOOOOOOOOOOO$$$$$$$$$$$$OOOO    ====",
"====    @@@@****$$$$++++oooooooooooooooo++++$$$$$$$$OOOO    ====",
"====    @@@@****$$$$OOOO@@@@@@@@@@@@@@@@OOOO$$$$$$$$OOOO    ====",
"====    @@@@****$$$$OOOO@@@@@@@@@@@@@@@@OOOO$$$$$$$$OOOO    ====",
"====    @@@@****$$$$OOOO@@@@@@@@@@@@@@@@OOOO$$$$$$$$OOOO    ====",
"    XXXX%%%%&&&&++++oooo@@@@@@@@@@@@####++++####$$$$++++....    ",
"    @@@@****$$$$OOOO@@@@@@@@@@@@@@@@$$$$$$$$@@@@$$$$$$$$OOOO    ",
"    @@@@****$$$$OOOO@@@@@@@@@@@@@@@@$$$$$$$$@@@@$$$$$$$$OOOO    ",
"    @@@@****$$$$OOOO@@@@@@@@@@@@@@@@$$$$$$$$@@@@$$$$$$$$OOOO    ",
"    @@@@&&&&$$$$OOOO@@@@@@@@@@@@####$$$$$$$$@@@@$$$$$$$$OOOO    ",
"    @@@@$$$$$$$$OOOO@@@@@@@@@@@@$$$$$$$$$$$$@@@@$$$$$$$$OOOO    ",
"    @@@@$$$$$$$$OOOO@@@@@@@@@@@@$$$$$$$$$$$$@@@@$$$$$$$$OOOO    ",
"    @@@@$$$$$$$$OOOO@@@@@@@@@@@@$$$$$$$$$$$$@@@@$$$$$$$$OOOO    ",
"    @@@@$$$$$$$$OOOO@@@@@@@@####$$$$$$$$&&&&@@@@$$$$$$$$OOOO    ",
"    @@@@$$$$$$$$OOOO@@@@@@@@$$$$$$$$$$$$****@@@@$$$$$$$$OOOO    ",
"    @@@@$$$$$$$$OOOO@@@@@@@@$$$$$$$$$$$$****@@@@$$$$$$$$OOOO    ",
"    @@@@$$$$$$$$OOOO@@@@@@@@$$$$$$$$$$$$****@@@@$$$$$$$$OOOO    ",
"    @@@@$$$$$$$$OOOO@@@@####$$$$$$$$&&&&****@@@@$$$$$$$$OOOO    ",
"    @@@@$$$$$$$$OOOO@@@@$$$$$$$$$$$$********@@@@$$$$$$$$OOOO    ",
"    @@@@$$$$$$$$OOOO@@@@$$$$$$$$$$$$********@@@@$$$$$$$$OOOO    ",
"    @@@@$$$$$$$$OOOO@@@@$$$$$$$$$$$$********@@@@$$$$$$$$OOOO    ",
"    XXXX####$$$$++++oooo$$$$$$$$&&&&****%%%%####$$$$++++....    ",
"====    @@@@$$$$$$$$OOOO$$$$$$$$********@@@@$$$$$$$$OOOO    ====",
"====    @@@@$$$$$$$$OOOO$$$$$$$$********@@@@$$$$$$$$OOOO    ====",
"====    @@@@$$$$$$$$OOOO$$$$$$$$********@@@@$$$$$$$$OOOO    ====",
"====    @@@@$$$$$$$$++++########%%%%%%%%####$$$$$$$$OOOO    ====",
"====    @@@@$$$$$$$$$$$$@@@@@@@@@@@@@@@@$$$$$$$$$$$$OOOO    ====",
"====    @@@@$$$$$$$$$$$$@@@@@@@@@@@@@@@@$$$$$$$$$$$$OOOO    ====",
"====    @@@@$$$$$$$$$$$$@@@@@@@@@@@@@@@@$$$$$$$$$$$$OOOO    ====",
"====    XXXX####$$$$$$$$################$$$$$$$$++++....    ====",
"========    @@@@$$$$$$$$$$$$$$$$$$$$$$$$$$$$$$$$OOOO    ========",
"========    @@@@$$$$$$$$$$$$$$$$$$$$$$$$$$$$$$$$OOOO    ========",
"========    @@@@$$$$$$$$$$$$$$$$$$$$$$$$$$$$$$$$OOOO    ========",
"========    XXXX########$$$$$$$$$$$$$$$$++++++++....    ========",
"============    @@@@@@@@$$$$$$$$$$$$$$$$OOOOOOOO    ============",
"============    @@@@@@@@$$$$$$$$$$$$$$$$OOOOOOOO    ============",
"============    @@@@@@@@$$$$$$$$$$$$$$$$OOOOOOOO    ============",
"============    XXXXXXXX################........    ============",
"================        @@@@@@@@@@@@@@@@        ================",
"================        @@@@@@@@@@@@@@@@        ================",
"================        @@@@@@@@@@@@@@@@        ================",
"================        XXXXXXXXXXXXXXXX        ================",
"========================                ========================",
"========================                ========================",
"========================                ========================"
};
