/* XPM */
static char *result[] = {
/* columns rows colors chars-per-pixel */
"51 50 36 1 ",
"  c black",
". c #2F1C03",
"X c #351F04",
"o c #3A2204",
"O c #533904",
"+ c #5D4005",
"@ c #604205",
"# c #AF650C",
"$ c #B16C0B",
"% c #B5730B",
"& c #B87C0B",
"* c #CC760E",
"= c #D07F0D",
"- c #BB800B",
"; c #BB840B",
": c #BE990B",
"> c #D3860D",
", c #D8910D",
"< c #DA960D",
"1 c #DB990D",
"2 c #ED900F",
"3 c #F1990F",
"4 c #E88710",
"5 c #E98710",
"6 c #DEB30D",
"7 c #F7A60F",
"8 c #F9AB0F",
"9 c #FAAF0F",
"0 c #FECC0F",
"q c #BEAF73",
"w c gray",
"e c #DECE93",
"r c #FEEBA4",
"t c gray87",
"y c #FEFEFE",
"u c None",
/* pixels */
"uuuuuuuuuuuuuuuuuuuuuu          uuuuuuuuuuuuuuuuuuu",
"uuuuuuuuuuuuuuuuuuuuuu          uuuuuuuuuuuuuuuuuuu",
"uuuuuuuuuuuuuuuuuuuuuu@++++++++Ouuuuuuuuuuuuuuuuuuu",
"uuuuuuuuuuuuuuuuuuu   -88888888<   uuuuuuuuuuuuuuuu",
"uuuuuuuuuuuuuuuuuuu   -88888888<   uuuuuuuuuuuuuuuu",
"uuuuuuuuuuuuuuuuuuu   ;999999991   uuuuuuuuuuuuuuuu",
"uuuuuuuuuuuuuuuuuuu   :000000006   uuuuuuuuuuuuuuuu",
"uuuuuuuuuuuuuuuuuuu   :000000006   uuuuuuuuuuuuuuuu",
"uuuuuuuuuuuuuuuuuuu   :000000006   uuuuuuuuuuuuuuuu",
"uuuuuuuuuuuuuuuuuuu   wyyyyyyyyt   uuuuuuuuuuuuuuuu",
"uuuuuuuuuuuuuuuuuuu   wyyyyyyyyt   uuuuuuuuuuuuuuuu",
"uuuuuuuuuuuuuuuuuuu   wyyyyyyyyt   uuuuuuuuuuuuuuuu",
"uuuuuuuuuuuuuuuuuuu   wyyyyyyyyt   uuuuuuuuuuuuuuuu",
"uuuuuuuuuuuuuuuuuuu   wyyyyyyyyt   uuuuuuuuuuuuuuuu",
"uuuuuuuuuuuuuuuuuuu   wyyyyyyyyt   uuuuuuuuuuuuuuuu",
"uuuuuuuuuuuuuuuuuuu   wyyyyyyyyt   uuuuuuuuuuuuuuuu",
"uuuuuuuuuuuuuuuuuuu   wyyyyyyyyt   uuuuuuuuuuuuuuuu",
"uuuuuuuuuuuuuuuuuuu   wyyyyyyyyt   uuuuuuuuuuuuuuuu",
"uuuuuuuuuuuuuuuuuuu   qrrrrrrrre   uuuuuuuuuuuuuuuu",
"uuuuuuuuuuuuuuuuuuu   :000000006   uuuuuuuuuuuuuuuu",
"uuuuuuuuuuuuuuuuuuu   :000000006   uuuuuuuuuuuuuuuu",
"uuuuuuuuuuuuuuuuuuu   :000000006   uuuuuuuuuuuuuuuu",
"uuuuuuuuuuuuuuuuuuu   :000000006   uuuuuuuuuuuuuuuu",
"uuuuuuuuuuuuuuuuuuu   :000000006   uuuuuuuuuuuuuuuu",
"uuuuuuuuuuuuuuuuuuu   :000000006   uuuuuuuuuuuuuuuu",
"uuuuuuuuuuuuuuuuuuu   -88888888<   uuuuuuuuuuuuuuuu",
"uuuuuuuuuuuuuuuuuuu   -88888888<   uuuuuuuuuuuuuuuu",
"uuuuuuuuuuuuuuuuuuu   -88888888<   uuuuuuuuuuuuuuuu",
"uuuuuuuuuuuuuuuuuuu   -88888888<   uuuuuuuuuuuuuuuu",
"uuuuuuuuuuuuuuuuuuu   -88888888<   uuuuuuuuuuuuuuuu",
"uuuuuuuuuuuuuuuuuuu   -88888888<   uuuuuuuuuuuuuuuu",
"uuuuuuuuuuuuuuuuuuu   -88888888<   uuuuuuuuuuuuuuuu",
"uuuuuuuuuuuuuuuuuuu   -88888888<   uuuuuuuuuuuuuuuu",
"uuuuuuuuuuuuuuuuuuu   -88888888<   uuuuuuuuuuuuuuuu",
"uuuuuuuuuuuuuuuuuuu   %33333333>   uuuuuuuuuuuuuuuu",
"uuuuuuuuuuuuuuuuuuu   #55555555*   uuuuuuuuuuuuuuuu",
"uuuuuuuuuuuuuuuuuuu   #55555555*   uuuuuuuuuuuuuuuu",
"uuuuuuuuuuuuuuuuuuu   $22222222=   uuuuuuuuuuuuuuuu",
"uuuuuuuuuuuuuuuuuuu   -88888888<   uuuuuuuuuuuuuuuu",
"uuuuuuuuuuuuuuuuuuu   -88888888<   uuuuuuuuuuuuuuuu",
"uuuuuuuuuuuuuuuuuuu   &77777777,   uuuuuuuuuuuuuuuu",
"uuuuuuuuuuuuuuuuuuu   #55555555*   uuuuuuuuuuuuuuuu",
"uuuuuuuuuuuuuuuuuuu   #55555555*   uuuuuuuuuuuuuuuu",
"uuuuuuuuuuuuuuuuuuu   #55555555*   uuuuuuuuuuuuuuuu",
"uuuuuuuuuuuuuuuuuuu   #55555555*   uuuuuuuuuuuuuuuu",
"uuuuuuuuuuuuuuuuuuu   #55555555*   uuuuuuuuuuuuuuuu",
"uuuuuuuuuuuuuuuuuuu   #45555555*   uuuuuuuuuuuuuuuu",
"uuuuuuuuuuuuuuuuuuuuuuXoooooooo.uuuuuuuuuuuuuuuuuuu",
"uuuuuuuuuuuuuuuuuuuuuu          uuuuuuuuuuuuuuuuuuu",
"uuuuuuuuuuuuuuuuuuuuuu          uuuuuuuuuuuuuuuuuuu"
};
