/* XPM */
static char *result[] = {
/* columns rows colors chars-per-pixel */
"64 63 15 1 ",
"  c black",
". c #744308",
"X c #7C5507",
"o c #7F6607",
"O c gray50",
"+ c #F1990F",
"@ c #E98710",
"# c #F3A90F",
"$ c #F9AB0F",
"% c #FBBB0F",
"& c #FECC0F",
"* c #FBD486",
"= c #FEE586",
"- c #FEFEFE",
"; c None",
/* pixels */
";;;;;;;;;;;;;;;;;;;;;;;;;;;;            ;;;;;;;;;;;;;;;;;;;;;;;;",
";;;;;;;;;;;;;;;;;;;;;;;;;;;;            ;;;;;;;;;;;;;;;;;;;;;;;;",
";;;;;;;;;;;;;;;;;;;;;;;;;;;;            ;;;;;;;;;;;;;;;;;;;;;;;;",
";;;;;;;;;;;;;;;;;;;;;;;;    XXXXXXXX....    ;;;;;;;;;;;;;;;;;;;;",
";;;;;;;;;;;;;;;;;;;;;;;;    $$$$$$$$@@@@    ;;;;;;;;;;;;;;;;;;;;",
";;;;;;;;;;;;;;;;;;;;;;;;    $$$$$$$$@@@@    ;;;;;;;;;;;;;;;;;;;;",
";;;;;;;;;;;;;;;;;;;;;;;;    $$$$$$$$@@@@    ;;;;;;;;;;;;;;;;;;;;",
";;;;;;;;;;;;;;;;;;;;    OOOO****++++++++....    ;;;;;;;;;;;;;;;;",
";;;;;;;;;;;;;;;;;;;;    --------@@@@$$$$@@@@    ;;;;;;;;;;;;;;;;",
";;;;;;;;;;;;;;;;;;;;    --------@@@@$$$$@@@@    ;;;;;;;;;;;;;;;;",
";;;;;;;;;;;;;;;;;;;;    --------@@@@$$$$@@@@    ;;;;;;;;;;;;;;;;",
";;;;;;;;;;;;;;;;;;;;    ========@@@@$$$$@@@@    ;;;;;;;;;;;;;;;;",
";;;;;;;;;;;;;;;;;;;;    &&&&&&&&@@@@$$$$@@@@    ;;;;;;;;;;;;;;;;",
";;;;;;;;;;;;;;;;;;;;    &&&&&&&&@@@@$$$$@@@@    ;;;;;;;;;;;;;;;;",
";;;;;;;;;;;;;;;;;;;;    &&&&&&&&@@@@$$$$@@@@    ;;;;;;;;;;;;;;;;",
";;;;;;;;;;;;;;;;    OOOO====####++++$$$$++++....    ;;;;;;;;;;;;",
";;;;;;;;;;;;;;;;    --------@@@@$$$$$$$$$$$$@@@@    ;;;;;;;;;;;;",
";;;;;;;;;;;;;;;;    --------@@@@$$$$$$$$$$$$@@@@    ;;;;;;;;;;;;",
";;;;;;;;;;;;;;;;    --------@@@@$$$$$$$$$$$$@@@@    ;;;;;;;;;;;;",
";;;;;;;;;;;;;;;;    --------@@@@$$$$$$$$$$$$@@@@    ;;;;;;;;;;;;",
";;;;;;;;;;;;;;;;    --------@@@@$$$$$$$$$$$$@@@@    ;;;;;;;;;;;;",
";;;;;;;;;;;;;;;;    --------@@@@$$$$$$$$$$$$@@@@    ;;;;;;;;;;;;",
";;;;;;;;;;;;;;;;    --------@@@@$$$$$$$$$$$$@@@@    ;;;;;;;;;;;;",
";;;;;;;;;;;;;;;;    --------@@@@$$$$++++%%%%@@@@    ;;;;;;;;;;;;",
";;;;;;;;;;;;;;;;    --------@@@@$$$$@@@@&&&&@@@@    ;;;;;;;;;;;;",
";;;;;;;;;;;;;;;;    --------@@@@$$$$@@@@&&&&@@@@    ;;;;;;;;;;;;",
";;;;;;;;;;;;;;;;    --------@@@@$$$$@@@@&&&&@@@@    ;;;;;;;;;;;;",
";;;;;;;;;;;;;;;;    ----====@@@@$$$$@@@@&&&&@@@@    ;;;;;;;;;;;;",
";;;;;;;;;;;;;;;;    ----&&&&@@@@$$$$@@@@&&&&@@@@    ;;;;;;;;;;;;",
";;;;;;;;;;;;;;;;    ----&&&&@@@@$$$$@@@@&&&&@@@@    ;;;;;;;;;;;;",
";;;;;;;;;;;;;;;;    ----&&&&@@@@$$$$@@@@&&&&@@@@    ;;;;;;;;;;;;",
";;;;;;;;;;;;;;;;    ====&&&&@@@@%%%%@@@@&&&&@@@@    ;;;;;;;;;;;;",
";;;;;;;;;;;;;;;;    &&&&&&&&@@@@&&&&@@@@&&&&@@@@    ;;;;;;;;;;;;",
";;;;;;;;;;;;;;;;    &&&&&&&&@@@@&&&&@@@@&&&&@@@@    ;;;;;;;;;;;;",
";;;;;;;;;;;;;;;;    &&&&&&&&@@@@&&&&@@@@&&&&@@@@    ;;;;;;;;;;;;",
";;;;;;;;;;;;;;;;    &&&&&&&&@@@@&&&&++++&&&&@@@@    ;;;;;;;;;;;;",
";;;;;;;;;;;;;;;;    &&&&&&&&@@@@&&&&$$$$&&&&@@@@    ;;;;;;;;;;;;",
";;;;;;;;;;;;;;;;    &&&&&&&&@@@@&&&&$$$$&&&&@@@@    ;;;;;;;;;;;;",
";;;;;;;;;;;;;;;;    &&&&&&&&@@@@&&&&$$$$&&&&@@@@    ;;;;;;;;;;;;",
";;;;;;;;;;;;;;;;    &&&&&&&&@@@@&&&&$$$$&&&&@@@@    ;;;;;;;;;;;;",
";;;;;;;;;;;;;;;;    &&&&&&&&@@@@&&&&$$$$&&&&@@@@    ;;;;;;;;;;;;",
";;;;;;;;;;;;;;;;    &&&&&&&&@@@@&&&&$$$$&&&&@@@@    ;;;;;;;;;;;;",
";;;;;;;;;;;;;;;;    &&&&&&&&@@@@&&&&$$$$&&&&@@@@    ;;;;;;;;;;;;",
";;;;;;;;;;;;;;;;    &&&&&&&&@@@@&&&&%%%%&&&&@@@@    ;;;;;;;;;;;;",
";;;;;;;;;;;;;;;;    &&&&&&&&@@@@&&&&&&&&&&&&@@@@    ;;;;;;;;;;;;",
";;;;;;;;;;;;;;;;    &&&&&&&&@@@@&&&&&&&&&&&&@@@@    ;;;;;;;;;;;;",
";;;;;;;;;;;;;;;;    &&&&&&&&@@@@&&&&&&&&&&&&@@@@    ;;;;;;;;;;;;",
";;;;;;;;;;;;;;;;    oooo%%%%++++####&&&&&&&&....    ;;;;;;;;;;;;",
";;;;;;;;;;;;;;;;;;;;    $$$$$$$$@@@@&&&&&&&&    ;;;;;;;;;;;;;;;;",
";;;;;;;;;;;;;;;;;;;;    $$$$$$$$@@@@&&&&&&&&    ;;;;;;;;;;;;;;;;",
";;;;;;;;;;;;;;;;;;;;    $$$$$$$$@@@@&&&&&&&&    ;;;;;;;;;;;;;;;;",
";;;;;;;;;;;;;;;;;;;;    %%%%%%%%@@@@&&&&&&&&    ;;;;;;;;;;;;;;;;",
";;;;;;;;;;;;;;;;;;;;    &&&&&&&&@@@@&&&&&&&&    ;;;;;;;;;;;;;;;;",
";;;;;;;;;;;;;;;;;;;;    &&&&&&&&@@@@&&&&&&&&    ;;;;;;;;;;;;;;;;",
";;;;;;;;;;;;;;;;;;;;    &&&&&&&&@@@@&&&&&&&&    ;;;;;;;;;;;;;;;;",
";;;;;;;;;;;;;;;;;;;;    oooo%%%%++++####oooo    ;;;;;;;;;;;;;;;;",
";;;;;;;;;;;;;;;;;;;;;;;;    $$$$$$$$@@@@    ;;;;;;;;;;;;;;;;;;;;",
";;;;;;;;;;;;;;;;;;;;;;;;    $$$$$$$$@@@@    ;;;;;;;;;;;;;;;;;;;;",
";;;;;;;;;;;;;;;;;;;;;;;;    $$$$$$$$@@@@    ;;;;;;;;;;;;;;;;;;;;",
";;;;;;;;;;;;;;;;;;;;;;;;    XXXXXXXX....    ;;;;;;;;;;;;;;;;;;;;",
";;;;;;;;;;;;;;;;;;;;;;;;;;;;            ;;;;;;;;;;;;;;;;;;;;;;;;",
";;;;;;;;;;;;;;;;;;;;;;;;;;;;            ;;;;;;;;;;;;;;;;;;;;;;;;",
";;;;;;;;;;;;;;;;;;;;;;;;;;;;            ;;;;;;;;;;;;;;;;;;;;;;;;"
};
