/* XPM */
static char *_6209f43f6794e27d0adb1753520aa12jHj1I0goUPrFY8iA[] = {
/* columns rows colors chars-per-pixel */
"64 64 108 2 ",
"   c None",
".  c #0D0415",
"X  c #0F0618",
"o  c #120516",
"O  c #1A0616",
"+  c #110719",
"@  c #1A0618",
"#  c #15091D",
"$  c #180A1F",
"%  c #22071A",
"&  c #250819",
"*  c #2C081C",
"=  c #320B17",
"-  c #330A1D",
";  c #3C0C1D",
":  c #170B20",
">  c #1C0E24",
",  c #1F0F28",
"<  c #0C1123",
"1  c #220E25",
"2  c #2A0F27",
"3  c #370F20",
"4  c #3C0C23",
"5  c #21112A",
"6  c #2A1028",
"7  c #0A2135",
"8  c #082A3D",
"9  c #430D1D",
"0  c #4D0F1F",
"q  c #4B1318",
"w  c #54111E",
"e  c #5B131C",
"r  c #541A19",
"t  c #5F181F",
"y  c #621619",
"u  c #62191C",
"i  c #6B1D1B",
"p  c #5C2419",
"a  c #6B211B",
"s  c #6E2A1B",
"d  c #72221A",
"f  c #772A1C",
"g  c #7C2A1B",
"h  c #470C24",
"j  c #4C0E22",
"k  c #510F20",
"l  c #401124",
"z  c #4F1023",
"x  c #521120",
"c  c #591621",
"v  c #541F2A",
"b  c #641D21",
"n  c #582128",
"m  c #532E36",
"M  c #0A2F47",
"N  c #083449",
"B  c #063952",
"V  c #123C54",
"C  c #463846",
"Z  c #05435E",
"A  c #084B63",
"S  c #065B79",
"D  c #365063",
"F  c #076175",
"G  c #13607D",
"H  c #494850",
"J  c #43555D",
"K  c #802E1C",
"L  c #87311B",
"P  c #8A341C",
"I  c #943B1D",
"U  c #843B23",
"Y  c #934B2A",
"T  c #A74F26",
"R  c #AF592C",
"E  c #B45E2F",
"W  c #036483",
"Q  c #016987",
"!  c #006A88",
"~  c #047B9F",
"^  c #058DA1",
"/  c #1790AB",
"(  c #0297BE",
")  c #019CBF",
"_  c #2493A3",
"`  c #00A1BA",
"'  c #019FC6",
"]  c #00A6CA",
"[  c #13ABC0",
"{  c #0DB8CE",
"}  c #12B9CC",
"|  c #01A7D0",
" . c #00A8D1",
".. c #00ADD7",
"X. c #00BFD7",
"o. c #00B1DB",
"O. c #00B2DD",
"+. c #02C6DD",
"@. c #00C7DF",
"#. c #0CC6D9",
"$. c #00C8E9",
"%. c #00C9E9",
"&. c #00CBEB",
"*. c #06D2E7",
"=. c #00D4EF",
"-. c #00DEF4",
";. c #00DFF5",
":. c #00DFF7",
/* pixels */
"                                                                                                                                ",
"                                                                                                                                ",
"                                                                                                                                ",
"                                                                                              i                                 ",
"                                                                                              d                                 ",
"                                                                                            d P                                 ",
"                          w j                                                               d P                                 ",
"                          y w                                                               e f                                 ",
"                          w w                                                             j u e u h                             ",
"                          w x j                                                         j h c b z h h                           ",
"                        h j j h                                                       j e j w w j h h h                         ",
"                        h j h h h                                                   x t e y e w j e j h h                       ",
"                      h j e h w j                                                   c e y y y x j y y w h h                     ",
"                      j y e h e w h                                               j w y y y y w j y y y e j h h                 ",
"                    h k y e j y e j                                             h e k y y y y e h e y y y x x h h               ",
"                    j w y e j y y w h                                         h w y w y y y y y j e y y e y y e j               ",
"                  h e e e e j y y w h h                                     h e y y e y y y e w j k y y e y y y y j             ",
"                h e y y y e j y w w w h                             I     h w y y y e y y y y y w j y y e y y y y y j           ",
"                j e y y y e j y w e y j                 ;.          g i h x y y y y y y y y y y e j y y y y y y y y   h         ",
"              h w y y y y e j y y J H w h w           ;.              k b e y y y y y y y y y y y j e y y y y y y               ",
"              h y y y y y e j y y y } e j w           ;.              c c j y y y w y y y y y y y w e y y y y                   ",
"                  y y y y e j y y C *.D m / O.O.|   ;.;.              h e h j w e e y y y y y y y w w y y y                     ",
"                    y y y e j y y H ;.{ ;.%.%...Q +.X.;.+.  w e     h j y w h w y y y y y y y y y e w y y                       ",
"                      y y e w y y n [ #._ %.=.| Z +.` ;.^ @ l K u   h k y y x h w y y y y y y y y y e y                         ",
"                        y j w y y w v m y ) ) M ( ! 8 7 < . 1 x u   h e y y y x h e y y y y y y y y j                           ",
"                          j w y e j y y y ~ ~ S | B . . X > + 2 e y h e y y y y j h e y y y y y y   h                           ",
"                          h w y w w y y y ..( ' A 7 . . . X > 5 4 w j j w e y y y w j e y y y       h                           ",
"                          h   e h y        .] F N 7 . . # + + 5 6 j j y e e y y y y w k y y                                     ",
"                                          o.G Q W . . . + > # # 5 4 j y y y y y y y y x k y                                     ",
"                                          5 > V . . . o @ > 5 + > 5                 y y j j                                     ",
"                  R T                     > 3 e * . O 9 % # 5 > > 5                       h                                     ",
"                  Y U i                 5 # ; = 4 % * O % & 5 5 : 5                                                             ",
"                  p s y           5 5 5 > . % 9 * e a ; = O > 5 # ,                                                             ",
"                  L s         5 5 5 5 5 . . o O o 0 ; & % ; > 5 > > 5                                                           ",
"                    .       5 > > > 5 # . . * y w * - 4 O O # 5 > + 5                                                           ",
"                    .       $ . . + : . . . * j * o @ o . . > 5 5 + >                                                           ",
"                    .           . . . . . . o - 9 & . . . . > 5 5 # > 5                                                         ",
"                      .           . . . # + . . . . # > . # 5 5 5 # > 5             E E                                         ",
"                                  . . . 5 # . . . + > > . 5 5 5 5 # > 5             U Y I                                       ",
"                        .       5 > . : 5 # . . + > 5 > # 5 5 5 5 # > 5             q p r                                       ",
"                          . . : > 5 , 5 > . . # 5 5 5 # > 5 5 5 5 # 5 5             = K f                                       ",
"                            # . . # > > # : 5 5 5 5 5 . > 5 5 5 5 + 5 5 5           .                                           ",
"                            # . . . + 5 . > > 5 5 > > + 5 : 5 5 5 . 5 5 5                                                       ",
"                          . X + # . . # + . X > # > # > > > 5 5 5 . 5 5           .                                             ",
"                          . + 5 + . . . . . . . > > . # # . . # 5 . > +           .                                             ",
"                          > 5 > . . . . . . . + 5 + . . . . . . # . . .                                                         ",
"                          5 5 # . . . . . . . > > . . . . . . . . . .           .                                               ",
"                        5 5 5 # . . . . . . . + # . . . . . . . . . .           .                                               ",
"                      > # > 5 # . . . . . . . . . . . . . . . . . . .         .                                                 ",
"                      . . . > # . . . . . . . . . . . . . . . . . . . . . . .                                                   ",
"                        . . # # . . . . . . . . . . . . . . . . . . .                                                           ",
"                        . . + # . . . . . . . . . . . . . . . . . . .                                                           ",
"                            . . . . . . . . . . . . . . . . . . .                                                               ",
"                              . . . . . . . . . . . . . . . .                                                                   ",
"                                      . . . . . . . . . . .                                                                     ",
"                                        . . . . . . . . . .                                                                     ",
"                                        . . . .       . . .                                                                     ",
"                                                                                                                                ",
"                                                                                                                                ",
"                                                                                                                                ",
"                                                                                                                                ",
"                                                                                                                                ",
"                                                                                                                                ",
"                                                                                                                                "
};
