/* XPM */
static char *result[] = {
/* columns rows colors chars-per-pixel */
"64 64 175 2 ",
"   c #382F33",
".  c #3E3337",
"X  c #433A3E",
"o  c #3B5A37",
"O  c #237A39",
"+  c #45673B",
"@  c #4E464A",
"#  c #584645",
"$  c #5A4849",
"%  c #595255",
"&  c #7F4F48",
"*  c #6D5451",
"=  c #775C57",
"-  c #487845",
";  c #645E60",
":  c #82554B",
">  c #926A65",
",  c #986B64",
"<  c #887462",
"1  c #977469",
"2  c #9F736C",
"3  c #A57C71",
"4  c #A97D72",
"5  c #26843C",
"6  c #268B3D",
"7  c #28923F",
"8  c #398448",
"9  c #3E894B",
"0  c #299640",
"q  c #2A9B41",
"w  c #37A14A",
"e  c #5A975B",
"r  c #41A24E",
"t  c #44A552",
"y  c #679967",
"u  c #689E65",
"i  c #5EAC61",
"p  c #5FB163",
"a  c #68A260",
"s  c #6FA26D",
"d  c #75A66D",
"f  c #75A86F",
"g  c #8B8366",
"h  c #9F8F72",
"j  c #95887B",
"k  c #AB8276",
"l  c #AA837A",
"z  c #B18C7E",
"x  c #BA8D7D",
"c  c #AA9576",
"v  c #B49F77",
"b  c #ACA67C",
"n  c #B4A37C",
"m  c #BAA47D",
"M  c #918C8C",
"N  c #9D9997",
"B  c #BD9C89",
"V  c #9AB786",
"C  c #ADAA80",
"Z  c #BEAA84",
"A  c #BDB28A",
"S  c #BAB399",
"D  c #A6A4A5",
"F  c #C1AC83",
"G  c #C3A48F",
"H  c #C7AB8E",
"J  c #C3B186",
"K  c #CDB187",
"L  c #C4B38A",
"P  c #CCB58B",
"I  c #C5BA8E",
"U  c #CDBA8E",
"Y  c #D3BB8E",
"T  c #D9BF8F",
"R  c #C3A591",
"E  c #CAB692",
"W  c #C5BA93",
"Q  c #CCBB92",
"!  c #C8B799",
"~  c #CBBE9B",
"^  c #D3BD93",
"/  c #DABF94",
"(  c #ACC592",
")  c #CDC195",
"_  c #CEC19D",
"`  c #D4C195",
"'  c #DAC496",
"]  c #D4C49A",
"[  c #DBC69A",
"{  c #D6CA9E",
"}  c #DBCA9D",
"|  c #E1CA9D",
" . c #E4C99C",
".. c #C5C6A5",
"X. c #CDC3A4",
"o. c #CFC5A9",
"O. c #D4C5A3",
"+. c #D8C6A4",
"@. c #D2CBA1",
"#. c #DDCCA2",
"$. c #D2C6AA",
"%. c #D5CBAD",
"&. c #DACDAB",
"*. c #DED2A4",
"=. c #DED8A6",
"-. c #D4D4AB",
";. c #DCD2AC",
":. c #CBC5B7",
">. c #D7CDB1",
",. c #D9CEB0",
"<. c #DCD2B4",
"1. c #DBD8B7",
"2. c #DDD4B8",
"3. c #E2CEA3",
"4. c #E1CDAC",
"5. c #E3D2A5",
"6. c #E9D3A6",
"7. c #E8DAA7",
"8. c #E4D4AA",
"9. c #EAD6AB",
"0. c #E5D9AD",
"q. c #EBDAAD",
"w. c #F1DDAD",
"e. c #E2D5B3",
"r. c #E5D9B5",
"t. c #ECDDB2",
"y. c #E0D7BA",
"u. c #E6DCBA",
"i. c #EADDBA",
"p. c #F1DEB3",
"a. c #F1E1AF",
"s. c #E3E5B6",
"d. c #EEE1B4",
"f. c #E6E0BB",
"g. c #EBE2BD",
"h. c #F3E2B5",
"j. c #FAE7B7",
"k. c #F5E5BB",
"l. c #F9E7BB",
"z. c #F5E9BD",
"x. c #FAEABE",
"c. c gray78",
"v. c #D5D3CA",
"b. c #DAD7C8",
"n. c #D4D3D0",
"m. c #DEDFDE",
"M. c #E5DCC1",
"N. c #E8DFC1",
"B. c #E4DECC",
"V. c #ECE5C1",
"C. c #EEE9C5",
"Z. c #E6E0CD",
"A. c #EDE6CD",
"S. c #F1E6C1",
"D. c #F3EAC3",
"F. c #FDEEC2",
"G. c #F3ECCB",
"H. c #FAEFCE",
"J. c #FFF2C6",
"K. c #F6F1C9",
"L. c #FFF5C9",
"P. c #FFF9CC",
"I. c #E9E5D4",
"U. c #E9E7DD",
"Y. c #EBE9DC",
"T. c #F0E7D1",
"R. c #F5EED4",
"E. c #F8EFD0",
"W. c #F4EED8",
"Q. c #F6F1D5",
"!. c #F8F2D4",
"~. c #FFFCD1",
"^. c #F5F1D9",
"/. c #EBEBE5",
"(. c #E9EAE9",
/* pixels */
"<.M.$.%.>.y.<.<.$.<.y.e.%.e.u.u.u.2.u.C.D.g.g.g.=.0.X.;.r.g.g.f.%.<.r.&.u.y.e.y.>.%.O.<.<.<.<.<.>.>.<.2.<.e.u.N.e.%.O.S ~ %.t.b.",
">.J.h.x.x.} { t.Q 0.#.5.} j.L.L.L.C.g.P.J.J.z.d.7.s.5.I 7.k.J.~.o.U ) ` ' x.J.L.L.J.J.L.L.F.3.F.P.V.V.P.L.k./ t.l.l.6.3.9.6.z.L.",
"u.P.L.L.J.[ 9.P Z ` *.] ] =.k.F.J.C.s.J.J.x.7.0.K.z.d.=.I I K.~.%.) 7.7.' t.L.L.L.J.x.6.9.w.w.J.L.D.V.P.~.F.k.p.x.l.p.P m 5.k.J.",
"y.P.P.L.L.x.| 9.9.| P 5.x.k.p.F.J.g.Q 7.7.*.q.P.L.L.L.J.*.#.) P.%.0.{ I L 0.F.F.J.h.' t.t.p.x.J.L.C.f.L.L.L.L.L.J.J.x.p.n q.h.z.",
"&.L.L.L.L.J.J.l.x.F.F.F.J.F.F.J.z.g.r.x.P.x.L.P.P.L.P.L.x.z.{ d.X.h.0.Q Q L 8.h.h.[ 6.x.F.l.F.H.F.D.g.L.L.L.L.F.L.J.F.k.^ E ^ Y ",
"X.L.L.L.L.L.L.F.F.J.J.F.J.F.F.t.{ <.t.J.P.P.L.L.P.P.P.P.P.P.J.a.$.x.x.x.F.F.] U P H #.x.F.l.F.F.F.C.V.L.L.L.L.L.L.J.J.F.F.h.*.#.",
"$.L.L.L.L.F.J.F.F.F.L.L.L.F.z.q.5.d.s.x.x.P.L.L.P.P.J.J.P.L.P.P.<.L.J.F.J.F.p.9.p.S.F.F.F.F.F.F.F.S.V.L.L.L.F.L.F.L.J.F.x.h.3.` ",
"O.P.L.L.F.x.h.t.F.F.F.J.J.J.J.h.h.z.g.P.x.P.L.L.P.P.P.P.L.L.L.P.2.L.J.L.J.J.F.l.p.F.F.F.F.F.F.F.F.S.N.L.L.L.L.F.L.F.F.z.h.5.` ^ ",
"<.L.L.J.J.l.l.h.x.F.J.J.J.J.F.k.t.S.V.L.P.L.L.L.L.L.L.L.L.L.L.~.>.L.L.J.L.F.F.F.F.F.F.L.F.F.F.F.F.V.N.L.L.F.L.L.F.F.p.+.q.3.+.9.",
"%.L.L.L.J.F.l.p.l.k.j.F.F.J.F.h.5.G k l z R z.L.L.L.L.L.L.L.L.~.<.L.L.L.L.F.F.F.L.F.F.F.F.F.F.S.k.r.V.F.L.L.F.F.F.F.p.p.p.Y m 3.",
">.L.L.L.x.x.S.9.| p.[ h.p.[ t.3.3 2 2 2 2 2 2 4.L.L.L.L.L.L.L.~.>.L.L.J.L.F.L.F.L.F.F.F.F.F.F.p.9.! V.L.L.F.L.J.L.L.F.S.h.4./ 9.",
">.L.L.F.x.x.p.k.p.^ 3.P Y } E H 2 2 2 2 2 2 2 B L.L.L.J.L.L.J.~.<.L.L.J.F.L.F.J.F.F.F.H.F.F.F.p.#.&.V.L.F.L.J.J.F.F.F.F.h.p.l.L.",
"<.L.L.L.F.S.F.F.F.^ ] p.p.5.J H , 2 2 2 2 2 2 ! L.L.L.L.L.L.L.~.>.L.J.L.F.L.J.F.F.F.F.F.F.F.F.F.F.V.i.L.F.L.F.J.J.J.L.F.F.F.F.L.",
">.L.L.L.F.L.F.F.F.h.] L Z +.3.` E : : & & # c L.L.L.L.L.L.L.J.~.<.L.L.L.L.F.J.F.F.F.F.H.F.F.F.F.F.V.g.L.L.L.F.F.F.H.F.F.J.F.F.~.",
">.L.L.F.L.F.F.F.F.F.k.t.Z 5.0.J h.a - + o - t t t t t t p p p p i p p p i p p p p a e e e u f f d d V J.F.J.l.k.F.L.F.F.L.F.F.L.",
"%.L.L.L.F.L.L.L.F.F.F.h.v J ^ 0.F.w q 6 O O q q q q q q q q q q 0 q q q 0 q q q q O 5 O O O O O O O @.q.F.F.F.F.F.F.L.F.F.F.F.~.",
"$.L.L.L.J.F.J.J.J.F.F.k.P 9.k.x.F.0 q 6 O O 7 q q q q q q q q q q q q q q q 7 7 5 O O O O O O O O y O.5.h.x.F.F.J.F.J.J.F.F.J.L.",
">.<.i.i.i.i.i.u.r.u.r.&.+.e.u.r.u.0 q 7 O O q q q q q q q q q q q q q q q q q 6 O O O O O O O O O ..A Z J d.k.z.D.l.S.k.g.i.i.N.",
"y.G.D.G.G.S.i.+.E ~ E Q +.8.+.] r.q q 7 O O 0 q q q q q q q q q q q q q q q 7 O O O O O O O O O s e.o.u.<.g.V.D.D.D.S.D.k.i.i.D.",
"u.~.P.L.L.L.F.F.k.8.{ Z ) Q q.z.x.q q 6 O O 0 q q q q q q q q q q q q q q q 5 O O O O O O O O O s.C.V.P.P.L.L.L.L.L.J.L.L.L.L.L.",
"i.~.~.L.L.L.F.F.x.3.^ ^  .6.F.F.J.q q 5 O O 0 q q q q q q q q q q q q q 7 5 O O O O O O O O O f L.V.F.L.L.L.L.L.J.F.F.L.L.L.L.L.",
"N.L.L.L.L.L.x.k.5./ P ] ^ +.l.F.J.q q 6 O O q q q q q q q q q q q q q q 5 O O O O O O O O O O s.J.V.F.L.L.L.J.F.h.F.L.L.F.L.F.~.",
"g.L.L.L.F.p.+.q.4.3.3.p.5.8.p.F.F.0 q 6 O O q q q q q q q q q q q q q 7 O O O O O O O O O O O ( J.g.L.F.h.p.F.J.F.J.H.L.L.L.L.~.",
"V.L.L.L.F.l.t.p./ v | t.l.x.F.F.J.q q 6 O O q q q q q q q q q q q 7 7 5 O O O O O O O O O O O 8 J.g.L.k.5.0.x.F.J.F.F.L.F.F.F.L.",
"V.L.L.L.L.F.F.l.5./ 4.l.F.F.F.F.J.q q 6 O O 7 q q q q q q q q q q 7 5 O O O O O O O O O O O O O ( g.k.5.P Z 5.F.F.J.J.J.J.J.J.L.",
"u.L.L.L.L.L.F.p.k.l.F.J.L.F.H.F.F.0 q 6 O O q q q q q q q q q q q 6 O O O O O O O O O O O O O O 9 g.} m #.] } F.J.J.J.J.J.J.J.P.",
"u.L.L.L.L.F.F.F.F.L.F.L.F.F.F.F.J.q q 6 O O q 7 q q q q q q q 0 7 O O O O O O O O O O O O O O O O V I 5.z.x.q.k.F.J.J.J.J.F.J.L.",
"g.J.F.L.F.L.L.L.L.F.F.F.L.F.F.L.J.q 0 6 O 5 q 7 q q q q q q q 7 O O O O O O O O O O O O O O O O O 8 w.z.J.F.' K q.F.J.J.J.J.J.J.",
"f.x.l.J.J.J.L.F.F.F.F.F.F.F.F.F.F.7 7 7 O O t t t r r r 7 7 7 5 O O O O O O O O O O O O O O O O O O V J.L.J.x.q.7.z.J.J.J.F.F.J.",
"i.L.J.J.J.J.F.L.F.L.L.F.F.L.F.F.J.x h g < 1 J.F.J.w.P U P U ] Q r.P.J.x.d.A { *.J.x.J.J.J.s.s.s.r.-.s.P.L.J.J.J.h.F.J.J.L.F.k.z.",
"r.J.J.J.L.L.F.J.L.F.L.F.F.F.F.F.J.x x k 2 2 J.J.x.x.l.p.h.w.} k.u.J.x.z.@.C A b 0.g.z.K.J.J.P.J.J.g.g.L.L.J.J.J.F.F.J.J.F.h.} 5.",
"%.i.D.x.z.z.D.l.S.k.k.k.D.k.S.k.z.x x k 2 2 z.k.z.k.z.t.t.z.l.e.%.;.s.r.] =.@.I Q =.s.x.x.K.x.J.J.g.0.x.x.x.z.x.t.F.F.z.} m m %.",
"2.f.D.G.D.D.k.g.y.g.g.g.u.<.%.X.2.x B k 2 2 S.S.S.D.S.S.g.V.G.M.<.f.C.f.f.C.u.1.-.~ X.<.<.1.2.y.<.<.%.e._ @.&.&.<.u.1.W C _ ;.,.",
"u.~.P.P.P.J.k.5.] J.J.J.J.t.b q.p.x x 4 2 2 p.h.p.F.L.L.L.L.L.L.u.~.~.~.~.~.P.J.P.P.P.P.~.P.P.P.P.f.u.~.~.~.P.P.P.P.J.L.L.L.P.K.",
"V.P.P.P.P.L.x.h.x.P.P.P.L.x.7.s.3.B x 4 2 2 F.F.F.L.L.L.L.L.L.L.V.~.~.P.P.P.L.J.L.P.P.P.P.P.P.P.P.C.V.P.P.P.P.P.P.P.P.L.P.L.L.G.",
"f.L.P.P.L.L.J.a.x.J.J.P.J.J.=.h.4.x x 4 2 2 L.L.L.L.F.L.L.F.F.L.f.~.~.~.P.P.P.x.J.P.P.P.P.L.L.L.L.C.g.P.P.P.P.L.L.P.P.L.P.P.P.K.",
"V.J.P.P.P.P.x.h.z.J.P.J.J.J.a.} / x x 4 2 2 L.F.H.F.L.F.p.F.F.L.V.~.~.P.P.P.P.P.P.P.P.P.L.P.L.J.L.C.g.P.P.P.P.P.L.P.P.P.L.L.L.K.",
"y.j.x.J.J.x.j.h.j.J.J.J.L.J.J.J.9.x x 4 2 2 L.L.J.L.L.F.l.l.F.L.V.~.P.~.P.P.P.P.J.P.J.P.P.L.L.P.L.C.V.P.L.P.L.J.P.P.J.P.J.L.P.K.",
"q. .' Y Y [ h.h.x.J.J.J.L.L.J.L.l.x x 4 2 2 L.L.F.L.F.F.F.F.F.F.f.~.P.P.P.P.P.P.P.P.J.P.P.J.P.J.L.C.C.P.P.P.L.L.J.P.P.J.P.J.J.K.",
"O.#.q.a.q.F *.5.x.J.J.P.J.L.L.L.p.x x 4 2 l F.F.L.F.L.F.J.F.F.h.1.P.P.P.L.P.P.L.J.P.P.P.J.P.J.P.L.C.C.P.P.L.L.L.P.J.P.J.J.J.J.P.",
"t.Q I 7.9.3.Z #.t.z.J.J.L.L.L.J.D.B x 4 2 4 L.H.J.F.L.F.F.F.z.3.s.P.J.z.z.P.P.J.P.P.P.J.J.J.P.J.P.C.g.P.L.P.L.L.J.P.P.J.P.P.J.P.",
"i.z.t.E Z q.5.5.l.l.J.L.L.J.J.J.p.x x 4 2 4 L.F.J.J.F.k.q.p.] m <.P.z.*.I a.J.P.J.J.L.J.P.J.J.J.J.C.g.P.P.L.L.L.L.J.J.L.J.J.J.P.",
"i.J.F.^ U h.J h.F.L.L.F.J.J.L.J.S.x x 4 2 l L.F.J.J.F.x.9.P L #.s.J.=.=.q.) k.k.z.x.L.J.J.P.J.J.J.C.C.L.L.L.L.J.L.J.P.L.P.J.P.L.",
"g.L.J.[ n ] t.F.F.F.L.L.J.L.J.J.S.x x 4 2 l L.F.F.F.F.l.9.` { J.u.J.W W *.U ` ' 7.d.x.L.J.P.J.J.J.C.g.L.P.L.J.P.J.L.J.J.J.J.P.P.",
"g.L.F.9.w.x.J.F.L.L.F.L.F.L.L.F.l.x x 4 2 k J.F.F.l.h.3.p.l.z.J.f.J.d.=.d.] =.` } d.z.L.J.L.J.J.J.g.C.P.L.L.P.J.z.z.K.J.J.J.P.L.",
"f.J.F.k.F.J.J.J.F.L.L.F.L.L.F.F.l.x x 4 2 k h.9.' 3.3.w.k.F.J.P.u.L.L.P.L.z.0.z.K.J.J.J.J.J.J.J.z.e.g.P.L.L.J.x.8.0.z.J.J.J.J.P.",
"g.J.F.J.J.L.L.J.F.L.L.F.F.L.F.L.l.B x 4 2 3 / p.h.w.K 6.x.x.F.L.g.P.L.L.L.L.J.L.L.J.x.x.d.z.z.z.7.~ F.P.J.J.J.J.z.z.F.J.J.L.J.L.",
"g.L.F.J.L.J.J.L.L.F.L.L.F.L.L.F.p.z x 4 2 4 q.x.F.F.J.T q.J.z.J.f.L.L.P.L.L.L.L.J.L.P.x.7.*.h.z.z.f.D.P.P.J.P.P.J.J.J.z.J.J.J.L.",
"u.L.J.L.L.J.J.J.J.J.J.J.J.L.J.J.k.x x 4 2 4 d.J.J.F.F.l.h.F.x.F.;.P.L.L.L.L.J.J.J.J.J.q.t.h.k.F.J.f.g.L.L.J.L.L.J.J.J.z.F.J.J.C.",
"$.r.r.u.i.u.t.u.y.u.y.t.t.u.e.y.4.x x 4 2 3 &.V.D.G.G.M.>.M.N.2.:.A.A.A.A.A.V.Z.Z.V.u.e.&.<.e.e.r.<.<.g.D.F.z.z.z.z.l.k.z.k.g.u.",
"y.K.D.D.} d.r.k.g.k.g.0.;.1.S j j x x 4 2 l c.(.(.(.(.(.(.(.(.(.(.(.(.(.(.(.(.(.(.(.(.(.(././.U.I.B.I.G.H.D.S.S.S.S.S.S.D.D.D.i.",
"g.L.L.P.h.*.*.L } 7.g.Z.M X     # x x 4 2 >   @ D (.(.(.(.(.(.(.(.(.(.(.(.(.(.(.(.(.(.(.(.(.(.(.(.(.(.(././.^.F.L.J.l.w.F.J.L.F.",
"g.P.P.P.L.P.d.z.z.x./.m.@       # x x 4 2 >     % (.(.(.(.(.(.(.(.(.(.(.(.(.(.(.(.(.(.(.(.(.(.(.(.(.(.(.(.(.(.(.L.F.9.8.t.F.F.L.",
"C.P.~.P.P.P.P.J.z.J.L.Q.b.N ; X . * = * $ $ ; M m.(.(.(.(.(.(.(.(.(.(.(.(.(.(.(.(.(.(.(.(.(.(.(.(.(.(.(.(.(./.T.F.t.Q J E h.F.P.",
"g.P.P.P.P.P.J.J.x.J.J.J.L.L.P.Q.A.b.v.n.n.(.(.(.(.(.(.(.(.(.(.(.(.(.(.(.(.(.(.(.(.(.(.(./.(.(././.Y.Y.^.!.L.x.0.} J Z 8.L h.J.L.",
"g.P.P.P.P.J.P.J.x.J.J.L.J.L.L.L.L.L.V.L.F.L.L.F.E.E.E.R.R.R.R.W.I.^.W.W.W.R.R.R.R.R.R.L.H.H.L.F.F.S.S.L.L.J.F.q.J Q t.F.k.q.F.L.",
"f.P.P.J.J.P.P.L.P.L.P.x.P.L.x.P.L.P.g.F.F.x.J.F.F.F.F.F.F.F.F.F.u.L.L.J.J.J.J.J.F.J.F.F.L.F.F.F.J.D.S.J.x.x.h.p.h.d.x.J.q.K T J.",
"s.P.P.P.P.L.J.P.L.L.P.x.P.L.L.P.L.L.e.3.P [ p.F.F.F.F.l.h.6.' 7.y.L.L.J.F.F.J.F.F.F.L.F.L.F.F.x.x.i.t.x.x.w.6.j.F.J.F.J.F.h.5.h.",
"f.P.P.P.P.J.P.J.L.L.x.P.P.P.L.L.L.P.Q K 9.Y | h.l.l.p. ./ t.h.h.0.J.J.l.5.5.k.x.F.F.F.F.F.l.p.l.k.3.#.3.[ / w.x.J.J.J.J.J.J.x.z.",
"V.P.P.P.J.J.J.P.L.P.P.L.x.x.L.L.L.P.~ #.h.L +.` p.9.q.P 9.x.F.L.e.J.p.| P  .' l.l.F.F.p.9.[ 9.Y [ [ t.J.x.q.' h.F.F.J.J.J.J.F.J.",
"f.P.P.L.J.J.P.J.P.P.P.x.L.L.L.L.L.P.e.k.] ] 8.L 4.} 3.] a.F.F.L.! L Q ` h.5.c 5.p.l.p. ./ t.x.F.h.#.i.L.L.J.q.a.J.x.x.l.l.z.h.x.",
"f.P.L.L.P.P.J.P.J.J.J.J.L.L.P.x.L.L.i.J.[ 5.L Z E #.) Q -.h.F.L.<.t.L &.q.#.+.[ Q 5.4.E ' k.F.F.F.h.i.L.J.J.p.6.k.k.q.L { q.0.J.",
"u.L.P.L.P.J.P.P.J.J.J.J.L.P.P.x.L.L.g.J.x.[ 6.9.[ P 3.l.d.t.x.J.e.J.F.L.t.J t.J +.) *.+.=.h.F.F.F.h.e.F.J.x.h.0.` } F 8.7.{ z.J.",
"-.D.F.D.z.z.k.z.z.z.z.z.z.z.z.z.D.i.>.D.l.l.t.t.k.h.g.l.h.z.k.g.X.k.l.l.t.^ Z Q Z L L ] ] #.t.D.k.r.,.F.z.t.l.z.d.7.J Q n n 0.g."
};
