/* XPM */
static char *result[] = {
/* columns rows colors chars-per-pixel */
"64 64 201 2 ",
"   c black",
".  c #161515",
"X  c #1C1B1C",
"o  c #261B1F",
"O  c #271923",
"+  c #3A172F",
"@  c #34182A",
"#  c #232323",
"$  c #2A2A2A",
"%  c #392633",
"&  c #373737",
"*  c #3E3637",
"=  c #3A393A",
"-  c #4C153A",
";  c #5A1738",
":  c #66182C",
">  c #721C3E",
",  c #4C3325",
"<  c #41352E",
"1  c #4E2737",
"2  c #432439",
"3  c #4A3136",
"4  c #682D2F",
"5  c #722B33",
"6  c #7C2937",
"7  c #5E483D",
"8  c #604739",
"9  c #734E3A",
"0  c #561742",
"q  c #5B1A46",
"w  c #5D1A47",
"e  c #661C4E",
"r  c #6A1D51",
"t  c #721F57",
"y  c #5B274A",
"u  c #4C3744",
"i  c #403E40",
"p  c #752057",
"a  c #79215C",
"s  c #78365C",
"d  c #7F2261",
"f  c #434243",
"g  c #494748",
"h  c #59444A",
"j  c #654F48",
"k  c #69584F",
"l  c #6B5B57",
"z  c #696455",
"x  c #716A5C",
"c  c #7A7460",
"v  c #812839",
"b  c #83453E",
"n  c #812049",
"m  c #922244",
"M  c #9A2343",
"N  c #8C2351",
"B  c #982859",
"V  c #B2294D",
"C  c #822464",
"Z  c #8C266B",
"A  c #99286F",
"S  c #922770",
"D  c #962873",
"F  c #992976",
"G  c #9F2B7A",
"H  c #893E71",
"J  c #AB2B64",
"K  c #A52D7F",
"L  c #B82F7B",
"P  c #CC2F58",
"I  c #855941",
"U  c #835E4A",
"Y  c #8F6047",
"T  c #90624A",
"R  c #98664B",
"E  c #8E6955",
"W  c #885A66",
"Q  c #915C6B",
"!  c #994676",
"~  c #975A73",
"^  c #8C6569",
"/  c #857969",
"(  c #9F7660",
")  c #9B7A68",
"_  c #9D6978",
"`  c #9A7975",
"'  c #A17F7A",
"]  c #89826D",
"[  c #8E8771",
"{  c #8D8972",
"}  c #948977",
"|  c #9A9272",
" . c #A9867D",
".. c #AE9479",
"X. c #B4A37C",
"o. c #BAA47C",
"O. c #CF906D",
"+. c #E59A72",
"@. c #E89E77",
"#. c #A82D82",
"$. c #B23089",
"%. c #B23B89",
"&. c #BC3290",
"*. c #C53697",
"=. c #C63598",
"-. c #CB379C",
";. c #CE389F",
":. c #D83AA6",
">. c #D93BA6",
",. c #E23DAE",
"<. c #EC3FB5",
"1. c #AB6686",
"2. c #EC40B5",
"3. c #F241BA",
"4. c #FF45C4",
"5. c #A58481",
"6. c #AD8989",
"7. c #B2868A",
"8. c #B99A8A",
"9. c #B89791",
"0. c #A9A388",
"q. c #BBAB87",
"w. c #BEAA84",
"e. c #BCA695",
"r. c #BCB393",
"t. c #C49D93",
"y. c #C1AC83",
"u. c #C1AC8A",
"i. c #C6B388",
"p. c #C5B38A",
"a. c #CBB68B",
"s. c #CDBA8E",
"d. c #D3BB8E",
"f. c #D9BF8F",
"g. c #C3A797",
"h. c #C6A49B",
"j. c #C7B793",
"k. c #CCBB93",
"l. c #C6BB9B",
"z. c #CBBE9B",
"x. c #D3BD93",
"c. c #EEA781",
"v. c #FFBD99",
"b. c #C7ACA2",
"n. c #D5BAA4",
"m. c #D8BDA8",
"M. c #CDC199",
"N. c #D5C195",
"B. c #DAC396",
"V. c #D4C49A",
"C. c #DBC69A",
"Z. c #D6C99E",
"A. c #DBC99D",
"S. c #E4CC9E",
"D. c #CFC4A5",
"F. c #D3C5A3",
"G. c #DDCCA2",
"H. c #D5C5A8",
"J. c #D5CBAD",
"K. c #DBCDAB",
"L. c #DDD3A8",
"P. c #D7CDB1",
"I. c #D9CEB1",
"U. c #DDD2B4",
"Y. c #DED5B9",
"T. c #E2CEA3",
"R. c #E7CEAF",
"E. c #E3D2A5",
"W. c #E9D4A5",
"Q. c #E4D4AA",
"!. c #EAD6AB",
"~. c #E6D8AD",
"^. c #EBDAAD",
"/. c #F1DDAD",
"(. c #E2D5B3",
"). c #E4D4B4",
"_. c #E5DAB5",
"`. c #EDDDB2",
"'. c #E6DCBA",
"]. c #EADDBA",
"[. c #F1DEB3",
"{. c #F1E1AF",
"}. c #EDE0B5",
"|. c #EBE2BD",
" X c #F3E2B5",
".X c #F4E5BA",
"XX c #F9E7BB",
"oX c #F5E9BE",
"OX c #FAEABE",
"+X c #E5DCC0",
"@X c #EDE5C1",
"#X c #EEE9C4",
"$X c #F1E6C1",
"%X c #F3EAC4",
"&X c #FDEEC2",
"*X c #F5EEC9",
"=X c #FFF2C6",
"-X c #F6F1C9",
";X c #FFF5C9",
":X c #FFF9CC",
">X c #FFFBD2",
/* pixels */
"U.+XJ.J.J.'.P.U.D.Y.).U.J.(.'.'.'.Y.'.#XoX|.|.|.L.~.Z.L._.|.|.].P.I._.L.'.(.(.Y.I.H.F.I.Y.I.Y.U.P.P.U.Y.I.).'.+X_.J.F.r.l.K.'.+X",
"P.=X XoX&XA.G.`.k.Q.G.W.A.XX=X;X:X#X|.:XOX-XoX{.L.}.L.M.Q..X;X>XD.s.N.N.V.OX;X;X;X;X;X;X;X&XT.&X;X@X@X:X:X.Xx.[.XXXXW.T.^.T.oX;X",
"'.:X;X;X=XC.!.a.q.N.L.V.V.L.XX=X:X#X}.=X;XOXE.~.-XoX}.M. .5.h.b.6.8.Q.E.V.`.;X;X;X&XOXW.!./.[.;X;X%X@X:X:X=X.X[.OXXX[.a.w.E..X;X",
").:X:X;X;X&XC.!.!.A.s.T.OX X`.=XOX|.M.E.{.E.^.:X;X:X:Xe.e e e e r ^ Z.j.p.^.OX&X&X.XB.[.`.[.XX&X;X#X'.:X;X;X=X;X=X=XOX[.X.^.[.oX",
"J.:X;X;X;X&X&XXXXX=XOX&X;X=X=X=XOX}.}.oX=X=X:X:X:X;X:Xh.e e e e e _ Q.N.M.j.E. X[.C.T.OX&XXX&X=X=X#X|.:X;X;X=X;X;X=X&X.Xx.d.x.d.",
"D.:X;X;X;X;X;X&X&X=X;X=X;XOXOX^.J.L.}.-X=X;X;X;X%X}.'.h.a a a a a ~ R.R.Q.Q.q.p.a.u.T.OX&X&X&X&X&X$X+X:X;X;X;X=X&X;X=X&X%X[.E.G.",
"F.:X;X;X;X=X&X&X&X=X=X=X=X=XOX^.L.}.}.OX=X=X;X;Xh.e e G 4.4.4.4.4.=.e e 2 # # / [.&X&X&X&X&X&X&X&X$X@X;X;X;X=X;X;X&X=X&X&X XG.N.",
"F.:X;X;X&XXX.X`.OX&X&X=X=X;X=X X X|.|.;X=X:X;X;Xh.e e G 4.4.4.4.4.=.e e 2 # # [ ].&X&X&X&X&X&X&X&X$X].:X;X;X=X=X=X;X&XXX].W.x.x.",
"I.;X;X;X&XXXXX[.OX&X=X=X=X=X&X.X`.#X@X:X:X:X;X;Xh.e e G 4.4.4.4.4.=.e e 2 # # { &X&X;X&X&X&X&X&X&X$X+X;X;X=X=X=X=X&X[.H.!.T.T.R.",
"J.:X;X;X=X&XOX[.XX.XXX&X=X&X&X X X|.|.:X;XH.e e G 4.4.,.$.$.$.$.$.;.4.4.$.e e 7.=X&X&X&X&X&X&X$X.X_.@X=X=X=X=X=X=X&X[.`.`.d.o.T.",
"I.;X;X&X&XXX%XW.T./.C. X XC.[.^.^.|.@X:X;XH.r e G 4.4.,.$.$.$.$.$.;.4.4.$.e e 7.=X=X;X&X&X&X&X[.).z.@X=X=X;X=X=X&X=X&XXX[.W.x.!.",
"I.;X;X;XOXXX[..X[.x.T.a.a.C.s.`.}.|.@X:X:Xm.e e G 4.4.>.$.$.$.$.$.;.4.4.$.e e 7.&X&X&X&X&X&X&X[.G.K.+X;X;X=X=X=X=X=X=X&X[.[.XX;X",
"U.;X;X;X&XXX%X&X&Xx.B.[. XE.p.8.s s s s s ! 2.2.>.&.&.&.$.$.$.$.$.$.&.&.:.2.2.%.s s s s s 9.&X&X&X@X].;X=X=X=X=X=X=X=X&X=X&X&X:X",
"P.;X=X;X=X=X&X=X&X XV.p.w.A.A.8.e e e e r Z 4.4.,.$.$.$.$.$.$.$.$.$.$.$.>.4.4.$.e r e e r 1.&X&X&X@X].=X=X=X=X&X&X&X=X=X=X=X=X;X",
"P.;X;X=X=X=X;X&X=XoXXX Xo.W.Q. .e e e e e Z 4.4.,.$.$.$.$.$.$.$.$.$.$.$.:.4.4.$.e e e e r 7.&X&X&X@X@X;X&X&X&X].=X&X=X=X=X&X&X;X",
"J.;X=X;X=X;X&X;X&X&XXX X .~ Q _ *.=.&.D D G ;.;.=.$.$.$.$.$.$.$.$.$.$.$.*.-.;.$.D D $.=.*.1._ _ n.@X^.!.&X&X&X&X&X=X&X=X&X=X&X>X",
"J.=X;X;X=X=X=X&X&X&X&XXX..r e Z 4.4.<.$.$.$.$.$.$.$.$.$.$.$.$.$.$.$.$.$.$.$.$.$.$.$.:.4.4.$.e e t.@XH.T.`.OX&X&X&X=X&X&X=X&X=X;X",
"U.U.'.'.'.].'.'.'._._.I.9.e e Z 4.4.<.$.$.$.$.$.$.$.$.$.$.$.$.$.$.$.$.$.$.$.$.$.$.$.:.4.4.$.e e 9.Y.q.u.p.}.oXoXoXoXoX$X.X].].+X",
"Y.*X%X*X%X$X$Xm.j.z.j.k.8.e e C :.:.;.$.$.$.$.$.G d d C d d d d d d d d D $.$.$.$.$.=.:.:.G e e 9.Y.m.'.U.}.$X$X$X%X$X%X$X].].$X",
"+X:X:X:X:X;X&X&X.XW.Z.i.8.e e a $.$.$.$.$.$.$.$.Z - - - - - - - - - - - d $.$.$.$.$.$.$.$.Z e r h.#X@X:X:X;X:X;X;X;X;X;X;X;X;X:X",
"+X:X:X;X;X;X&X&X XT.d.d.t.r r t $.$.$.$.$.$.$.$.Z - - - - - - - - - - - d $.$.$.$.$.$.$.$.Z e r h.#X%X:X;X;X;X;X=X=X;X=X=X=X=X:X",
"+X:X;X;X;X;XXX.XR.x.s.V.y.Q _ ~ D D G $.$.K Z Z t - - - 0 0 0 0 0 - - - r Z Z G $.$.K D D ! _ ` m.|.&X;X;X;X=X=X[.&X=X=X=X;X=X:X",
"@X:X;X;X=X[.G.!.R.G.T.[.T.T.[.n.e e a $.$.F - - - - - 0 e e e e e w - - - - - d $.$.Z e e 7.=X=X=X|.;X=X{.[.=X=X=X=X=X=X=X=X=X:X",
"].:X;X;X&XXX`.[.d.o.T./.XXOX&Xm.e e a $.$.D - - - - - 0 e e e e e w - - - - - d $.$.Z e e 7.=X;X=X|.;X.XE.!.XX&X&X=X=X=X=X=X=X>X",
"+X:X;X;X;X=X%X[.!.x.W.$XOX&X&Xn.q q t K K S - - - - - q e e e e e w - - - - - a K K C y q 6.=X=X=X|.XXG.p.w.Q.&X=X=X=X=X=X=X=X;X",
"@X;X;X;X&X;X&XXX XXX&X&X=X=X&Xl.X X O - - - - - ; e e e e e e e e e e e w - - - - - @ X X [ =X;X=X|.A.o.A.C.A.OX=X=X;X=X=X=X=X:X",
"].;X;X&X&X;X;X&X=X&X=X&X&X&XOXl.X X O - - - - - 0 e e e e e e e e e e e q - - - - - O X X [ =X=X=X_.a.Q.%XOX/. X&X&X=X=X=X&X=X;X",
"@X=X&X;X;X;X&X;X=X=X&X;X=X=X=Xl.X X O - - - - - 0 e e e e e e e e e e e q - - - - - @ X X [ =X=X=X|.{.XX;XOXB.i.!.&X=X=X=X=X=X=X",
"'.OXXX=X=X=X=X&X=X=X=X=Xl.X X # & & & & & k v.v.(     8 v.v.v.v.v.(     U v.v.) & & & & & $ X . 0.|.=X=X=X=XOX^.W.OX=X=X=X=X&X=X",
"'.;X=X=X=X=X=X;X=X&X&X=Xl.X X O & & & & & k v.v.(     8 v.v.v.v.v.(     l v.v.) & & & & & $ X X 0.|.OX;X;X;X=X=XXX%X=X=X=X&X.X$X",
"_.=X=X;X=X=X;X&X=X=X&X=Xl.X X # & & & & & k S.v.(     8 v.v.v.v.v.(     Y v.v.) & & & & & $ X X 0.|.%X=X;X;X;XOX&X=X=X=X&X XG.T.",
"J.].oX%XoXoXoXoX$X.XoX.Xe.X X # & & & & & j @.@.T     8 v.v.v.v.v.(     9 @.@.E & & & & & $ X X 0.|.~.OXOXOXXXOX X%X%XoXA.o.o.J.",
"Y.|.#X*X%X%X.X}.(.@X|.}.r.. X # & & & & & j +.+.Y     8 v.v.v.v.v.(     9 +.+.E & & = & & $ X X } P.P.U.M.F.L.J.U.'.U.j.X.M.L.P.",
"'.>X:X:X:X;XoXQ.V.=X;X=Xr.X X # & = & & & j +.+.Y     9 v.v.v.S.v.(     9 +.+.E & & & & & $ X X 0.@X+X>X>X:X>X:X:X:X=X;X:X:X:X*X",
"@X:X:X:X:X;XOX XoX:X:X:X#X0.| c # # $ & & < b Y Y Y I ( c.c.@.c.c.O.Y Y I I I 7 & & $ # # z 0.0._.#X|.:X:X:X:X:X:X:X:X;X:X:X:X#X",
"|.:X:X:X;X;X=X^.XX;X=X:X:XOXG.r.X X # = = & , , I +.+.+.+.+.+.+.+.+.+.+.R , , < & = $ X X { :X:X:X#X|.:X:X:X:X:X:X:X:X:X:X:X:X-X",
"|.;X;X;X:X;X=X XXX;X;X=X=X=X{.X.X X # & = * , , I +.+.+.@.@.+.+.+.+.+.+.R , , < = = $ X X { ;X;X:X#X|.:X:X:X:X;X:X:X;X:X:X:X=X-X",
"(.XXOX;X=XOXXX{.XX;X=X=X;X=X=XL.] ] x % 2 1 5 5 b R R R R R R R R R R R b 5 5 4 % % l [ { M.;X;X-X#X|.:X:X:X;X=X=X;X:X:X=X:X;X-X",
"^.S.N.d.N.B. X XOX=X=X;X=X;X;X;X;X#Xr.- - ; M M 6 , , , , , , , , , , , 5 M m e - - 5.:X;X;X;X=X:X#X#X:X:X:X:X;X:X=X;X;X;X=X=X-X",
"F.G.^.{.^.y.A.E.OX=X=X;X;X;X;X;X=X#Xe.- - ; M M 6 , , , , , , , , , , , 5 M M > - - 5.:X;X;X;X;X=X#X#X:X:X:X;X;X=X:X;X;X;X=X=X;X",
"_.x.s.Q.!.E.y.G.}.XX;X;X=X;X=X_.e.9.1.y r p J J N 4 4 4 4 4 4 4 4 4 4 4 v M M n e e ~ e.9.K.;X;X;X#X|.:X;X:X;X;X:X;X:X;X=X=X;X:X",
"}.XX`.s.o.`.E.Q..XOX=X=X=X;X=Xn.- - w F G #.-.;.L M M M M M M M M M M M M M M B F F t - - 5.;X;X;X#X|.:X;X;X;X;X=X;X=X;X:X=X;X:X",
"].=X%Xx.s. Xi. X&X=X&X;X=X=X;Xn.- - w D F K -.;.L M M M M M M M M M M M M M M B F F t - -  .=X;X=X#X|.:X:X;X;X=X:X;X=X=X;X;X;X:X",
"@X-X=XA.X.Z.^.XX&X&X;X;X=X;X=Xn.- - e G G #.-.-.L m m m M M M M M M M M M M V B A A t - -  .;X=X;X#X|.:X;X;X;X;X=X=X=X:X=X;X;X:X",
"|.;X&XW.{.OX=X&X;X&X;X&X=X;X=Xn.e e d ;.-.-.-.-.K e e N P P P P P P P P P P P V M M > - -  .;X=X=X|.oX:X;X;X;X=XoXoXoX=X=X=X;X:X",
"].;X&XoXOX=X;X=X;X&X=X;X=X=X=Xm.e e d -.;.-.-.;.#.e e N P P P P P P P P P P P V M M > - - ' =X=XXXU.#X:X;X;X;XOXL.}.oX;X;X=X=X:X",
"|.;X&X=X=X=X=X=X=X;X;X=X=X=X=Xm.e e d -.-.-.-.-.#.y e N P P P P P P P P P P P V M M > - - ` OXXX~.M.oX:X;X;X;X=XoXoXoX=X=X;X;X;X",
"|.=X&X=X;X;X=X;X=X;X&X;X=X=X=XH.e e Z 4.4.3.;.-.#.e e N P P P P P P P P P P P M : : ; - - ` .X.XoX|.$X:X;X;X=X;X;X;X=XXX=X=X=X;X",
"'.:X&X-X=X=X:X=X=X=X=X=X=X=X=XF.e e Z 4.4.3.-.-.#.e e N P P P P P P P P P P P M : : ; - 0 ` .X&X=X|.|.:X;X=X;X;X;X=X&XOX%X=X=X$X",
"J.(._.].'.'._._._._.Y.}.}.|.(.g.e e Z 4.4.3.-.-.#.e e N P P P P P P P P P P P m : : ; - - ` ).).(.U.U.|.$X&XoX$XoXoXoXoXoXoX.X].",
"(.-X%X$XG.|.}.oX|.oX|.~.K.|.@X}.H.g.9.a a a p p y = = u h h h h h h h h h h h 3 o o / Y.I.'.%X%X%X'.@X%X*X%X$X$X.X$X$X$X%X*X$X].",
"|.:X:X:X{.L.G.p.A.W.E.E.-X:X:X:X;X'.b.e e e e e y = = i g g g g g g g g g g g $ X X [ ;X;X;X;X;X=X#X#X:X:X:X;X;X;X=XXX^.&X=X=X*X",
"|.>X>X:X:X=X X XOX;XOXOX;X;X:X:X;X-Xb.e e r e e y & = i g g g g g g g g g g g & X X [ =X=X=X=X=X;X$X%X:X;X;X;X;X;XOX!.E.`.%X=X:X",
"#X:X:X:X:X:X:X=XOXOX;X=X;X;X;X;X:X-X_.h.h.` @ @ % = = = f 3 i i i i g g g g g & X X [ =X=X=X=X=X=X$X@X;X;X;X&XXX&X`.d.p.a. X&X:X",
"|.:X:X:X:X=X;X=XOXOXOX:X:X;X;X:X;X:X|.;X;Xl.. . # = = = = = = = = i g g g g g $ O X [ =X=X&X=X=X=X$X$X:X;X;XOXQ.A.i.w.Q.p. X=X;X",
"|.:X:X:X:X:X:X=XOX;X;X=X=X;X;X;X;X;X|.;X=Xl.. X # & = = = = = = = i g g g g g & X X [ &X=X=X=X=X&X$X$X;X;X=X&X^.i.k. X%X.X^.OX;X",
"}.:X:X:X;X;X:X;X;X;X;X=X;XOX:X:X;X:X|.&XOXE.] / z 2 2 % $ $ $ $ $ u H H H H H y @ @ ` ;X&X=X&X&X&X%X$X;XOXOX X/.{. XXX=X^.i.f.&X",
"|.:X:X:X;X;X;X;X;X;X;X;X;X;X;X;X;X;X(.T.a.C.[.&X8.- - + X X X # O y -.-.=.-.-.Z - - 5.=X=X&X&XOX&X X_.XXOX/.W.XXOX=X=X=X&X XE. X",
"|.;X:X:X;X;X;X;X;X;X;X:X;X;X;X;X;X:Xk.a.!.x.C..X8.- - + X O X X X y -.-.-.=.-.Z 0 - ' &X&XOX[.XX.XT.L.S.C.B./.OX=XOX;X=X=X=XOXOX",
"|.:X:X:XOX;X;X;X;X;XOX;X=X:XOX;X;X:Xz.G. Xp.G.x.g.W W k z x x x z W F F F F D ! ^ ^ t.[.!.C.!.s.C.B.}.OXOX/.B..X=X=X=X=X=X=XOX;X",
"|.:X:X:X;X;X;X;X;X;X=X=XOX;X;X;X;X:X(..XZ.V.Q.a.T.A.G.V.{.%X=X;Xj.} - - - - - ` `..X[.T.x.[.XXOX.XG.].;X;XOX^.{.OXOXOX.XXXXX X=X",
"'.:X:X-X;X;X;X;X:X=X;XOX:X;X;X=X;X;X].&XB.E.p.w.k.G.M.M.L. XOX:XQ.6.- - - - - ^ k.E.E.k.C..X&X=X&X X'.;X;X=X XW.XX.X~.i.A.^.Q.-X",
"}.:X:X:X:X:X;X;X;X;X;X=X;X:X;XOX;X-X].;XOXC.W.W.C.a.T..X[.`.&X=X).&X&X=X^.u.!.p.G.V.L.Z.E. XOX&X&X X(.&X=XOX.X~.N.G.w.~.~.C..X:X",
"P.%XoXoXoXoXoX|.oXoXoXoXoXoXoXOX&X+XI.oX.XoX].`..X X X.X|..X X].H.oXOX.X].x.w.k.o.p.p.V.Z.G.].oXoX_.I.&X.X`.XXoX{.~.i.k.X.X.~.}."
};
