/* XPM */
static char *result[] = {
/* columns rows colors chars-per-pixel */
"33 64 94 2 ",
"   c black",
".  c #2C2404",
"X  c #3C3300",
"o  c #3B3307",
"O  c #3C3608",
"+  c #403908",
"@  c #4F4400",
"#  c #4D430A",
"$  c #514604",
"%  c #5B4E00",
"&  c #53480B",
"*  c #544A09",
"=  c #554B0B",
"-  c #635600",
";  c #675A07",
":  c #61560D",
">  c #6B5E0E",
",  c #776700",
"<  c #75660F",
"1  c #807110",
"2  c #9A8710",
"3  c #B79F00",
"4  c #A79316",
"5  c #AA9616",
"6  c #C6AB00",
"7  c #DABC00",
"8  c #C0A919",
"9  c #C5AF1A",
"0  c #D5BC1C",
"q  c #EDCD00",
"w  c #EECE02",
"e  c #EFCF03",
"r  c #EFCF04",
"t  c #EECF08",
"y  c #EFD008",
"u  c #EFD00A",
"i  c #EFD00F",
"p  c #F0D006",
"a  c #F0D106",
"s  c #F0D108",
"d  c #F3D30A",
"f  c #F3D40B",
"g  c #F5D60E",
"h  c #E2C510",
"j  c #E0C512",
"k  c #ECCE15",
"l  c #EACF1F",
"z  c #F0D213",
"x  c #F6D710",
"c  c #F6D711",
"v  c #F5D716",
"b  c #F8D914",
"n  c #F9DA15",
"m  c #F9DA16",
"M  c #F9DB16",
"N  c #F0D218",
"B  c #F0D31D",
"V  c #FCDE1C",
"C  c #FDDF1D",
"Z  c #FEDF1E",
"A  c #FEE01F",
"S  c #F3D722",
"D  c #F8DB20",
"F  c #F8DC2A",
"G  c #F2D730",
"H  c #F3D939",
"J  c #F8DE3C",
"K  c #FFE120",
"L  c #FFE121",
"P  c #FFE227",
"I  c #FFE228",
"U  c #FFE32C",
"Y  c #FBE039",
"T  c #FFE438",
"R  c #F8DF49",
"E  c #FFE540",
"W  c #FFE64A",
"Q  c #FFE64B",
"!  c #FFE64F",
"~  c #FCE555",
"^  c #F7E160",
"/  c #F8E264",
"(  c #FFE966",
")  c #F8E369",
"_  c #F9E572",
"`  c #FFEB72",
"'  c #FCE978",
"]  c #FFEC7D",
"[  c #FFED85",
"{  c #FCEB8F",
"}  c #FFEF94",
"|  c #FFEF9C",
" . c #FFF1AB",
".. c None",
/* pixels */
"....................                            ..................",
"..................                              ..................",
"..................                              ..................",
"..................                              ..................",
"............      < 0 0 0 0 0 0 0 0 0 0 0 0 0 9 :       ..........",
"............      1 L L L L L L L L L L L L L l >       ..........",
"............      1 L L L L L L L L L L L L L l >       ..........",
"............      1 L L L L L L A C V V Z K L l >       ..........",
"............      1 L L L L L L M a q q g A L l >       ..........",
"............      1 L L L L L L M a q q g A L l >       ..........",
"............      1 L L L L L L M a q q g A L l >       ..........",
"..........o & = = 5 L L I E ! ! Y v f f x n m k 2 = = # . ........",
"....      > l L L L L L T ]  . .] T L L b e q e b L L 8 +       ..",
"....      > l L L L L L T ]  . .] T L L b e q e b L L 8 +       ..",
"....      > l L L L L L T ]  . .] T L L b e q e b L L 8 +       ..",
"....      > l L L L L L T ]  . .| [ ] ] R u q e b L L 8 +       ..",
"....      > l L L L L L T ]  . . . . . ./ i q e b L L 8 +       ..",
"....      > l L L L L L T ]  . . . . . ./ i q e b L L 8 +       ..",
"....      > l L L L L L T ]  . . . . . ./ i q e b L L 8 +       ..",
"....      > l L L L L L T ]  . .[ Q T T D r q e b L L 8 +       ..",
"....      > l L L L L L T ]  . .] T L L b e q e b L L 8 +       ..",
"....      > l L L L L L T ]  . .] T L L b e q e b L L 8 +       ..",
"....      > l L L L L L T ]  . .[ Q T T D r q e b L L 8 +       ..",
"....      > l L L L L L T ]  . . . . . ./ i q e b L L 8 +       ..",
"....      > l L L L L L T ]  . . . . . ./ i q e b L L 8 +       ..",
"....      > l L L L L L T ]  . . . . . ./ i q e b L L 8 +       ..",
"....      ; h c c c c c F '  . .} ` ( ( J y q e b L L 8 +       ..",
"....      - 7 q q q q q B _  . .] T L L b e q e b L L 8 +       ..",
"....      - 7 q q q q q B _  . .] T L L b e q e b L L 8 +       ..",
"....      - 7 q q q q q B _  . .] T L L b e q e b L L 8 +       ..",
"....      - 7 q q q q q B _  . .] T L L b e q e b L L 8 +       ..",
"....      - 7 q q q q q B _  . .] T L L b e q e b L L 8 +       ..",
"....      - 7 q q q q q B _  . .] T L L b e q e b L L 8 +       ..",
"....      - 7 q q q q q B _  . .] T L L b e q e b L L 8 +       ..",
"....      - 7 q q q q q B _  . .] T L L b e q e b L L 8 +       ..",
"....      - 7 q q q q q B _  . .] T L L b e q e b L L 8 +       ..",
"....      - 7 q q q q q B _  . .] T L L b e q e b L L 8 +       ..",
"....      - 7 q q q q q B _  . .] T L L b e q e b L L 8 +       ..",
"....      - 7 q q q q q B _  . .] T L L b e q e b L L 8 +       ..",
"....      - 7 q q q q q B _  . .] T L L b e q e b L L 8 +       ..",
"....      - 7 q q q q q B _  . .] T L L b e q e b L L 8 +       ..",
"....      - 7 q q q q q B _  . .' F c c d w q e b L L 8 +       ..",
"....      - 7 q q q q q B _  . ._ B q q q q q e b L L 8 +       ..",
"....      - 7 q q q q q B _  . ._ B q q q q q e b L L 8 +       ..",
"....      - 7 q q q q q B _  . ._ B q q q q q e b L L 8 +       ..",
"....      - 7 q q q q q B _  . ._ B q q q q q e b L L 8 +       ..",
"....      - 7 q q q q q B _  . ._ B q q q q q e b L L 8 +       ..",
"....      - 7 q q q q q B _  . ._ B q q q q q e b L L 8 +       ..",
"....      - 7 q q q q q B _  . ._ B q q q q q e b L L 8 +       ..",
"....      - 7 q q q q q B _  . ._ B q q q q q e b L L 8 +       ..",
"....      - 7 q q q q q B _  . ._ B q q q q q e b L L 8 +       ..",
"....      - 7 q q q q q B _  . ._ B q q q q q e b L L 8 +       ..",
"....      % 3 6 6 7 q q N ^ { { ) G B B z s p t j 0 0 4 O       ..",
"............      , q q q q q q H {  . .` U L l >       ..........",
"............      , q q q q q q H {  . .` U L l >       ..........",
"............      , q q q q q q H {  . .` U L l >       ..........",
"............      , q q q q q q S ~ ( ( W P L l >       ..........",
"............      , q q q q q q f V L L L L L l >       ..........",
"............      , q q q q q q f V L L L L L l >       ..........",
"............      , q q q q q q f V L L L L L l >       ..........",
"..................X @ @ @ @ @ @ $ * = = = = = & o ................",
"..................                              ..................",
"..................                              ..................",
"..................                              .................."
};
