/* XPM */
static char *result[] = {
/* columns rows colors chars-per-pixel */
"33 64 84 1 ",
"  c black",
". c #131000",
"X c #141100",
"o c #141202",
"O c #151302",
"+ c #161303",
"@ c #282200",
"# c #2C2404",
"$ c #3C3400",
"% c #3C3608",
"& c #473D00",
"* c #403908",
"= c #453D0A",
"- c #4F4400",
"; c #4D430A",
": c #524806",
"> c #554B0B",
", c #7C6B00",
"< c #7E6F0E",
"1 c #8B7800",
"2 c #907E0A",
"3 c #807110",
"4 c #857611",
"5 c #958414",
"6 c #B29A00",
"7 c #A79316",
"8 c #C6AB00",
"9 c #D0B400",
"0 c #C0A919",
"q c #D0B714",
"w c #D5BC1C",
"e c #DCC116",
"r c #E3C500",
"t c #EDCD00",
"y c #E9CB0C",
"u c #F0D006",
"i c #F0D106",
"p c #F2D208",
"a c #F2D309",
"s c #F3D40B",
"d c #F0D10E",
"f c #F4D50D",
"g c #F3D512",
"h c #F6D710",
"j c #F6D711",
"k c #F7D812",
"l c #F9DA16",
"z c #F9DB16",
"x c #FADB17",
"c c #F0D319",
"v c #F0D31D",
"b c #FBDC19",
"n c #FCDE1C",
"m c #FDDF1D",
"M c #FEE01F",
"N c #F3D722",
"B c #F3D72A",
"V c #F9DD2D",
"C c #F2D730",
"Z c #F6DB33",
"A c #F3D939",
"S c #FFE121",
"D c #FCE02E",
"F c #FFE331",
"G c #FFE438",
"H c #F6DF56",
"J c #F9E044",
"K c #FFE648",
"L c #FFE64F",
"P c #FFE74F",
"I c #FCE555",
"U c #FFE85A",
"Y c #FEE864",
"T c #FFE966",
"R c #FCE768",
"E c #FAE677",
"W c #FFEB72",
"Q c #FFEC7D",
"! c #FFED89",
"~ c #FCEB8F",
"^ c #FEED92",
"/ c #FFEF94",
"( c #FFF1AB",
") c None",
/* pixels */
")))))))))               )))))))))",
")))))))))               )))))))))",
")))))))))               )))))))))",
")))))))))               )))))))))",
"))))))  %7wwwwwwwwwwwww7%  ))))))",
")))))   *0SSSSSSSSSSSSS0*   )))))",
")))))   *0SSSSSSSSSSSSS0*   )))))",
")))))   *0SSMmnnMSSSSSS0*   )))))",
")))))   *0SSzitthSSSSSS0*   )))))",
")))))   *0SSzitthSSSSSS0*   )))))",
")))))   *0SSzitthSSSSSS0*   )))))",
")))))=>><qllkfssVLLKFSSw3>>=)))))",
"))  +5SSbpttsnSST((/PSSSSSS5+  ))",
"))  +5SSbpttsnSST((/PSSSSSS5+  ))",
"))  +5SSbpttsnSST((/PSSSSSS5+  ))",
"))  +5SSbpttBRQQ/((/PSSSSSS5+  ))",
"))  +5SSbpttA~(((((/PSSSSSS5+  ))",
"))  +5SSbpttA~(((((/PSSSSSS5+  ))",
"))  +5SSbpttA~(((((/PSSSSSS5+  ))",
"))  +5SSbpttgDGGW((/PSSSSSS5+  ))",
"))  +5SSbpttsnSST((/PSSSSSS5+  ))",
"))  +5SSbpttsnSST((/PSSSSSS5+  ))",
"))  +5SSbpttgDGGW((/PSSSSSS5+  ))",
"))  +5SSbpttA~(((((/PSSSSSS5+  ))",
"))  +5SSbpttA~(((((/PSSSSSS5+  ))",
"))  +5SSbpttA~(((((/PSSSSSS5+  ))",
"))  +5SSbpttNITT!((^Jjjjjjj2o  ))",
"))  +5SSbpttsnSST((~Atttttt1X  ))",
"))  +5SSbpttsnSST((~Atttttt1X  ))",
"))  +5SSbpttsnSST((~Atttttt1X  ))",
"))  +5SSbpttsnSST((~Atttttt1X  ))",
"))  +5SSbpttsnSST((~Atttttt1X  ))",
"))  +5SSbpttsnSST((~Atttttt1X  ))",
"))  +5SSbpttsnSST((~Atttttt1X  ))",
"))  +5SSbpttsnSST((~Atttttt1X  ))",
"))  +5SSbpttsnSST((~Atttttt1X  ))",
"))  +5SSbpttsnSST((~Atttttt1X  ))",
"))  +5SSbpttaxnnY((~Atttttt1X  ))",
"))  +5SSbpttttttH((~Atttttt1X  ))",
"))  +5SSbpttttttH((~Atttttt1X  ))",
"))  +5SSbpttttttH((~Atttttt1X  ))",
"))  +5SSbpttttttH((~Atttttt1X  ))",
"))  +5SSbpttttttH((~Atttttt1X  ))",
"))  +5SSbpttttttH((~Atttttt1X  ))",
"))  +5SSbpttttttH((~Atttttt1X  ))",
"))  +5SSbpttttttH((~Atttttt1X  ))",
"))  +5SSbpttttttH((~Atttttt1X  ))",
"))  +5SSbpttttttH((~Atttttt1X  ))",
"))  +5SSbpttttttH((~Atttttt1X  ))",
"))  +5SSbpttttttH((~Atttttt1X  ))",
"))  +5SSbpttttttH((~Atttttt1X  ))",
"))  +5SSbpttttttH((~Atttttt1X  ))",
"))  O4wweyuudcvvH~~ECttr988,.  ))",
")))))   *0SSP/((Htttttt6$   )))))",
")))))   *0SSP/((Htttttt6$   )))))",
")))))   *0SSP/((Htttttt6$   )))))",
")))))   *0SSGUTTZtttttt6$   )))))",
")))))   *0SSSSSShtttttt6$   )))))",
")))))   *0SSSSSShtttttt6$   )))))",
")))))   *0SSSSSShtttttt6$   )))))",
"))))))))#;>>>>>>:------&@))))))))",
")))))))))               )))))))))",
")))))))))               )))))))))",
")))))))))               )))))))))"
};
