/* XPM */
static char *result[] = {
/* columns rows colors chars-per-pixel */
"50 64 155 2 ",
"   c black",
".  c #141200",
"X  c #151200",
"o  c #151309",
"O  c #16140A",
"+  c #2A2506",
"@  c #2B2606",
"#  c #2C2404",
"$  c #3A3201",
"%  c #3D3601",
"&  c #3E3602",
"*  c #3C3608",
"=  c #3F3909",
"-  c #2A2715",
";  c #2B2815",
":  c #2C2814",
">  c #433A01",
",  c #403908",
"<  c #403C20",
"1  c #4D430A",
"2  c #524702",
"3  c #534806",
"4  c #544A0A",
"5  c #554B0B",
"6  c #706102",
"7  c #7B6B02",
"8  c #7B6B03",
"9  c #7C6C05",
"0  c #75660F",
"q  c #454023",
"w  c #4D4726",
"e  c #554F2A",
"r  c #55502A",
"t  c #7E7225",
"y  c #756C3A",
"u  c #816F02",
"i  c #8F7D03",
"p  c #807110",
"a  c #807111",
"s  c #8E7D12",
"d  c #807740",
"f  c #857C42",
"g  c #9F8B03",
"h  c #958414",
"j  c #A79316",
"k  c #B8A004",
"l  c #BBA30B",
"z  c #BBA411",
"x  c #8C8139",
"c  c #CCB204",
"v  c #CFB50B",
"b  c #D9BE0C",
"n  c #C0A919",
"m  c #D0B81B",
"M  c #D5BC1C",
"N  c #D5BD22",
"B  c #DDC10C",
"V  c #DEC314",
"C  c #EDCD00",
"Z  c #EFCF03",
"A  c #ECCD0A",
"S  c #F1D103",
"D  c #F0D006",
"F  c #F0D106",
"G  c #F5D505",
"H  c #F6D606",
"J  c #F7D707",
"K  c #F1D208",
"L  c #F3D30A",
"P  c #F3D408",
"I  c #F3D40B",
"U  c #F5D50A",
"Y  c #F7D70A",
"T  c #F4D50C",
"R  c #F4D50D",
"E  c #F5D60E",
"W  c #F9D908",
"Q  c #FADA0A",
"!  c #F8D80C",
"~  c #F8D80D",
"^  c #F9D90D",
"/  c #F8D90E",
"(  c #F9D90F",
")  c #E3C81E",
"_  c #F6D710",
"`  c #F6D711",
"'  c #F0D315",
"]  c #F4D717",
"[  c #F7D811",
"{  c #F7D812",
"}  c #F7D912",
"|  c #F9DA10",
" . c #F8D912",
".. c #F9DA12",
"X. c #FADA12",
"o. c #FADB13",
"O. c #F8D914",
"+. c #F9DA14",
"@. c #F9DA15",
"#. c #F9DA16",
"$. c #F9DB16",
"%. c #FADB17",
"&. c #FBDC15",
"*. c #F3D51A",
"=. c #F5D818",
"-. c #FADC18",
";. c #FADC1B",
":. c #FCDD18",
">. c #FDDE1A",
",. c #FCDE1B",
"<. c #FBDD1E",
"1. c #FBDD1F",
"2. c #FCDE1C",
"3. c #FDDF1C",
"4. c #FEDF1D",
"5. c #FEE01F",
"6. c #E9D02A",
"7. c #F2D620",
"8. c #F9DD26",
"9. c #F6DC30",
"0. c #FFE121",
"q. c #FFE226",
"w. c #FFE227",
"e. c #FFE229",
"r. c #FFE32C",
"t. c #FFE331",
"y. c #FCE33B",
"u. c #FEE43C",
"i. c #948940",
"p. c #958B4A",
"a. c #C0B360",
"s. c #D5C24A",
"d. c #DECB4E",
"f. c #DCC955",
"g. c #F6DE40",
"h. c #FDE340",
"j. c #FFE540",
"k. c #FEE546",
"l. c #FFE646",
"z. c #FFE74B",
"x. c #FEE64C",
"c. c #F9E354",
"v. c #F9E355",
"b. c #FFE850",
"n. c #FFE958",
"m. c #D5C66A",
"M. c #D5C76A",
"N. c #FBE660",
"B. c #FFEA60",
"V. c #FEEB69",
"C. c #FCE96A",
"Z. c #FFEC6F",
"A. c #FEED76",
"S. c #FFEE7F",
"D. c None",
/* pixels */
"D.D.D.D.D.D.D.D.D.D.D.D.D.D.D.D.                                    D.D.D.D.D.D.D.D.D.D.D.D.D.D.D.D.",
"D.D.D.D.D.D.D.D.D.D.D.D.D.D.D.                                        D.D.D.D.D.D.D.D.D.D.D.D.D.D.D.",
"D.D.D.D.D.D.D.D.D.D.D.D.D.D.D.                                        D.D.D.D.D.D.D.D.D.D.D.D.D.D.D.",
"D.D.D.D.D.D.D.D.D.D.D.D.D.D.D.                                        D.D.D.D.D.D.D.D.D.D.D.D.D.D.D.",
"D.D.D.D.D.D.D.D.D.D.D.D.      0 M M N s.m.m.m.m.m.m.m.m.m.m.m.m.m.m.y       D.D.D.D.D.D.D.D.D.D.D.D.",
"D.D.D.D.D.D.D.D.D.D.D.D.      p 0.0.e.n.S.S.S.S.S.S.S.S.S.S.S.S.S.S.d       D.D.D.D.D.D.D.D.D.D.D.D.",
"D.D.D.D.D.D.D.D.D.D.D.D.      p 0.0.e.n.S.S.S.S.S.S.S.S.S.S.S.S.S.S.d       D.D.D.D.D.D.D.D.D.D.D.D.",
"D.D.D.D.D.D.D.D.D.D.D.D.+ @ @ h 0.0.w.x.C.C.C.C.C.C.C.C.C.C.C.C.C.C.i.; ; - D.D.D.D.D.D.D.D.D.D.D.D.",
"D.D.D.D.D.D.D.D.      5 M 0.0.0.0.0.5.E C C C C C C C C C C C C C C g.S.S.M.r       D.D.D.D.D.D.D.D.",
"D.D.D.D.D.D.D.D.      5 M 0.0.0.0.0.5.E C C C C C C C C C C C C C C g.S.S.M.r       D.D.D.D.D.D.D.D.",
"D.D.D.D.D.D.D.D.      5 M 0.0.0.0.0.5.E C C C C C C C C C C C C C C g.S.S.M.r       D.D.D.D.D.D.D.D.",
"D.D.D.D.D.D.D.# 1 5 5 s ) 0.0.2.#.#.@._ I I I I I I I I I I I I I I 9.v.v.d.x e e w : D.D.D.D.D.D.D.",
"D.D.D.D.      , n 0.0.0.0.0.0._ C C Z O.0.0.0.0.0.0.0.0.0.0.0.0.0.0._ C C ' c.S.S.a.<       D.D.D.D.",
"D.D.D.D.      , n 0.0.0.0.0.0._ C C Z O.0.0.0.0.0.0.0.0.0.0.0.0.0.0._ C C ' c.S.S.a.<       D.D.D.D.",
"D.D.D.D.      , n 0.0.0.0.0.0._ C C Z O.0.0.0.0.0.0.0.0.0.0.0.0.0.0._ C C ' c.S.S.a.<       D.D.D.D.",
"D.D.D.D.      , n 0.0.0.0.0.0._ C C Z O.0.0.r.z.B.B.B.B.B.B.l.q.0.0._ C C ' c.S.S.a.<       D.D.D.D.",
"D.D.D.D.      , n 0.0.0.0.0.0._ C C Z O.0.0.t.B.S.S.S.S.S.S.n.e.0.0._ C C ' c.S.S.a.<       D.D.D.D.",
"D.D.D.D.      , n 0.0.0.0.0.0._ C C Z O.0.0.t.B.S.S.S.S.S.S.n.e.0.0._ C C ' c.S.S.a.<       D.D.D.D.",
"D.D.D.D.      , n 0.0.0.0.0.0._ C C Z O.0.0.t.B.S.S.S.S.S.S.n.e.0.0._ C C ' c.S.S.a.<       D.D.D.D.",
"D.    X u c c b *.0.0.-.L D D ` 2.2.,...Y Y ~ %.<.<.<.<.<.<.h.V.Z.Z.k.2.2.;.] ' ' 6.f.m.m.f o     D.",
"      . i G G ! >.0.0.$.F C C _ 0.0.5.| G G H W Q Q Q Q Q Q y.A.S.S.b.0.0.2.I C C 7.N.S.S.p.O       ",
"      . i G G ! >.0.0.$.F C C _ 0.0.5.| G G H W Q Q Q Q Q Q y.A.S.S.b.0.0.2.I C C 7.N.S.S.p.O       ",
"      . i G G ! >.0.0.$.F C C _ 0.0.5.| G G H W Q Q Q Q Q Q y.A.S.S.b.0.0.2.I C C 7.N.S.S.p.O       ",
"      . i G G ! >.0.0.$.F C C _ 0.0.5.| G G H W Q Q Q Q Q Q y.A.S.S.b.0.0.2.I C C 7.N.S.S.p.O       ",
"      . i G G ! >.0.0.$.F C C _ 0.0.5.| G G H W Q Q Q Q Q Q y.A.S.S.b.0.0.2.I C C 7.N.S.S.p.O       ",
"      . i G G ! >.0.0.$.F C C _ 0.0.5.| G G H W Q Q Q Q Q Q y.A.S.S.b.0.0.2.I C C 7.N.S.S.p.O       ",
"      . i G G ! >.0.0.$.F C C _ 0.0.5.| G G H W Q Q Q Q Q Q y.A.S.S.b.0.0.2.I C C 7.N.S.S.p.O       ",
"      . i G G ! >.0.0.$.F C C _ 0.0.5.| G G H W Q Q Q Q Q Q y.A.S.S.b.0.0.2.I C C 7.N.S.S.p.O       ",
"      . i G G ! >.0.0.$.F C C _ 0.0.5.| G G H W Q Q Q Q Q Q y.A.S.S.b.0.0.2.I C C 7.N.S.S.p.O       ",
"      . i G G ! >.0.0.$.F C C _ 0.0.5.| G G H W Q Q Q Q Q Q y.A.S.S.b.0.0.2.I C C 7.N.S.S.p.O       ",
"      . i G G ! >.0.0.$.F C C _ 0.0.5.| G G H W Q Q Q Q Q Q y.A.S.S.b.0.0.2.I C C 7.N.S.S.p.O       ",
"      . i G G ! >.0.0.$.F C C _ 0.0.5.| G G H W Q Q Q Q Q Q y.A.S.S.b.0.0.2.I C C 7.N.S.S.p.O       ",
"      . i G G ! >.0.0.$.F C C _ 0.0.5.| G G H W Q Q Q Q Q Q y.A.S.S.b.0.0.2.I C C 7.N.S.S.p.O       ",
"      . i G G ! >.0.0.$.F C C _ 0.0.5.| G G H W Q Q Q Q Q Q y.A.S.S.b.0.0.2.I C C 7.N.S.S.p.O       ",
"      . i G G ! >.0.0.$.F C C _ 0.0.5.| G G H W Q Q Q Q Q Q y.A.S.S.b.0.0.2.I C C 7.N.S.S.p.O       ",
"      . i G G ! >.0.0.$.F C C _ 0.0.5.| G G H W Q Q Q Q Q Q y.A.S.S.b.0.0.2.I C C 7.N.S.S.p.O       ",
"      . i G G ! >.0.0.$.F C C _ 0.0.5.| G G H W Q Q Q Q Q Q y.A.S.S.b.0.0.2.I C C 7.N.S.S.p.O       ",
"      . i G G ! >.0.0.$.F C C _ 0.0.5.| G G H W Q Q Q Q Q Q y.A.S.S.b.0.0.2.I C C 7.N.S.S.p.O       ",
"      . i G G ! >.0.0.$.F C C _ 0.0.5.| G G H W Q Q Q Q Q Q y.A.S.S.b.0.0.2.I C C 7.N.S.S.p.O       ",
"      . i G G ! >.0.0.$.F C C _ 0.0.5.| G G H W Q Q Q Q Q Q y.A.S.S.b.0.0.2.I C C 7.N.S.S.p.O       ",
"      . i G G ! >.0.0.$.F C C _ 0.0.5.| G G H W Q Q Q Q Q Q y.A.S.S.b.0.0.2.I C C 7.N.S.S.p.O       ",
"      . i G G ! >.0.0.$.F C C _ 0.0.5.| G G H W Q Q Q Q Q Q y.A.S.S.b.0.0.2.I C C 7.N.S.S.p.O       ",
"      . i G G ! >.0.0.$.F C C _ 0.0.5.| G G H W Q Q Q Q Q Q y.A.S.S.b.0.0.2.I C C 7.N.S.S.p.O       ",
"      . i G G ! >.0.0.$.F C C _ 0.0.5.| G G H W Q Q Q Q Q Q y.A.S.S.b.0.0.2.I C C 7.N.S.S.p.O       ",
"      . i G G ! >.0.0.$.F C C _ 0.0.5.| G G H W Q Q Q Q Q Q y.A.S.S.b.0.0.2.I C C 7.N.S.S.p.O       ",
"D.D.D.D.> 2 2 9 v / / | +.#.#._ I I T  .:.:.&.^ J J J J J J 1.u.j.j.8.I I R { #.#.m t e e q D.D.D.D.",
"D.D.D.D.      & k G G ( 4.0.0._ C C Z O.0.0.4.( G G G G G G | 5.0.0._ C C F $.0.0.n ,       D.D.D.D.",
"D.D.D.D.      & k G G ( 4.0.0._ C C Z O.0.0.4.( G G G G G G | 5.0.0._ C C F $.0.0.n ,       D.D.D.D.",
"D.D.D.D.      & k G G ( 4.0.0._ C C Z O.0.0.4.( G G G G G G | 5.0.0._ C C F $.0.0.n ,       D.D.D.D.",
"D.D.D.D.      & k G G ( 4.0.0._ C C Z O.0.0.0.0.0.0.0.0.0.0.0.0.0.0._ C C F $.0.0.n ,       D.D.D.D.",
"D.D.D.D.      & k G G ( 4.0.0._ C C Z O.0.0.0.0.0.0.0.0.0.0.0.0.0.0._ C C F $.0.0.n ,       D.D.D.D.",
"D.D.D.D.      & k G G ( 4.0.0._ C C Z O.0.0.0.0.0.0.0.0.0.0.0.0.0.0._ C C F $.0.0.n ,       D.D.D.D.",
"D.D.D.D.D.    $ g c c B =.3.3.[ D D K } 2.2.2.2.2.2.2.2.2.2.2.2.2.2.` D D A V M M j *     D.D.D.D.D.",
"D.D.D.D.D.D.D.D.      2 c G G o.0.0.5.E C C C C C C C C C C C C C C _ 0.0.M 5       D.D.D.D.D.D.D.D.",
"D.D.D.D.D.D.D.D.      2 c G G o.0.0.5.E C C C C C C C C C C C C C C _ 0.0.M 5       D.D.D.D.D.D.D.D.",
"D.D.D.D.D.D.D.D.      2 c G G o.0.0.5.E C C C C C C C C C C C C C C _ 0.0.M 5       D.D.D.D.D.D.D.D.",
"D.D.D.D.D.D.D.D.D.    % 6 8 8 l o.o.X.U S S S S S S S S S S P _ ` ` z a a 0 =     D.D.D.D.D.D.D.D.D.",
"D.D.D.D.D.D.D.D.D.D.D.D.      7 G G G G G G G G G G G G G G | 5.0.0.p       D.D.D.D.D.D.D.D.D.D.D.D.",
"D.D.D.D.D.D.D.D.D.D.D.D.      7 G G G G G G G G G G G G G G | 5.0.0.p       D.D.D.D.D.D.D.D.D.D.D.D.",
"D.D.D.D.D.D.D.D.D.D.D.D.      7 G G G G G G G G G G G G G G | 5.0.0.p       D.D.D.D.D.D.D.D.D.D.D.D.",
"D.D.D.D.D.D.D.D.D.D.D.D.D.D.D.& 2 2 2 2 2 2 2 2 2 2 2 2 2 2 3 4 5 5 = D.D.D.D.D.D.D.D.D.D.D.D.D.D.D.",
"D.D.D.D.D.D.D.D.D.D.D.D.D.D.D.                                        D.D.D.D.D.D.D.D.D.D.D.D.D.D.D.",
"D.D.D.D.D.D.D.D.D.D.D.D.D.D.D.                                        D.D.D.D.D.D.D.D.D.D.D.D.D.D.D.",
"D.D.D.D.D.D.D.D.D.D.D.D.D.D.D.                                        D.D.D.D.D.D.D.D.D.D.D.D.D.D.D."
};
