/* XPM */
static char *result[] = {
/* columns rows colors chars-per-pixel */
"25 64 25 1 ",
"  c black",
". c #1B1700",
"X c #211D00",
"o c #423900",
"O c #483F00",
"+ c #473F09",
"@ c #4F4400",
"# c #514604",
"$ c #554B0B",
"% c #584E0C",
"& c #635600",
"* c #665804",
"= c #6B5E0E",
"- c #B29D17",
"; c #C6AB00",
": c #CBB109",
"> c #DABC00",
", c #C3AC1A",
"< c #D5BC1C",
"1 c #DFC20A",
"2 c #EDCD00",
"3 c #F3D40B",
"4 c #EACF1F",
"5 c #FFE121",
"6 c None",
/* pixels */
"666666              66666",
"666666               6666",
"666666               6666",
"666666               6666",
"666666   %,<<<<<-+   6666",
"666666   =455555<$   6666",
"666666   =455555<$   6666",
"666666   =455555<$   6666",
"666666   =455555<$   6666",
"666666   =455555<$   6666",
"666666   =455555<$   6666",
"666666   =455555<$   6666",
"666666   =455555<$   6666",
"666666   =455555<$   6666",
"666666   =455555<$   6666",
"666666   =455555<$   6666",
"666666   =455555<$   6666",
"666666   =455555<$   6666",
"666666   =455555<$   6666",
"666666   =455555<$   6666",
"666666   =455555<$   6666",
"666666   =455555<$   6666",
"666666   =455555<$   6666",
"666666   =455555<$   6666",
"666666   =455555<$   6666",
"666666   =455555<$   6666",
"666666   =455555<$   6666",
"666666   =455555<$   6666",
"666666   =455555<$   6666",
"666666   =455555<$   6666",
"666666   *133333:#   6666",
"666666   &>22222;@   6666",
"666666   &>22222;@   6666",
"666666   &>22222;@   6666",
"666666   &>22222;@   6666",
"666666   &>22222;@   6666",
"666666   &>22222;@   6666",
"666666   &>22222;@   6666",
"666666   &>22222;@   6666",
"666666   &>22222;@   6666",
"666666   &>22222;@   6666",
"666666   &>22222;@   6666",
"666666   &>22222;@   6666",
"666666   &>22222;@   6666",
"666666   &>22222;@   6666",
"666666   &>22222;@   6666",
"666666   &>22222;@   6666",
"666666   &>22222;@   6666",
"666666   &>22222;@   6666",
"666666   &>22222;@   6666",
"666666   &>22222;@   6666",
"666666   &>22222;@   6666",
"666666   &>22222;@   6666",
"666666   &>22222;@   6666",
"666666   &>22222;@   6666",
"666666   &>22222;@   6666",
"666666   &>22222;@   6666",
"666666   &>22222;@   6666",
"666666   &>22222;@   6666",
"666666   &>22222;@   6666",
"666666   XO@@@@@o.   6666",
"666666               6666",
"666666               6666",
"666666               6666"
};
