/* XPM */
static char *result[] = {
/* columns rows colors chars-per-pixel */
"49 64 159 2 ",
"   c black",
".  c #141200",
"X  c #151200",
"o  c #161303",
"O  c #231F0F",
"+  c #282505",
"@  c #2B2606",
"#  c #302B00",
"$  c #312B00",
"%  c #3E3602",
"&  c #3C3608",
"*  c #3F3909",
"=  c #2A2714",
"-  c #2A2615",
";  c #2A2815",
":  c #2B2815",
">  c #2C2814",
",  c #403908",
"<  c #453D0A",
"1  c #403C20",
"2  c #4C4202",
"3  c #4B420A",
"4  c #524702",
"5  c #534805",
"6  c #50470A",
"7  c #544A0A",
"8  c #554B0B",
"9  c #605303",
"0  c #695B02",
"q  c #6B5E0E",
"w  c #6F6102",
"e  c #7B6B02",
"r  c #7B6B03",
"t  c #72650F",
"y  c #7A6C11",
"u  c #494424",
"i  c #4D4726",
"p  c #554F2A",
"a  c #7E7225",
"s  c #6B6335",
"d  c #756C3A",
"f  c #816F02",
"g  c #8F7D03",
"h  c #807110",
"j  c #807111",
"k  c #807740",
"l  c #958414",
"z  c #A69108",
"x  c #B39C09",
"c  c #A79316",
"v  c #B8A004",
"b  c #BBA411",
"n  c #B7A118",
"m  c #9A8D3C",
"M  c #CCB204",
"N  c #D1B607",
"B  c #D9BD0A",
"V  c #C0A919",
"C  c #D0B81B",
"Z  c #D5BC1C",
"A  c #DCC21D",
"S  c #EDCD00",
"D  c #EFCF03",
"F  c #EECF08",
"G  c #EFD00A",
"H  c #F1D103",
"J  c #F0D006",
"K  c #F0D106",
"L  c #F5D505",
"P  c #F6D606",
"I  c #F7D707",
"U  c #F2D208",
"Y  c #F3D308",
"T  c #F2D30A",
"R  c #F3D40B",
"E  c #F6D608",
"W  c #F7D70A",
"Q  c #F6D60B",
"!  c #F4D50C",
"~  c #F4D50D",
"^  c #F5D60E",
"/  c #F5D60F",
"(  c #F7D80C",
")  c #F8D808",
"_  c #FADA0A",
"`  c #F8D80C",
"'  c #F8D90E",
"]  c #F9D90F",
"[  c #F9DA0E",
"{  c #E0C512",
"}  c #E5C910",
"|  c #EACD15",
" . c #EACF1F",
".. c #F6D710",
"X. c #F6D711",
"o. c #F0D315",
"O. c #F1D416",
"+. c #F7D812",
"@. c #F9DA10",
"#. c #F8D912",
"$. c #FADB13",
"%. c #F8D914",
"&. c #F9DA14",
"*. c #F9DA16",
"=. c #F9DB16",
"-. c #FBDC16",
";. c #FCDD16",
":. c #F5D818",
">. c #FADC18",
",. c #FBDC19",
"<. c #FADC1A",
"1. c #FBDD1B",
"2. c #FCDD18",
"3. c #FCDD1A",
"4. c #FDDE1A",
"5. c #FBDD1E",
"6. c #FCDE1C",
"7. c #FDDF1C",
"8. c #FEDF1D",
"9. c #FDDF1E",
"0. c #FEE01F",
"q. c #E9D02A",
"w. c #F2D620",
"e. c #F9DD26",
"r. c #F6DC30",
"t. c #FFE121",
"y. c #FFE226",
"u. c #FFE229",
"i. c #FFE32C",
"p. c #FCE131",
"a. c #FFE331",
"s. c #FEE337",
"d. c #FDE239",
"f. c #948940",
"g. c #968C4B",
"h. c #AA9F54",
"j. c #C0B360",
"k. c #D5C143",
"l. c #DCC955",
"z. c #F6DE40",
"x. c #ECD752",
"c. c #FFE540",
"v. c #FEE546",
"b. c #FFE646",
"n. c #F8E14A",
"m. c #FFE74B",
"M. c #F9E355",
"N. c #FFE850",
"B. c #FFE958",
"V. c #D5C66A",
"C. c #EADA75",
"Z. c #FBE660",
"A. c #FFEA60",
"S. c #FEEA62",
"D. c #FCE96A",
"F. c #FEEB6C",
"G. c #FFEC6F",
"H. c #FFEE7F",
"J. c None",
/* pixels */
"J.J.J.J.J.J.J.J.J.J.J.J.J.J.J.J.                                    J.J.J.J.J.J.J.J.J.J.J.J.J.J.J.",
"J.J.J.J.J.J.J.J.J.J.J.J.J.J.J.                                      J.J.J.J.J.J.J.J.J.J.J.J.J.J.J.",
"J.J.J.J.J.J.J.J.J.J.J.J.J.J.J.                                      J.J.J.J.J.J.J.J.J.J.J.J.J.J.J.",
"J.J.J.J.J.J.J.J.J.J.J.J.J.J.J.                                      J.J.J.J.J.J.J.J.J.J.J.J.J.J.J.",
"J.J.J.J.J.J.J.J.J.J.J.J.      d V.V.V.V.V.V.V.V.V.V.V.V.V.V.k.Z Z n 6       J.J.J.J.J.J.J.J.J.J.J.",
"J.J.J.J.J.J.J.J.J.J.J.J.      k H.H.H.H.H.H.H.H.H.H.H.H.H.H.N.t.t.Z 8       J.J.J.J.J.J.J.J.J.J.J.",
"J.J.J.J.J.J.J.J.J.J.J.J.      k H.H.H.H.H.H.H.H.H.H.H.H.H.H.N.t.t.Z 8       J.J.J.J.J.J.J.J.J.J.J.",
"J.J.J.J.J.J.J.J.J.J.J.O = : : f.D.D.D.D.D.D.D.D.D.D.D.D.D.D.v.t.t.A t @ @ + J.J.J.J.J.J.J.J.J.J.J.",
"J.J.J.J.J.J.J.J.      s C.H.H.z.S S S S S S S S S S S S S S ..t.t.t.t.t.t.V ,       J.J.J.J.J.J.J.",
"J.J.J.J.J.J.J.J.      s C.H.H.z.S S S S S S S S S S S S S S ..t.t.t.t.t.t.V ,       J.J.J.J.J.J.J.",
"J.J.J.J.J.J.J.J.      s C.H.H.z.S S S S S S S S S S S S S S ..t.t.t.t.t.t.V ,       J.J.J.J.J.J.J.",
"J.J.J.J.J.J.J.> i p p m x.M.M.r.R R R R R R R R R R R R R R ..*.*.>.9.t.t.Z h 8 8 < J.J.J.J.J.J.J.",
"J.J.J.J.      1 j.H.H.n.G S S ..t.t.t.t.t.t.t.t.t.t.t.t.t.t...S S K =.t.t.t.t.t.t.l o       J.J.J.",
"J.J.J.J.      1 j.H.H.n.G S S ..t.t.t.t.t.t.t.t.t.t.t.t.t.t...S S K =.t.t.t.t.t.t.l o       J.J.J.",
"J.J.J.J.      1 j.H.H.n.G S S ..t.t.t.t.t.t.t.t.t.t.t.t.t.t...S S K =.t.t.t.t.t.t.l o       J.J.J.",
"J.J.J.J.      1 j.H.H.n.G S S ..t.t.i.m.A.A.A.A.A.A.b.y.t.t...S S K =.t.t.t.t.t.t.l o       J.J.J.",
"J.J.J.J.      1 j.H.H.n.G S S ..t.t.a.A.H.H.H.H.H.H.B.u.t.t...S S K =.t.t.t.t.t.t.l o       J.J.J.",
"J.J.J.J.      1 j.H.H.n.G S S ..t.t.a.A.H.H.H.H.H.H.B.u.t.t...S S K =.t.t.t.t.t.t.l o       J.J.J.",
"J.J.J.J.      1 j.H.H.n.G S S ..t.t.a.A.H.H.H.H.H.H.B.u.t.t...S S K =.t.t.t.t.t.t.l o       J.J.J.",
"J.    - g.V.V.l.q.o.o.:.1.6.6.v.G.G.S.d.5.5.5.5.5.5.=.( W W $.6.6.>.~ J J ~ 3.t.t.| N M M w     J.",
"      ; h.H.H.Z.w.S S ^ 0.t.t.N.H.H.F.p._ _ _ _ _ _ ) P L L $.t.t.6.R S S U ,.t.t.-.E L L e       ",
"      ; h.H.H.Z.w.S S ^ 0.t.t.N.H.H.F.p._ _ _ _ _ _ ) P L L $.t.t.6.R S S U ,.t.t.-.E L L e       ",
"      ; h.H.H.Z.w.S S ^ 0.t.t.N.H.H.F.p._ _ _ _ _ _ ) P L L $.t.t.6.R S S U ,.t.t.-.E L L e       ",
"      ; h.H.H.Z.w.S S ^ 0.t.t.N.H.H.F.p._ _ _ _ _ _ ) P L L $.t.t.6.R S S U ,.t.t.-.E L L e       ",
"      ; h.H.H.Z.w.S S ^ 0.t.t.N.H.H.F.p._ _ _ _ _ _ ) P L L $.t.t.6.R S S U ,.t.t.-.E L L e       ",
"      ; h.H.H.Z.w.S S ^ 0.t.t.N.H.H.F.p._ _ _ _ _ _ ) P L L $.t.t.6.R S S U ,.t.t.-.E L L e       ",
"      ; h.H.H.Z.w.S S ^ 0.t.t.N.H.H.F.p._ _ _ _ _ _ ) P L L $.t.t.6.R S S U ,.t.t.-.E L L e       ",
"      ; h.H.H.Z.w.S S ^ 0.t.t.N.H.H.F.p._ _ _ _ _ _ ) P L L $.t.t.6.R S S U ,.t.t.-.E L L e       ",
"      ; h.H.H.Z.w.S S ^ 0.t.t.N.H.H.F.p._ _ _ _ _ _ ) P L L $.t.t.6.R S S U ,.t.t.-.E L L e       ",
"      ; h.H.H.Z.w.S S ^ 0.t.t.N.H.H.F.p._ _ _ _ _ _ ) P L L $.t.t.6.R S S U ,.t.t.-.E L L e       ",
"      ; h.H.H.Z.w.S S ^ 0.t.t.N.H.H.F.p._ _ _ _ _ _ ) P L L $.t.t.6.R S S U ,.t.t.-.E L L e       ",
"      ; h.H.H.Z.w.S S ^ 0.t.t.N.H.H.F.p._ _ _ _ _ _ ) P L L $.t.t.6.R S S U ,.t.t.-.E L L e       ",
"      ; h.H.H.Z.w.S S ^ 0.t.t.N.H.H.F.p._ _ _ _ _ _ ) P L L $.t.t.6.R S S U ,.t.t.-.E L L e       ",
"      ; h.H.H.Z.w.S S ^ 0.t.t.N.H.H.F.p._ _ _ _ _ _ ) P L L $.t.t.6.R S S U ,.t.t.-.E L L e       ",
"      ; h.H.H.Z.w.S S ^ 0.t.t.N.H.H.F.p._ _ _ _ _ _ ) P L L $.t.t.6.R S S U ,.t.t.-.E L L e       ",
"      ; h.H.H.Z.w.S S ^ 0.t.t.N.H.H.F.p._ _ _ _ _ _ ) P L L $.t.t.6.R S S U ,.t.t.-.E L L e       ",
"      ; h.H.H.Z.w.S S ^ 0.t.t.N.H.H.F.p._ _ _ _ _ _ ) P L L $.t.t.6.R S S U ,.t.t.-.E L L e       ",
"      ; h.H.H.Z.w.S S ^ 0.t.t.N.H.H.F.p._ _ _ _ _ _ ) P L L $.t.t.6.R S S U ,.t.t.-.E L L e       ",
"      ; h.H.H.Z.w.S S ^ 0.t.t.N.H.H.F.p._ _ _ _ _ _ ) P L L $.t.t.6.R S S U ,.t.t.-.E L L e       ",
"      ; h.H.H.Z.w.S S ^ 0.t.t.N.H.H.F.p._ _ _ _ _ _ ) P L L $.t.t.6.R S S U ,.t.t.-.E L L e       ",
"      ; h.H.H.Z.w.S S ^ 0.t.t.N.H.H.F.p._ _ _ _ _ _ ) P L L $.t.t.6.R S S U ,.t.t.-.E L L e       ",
"      ; h.H.H.Z.w.S S ^ 0.t.t.N.H.H.F.p._ _ _ _ _ _ ) P L L $.t.t.6.R S S U ,.t.t.-.E L L e       ",
"      ; h.H.H.Z.w.S S ^ 0.t.t.N.H.H.F.p._ _ _ _ _ _ ) P L L $.t.t.6.R S S U ,.t.t.-.E L L e       ",
"      ; h.H.H.Z.w.S S ^ 0.t.t.N.H.H.F.p._ _ _ _ _ _ ) P L L $.t.t.6.R S S U ,.t.t.-.E L L e       ",
"      ; h.H.H.Z.w.S S ^ 0.t.t.N.H.H.F.p._ _ _ _ _ _ ) P L L $.t.t.6.R S S U ,.t.t.-.E L L e       ",
"J.J.J.J.u p p a C *.*.+.! R R e.c.c.s.<.I I I I I I [ ;.2.2.#.R R ~ +.*.*.&.@.' ' x 9 4 4 % J.J.J.",
"J.J.J.J.      , V t.t.%.D S S ..t.t.8.] L L L L L L @.0.t.t...S S K =.t.t.4.` L L g .       J.J.J.",
"J.J.J.J.      , V t.t.%.D S S ..t.t.8.] L L L L L L @.0.t.t...S S K =.t.t.4.` L L g .       J.J.J.",
"J.J.J.J.      , V t.t.%.D S S ..t.t.8.] L L L L L L @.0.t.t...S S K =.t.t.4.` L L g .       J.J.J.",
"J.J.J.J.      , V t.t.%.D S S ..t.t.t.t.t.t.t.t.t.t.t.t.t.t...S S K =.t.t.4.` L L g .       J.J.J.",
"J.J.J.J.      , V t.t.%.D S S ..t.t.t.t.t.t.t.t.t.t.t.t.t.t...S S K =.t.t.4.` L L g .       J.J.J.",
"J.J.J.J.      , V t.t.%.D S S ..t.t.t.t.t.t.t.t.t.t.t.t.t.t...S S K =.t.t.4.` L L g .       J.J.J.",
"J.J.J.J.      & c Z Z { F J J X.6.6.6.6.6.6.6.6.6.6.6.6.6.6.X.J J T &.7.7.O.B M M f X     J.J.J.J.",
"J.J.J.J.J.J.J.J.      q  .t.t...S S S S S S S S S S S S S S ..t.t.8.] L L v %       J.J.J.J.J.J.J.",
"J.J.J.J.J.J.J.J.      q  .t.t...S S S S S S S S S S S S S S ..t.t.8.] L L v %       J.J.J.J.J.J.J.",
"J.J.J.J.J.J.J.J.      q  .t.t...S S S S S S S S S S S S S S ..t.t.8.] L L v %       J.J.J.J.J.J.J.",
"J.J.J.J.J.J.J.J.J.    3 y j j b X.X./ Y H H H H H H H H H H Q $.$.} z r r 0 $     J.J.J.J.J.J.J.J.",
"J.J.J.J.J.J.J.J.J.J.J.J.      h t.t.8.] L L L L L L L L L L L L L M 4       J.J.J.J.J.J.J.J.J.J.J.",
"J.J.J.J.J.J.J.J.J.J.J.J.      h t.t.8.] L L L L L L L L L L L L L M 4       J.J.J.J.J.J.J.J.J.J.J.",
"J.J.J.J.J.J.J.J.J.J.J.J.      h t.t.8.] L L L L L L L L L L L L L M 4       J.J.J.J.J.J.J.J.J.J.J.",
"J.J.J.J.J.J.J.J.J.J.J.J.J.J.J.* 8 8 7 5 4 4 4 4 4 4 4 4 4 4 4 4 4 2 # J.J.J.J.J.J.J.J.J.J.J.J.J.J.",
"J.J.J.J.J.J.J.J.J.J.J.J.J.J.J.                                      J.J.J.J.J.J.J.J.J.J.J.J.J.J.J.",
"J.J.J.J.J.J.J.J.J.J.J.J.J.J.J.                                      J.J.J.J.J.J.J.J.J.J.J.J.J.J.J.",
"J.J.J.J.J.J.J.J.J.J.J.J.J.J.J.                                      J.J.J.J.J.J.J.J.J.J.J.J.J.J.J."
};
