/* XPM */
static char *result[] = {
/* columns rows colors chars-per-pixel */
"66 64 226 2 ",
"   c black",
".  c #121100",
"X  c #151200",
"o  c #151202",
"O  c #161303",
"+  c #14140A",
"@  c #16140A",
"#  c #231F0F",
"$  c #262206",
"%  c #282505",
"&  c #2A2405",
"*  c #2A2606",
"=  c #2B2606",
"-  c #302B00",
";  c #332D00",
":  c #3F3600",
">  c #3F3700",
",  c #3F3909",
"<  c #2A2714",
"1  c #2A2715",
"2  c #2A2815",
"3  c #2B2815",
"4  c #3D381D",
"5  c #403804",
"6  c #403908",
"7  c #4C4200",
"8  c #49410A",
"9  c #524600",
"0  c #524700",
"q  c #534800",
"w  c #544800",
"e  c #544900",
"r  c #554B0B",
"t  c #5D5100",
"y  c #6B5E00",
"u  c #63580D",
"i  c #726300",
"p  c #7E6D00",
"a  c #72650F",
"s  c #75660F",
"d  c #494424",
"f  c #4B4626",
"g  c #504A28",
"h  c #554F2A",
"j  c #55502A",
"k  c #726829",
"l  c #6B6335",
"z  c #736C3A",
"x  c #756C3A",
"c  c #7A713D",
"v  c #937F00",
"b  c #807110",
"n  c #807111",
"m  c #807740",
"M  c #938212",
"N  c #948312",
"B  c #968413",
"V  c #968513",
"C  c #958414",
"Z  c #A89206",
"A  c #A99306",
"S  c #AA9616",
"D  c #BDA400",
"F  c #BFA70D",
"G  c #BFA811",
"H  c #B8A318",
"J  c #8B803D",
"K  c #CCB100",
"L  c #D2B600",
"P  c #D6BA02",
"I  c #C0A919",
"U  c #D5BC1C",
"Y  c #CAB42D",
"T  c #DCC21D",
"R  c #EDCD00",
"E  c #EFCF03",
"W  c #E6C90E",
"Q  c #E9CB0E",
"!  c #F5D400",
"~  c #F0D006",
"^  c #F0D106",
"/  c #F5D505",
"(  c #F9D700",
")  c #FCDA00",
"_  c #FDDB03",
"`  c #F2D208",
"'  c #F2D30A",
"]  c #F3D30B",
"[  c #F3D40B",
"{  c #F7D70A",
"}  c #F3D40C",
"|  c #F4D50C",
" . c #F4D50D",
".. c #F4D50E",
"X. c #F5D60E",
"o. c #F5D60F",
"O. c #F8D808",
"+. c #FADA0A",
"@. c #FDDD0B",
"#. c #F9D90F",
"$. c #F9DA0E",
"%. c #ECCF10",
"&. c #E3C91E",
"*. c #F3D410",
"=. c #F6D710",
"-. c #F6D711",
";. c #F7D711",
":. c #F2D516",
">. c #F7D812",
",. c #FADB11",
"<. c #FADB13",
"1. c #FCDD11",
"2. c #FEDE10",
"3. c #FEDE11",
"4. c #F8D914",
"5. c #F8DA14",
"6. c #F9DA16",
"7. c #F9DB16",
"8. c #FBDC16",
"9. c #FEDE14",
"0. c #FEDF16",
"q. c #F7D818",
"w. c #FADB18",
"e. c #FADC18",
"r. c #FBDC19",
"t. c #FBDD1A",
"y. c #FADC1B",
"u. c #FCDD18",
"i. c #FCDD1A",
"p. c #FDDF1B",
"a. c #F9DB1D",
"s. c #FADC1E",
"d. c #FCDE1C",
"f. c #FDDF1C",
"g. c #FEDF1D",
"h. c #FDDF1E",
"j. c #FCDE1F",
"k. c #FEE01C",
"l. c #FFE01C",
"z. c #FEE01D",
"x. c #FEE01F",
"c. c #FFE11F",
"v. c #F8DB20",
"b. c #FBDD20",
"n. c #FDDF20",
"m. c #F7DC2B",
"M. c #F8DC28",
"N. c #FBDF29",
"B. c #FEE020",
"V. c #FEE120",
"C. c #FEE121",
"Z. c #FFE121",
"A. c #FFE124",
"S. c #FFE224",
"D. c #FFE126",
"F. c #FEE226",
"G. c #FFE229",
"H. c #FEE22C",
"J. c #FFE32C",
"K. c #FEE22D",
"L. c #FFE32D",
"P. c #FFE32E",
"I. c #FCE131",
"U. c #FEE231",
"Y. c #FEE331",
"T. c #FFE331",
"R. c #FEE333",
"E. c #FFE433",
"W. c #FAE036",
"Q. c #FEE234",
"!. c #FDE337",
"~. c #FDE33A",
"^. c #FFE438",
"/. c #FFE539",
"(. c #FFE53B",
"). c #FDE33C",
"_. c #8E8340",
"`. c #958A45",
"'. c #958B4A",
"]. c #A79A4D",
"[. c #AA9F54",
"{. c #AA9F55",
"}. c #B8AB55",
"|. c #B7AA5A",
" X c #DCCB5E",
".X c #E2CF56",
"XX c #FCE341",
"oX c #FFE540",
"OX c #FFE640",
"+X c #FBE346",
"@X c #FEE544",
"#X c #FFE644",
"$X c #FEE548",
"%X c #FFE748",
"&X c #FFE74B",
"*X c #FDE54C",
"=X c #FEE752",
"-X c #FDE756",
";X c #FFE850",
":X c #FFE955",
">X c #FEE958",
",X c #FFE958",
"<X c #FEE85B",
"1X c #D5C66A",
"2X c #D5C76A",
"3X c #E2D160",
"4X c #EADA75",
"5X c #FEE960",
"6X c #FFEA60",
"7X c #FFEA61",
"8X c #FEEA66",
"9X c #FFEB68",
"0X c #FEEA6A",
"qX c #FEEB6B",
"wX c #FEEB6C",
"eX c #FFEC6F",
"rX c #FFEC70",
"tX c #FFEC71",
"yX c #FFEC74",
"uX c #FEEC75",
"iX c #FFEC75",
"pX c #FFED77",
"aX c #FFED79",
"sX c #FFED7A",
"dX c #FFEE7F",
"fX c None",
/* pixels */
"fXfXfXfXfXfXfXfXfXfXfXfXfXfXfXfXfXfXfXfXfXfXfXfX                                    fXfXfXfXfXfXfXfXfXfXfXfXfXfXfXfXfXfXfXfXfXfXfXfX",
"fXfXfXfXfXfXfXfXfXfXfXfXfXfXfXfXfXfXfXfXfXfXfX                                      fXfXfXfXfXfXfXfXfXfXfXfXfXfXfXfXfXfXfXfXfXfXfXfX",
"fXfXfXfXfXfXfXfXfXfXfXfXfXfXfXfXfXfXfXfXfXfXfX                                      fXfXfXfXfXfXfXfXfXfXfXfXfXfXfXfXfXfXfXfXfXfXfXfX",
"fXfXfXfXfXfXfXfXfXfXfXfXfXfXfXfXfXfXfXfXfXfXfX                                      fXfXfXfXfXfXfXfXfXfXfXfXfXfXfXfXfXfXfXfXfXfXfXfX",
"fXfXfXfXfXfXfXfXfXfXfXfXfXfXfXfX              x 1X1X1X1X1X1X1X1X1X1X1X1X1X1X1X1X1X|.g             fXfXfXfXfXfXfXfXfXfXfXfXfXfXfXfXfX",
"fXfXfXfXfXfXfXfXfXfXfXfXfXfXfXfX              m dXdXdXdXdXdXdXdXdXdXdXdXdXdXdXdXdX2Xj               fXfXfXfXfXfXfXfXfXfXfXfXfXfXfXfX",
"fXfXfXfXfXfXfXfXfXfXfXfXfXfXfXfX              m dXdXdXdXdXdXdXdXdXdXdXdXdXdXdXdXdX2Xj               fXfXfXfXfXfXfXfXfXfXfXfXfXfXfXfX",
"fXfXfXfXfXfXfXfXfXfXfXfXfXfXfXfX1 3 3 3 3 3 3 `.iXiXyXtXeXeXeXeXeXeXeXeXeXeXeXeXeX Xk = = = = = = $ fXfXfXfXfXfXfXfXfXfXfXfXfXfXfXfX",
"fXfXfXfXfXfXfXfXfXfXfXfX      j 2XdXdXdXdXdXdX5XXXXX).H.Z.Z.Z.Z.Z.Z.Z.Z.Z.Z.Z.Z.Z.Z.Z.Z.Z.Z.Z.Z.Z.C O       fXfXfXfXfXfXfXfXfXfXfXfX",
"fXfXfXfXfXfXfXfXfXfXfXfX      j 2XdXdXdXdXdXdX5XXXXX).H.Z.Z.Z.Z.Z.Z.Z.Z.Z.Z.Z.Z.Z.Z.Z.Z.Z.Z.Z.Z.Z.C O       fXfXfXfXfXfXfXfXfXfXfXfX",
"fXfXfXfXfXfXfXfXfXfXfXfX      j 2XdXdXdXdXdXdX5XXXXX).H.Z.Z.Z.Z.Z.Z.Z.Z.Z.Z.Z.Z.Z.Z.Z.Z.Z.Z.Z.Z.Z.C O       fXfXfXfXfXfXfXfXfXfXfXfX",
"fXfXfXfXfXfXfXfXfXfXfXfXd h h _.3X0X0X8X7X6X6X+Xm.m.M.a.6.6.6.6.6.6.6.6.6.6.6.6.6.e.h.Z.Z.Z.Z.Z.Z.H u r r , fXfXfXfXfXfXfXfXfXfXfXfX",
"fXfXfXfXfXfXfXfX      2 [.dXdXqX*XXXXXQ.A.Z.Z.=.R R R R R R R R R R R R R R R R R ^ 7.Z.Z.Z.Z.Z.Z.Z.Z.Z.Z.b       fXfXfXfXfXfXfXfXfX",
"fXfXfXfXfXfXfXfX      2 [.dXdXqX*XXXXXQ.A.Z.Z.=.R R R R R R R R R R R R R R R R R ^ 7.Z.Z.Z.Z.Z.Z.Z.Z.Z.Z.b       fXfXfXfXfXfXfXfXfX",
"fXfXfXfXfXfXfXfX      2 [.dXdXqX*XXXXXQ.A.Z.Z.=.R R R R R R R R R R R R R R R R R ^ 7.Z.Z.Z.Z.Z.Z.Z.Z.Z.Z.b       fXfXfXfXfXfXfXfXfX",
"fXfXfXfXfX    + z {.{.}..X-X-X$XR.H.H.s...[ [ =.6.6.6.6.6.6.6.6.6.6.6.6.6.6.6.6.6.4.o.[ [ =.d.Z.Z.Z.Z.Z.Z.U S S V 8       fXfXfXfXfX",
"fXfXfXfXfX    @ '.dXdXuX-XXXXX!.F.Z.Z.4.E R R =.Z.Z.Z.Z.Z.Z.Z.Z.Z.Z.Z.Z.Z.Z.Z.Z.Z.d.[ R R ` r.Z.Z.Z.Z.Z.Z.Z.Z.Z.U r       fXfXfXfXfX",
"fXfXfXfXfX    @ '.dXdXuX-XXXXX!.F.Z.Z.4.E R R =.Z.Z.Z.Z.Z.Z.Z.Z.Z.Z.Z.Z.Z.Z.Z.Z.Z.d.[ R R ` r.Z.Z.Z.Z.Z.Z.Z.Z.Z.U r       fXfXfXfXfX",
"fXfXfXfXfX    @ '.dXdXuX-XXXXX!.F.Z.Z.4.E R R =.Z.Z.Z.Z.Z.Z.Z.Z.Z.Z.Z.Z.Z.Z.Z.Z.Z.d.[ R R ` r.Z.Z.Z.Z.Z.Z.Z.Z.Z.U r       fXfXfXfXfX",
"fXfXfXfXfX    @ '.dXdXrX#XD.D.y.] ~ ~ o.t.d.d.x.Z.Z.P.:XeXeXeXeXeXeXeXeXeXeX%XZ.Z.V.h.d.d.7.} ~ ~ ;.x.Z.Z.Z.Z.Z.U r       fXfXfXfXfX",
"fXfXfXfXfX    @ '.dXdXrXOXZ.Z.7.^ R R X.x.Z.Z.Z.Z.Z.T.6XdXdXdXdXdXdXdXdXdXdX;XZ.Z.Z.Z.Z.Z.r.` R R X.x.Z.Z.Z.Z.Z.U r       fXfXfXfXfX",
"fXfXfXfXfX    @ '.dXdXrXOXZ.Z.7.^ R R X.x.Z.Z.Z.Z.Z.T.6XdXdXdXdXdXdXdXdXdXdX;XZ.Z.Z.Z.Z.Z.r.` R R X.x.Z.Z.Z.Z.Z.U r       fXfXfXfXfX",
"fXfXfXfX# < 3 4 ].iXiX8X~.d.d.5.' ~ ~ ;.x.Z.Z.G.T.T.(.>XwXwXwXwXwXwXwXwXwXwX@Xf.f.z.V.Z.Z.i. .~ ~ q.K.T.T.G.Z.Z.T a = = % fXfXfXfXfX",
"fX      l 4XdXsX<XXXXXW.:.R R [ d.Z.Z.Z.Z.Z.Z.;XdXdXwXI.+.+.+.+.+.+.+.+.+.+.O./ / { u.Z.Z.Z.Z.Z.Z.%XpXdXdX;XZ.Z.Z.Z.Z.Z.I 6       fX",
"fX      l 4XdXsX<XXXXXW.:.R R [ d.Z.Z.Z.Z.Z.Z.;XdXdXwXI.+.+.+.+.+.+.+.+.+.+.O./ / { u.Z.Z.Z.Z.Z.Z.%XpXdXdX;XZ.Z.Z.Z.Z.Z.I 6       fX",
"fX      l 4XdXsX<XXXXXW.:.R R [ d.Z.Z.Z.Z.Z.Z.;XdXdXwXI.+.+.+.+.+.+.+.+.+.+.O./ / { u.Z.Z.Z.Z.Z.Z.%XpXdXdX;XZ.Z.Z.Z.Z.Z.I 6       fX",
"fX      l 4XdXaX=XU.U.N.*.R R [ d.Z.Z.Z.Z.Z.Z.;XdXdXwXI.+.+.+.+.+.+.+.+.+.+.O./ / { u.Z.Z.Z.Z.Z.Z.%XpXdXdX;XZ.Z.c.0.3.3.F 5       fX",
"fX      l 4XdXpX%XZ.Z.d.[ R R [ d.Z.Z.Z.Z.Z.Z.;XdXdXwXI.+.+.+.+.+.+.+.+.+.+.O./ / { u.Z.Z.Z.Z.Z.Z.%XpXdXdX;XZ.Z.k.@.) ) D >       fX",
"fX      l 4XdXpX%XZ.Z.d.[ R R [ d.Z.Z.Z.Z.Z.Z.;XdXdXwXI.+.+.+.+.+.+.+.+.+.+.O./ / { u.Z.Z.Z.Z.Z.Z.%XpXdXdX;XZ.Z.k.@.) ) D >       fX",
"fX      l 4XdXpX%XZ.Z.d.[ R R [ d.Z.Z.Z.Z.Z.Z.;XdXdXwXI.+.+.+.+.+.+.+.+.+.+.O./ / { u.Z.Z.Z.Z.Z.Z.%XpXdXdX;XZ.Z.k.@.) ) D >       fX",
"fX      l 4XdXpX%XZ.Z.d.[ R R [ d.Z.Z.Z.Z.Z.Z.;XdXdXwXI.+.+.+.+.+.+.+.+.+.+.O./ / { u.Z.Z.Z.Z.Z.Z.%XpXdXdX;XZ.Z.k.@.) ) D >       fX",
"fX      l 4XdXpX%XZ.Z.d.[ R R [ d.Z.Z.Z.Z.Z.Z.;XdXdXwXI.+.+.+.+.+.+.+.+.+.+.O./ / { u.Z.Z.Z.Z.Z.Z.%XpXdXdX;XZ.Z.k.@.) ) D >       fX",
"fX      l 4XdXpX%XZ.Z.d.[ R R [ d.Z.Z.Z.Z.Z.Z.;XdXdXwXI.+.+.+.+.+.+.+.+.+.+.O./ / { u.Z.Z.Z.Z.Z.Z.%XpXdXdX;XZ.Z.k.@.) ) D >       fX",
"fX      l 4XdXpX%XZ.Z.d.[ R R [ d.Z.Z.Z.Z.Z.Z.;XdXdXwXI.+.+.+.+.+.+.+.+.+.+.O./ / { u.Z.Z.Z.Z.Z.Z.%XpXdXdX;XZ.Z.k.@.) ) D >       fX",
"fX      l 4XdXpX%XZ.Z.d.[ R R [ d.Z.Z.Z.Z.Z.Z.;XdXdXwXI.+.+.+.+.+.+.+.+.+.+.O./ / { u.Z.Z.Z.Z.Z.Z.%XpXdXdX;XZ.Z.k.@.) ) D >       fX",
"fX      l 4XdXpX%XZ.Z.d.[ R R [ d.Z.Z.Z.Z.Z.Z.;XdXdXwXI.+.+.+.+.+.+.+.+.+.+.O./ / { u.Z.Z.Z.Z.Z.Z.%XpXdXdX;XZ.Z.k.@.) ) D >       fX",
"fX      l 4XdXpX%XZ.Z.d.[ R R [ d.Z.Z.Z.Z.Z.Z.;XdXdXwXI.+.+.+.+.+.+.+.+.+.+.O./ / { u.Z.Z.Z.Z.Z.Z.%XpXdXdX;XZ.Z.k.@.) ) D >       fX",
"fX      l 4XdXpX%XZ.Z.d.[ R R [ d.Z.Z.Z.Z.Z.Z.;XdXdXwXI.+.+.+.+.+.+.+.+.+.+.O./ / { u.Z.Z.Z.Z.Z.Z.%XpXdXdX;XZ.Z.k.@.) ) D >       fX",
"fX      l 4XdXpX%XZ.Z.d.[ R R [ d.Z.Z.Z.Z.Z.Z.;XdXdXwXI.+.+.+.+.+.+.+.+.+.+.O./ / { u.Z.Z.Z.Z.Z.Z.%XpXdXdX;XZ.Z.k.@.) ) D >       fX",
"fX      l 4XdXpX%XZ.Z.d.[ R R [ d.Z.Z.Z.Z.Z.Z.;XdXdXwXI.+.+.+.+.+.+.+.+.+.+.O./ / { u.Z.Z.Z.Z.Z.Z.%XpXdXdX;XZ.Z.k.@.) ) D >       fX",
"fX      l 4XdXpX%XZ.Z.d.[ R R [ d.Z.Z.Z.Z.Z.Z.;XdXdXwXI.+.+.+.+.+.+.+.+.+.+.O./ / { u.Z.Z.Z.Z.Z.Z.%XpXdXdX;XZ.Z.k.@.) ) D >       fX",
"fXfX    f c m J Y B.B.h.6.-.-.-.-.-.-.w.B.Z.Z./.;X;X@Xb.O.O.O.O.O.O.O.O.O.O.$.<.<.8.g.Z.Z.L.#X;X;X;X;X;X;XY.3.3.Q A p p y ;     fXfX",
"fXfXfXfXfX    o M j.j.n.B.Z.Z.7.^ R R X.x.Z.Z.Z.Z.Z.g.#./ / / / / / / / / / <.Z.Z.Z.Z.Z.Z./.9XdXdX,XG.Z.Z.2.) ) L w       fXfXfXfXfX",
"fXfXfXfXfX    o M j.j.n.B.Z.Z.7.^ R R X.x.Z.Z.Z.Z.Z.g.#./ / / / / / / / / / <.Z.Z.Z.Z.Z.Z./.9XdXdX,XG.Z.Z.2.) ) L w       fXfXfXfXfX",
"fXfXfXfXfX    o M j.j.n.B.Z.Z.7.^ R R X.x.Z.Z.Z.Z.Z.g.#./ / / / / / / / / / <.Z.Z.Z.Z.Z.Z./.9XdXdX,XG.Z.Z.2.) ) L w       fXfXfXfXfX",
"fXfXfXfXfX    o N B.B.B.C.Z.Z.h.e.6.6.>.| [ [ 7.Z.Z.V.p.u.u.u.u.u.u.u.u.u.u.g.Z.Z.J.&X6X6X,X%XoXoXE.S.Z.Z.2.) ) L w       fXfXfXfXfX",
"fXfXfXfXfX    O C Z.Z.Z.Z.Z.Z.Z.Z.Z.Z.4.E R R =.Z.Z.Z.Z.Z.Z.Z.Z.Z.Z.Z.Z.Z.Z.Z.Z.Z.T.6XdXdX9X/.Z.Z.Z.Z.Z.Z.2.) ) L w       fXfXfXfXfX",
"fXfXfXfXfX    O C Z.Z.Z.Z.Z.Z.Z.Z.Z.Z.4.E R R =.Z.Z.Z.Z.Z.Z.Z.Z.Z.Z.Z.Z.Z.Z.Z.Z.Z.T.6XdXdX9X/.Z.Z.Z.Z.Z.Z.2.) ) L w       fXfXfXfXfX",
"fXfXfXfXfX    O C Z.Z.Z.Z.Z.Z.Z.Z.Z.Z.4.E R R =.Z.Z.Z.Z.Z.Z.Z.Z.Z.Z.Z.Z.Z.Z.Z.Z.Z.T.6XdXdX9X/.Z.Z.Z.Z.Z.Z.2.) ) L w       fXfXfXfXfX",
"fXfXfXfXfXfXfXfX      * S Z.Z.Z.Z.Z.Z.Z.Z.Z.Z.;XdXdXdXdXdXdXdXdXdXdXdXdXdXdXdXdXdXrXOXZ.Z.Z.Z.Z.Z.9._ ) ) p       fXfXfXfXfXfXfXfXfX",
"fXfXfXfXfXfXfXfX      * S Z.Z.Z.Z.Z.Z.Z.Z.Z.Z.;XdXdXdXdXdXdXdXdXdXdXdXdXdXdXdXdXdXrXOXZ.Z.Z.Z.Z.Z.9._ ) ) p       fXfXfXfXfXfXfXfXfX",
"fXfXfXfXfXfXfXfX      * S Z.Z.Z.Z.Z.Z.Z.Z.Z.Z.;XdXdXdXdXdXdXdXdXdXdXdXdXdXdXdXdXdXrXOXZ.Z.Z.Z.Z.Z.9._ ) ) p       fXfXfXfXfXfXfXfXfX",
"fXfXfXfXfXfXfXfXfX    & B U U &.v.Z.Z.Z.Z.Z.Z.%XeXeXeXeXeXeXeXeXeXeXeXeXeXeXeXeXeX7X^.l.l.l.l.l.l.%.P L L i       fXfXfXfXfXfXfXfXfX",
"fXfXfXfXfXfXfXfXfXfXfXfX      r U Z.Z.Z.Z.Z.Z.Z.Z.Z.Z.Z.Z.Z.Z.Z.Z.Z.Z.Z.Z.Z.Z.Z.Z.k.@.) ) ) ) ) ) v X       fXfXfXfXfXfXfXfXfXfXfXfX",
"fXfXfXfXfXfXfXfXfXfXfXfX      r U Z.Z.Z.Z.Z.Z.Z.Z.Z.Z.Z.Z.Z.Z.Z.Z.Z.Z.Z.Z.Z.Z.Z.Z.k.@.) ) ) ) ) ) v X       fXfXfXfXfXfXfXfXfXfXfXfX",
"fXfXfXfXfXfXfXfXfXfXfXfX      r U Z.Z.Z.Z.Z.Z.Z.Z.Z.Z.Z.Z.Z.Z.Z.Z.Z.Z.Z.Z.Z.Z.Z.Z.k.@.) ) ) ) ) ) v X       fXfXfXfXfXfXfXfXfXfXfXfX",
"fXfXfXfXfXfXfXfXfXfXfXfXfX    , s n n n n n n G 3.3.3.3.3.3.3.3.3.3.3.3.3.3.1.,.,.W Z p p p p p p t .     fXfXfXfXfXfXfXfXfXfXfXfXfX",
"fXfXfXfXfXfXfXfXfXfXfXfXfXfXfXfX              p ) ) ) ) ) ) ) ) ) ) ) ) ) ) ( ! ! K 9               fXfXfXfXfXfXfXfXfXfXfXfXfXfXfXfX",
"fXfXfXfXfXfXfXfXfXfXfXfXfXfXfXfX              p ) ) ) ) ) ) ) ) ) ) ) ) ) ) ( ! ! K 9               fXfXfXfXfXfXfXfXfXfXfXfXfXfXfXfX",
"fXfXfXfXfXfXfXfXfXfXfXfXfXfXfXfX              p ) ) ) ) ) ) ) ) ) ) ) ) ) ) ( ! ! K 9               fXfXfXfXfXfXfXfXfXfXfXfXfXfXfXfX",
"fXfXfXfXfXfXfXfXfXfXfXfXfXfXfXfXfXfXfXfXfXfXfX: e e e e e e e e e e e e e e q 0 0 7 - fXfXfXfXfXfXfXfXfXfXfXfXfXfXfXfXfXfXfXfXfXfXfX",
"fXfXfXfXfXfXfXfXfXfXfXfXfXfXfXfXfXfXfXfXfXfXfX                                      fXfXfXfXfXfXfXfXfXfXfXfXfXfXfXfXfXfXfXfXfXfXfXfX",
"fXfXfXfXfXfXfXfXfXfXfXfXfXfXfXfXfXfXfXfXfXfXfX                                      fXfXfXfXfXfXfXfXfXfXfXfXfXfXfXfXfXfXfXfXfXfXfXfX",
"fXfXfXfXfXfXfXfXfXfXfXfXfXfXfXfXfXfXfXfXfXfXfX                                      fXfXfXfXfXfXfXfXfXfXfXfXfXfXfXfXfXfXfXfXfXfXfXfX"
};
