/* XPM */
static char *result[] = {
/* columns rows colors chars-per-pixel */
"64 64 190 2 ",
"   c #010000",
".  c #080500",
"X  c #0D0900",
"o  c #0E0609",
"O  c #0B0B0B",
"+  c #120D00",
"@  c #130B0E",
"#  c #151000",
"$  c #1B1400",
"%  c #1C0B12",
"&  c #141414",
"*  c #191615",
"=  c #1C1913",
"-  c #1C1C1C",
";  c #241A00",
":  c #281E00",
">  c #220E16",
",  c #211D13",
"<  c #2A111B",
"1  c #2E2200",
"2  c #332600",
"3  c #3B2B00",
"4  c #392A03",
"5  c #292412",
"6  c #332B11",
"7  c #382E11",
"8  c #3A1826",
"9  c #242424",
"0  c #2C2C2C",
"q  c #372E32",
"w  c #333333",
"e  c #3C3C3C",
"r  c #433200",
"t  c #493700",
"y  c #4C3900",
"u  c #46380F",
"i  c #523D02",
"p  c #431B2B",
"a  c #572438",
"s  c #5D263C",
"d  c #61273F",
"f  c #564000",
"g  c #5A4300",
"h  c #52410E",
"j  c #5F4A0D",
"k  c #5E4610",
"l  c #644B00",
"z  c #694F00",
"x  c #644E0D",
"c  c #6E5200",
"v  c #6A520C",
"b  c #715400",
"n  c #765906",
"m  c #7B5C00",
"M  c #7A5E0B",
"N  c #7E610B",
"B  c #5C4728",
"V  c #6F2D48",
"C  c #732F4A",
"Z  c #78334A",
"A  c #7F3452",
"S  c #444444",
"D  c #4E4247",
"F  c #494949",
"G  c #525252",
"H  c #5B5B5B",
"J  c #636363",
"K  c #6B6B6B",
"L  c #71686A",
"P  c #757575",
"I  c #7C7C7C",
"U  c #846200",
"Y  c #8A6700",
"T  c #8B6800",
"R  c #84650A",
"E  c #8B6A0A",
"W  c #926D00",
"Q  c #926F09",
"!  c #9C7400",
"~  c #9B7508",
"^  c #9B7609",
"/  c #A57B02",
"(  c #A97E01",
")  c #9D4066",
"_  c #A9456E",
"`  c #B94B78",
"'  c #D47B43",
"]  c #D8794D",
"[  c #D57454",
"{  c #E07C53",
"}  c #C24F7E",
"|  c #DD6F67",
" . c #DE6876",
".. c #E6756A",
"X. c #F07C6B",
"o. c #E26E70",
"O. c #E2697B",
"+. c #AC8205",
"@. c #B18503",
"#. c #B78A06",
"$. c #BB8C03",
"%. c #C39101",
"&. c #CC9903",
"*. c #D29D02",
"=. c #E49A1D",
"-. c #D7A000",
";. c #DBA401",
":. c #E5AB01",
">. c #EAAE01",
",. c #EDAA0C",
"<. c #F1AD0C",
"1. c #EEB100",
"2. c #F4B502",
"3. c #F8B605",
"4. c #FFBE00",
"5. c #F7B608",
"6. c #EEA615",
"7. c #EFAA11",
"8. c #EBA11B",
"9. c #F6B817",
"0. c #D38829",
"q. c #DB8638",
"w. c #E89925",
"e. c #E38D36",
"r. c #E48B3B",
"t. c #F09734",
"y. c #D9A73C",
"u. c #EFAE29",
"i. c #F3B828",
"p. c #E28544",
"a. c #CEA84D",
"s. c #E9BA5B",
"d. c #E5BE75",
"f. c #EEC05E",
"g. c #EBC475",
"h. c #BA7C94",
"j. c #C65181",
"k. c #D8598A",
"l. c #DE5B91",
"z. c #E25E8F",
"x. c #E45E92",
"c. c #E85F96",
"v. c #D47497",
"b. c #E26385",
"n. c #E4628B",
"m. c #E86688",
"M. c #E46090",
"N. c #E96194",
"B. c #ED619A",
"V. c #F0629C",
"C. c #EF6CA2",
"Z. c #EE78A8",
"A. c #858585",
"S. c #8B8B8B",
"D. c #979495",
"F. c #9D9D9D",
"G. c #A49097",
"H. c #A2A2A2",
"J. c #ADA3A5",
"K. c #ABABAB",
"L. c #B5A4AA",
"P. c #B2B2B2",
"I. c #BABABA",
"U. c #DEB584",
"Y. c #ED83AE",
"T. c #EC8BB3",
"R. c #EB99BA",
"E. c #C6BABE",
"W. c #EAA0BE",
"Q. c #DAC0AA",
"!. c #E4C9A6",
"~. c #E2CEB6",
"^. c #E1D0BD",
"/. c #EAA5C0",
"(. c #E9ACC5",
"). c #E9B3C8",
"_. c #E8BACC",
"`. c #C4C4C4",
"'. c #CBCBCB",
"]. c #DCCBCC",
"[. c #DFD1CA",
"{. c LightGray",
"}. c #DEDEDE",
"|. c #E7C3D1",
" X c #E6CCD5",
".X c #E3DBDD",
"XX c #E4E2E1",
"oX c #EAEAEA",
"OX c #F3F3F3",
"+X c #FFFFFF",
/* pixels */
"+X+X+X+X+X+X+X+X+X+X+X+X+X+X+X+X+X+X+X+X+X+X+X+X+X+X+X+X+X+X}.K.A.H.{.+X+X+X+X+X+X+X+X+X+X+X+X+X+X+X+X+X+X+X+X+X+X+X+X+X+X+X+X+X",
"+X+X+X+X+X+X+X+X+X+X+X+X+X+X+X+X+X+X+X+X+X+X+X+X+X+X+X+X+X`.w       0 H.+X+X+X+X+X+X+X+X+X+X+X+X+X+X+X+X+X+X+X+X+X+X+X+X+X+X+X+X",
"+X+X+X+X+X+X+X+X+X+X+X+X+X+X+X+X+X+X+X+X+X+X+X+X+X+X+X+XXX.             '.+X+X+X+X+X+X+X+X+X+X+X+X+X+X+X+X+X+X+X+X+X+X+X+X+X+X+X",
"+X+X+X+X+X+X+X+X+X+X+X+X+X+X+X+X+X+X+X+X+X+X+X+X+X+X+X+XF     1 t 2     9 OX+X+X+X+X+X+X+X+X+X+X+X+X+X+X+X+X+X+X+X+X+X+X+X+X+X+X",
"+X+X+X+X+X+X+X+X+X+X+X+X+X+X+X+X+X+X+X+X+X+X+X+X+X+X+X'.    t &.2.-.z     K.+X+X+X+X+X+X+X+X+X+X+X+X+X+X+X+X+X+X+X+X+X+X+X+X+X+X",
"+X+X+X+X+X+X+X+X+X+X+X+X+X+X+X+X+X+X+X+X+X+X+X+X+X+X+XG   1 4.4.4.4.4.y   J +X+X+X+X+X+X+X+X+X+X+X+X+X+X+X+X+X+X+X+X+X+X+X+X+X+X",
"+X+X+X+X+X+X+X+X+X+X+X+X+X+X+X+X+X+X+X+X+X+X+X+X+X+XOXO   W 4.4.4.4.4.%.  e XX+X+X+X+X+X+X+X+X+X+X+X+X+X+X+X+X+X+X+X+X+X+X+X+X+X",
"+X+X+X+X+X+X+X+X+X+X+X+X+X+X+X+X+XXXI.A.H S F H A.P.P     2.4.3.2.3.4.4.#   J P.S.J F S G I P.}.+X+X+X+X+X+X+X+X+X+X+X+X+X+X+X+X",
"+X+X+X+X+X+X+X+X+X+X+X+X+X+X+X+X'.P -             * @   . 1.8.t.e.t.8.,.;   O *             & K '.+X+X+X+X+X+X+X+X+X+X+X+X+X+X+X",
"+X+X+X+X+X+X+X+X+X+X+X+X+X+X+XF.9                       d ..m.V.V.V.n.o.Z o                     9 A.+X+X+X+X+X+X+X+X+X+X+X+X+X+X",
"+X+X+X{.F.A.H.{.+X+X+X+X+XoXG       % 8 s C C s 8 < @ _ B.V.m.] 0.' b.V.V.) % > 8 a V C V 8 >       e }.+X+X+X+X+XXXH.A.D.`.+X+X",
"+X+XS.9     . 0 F.+X+X+XOXF     o C ` l.B.V.V.V.l.j.` V.V.M.w.4.4.4.6.m.V.B.` ` x.B.V.V.B.x.} A .     w XX+X+X+XP.w O     - P +X",
"+XP             O A.OXOXF     8 k.B.B.V.V.V.V.V.B.V.V.V.B.q.4.4.4.4.4.=.B.B.V.V.B.V.V.V.V.V.V.V.k.p     0 oX+XF.&             G ",
"}.&     4 y 1 .   w {.K.    % _ V.V.V.V.V.V.V.V.V.V.V.V.N.<.4.4.4.4.4.4.n.B.V.V.V.V.V.V.V.V.V.V.c.j.<     F.XXS     : y 3 .   . ",
"J     U ;.2.-.c .   J -   o _ V.V.V.V.V.V.V.V.V.V.V.V.V.O.4.4.4.4.4.4.4...V.V.V.V.V.V.V.V.V.V.V.V.V.j.%   w K .   g *.2.:.!     ",
"O   m 4.4.4.4.3.c       @ h.V.V.V.V.V.V.V.V.V.V.V.V.V.V.X.4.4.4.4.4.4.4.] V.V.V.V.V.V.V.V.V.V.V.V.V.C.v.*       f 1.4.4.4.4./   ",
"  . >.4.4.4.4.4.%.$     ) }.V.V.V.V.V.V.V.V.V.V.V.V.V.V.X.4.4.4.4.4.4.4.[ V.V.V.V.V.V.V.V.V.V.V.V.V.V._.G.    X +.4.4.4.4.4.2.; ",
"  i 4.4.4.4.4.4.3.f   q XX}.B.B.V.V.V.V.V.V.V.V.V.V.V.V.O.4.4.4.4.4.4.4...V.V.V.V.V.V.V.V.V.V.V.V.V.V. XXXD   3 :.4.4.4.4.4.4.Y ",
"  Y 4.4.4.4.4.4.4.b   L.XXXXC.B.V.V.V.V.V.V.V.V.V.V.V.V.N.5.4.4.4.4.4.4.b.V.V.V.V.V.V.V.V.V.V.V.V.V.V..XXXD.O f 4.4.4.4.4.4.4.+.",
"  W 4.4.4.4.4.4.4.n , .XXXXXY.B.V.V.V.V.V.V.V.V.V.V.V.V.B.q.4.4.4.4.4.=.B.V.V.V.V.V.V.V.V.V.V.V.V.V.V.XXXX`.w f 4.4.4.4.4.4.4.$.",
"  m 4.4.4.4.4.4.4.l K XXXXXXR.V.V.V.V.V.V.V.V.V.V.V.V.V.V.M.6.4.4.4.5.b.V.V.V.V.V.V.V.V.V.V.V.V.V.V.Z.XXXXXXh.3 2.4.4.4.4.4.4.( ",
"  4 4.4.4.4.4.4.1.j K.XXXXXX/.V.V.V.V.V.V.V.V.V.V.V.V.V.V.b.6.4.4.4.<. .V.V.V.V.V.V.V.V.V.V.V.V.V.V.T.XXXXXXE.B -.4.4.4.4.4.4.c ",
"    &.4.4.4.4.4.+.G .XXXXXXX).B.V.V.V.V.V.V.V.V.V.V.B.B. .7.4.4.4.4.4.3.| V.V.V.V.V.V.V.V.V.V.V.V.V.R.XXXXXXXXL W 4.4.4.4.4.:.. ",
"-   3 2.4.4.4.>.3 h.XXXXXXXX_.V.V.V.V.V.V.V.V.V.V.V.V.n.6.4.4.4.4.4.4.4.<.O.V.V.V.V.V.V.V.V.V.V.V.V./.XXXXXXXXF.4 -.4.4.4.4.g   ",
"G   . U 3.4.4.2.k J.XXXXXXXX_.V.V.V.V.V.V.V.V.V.V.V.N.e.4.4.4.4.4.4.4.4.4.r.x.V.V.V.V.V.V.V.V.V.V.V.(.XXXXXXXXE.B ;.4.4.4.! +   ",
"oX9     + ! 4.4.y.].XXXXXXXX|.V.V.V.V.V.V.V.V.V.V.N.p.4.4.4.4.4.4.4.4.4.4.4.e.m.V.V.V.V.V.V.V.V.V.V.(.XXXXXXXX.Xa.4.4.~ $     & ",
"+XI.@     y 1.4.9.~.XXXXXXXX|.V.V.V.V.V.V.V.V.V.B.p.5.4.4.4.4.4.4.4.4.4.4.4.4.p.N.V.V.V.V.V.V.V.V.V.).XXXXXXXX[.i.4.3.:     O F.",
"+X+X}.H O X +.4.4.s.}.XXXXXX|.V.V.V.V.V.V.V.V.N.p.3.4.4.4.4.4.4.4.4.4.4.4.4.4.4.r.m.V.V.V.V.V.V.V.V.).XXXXXXXXg.4.4.&.  . F '.+X",
"+X+X+X+Xe   m 4.4.9.!.XXXXXX|.V.V.V.V.V.V.V.B.{ 5.4.4.4.4.4.4.4.4.4.4.4.4.4.4.4.3.p.c.V.V.V.V.V.V.V.(.XXXXXX^.i.4.4.W   0 OX+X+X",
"+X+X+X+XF.  r >.4.4.s.XXXXXX_.V.V.V.V.V.V.V.| 5.4.4.4.4.4.4.4.4.4.4.4.4.4.4.4.4.4.4.{ B.V.V.V.V.V.V.(.XXXXXXd.4.4.4.g   K +X+X+X",
"+X+X+X+XOXO X @.4.4.9.[.XXXX_.V.V.V.V.V.V.o.6.4.4.4.4.4.4.4.4.4.4.4.4.4.4.4.4.4.4.4.<.O.V.V.V.V.V.V.W.XXXX~.i.4.4.&.;   '.+X+X+X",
"+X+X+X+X+Xe   m 4.4.4.s.XXXX).V.V.V.V.V.M.8.4.4.4.4.4.4.4.4.4.4.4.4.4.4.4.4.4.4.4.4.4.6.k.V.V.V.V.V.R.XXXXf.4.4.4.W   9 +X+X+X+X",
"+X+X+X+X+XA.  4 ;.4.4.4.U.XXR.V.V.V.V.b.8.4.4.4.4.4.4.4.4.4.4.4.4.4.4.4.4.4.4.4.4.4.4.4.7.b.B.B.C.V.Y.XX!.4.4.4.2.y   I +X+X+X+X",
"+X+X+X+X+XI.* . +.4.4.4.9.Q.T.B.V.V.N.e.4.4.4.4.4.&.:.4.4.4.4.4.4.4.4.4.4.4.1.&.5.4.4.4.4.8.l.V.B.V.C.].9.4.4.4.$.$ . XX+X+X+X+X",
"+X+X+X+X+XOXS   c 4.4.4.4.5.v.B.V.V.q.4.4.4.4.4.&.5 N 4.4.4.4.4.4.4.4.4.4.4.^ = @.4.4.4.4.4.=.V.V.B.x.u.4.4.4.4.T   0 +X+X+X+X+X",
"+X+X+X+X+X+XA.  4 :.4.4.4.4.,...z.[ 4.4.4.4.4.4.Q & u 4.4.4.4.4.4.4.4.4.4.2.j & N 4.4.4.4.4.4.q.z...8.4.4.4.4.2.i   K +X+X+X+X+X",
"+X+X+X+X+X+XI.* . ( 4.4.4.4.4.3.w.5.4.4.4.4.4.4.v & - 4.4.4.4.4.4.4.4.4.4.-.7 & h 1.4.4.4.4.4.4.w.5.4.4.4.4.4.%.$   F.+X+X+X+X+X",
"+X+X+X+X+X+XOXG   l 4.4.4.4.4.4.4.4.4.4.4.4.4.:.h & & *.4.4.4.4.4.4.4.4.4.@.* & 6 &.4.4.4.4.4.4.4.4.4.4.4.4.4.m   e XX+X+X+X+X+X",
"+X+X+X+X+X+X+XS.  1 *.4.4.4.4.4.4.4.4.4.4.4.4.*.6 & & +.4.4.4.4.4.4.4.4.4.^ & & * #.4.4.4.4.4.4.4.4.4.4.4.4.>.t   P +X+X+X+X+X+X",
"+X+X+X+X+X+X+X{.9   W 4.4.4.4.4.4.4.4.4.4.4.4.$., & & N 4.4.4.4.4.4.4.4.4.E & & & +.4.4.4.4.4.4.4.4.4.4.4.4.( X & P.+X+X+X+X+X+X",
"+X+X+X+X+X+X+XOXG   z 4.4.4.4.4.4.4.4.4.4.4.4.#.* & & M 4.4.4.4.4.4.4.4.4.R & & & ^ 4.4.4.4.4.4.4.4.4.4.4.4.U   w XX+X+X+X+X+X+X",
"+X+X+X+X+X+X+X+XA.  1 4.4.4.4.4.4.4.4.4.4.4.4.#.& & & v 4.4.4.4.4.4.4.4.4.N & & & ^ 4.4.4.4.4.4.4.4.4.4.4.1.t   K +X+X+X+X+X+X+X",
"+X+X+X+X+X+X+X+X'.9   &.4.4.4.4.4.4.4.4.4.4.4.@.& & & x 4.4.4.4.4.4.4.4.4.N & & & ^ 4.4.4.4.4.4.4.4.4.4.4.+.X O P.+X+X+X+X+X+X+X",
"+X+X+X+X+X+X+X+X+XH   z 4.4.4.4.4.4.4.4.4.4.4.@.& & & x 4.4.4.4.4.4.4.4.4.N & & & ^ 4.4.4.4.4.4.4.4.4.4.4.b   S oX+X+X+X+X+X+X+X",
"+X+X+X+X+X+X+X+X+XH.O $ 5.4.4.4.4.4.4.4.4.4.4.#.= & & N 4.4.4.4.4.4.4.4.4.E & & & ^ 4.4.4.4.4.4.4.4.4.4.4.1   S.+X+X+X+X+X+X+X+X",
"+X+X+X+X+X+X+X+X+X'.-   ;.4.4.4.4.4.4.4.4.4.4.$., & & E 4.4.4.4.4.4.4.4.4.E & & & +.4.4.4.4.4.4.4.4.4.4.2.+ O P.+X+X+X+X+X+X+X+X",
"+X+X+X+X+X+X+X+X+XOXH   c 4.4.4.4.4.4.4.4.4.4.-.6 & & +.4.4.4.4.4.4.4.4.4.^ * & - #.4.4.4.4.4.4.4.4.4.4.!   e oX+X+X+X+X+X+X+X+X",
"+X+X+X+X+X+X+X+X+X+XH.  $ 4.4.4.4.4.4.4.4.4.4.>.h & & ;.4.4.4.4.4.4.4.4.4.#.= & 6 *.4.4.4.4.4.4.4.4.4.4.2   A.+X+X+X+X+X+X+X+X+X",
"+X+X+X+X+X+X+X+X+X+X{.    $.4.4.4.4.4.4.4.4.4.4.v & , 4.4.4.4.4.4.4.4.4.4.&.6 & h 1.4.4.4.4.4.4.4.4.4.:.. * I.+X+X+X+X+X+X+X+X+X",
"+X+X+X+X+X+X+X+X+X+X+Xe   t 4.4.4.4.4.4.4.4.4.4.^ * h 4.4.4.4.4.4.4.4.4.4.4.v & R 4.4.4.4.4.4.4.4.4.4.b   H OX+X+X+X+X+X+X+X+X+X",
"+X+X+X+X+X+X+X+X+X+X+XH.  # 3.4.4.4.4.4.4.4.4.4.;.h ^ 4.4.4.4.4.4.4.4.4.4.4.@.u &.4.4.4.4.4.4.4.4.4.4.1   S.+X+X+X+X+X+X+X+X+X+X",
"+X+X+X+X+X+X+X+X+X+X+X{.    %.4.4.4.4.4.4.4.4.4.2.&.:.4.4.4.4.4.4.4.4.4.4.4.1.&.2.4.4.4.4.4.4.4.4.4.1..   I.+X+X+X+X+X+X+X+X+X+X",
"+X+X+X+X+X+X+X+X+X+X+X'.    *.4.4.4.4.4.4.4.4.4.4.4.4.4.4.4.4.4.4.4.4.4.4.4.4.4.4.4.4.4.4.4.4.4.4.4.2.X   P.+X+X+X+X+X+X+X+X+X+X",
"+X+X+X+X+X+X+X+X+X+X+XF.  1 4.4.4.4.4.4.4.4.4.4.4.4.4.4.4.4.4.4.4.4.4.4.4.4.4.4.4.4.4.4.4.4.4.4.4.4.4.r   S.+X+X+X+X+X+X+X+X+X+X",
"+X+X+X+X+X+X+X+X+X+X+XJ   g 4.4.4.4.4.4.4.4.4.4.4.4.4.4.4.4.4.4.4.4.4.4.4.4.4.4.4.4.4.4.4.4.4.4.4.4.4.T   K +X+X+X+X+X+X+X+X+X+X",
"+X+X+X+X+X+X+X+X+X+X+XS   m 4.4.4.4.4.4.4.4.4.4.4.4.4.4.4.4.4.4.4.4.4.4.4.4.4.4.4.4.4.4.4.4.4.4.4.4.4.+.  H +X+X+X+X+X+X+X+X+X+X",
"+X+X+X+X+X+X+X+X+X+X+Xe   Y 4.4.4.4.4.4.4.4.4.4.4.4.4.4.4.4.4.4.4.4.4.4.4.4.4.4.4.4.4.4.4.4.4.4.4.4.4.$.  H +X+X+X+X+X+X+X+X+X+X",
"+X+X+X+X+X+X+X+X+X+X+XF   c 4.4.4.4.4.4.4.4.4.4.4.4.4.4.4.4.4.4.4.4.4.4.4.4.4.4.4.4.4.4.4.4.4.4.4.4.4./   H +X+X+X+X+X+X+X+X+X+X",
"+X+X+X+X+X+X+X+X+X+X+XP   4 4.4.4.4.4.4.4.4.4.4.4.4.4.4.4.4.4.4.4.4.4.4.4.4.4.4.4.4.4.4.4.4.4.4.4.4.4.f   P +X+X+X+X+X+X+X+X+X+X",
"+X+X+X+X+X+X+X+X+X+X+X`.    / 4.4.4.4.4.4.4.4.4.4.4.4.4.4.4.4.4.4.4.4.4.4.4.4.4.4.4.4.4.4.4.4.4.4.4.%..   K.+X+X+X+X+X+X+X+X+X+X",
"+X+X+X+X+X+X+X+X+X+X+XOX9   # $.4.4.4.4.4.4.4.4.4.4.4.4.4.4.4.4.4.4.4.4.4.4.4.4.4.4.4.4.4.4.4.4.4.*.:   O XX+X+X+X+X+X+X+X+X+X+X",
"+X+X+X+X+X+X+X+X+X+X+X+XK.      . . . . . . . . . . . . . . . . . . . . X . . . . . . . . . . . .       A.+X+X+X+X+X+X+X+X+X+X+X",
"+X+X+X+X+X+X+X+X+X+X+X+X+XH                                                                           e OX+X+X+X+X+X+X+X+X+X+X+X",
"+X+X+X+X+X+X+X+X+X+X+X+X+XoXH                                                                       e }.+X+X+X+X+X+X+X+X+X+X+X+X"
};
