/* XPM */
static char *result[] = {
/* columns rows colors chars-per-pixel */
"64 64 102 2 ",
"   c #3F2823",
".  c #382F33",
"X  c #3F3437",
"o  c #51332D",
"O  c #45383A",
"+  c #433A3E",
"@  c #4B3C3D",
"#  c #5D3B34",
"$  c #61322B",
"%  c #6A3831",
"&  c #703F38",
"*  c #237A39",
"=  c #237A3A",
"-  c #247A3A",
";  c #247C3A",
":  c #247E3A",
">  c #405F3C",
",  c #337940",
"<  c #3A7843",
"1  c #494043",
"2  c #4E464A",
"3  c #524041",
"4  c #534142",
"5  c #51494D",
"6  c #5E4948",
"7  c #595255",
"8  c #6C4840",
"9  c #654F4D",
"0  c #7A4B41",
"q  c #7C4943",
"w  c #67504E",
"e  c #60575D",
"r  c #496B45",
"t  c #427846",
"y  c #4E7D46",
"u  c #537848",
"i  c #5A784F",
"p  c #7B7577",
"a  c #7A7677",
"s  c #855D56",
"d  c #8F5F58",
"f  c #86675F",
"g  c #896A61",
"h  c #976C64",
"j  c #986E68",
"k  c #9A6E68",
"l  c #9C6F68",
"z  c #95756C",
"x  c #9F736B",
"c  c #9F736C",
"v  c #9F736D",
"b  c #9F746C",
"n  c #24803A",
"m  c #26843C",
"M  c #26883D",
"N  c #268A3D",
"B  c #278C3E",
"V  c #278F3E",
"C  c #28933F",
"Z  c #299740",
"A  c #299940",
"S  c #299B40",
"D  c #2A9B41",
"F  c #389946",
"G  c #3B9548",
"H  c #46874A",
"J  c #45994C",
"K  c #4E9850",
"L  c #579754",
"P  c #719360",
"I  c #B78A7B",
"U  c #B98C7C",
"Y  c #BA8D7D",
"T  c #858183",
"R  c #868183",
"E  c #8B8689",
"W  c #948686",
"Q  c #9C9899",
"!  c #A7A4A5",
"~  c #B2AFB1",
"^  c #B3B1B1",
"/  c #B9B8B9",
"(  c #BAB8BA",
")  c #BDBBBC",
"_  c #BDBCBC",
"`  c #C8C7C6",
"'  c #D0C3C0",
"]  c #D3D3D2",
"[  c LightGray",
"{  c gray87",
"}  c #DEDFDE",
"|  c #E7E9E7",
" . c gray91",
".. c #E8E9E8",
"X. c #E9E9E9",
"o. c #E8EAE8",
"O. c #E9EAE9",
"+. c #E9EBE9",
"@. c #EAEAEA",
"#. c #EAEBEA",
"$. c gray92",
"%. c None",
/* pixels */
"%.%.%.%.%.%.%.%.%.%.c x c c b v %.%.%.%.%.%.%.%.%.%.%.%.%.%.%.%.%.%.%.%.%.%.%.%.%.%.%.%.%.%.%.%.%.%.%.%.%.%.%.%.%.%.%.%.%.%.%.%.",
"%.%.%.%.%.%.%.%.c c c c c c c c c %.%.%.%.%.%.%.%.%.%.%.%.%.%.%.%.%.%.%.%.%.%.%.%.%.%.%.%.%.%.%.%.%.%.%.%.%.%.%.%.%.%.%.%.%.%.%.",
"%.%.%.%.%.%.%.v c c c c c c c c c c %.%.%.%.%.%.%.%.%.%.%.%.%.%.%.%.%.%.%.%.%.%.%.%.%.%.%.%.%.%.%.%.%.%.%.%.%.%.%.%.%.%.%.%.%.%.",
"%.%.%.%.%.%.%.c c c c c c c c c c c b %.%.%.%.%.%.%.%.%.%.%.%.%.%.%.%.%.%.%.%.%.%.%.%.%.%.%.%.%.%.%.%.%.%.%.%.%.%.%.%.%.%.%.%.%.",
"%.%.%.%.%.%.%.h c c c c c c c c c c %.%.%.%.%.%.%.%.%.%.%.%.%.%.%.%.%.%.%.%.%.%.%.%.%.%.%.%.%.%.%.%.%.%.%.%.%.%.%.%.%.%.%.%.%.%.",
"%.%.%.%.%.%.%.%.q d l c c c c k s 8 %.%.%.%.%.%.%.%.%.%.%.%.%.%.%.%.%.%.%.%.%.%.%.%.%.%.%.%.%.%.%.%.%.%.%.%.%.%.%.%.%.%.%.%.%.%.",
"%.%.%.%.%.%.%.%.%.0 $ % & # o   %.%.%.%.%.%.%.%.%.%.%.%.%.%.%.%.%.%.%.%.%.%.%.%.%.%.%.%.%.%.%.%.%.%.%.%.%.%.%.%.%.%.%.%.%.%.%.%.",
"%.%.%.%.%.%.%.%.%.F K y u > r t C D D D D D D D D D D D D D D D D D D D D D D D D D D N * * * * * * * * * * * = %.%.%.%.%.%.%.%.",
"%.%.%.%.%.%.%.%.%.S D D Z * * * C D D D D D D D D D D D D D D D D D D D D D D D D D V * * * * * * * * * * * * %.%.%.%.%.%.%.%.%.",
"%.%.%.%.%.%.%.%.%.S D D Z * * * C D D D D D D D D D D D D D D D D D D D D D D D D Z ; * * * * * * * * * * * = %.%.%.%.%.%.%.%.%.",
"%.%.%.%.%.%.%.%.%.S D D Z * * * C D D D D D D D D D D D D D D D D D D D D D D D A : * * * * * * * * * * * * %.%.%.%.%.%.%.%.%.%.",
"%.%.%.%.%.%.%.%.%.S D D Z * * * C D D D D D D D D D D D D D D D D D D D D D D D M * * * * * * * * * * * * = %.%.%.%.%.%.%.%.%.%.",
"%.%.%.%.%.%.%.%.%.S D D Z * * * C D D D D D D D D D D D D D D D D D D D D D D B * * * * * * * * * * * * * %.%.%.%.%.%.%.%.%.%.%.",
"%.%.%.%.%.%.%.%.%.S D D Z * * * C D D D D D D D D D D D D D D D D D D D D D Z * * * * * * * * * * * * * = %.%.%.%.%.%.%.%.%.%.%.",
"%.%.%.%.%.%.%.%.%.S D D Z * * * C D D D D D D D D D D D D D D D D D D D D Z : * * * * * * * * * * * * * %.%.%.%.%.%.%.%.%.%.%.%.",
"%.%.%.%.%.%.%.%.%.S D D Z * * * C D D D D D D D D D D D D D D D D D D D D m * * * * * * * * * * * * * = %.%.%.%.%.%.%.%.%.%.%.%.",
"%.%.%.%.%.%.%.%.%.S D D Z * * * C D D D D D D D D D D D D D D D D D D D N * * * * * * * * * * * * * * %.%.%.%.%.%.%.%.%.%.%.%.%.",
"%.%.%.%.%.%.%.%.%.S D D Z * * * C D D D D D D D D D D D D D D D D D D C * * * * * * * * * * * * * * * %.%.%.%.%.%.%.%.%.%.%.%.%.",
"%.%.%.%.%.%.%.%.%.S D D Z * * * C D D D D D D D D D D D D D D D D D Z : * * * * * * * * * * * * * * * - %.%.%.%.%.%.%.%.%.%.%.%.",
"%.%.%.%.%.%.%.%.%.S D D Z * * * C D D D D D D D D D D D D D D D D D n * * * * * * * * * * * * * * * * * %.%.%.%.%.%.%.%.%.%.%.%.",
"%.%.%.%.%.%.%.%.%.S D D Z * * * C D D D D D D D D D D D D D D D D N * * * * * * * * * * * * * * * * * * - %.%.%.%.%.%.%.%.%.%.%.",
"%.%.%.%.%.%.%.%.%.S D D Z * * * C D D D D D D D D D D D D D D D V * * * * * * * * * * * * * * * * * * * * %.%.%.%.%.%.%.%.%.%.%.",
"%.%.%.%.%.%.%.%.%.S D D Z * * * C D D D D D D D D D D D D D D Z : * * * * * * * * * * * * * * * * * * * * - %.%.%.%.%.%.%.%.%.%.",
"%.%.%.%.%.%.%.%.%.S D D Z * * * C D D D D D D D D D D D D D D : * * * * * * * * * * * * * * * * * * * * * * %.%.%.%.%.%.%.%.%.%.",
"%.%.%.%.%.%.%.%.%.S D D Z * * * C D D D D D D D D D D D D D M * * * * * * * * * * * * * * * * * * * * * * * - %.%.%.%.%.%.%.%.%.",
"%.%.%.%.%.%.%.%.%.S D D Z * * * C D D D D D D D D D D D D B * * * * * * * * * * * * * * * * * * * * * * * * * %.%.%.%.%.%.%.%.%.",
"%.%.%.%.%.%.%.%.%.S D D Z * * * C D D D D D D D D D D D Z ; * * * * * * * * * * * * * * * * * * * * * * * * * - %.%.%.%.%.%.%.%.",
"%.%.%.%.%.%.%.%.%.P L J G , < i H %.%.%.%.%.%.%.%.%.%.%.%.%.%.%.%.%.%.%.%.%.%.%.%.%.%.%.%.%.%.%.%.%.%.%.%.%.%.%.%.%.%.%.%.%.%.%.",
"%.%.%.%.%.%.%.%.%.U Y Y I c c c %.%.%.%.%.%.%.%.%.%.%.%.%.%.%.%.%.%.%.%.%.%.%.%.%.%.%.%.%.%.%.%.%.%.%.%.%.%.%.%.%.%.%.%.%.%.%.%.",
"%.%.%.%.%.%.%.%.%.U Y Y I c c c %.%.%.%.%.%.%.%.%.%.%.%.%.%.%.%.%.%.%.%.%.%.%.%.%.%.%.%.%.%.%.%.%.%.%.%.%.%.%.%.%.%.%.%.%.%.%.%.",
"%.%.%.%.%.%.%.%.%.U Y Y I c c c %.%.%.%.%.%.%.%.%.%.%.%.%.%.%.%.%.%.%.%.%.%.%.%.%.%.%.%.%.%.%.%.%.%.%.%.%.%.%.%.%.%.%.%.%.%.%.%.",
"%.%.%.%.%.%.%.%.%.U Y Y I c c c %.%.%.%.%.%.%.%.%.%.%.%.%.%.%.%.%.%.%.%.%.%.%.%.%.%.%.%.%.%.%.%.%.%.%.%.%.%.%.%.%.%.%.%.%.%.%.%.",
"%.%.%.%.%.%.%.%.%.U Y Y I c c c %.%.%.%.%.%.%.%.%.%.%.%.%.%.%.%.%.%.%.%.%.%.%.%.%.%.%.%.%.%.%.%.%.%.%.%.%.%.%.%.%.%.%.%.%.%.%.%.",
"%.%.%.%.%.%.%.%.%.U Y Y I c c c %.%.%.%.%.%.%.%.%.%.%.%.%.%.%.%.%.%.%.%.%.%.%.%.%.%.%.%.%.%.%.%.%.%.%.%.%.%.%.%.%.%.%.%.%.%.%.%.",
"%.%.%.%.%.%.%.%.%.U Y Y I c c c %.%.%.%.%.%.%.%.%.%.%.%.%.%.%.%.%.%.%.%.%.%.%.%.%.%.%.%.%.%.%.%.%.%.%.%.%.%.%.%.%.%.%.%.%.%.%.%.",
"%.%.%.%.%.%.%.%.%.U Y Y I c c c %.%.%.%.%.%.%.%.%.%.%.%.%.%.%.%.%.%.%.%.%.%.%.%.%.%.%.%.%.%.%.%.%.%.%.%.%.%.%.%.%.%.%.%.%.%.%.%.",
"%.%.%.%.%.%.%.%.%.U Y Y I c c c %.%.%.%.%.%.%.%.%.%.%.%.%.%.%.%.%.%.%.%.%.%.%.%.%.%.%.%.%.%.%.%.%.%.%.%.%.%.%.%.%.%.%.%.%.%.%.%.",
"%.%.%.%.%.%.%.%.%.U Y Y I c c c %.%.%.%.%.%.%.%.%.%.%.%.%.%.%.%.%.%.%.%.%.%.%.%.%.%.%.%.%.%.%.%.%.%.%.%.%.%.%.%.%.%.%.%.%.%.%.%.",
"%.%.%.%.%.%.%.%.%.U Y Y I c c c %.%.%.%.%.%.%.%.%.%.%.%.%.%.%.%.%.%.%.%.%.%.%.%.%.%.%.%.%.%.%.%.%.%.%.%.%.%.%.%.%.%.%.%.%.%.%.%.",
"%.%.%.%.%.%.%.%.%.U Y Y I c c c %.%.%.%.%.%.%.%.%.%.%.%.%.%.%.%.%.%.%.%.%.%.%.%.%.%.%.%.%.%.%.%.%.%.%.%.%.%.%.%.%.%.%.%.%.%.%.%.",
"%.%.%.%.%.%.%.%.%.U Y Y I c c c %.%.%.%.%.%.%.%.%.%.%.%.%.%.%.%.%.%.%.%.%.%.%.%.%.%.%.%.%.%.%.%.%.%.%.%.%.%.%.%.%.%.%.%.%.%.%.%.",
"%.%.%.%.%.%.%.%.%.U Y Y I c c c %.%.%.%.%.%.%.%.%.%.%.%.%.%.%.%.%.%.%.%.%.%.%.%.%.%.%.%.%.%.%.%.%.%.%.%.%.%.%.%.%.%.%.%.%.%.%.%.",
"%.%.%.%.%.%.%.%.%.U Y Y I c c c %.%.%.%.%.%.%.%.%.%.%.%.%.%.%.%.%.%.%.%.%.%.%.%.%.%.%.%.%.%.%.%.%.%.%.%.%.%.%.%.%.%.%.%.%.%.%.%.",
"%.%.%.%.%.%.%.%.%.U Y Y I c c c %.%.%.%.%.%.%.%.%.%.%.%.%.%.%.%.%.%.%.%.%.%.%.%.%.%.%.%.%.%.%.%.%.%.%.%.%.%.%.%.%.%.%.%.%.%.%.%.",
"%.%.%.%.%.%.%.%.%.U Y Y I c c c %.%.%.%.%.%.%.%.%.%.%.%.%.%.%.%.%.%.%.%.%.%.%.%.%.%.%.%.%.%.%.%.%.%.%.%.%.%.%.%.%.%.%.%.%.%.%.%.",
"%.%.%.%.%.%.%.%.%.U Y Y I c c c %.%.%.%.%.%.%.%.%.%.%.%.%.%.%.%.%.%.%.%.%.%.%.%.%.%.%.%.%.%.%.%.%.%.%.%.%.%.%.%.%.%.%.%.%.%.%.%.",
"%.%.%.%.%.%.%.%.%.U Y Y I c c c %.%.%.%.%.%.%.%.%.%.%.%.%.%.%.%.%.%.%.%.%.%.%.%.%.%.%.%.%.%.%.%.%.%.%.%.%.%.%.%.%.%.%.%.%.%.%.%.",
"%.%.%.%.%.%.%.%.%.U Y Y I c c c %.%.%.%.%.%.%.%.%.%.%.%.%.%.%.%.%.%.%.%.%.%.%.%.%.%.%.%.%.%.%.%.%.%.%.%.%.%.%.%.%.%.%.%.%.%.%.%.",
"%.%.%.%.%.%.%.%.%.U Y Y I c c c %.%.%.%.%.%.%.%.%.%.%.%.%.%.%.%.%.%.%.%.%.%.%.%.%.%.%.%.%.%.%.%.%.%.%.%.%.%.%.%.%.%.%.%.%.%.%.%.",
"%.%.%.%.%.%.%.%.%.U Y Y I c c c %.%.%.%.%.%.%.%.%.%.%.%.%.%.%.%.%.%.%.%.%.%.%.%.%.%.%.%.%.%.%.%.%.%.%.%.%.%.%.%.%.%.%.%.%.%.%.%.",
"%.%.%.%.%.%.%.%.%.U Y Y I c c c %.%.%.%.%.%.%.%.%.%.%.%.%.%.%.%.%.%.%.%.%.%.%.%.%.%.%.%.%.%.%.%.%.%.%.%.%.%.%.%.%.%.%.%.%.%.%.%.",
"%.%.%.%.%.%.%.%.%.U Y Y I c c c %.%.%.%.%.%.%.%.%.%.%.%.%.%.%.%.%.%.%.%.%.%.%.%.%.%.%.%.%.%.%.%.%.%.%.%.%.%.%.%.%.%.%.%.%.%.%.%.",
"%.%.%.%.%.%.%.%.%.U Y Y I c c c %.%.%.%.%.%.%.%.%.%.%.%.%.%.%.%.%.%.%.%.%.%.%.%.%.%.%.%.%.%.%.%.%.%.%.%.%.%.%.%.%.%.%.%.%.%.%.%.",
"%.%.%.%.%.%.%.%.%.U Y Y I c c c %.%.%.%.%.%.%.%.%.%.%.%.%.%.%.%.%.%.%.%.%.%.%.%.%.%.%.%.%.%.%.%.%.%.%.%.%.%.%.%.%.%.%.%.%.%.%.%.",
"%.%.%.%.%.%.%.%.%.U Y Y I c c c %.%.%.%.%.%.%.%.%.%.%.%.%.%.%.%.%.%.%.%.%.%.%.%.%.%.%.%.%.%.%.%.%.%.%.%.%.%.%.%.%.%.%.%.%.%.%.%.",
"%.%.%.%.%.%.%.%.%.U Y Y I c c c %.%.%.%.%.%.%.%.%.%.%.%.%.%.%.%.%.%.%.%.%.%.%.%.%.%.%.%.%.%.%.%.%.%.%.%.%.%.%.%.%.%.%.%.%.%.%.%.",
"%.%.%.%.%.%.%.%.%.U Y Y I c c c ' #.O.O.O.O.O.O.O.O.O.O.O.O.O.O.O.O.O.O.O.O.O.O.O.O.O.O.O.#.#.+.@.X.%.%.%.%.%.%.%.%.%.%.%.%.%.%.",
"%.%.%.%.%.%.e 1 5 z Y Y I c c c W _ O.O.O.O.O.O.O.O.O.O.O.O.O.O.O.O.O.O.O.O.O.O.O.O.O.O.O.O.O.O.O.O.O.O.O.O.O.O.#.#.%.%.%.%.%.%.",
"%.%.+.E + . . . . g Y Y I c c c 3 . + T { O.O.O.O.O.O.O.O.O.O.O.O.O.O.O.O.O.O.O.O.O.O.O.O.O.O.O.O.O.O.O.O.O.O.O.O.O.O.O.#.+.%.%.",
"#.O.! . . . . . . g Y Y I c c c 3 . . . R O.O.O.O.O.O.O.O.O.O.O.O.O.O.O.O.O.O.O.O.O.O.O.O.O.O.O.O.O.O.O.O.O.O.O.O.O.O.O.O.O.O.O.",
"o.O.] 2 . . . . . f Y Y I c c j 3 . . + ` O.O.O.O.O.O.O.O.O.O.O.O.O.O.O.O.O.O.O.O.O.O.O.O.O.O.O.O.O.O.O.O.O.O.O.O.O.O.O.O.O.O.X.",
"%.%.%.#.~ p 7 . . O 4 9 w 6 @ X 2 a Q } O.O.O.O.O.O.O.O.O.O.O.O.O.O.O.O.O.O.O.O.O.O.O.O.O.O.O.O.O.O.O.O.O.O.O.O.O.O.O.#.o.| %.%.",
"%.%.%.%.%.%.%.X./ ^ ( ) ) ) [ } O.O.O.O.O.O.O.O.O.O.O.O.O.O.O.O.O.O.O.O.O.O.O.O.O.O.O.O.O.O.O.O.O.O.O.O.O.#.O.$. .%.%.%.%.%.%.%.",
"%.%.%.%.%.%.%.%.%.%.%.%.%.%.%.%.X. .@.$.#.#.O.......#.O.O.O.O.O.O.O.O.O.O.#.........#.#.@.@. .X.%.%.%.%.%.%.%.%.%.%.%.%.%.%.%.%."
};
