/* XPM */
static char *_a09dd74fc284694b974d22a220a277eYXBNFOgZZQCp8JZW[] = {
/* columns rows colors chars-per-pixel */
"64 64 6 1 ",
"  c #D72901",
". c #D82800",
"X c #887000",
"o c #FC9838",
"O c #32BDDB",
"+ c #32BDDC",
/* pixels */
"++++++++++++++++++++++++++++..........++++++++++++++++++++++++++",
"++++++++++++++++++++++++++++..........++++++++++++++++++++++++++",
"++++++++++++++++++++++++............oo++++++++++++++++++++++++++",
"++++++++++++++++++++++++............oo++++++++++++++++++++++++++",
"++++++++++++++++++++++............oooo++++++++++++++++++++++++++",
"++++++++++++++++++++++............oooo++++++++++++++++++++++++++",
"++++++++++++++++++++++......................++++++++++++++++++++",
"++++++++++++++++++++++......................++++++++++++++++++++",
"++++++++++++++++++++++XXXXXXooooXXoooooo++++++++++++++++++++++++",
"++++++++++++++++++++++XXXXXXooooXXoooooo++++++++++++++++++++++++",
"++++++++++++++++++++XXooooXXooooXXXXoooooooo++++++++++++++++++++",
"++++++++++++++++++++XXooooXXooooXXXXoooooooo++++++++++++++++++++",
"++++++++++++++++++++XXooooXXXXoooooooooooooooo++++++++++++++++++",
"++++++++++++++++++++XXooooXXXXoooooooooooooooo++++++++++++++++++",
"++++++++++++++++++XXXXooooXXXXooooooXXoooooooo++++++++++++++++++",
"++++++++++++++++++XXXXooooXXXXooooooXXoooooooo++++++++++++++++++",
"++++++++++++++++++XXXXooooooooooXXXXXXXXXXXX++++++++++++++++++++",
"++++++++++++++++++XXXXooooooooooXXXXXXXXXXXX++++++++++++++++++++",
"++++++++++++++++++XXXXXXooooooooooXXXXXXXXXX++++++++++++++++++++",
"++++++++++++++++++XXXXXXooooooooooXXXXXXXXXX++++++++++++++++++++",
"++++++++++++++++++++++XXXXoooooooooooooooo++++++++++++++++++++++",
"++++++++++++++++++++++XXXXoooooooooooooooo++++++++++++++++++++++",
"++++++++++++++++++++++++..ooooooooooXX++++++++++++++++++++++++++",
"++++++++++++++++++++++++..ooooooooooXX++++++++++++++++++++++++++",
"++++++++++++++++++++++++XX..XXXXXXXX..XX++++++++++++++++++++++++",
"++++++++++++++++++++++++XX..XXXXXXXX..XX++++++++++++++++++++++++",
"++++++++++++++++++++++XXXX..XXXXXXXX..XXXX++++++++++++++++++++++",
"++++++++++++++++++++++XXXX..XXXXXXXX..XXXX++++++++++++++++++++++",
"++++++++++++++++++++XXXXXX..XXXXXXXX..XXXXXX++++++++++++++++++++",
"++++++++++++++++++++XXXXXX..XXXXXXXX..XXXXXX++++++++++++++++++++",
"++++++++++++++++++XXXXXXXX..XXXXXXXX..XXXXXXXX++++++++++++++++++",
"++++++++++++++++++XXXXXXXX..XXXXXXXX..XXXXXXXX++++++++++++++++++",
"++++++++++++++++++XXXXXX....XXXXXXXX....XXXXXX++++++++++++++++++",
"++++++++++++++++++XXXXXX....XXXXXXXX....XXXXXX++++++++++++++++++",
"++++++++++++++++XXXXXXXX....XXXXXXXX....XXXXXXXX++++++++++++++++",
"++++++++++++++++XXXXXXXX....XXXXXXXX....XXXXXXXX++++++++++++++++",
"++++++++++++++++XXXXXXXX................XXXXXXXX++++++++++++++++",
"++++++++++++++++XXXXXXXX................XXXXXXXX++++++++++++++++",
"++++++++++++++++XXXXXXXX..oo........oo..XXXXXXXX++++++++++++++++",
"++++++++++++++++XXXXXXXX..oo........oo..XXXXXXXX++++++++++++++++",
"++++++++++++++++oooooooo................oooooooo++++++++++++++++",
"++++++++++++++++oooooooo................oooooooo++++++++++++++++",
"++++++++++++++++oooooooo................oooooooo++++++++++++++++",
"++++++++++++++++oooooooo................oooooooo++++++++++++++++",
"++++++++++++++++++oooooo................oooooo++++++++++++++++++",
"++++++++++++++++++oooooo................oooooo++++++++++++++++++",
"++++++++++++++++++oooo....................oooo++++++++++++++++++",
"++++++++++++++++++oooo....................oooo++++++++++++++++++",
"++++++++++++++++++++........................++++++++++++++++++++",
"++++++++++++++++++++........................++++++++++++++++++++",
"++++++++++++++++++............++++............++++++++++++++++++",
"++++++++++++++++++............++++............++++++++++++++++++",
"++++++++++++++++++..........++++++++..........++++++++++++++++++",
"++++++++++++++++++..........++++++++..........++++++++++++++++++",
"++++++++++++++++++..........++++++++..........++++++++++++++++++",
"++++++++++++++++++..........++++++++........  ++++++++++++++++++",
"++++++++++++++++++++XXXXXXXX++++++++XXXXXXXX++++++++++++++++++++",
"++++++++++++++++++++XXXXXXXX++++++++XXXXXXXX++++++++++++++++++++",
"++++++++++++++++++++XXXXXXXX++++++++XXXXXXXX++++++++++++++++++++",
"++++++++++++++++++++XXXXXXXX++++++++XXXXXXXXOOOO++++++++++++++++",
"++++++++++++++++XXXXXXXXXXXX++++++++XXXXXXXXXXXX++++++++++++++++",
"++++++++++++++++XXXXXXXXXXXX++++++++XXXXXXXXXXXX++++++++++++++++",
"++++++++++++++++XXXXXXXXXXXX++++++++XXXXXXXXXXXX++++++++++++++++",
"++++++++++++++++XXXXXXXXXXXX++++++++XXXXXXXXXXXX++++++++++++++++"
};
