/* XPM */
static char *_aea3be5c81e478eabb700a184361d21MDXAFeyMOAxnV9TP[] = {
/* columns rows colors chars-per-pixel */
"64 64 3 1 ",
"  c black",
". c #C74C0C",
"X c #C84C0C",
/* pixels */
"XXXXXXXXXXXXXXXXXXXXXXXXXXXX    XXXXXXXXXXXXXXXXXXXXXXXXXXXX    ",
"XXXXXXXXXXXXXXXXXXXXXXXXXXXX    XXXXXXXXXXXXXXXXXXXXXXXXXXXX    ",
"XXXXXXXXXXXXXXXXXXXXXXXXXXXX    XXXXXXXXXXXXXXXXXXXXXXXXXXXX    ",
"XXXXXXXXXXXXXXXXXXXXXXXXXXXX    XXXXXXXXXXXXXXXXXXXXXXXXXXXX    ",
"XXXXXXXXXXXXXXXXXXXXXXXXXXXX    XXXXXXXXXXXXXXXXXXXXXXXXXXXX    ",
"XXXXXXXXXXXXXXXXXXXXXXXXXXXX    XXXXXXXXXXXXXXXXXXXXXXXXXXXX    ",
"XXXXXXXXXXXXXXXXXXXXXXXXXXXX    XXXXXXXXXXXXXXXXXXXXXXXXXXXX    ",
"XXXXXXXXXXXXXXXXXXXXXXXXXXXX    XXXXXXXXXXXXXXXXXXXXXXXXXXXX    ",
"XXXXXXXXXXXXXXXXXXXXXXXXXXXX    XXXXXXXXXXXXXXXXXXXXXXXXXXXX    ",
"XXXXXXXXXXXXXXXXXXXXXXXXXXXX    XXXXXXXXXXXXXXXXXXXXXXXXXXXX    ",
"XXXXXXXXXXXXXXXXXXXXXXXXXXXX    XXXXXXXXXXXXXXXXXXXXXXXXXXXX    ",
"XXXXXXXXXXXXXXXXXXXXXXXXXXXX    XXXXXXXXXXXXXXXXXXXXXXXXXXXX    ",
"                                                                ",
"                                                                ",
"                                                                ",
"                                                                ",
"XXXXXXXXXXXX    XXXXXXXXXXXXXXXXXXXXXXXXXXXX    XXXXXXXXXXXXXXXX",
"XXXXXXXXXXXX    XXXXXXXXXXXXXXXXXXXXXXXXXXXX    XXXXXXXXXXXXXXXX",
"XXXXXXXXXXXX    XXXXXXXXXXXXXXXXXXXXXXXXXXXX    XXXXXXXXXXXXXXXX",
"XXXXXXXXXXXX    XXXXXXXXXXXXXXXXXXXXXXXXXXXX    XXXXXXXXXXXXXXXX",
"XXXXXXXXXXXX    XXXXXXXXXXXXXXXXXXXXXXXXXXXX    XXXXXXXXXXXXXXXX",
"XXXXXXXXXXXX    XXXXXXXXXXXXXXXXXXXXXXXXXXXX    XXXXXXXXXXXXXXXX",
"XXXXXXXXXXXX    XXXXXXXXXXXXXXXXXXXXXXXXXXXX    XXXXXXXXXXXXXXXX",
"XXXXXXXXXXXX    XXXXXXXXXXXXXXXXXXXXXXXXXXXX    XXXXXXXXXXXXXXXX",
"XXXXXXXXXXXX    XXXXXXXXXXXXXXXXXXXXXXXXXXXX    XXXXXXXXXXXXXXXX",
"XXXXXXXXXXXX    XXXXXXXXXXXXXXXXXXXXXXXXXXXX    XXXXXXXXXXXXXXXX",
"XXXXXXXXXXXX    XXXXXXXXXXXXXXXXXXXXXXXXXXXX    XXXXXXXXXXXXXXXX",
"XXXXXXXXXXXX    XXXXXXXXXXXXXXXXXXXXXXXXXXXX    XXXXXXXXXXXXXXXX",
"                                                                ",
"                                                                ",
"                                                                ",
"                                                                ",
"XXXXXXXXXXXXXXXXXXXXXXXXXXXX    XXXXXXXXXXXXXXXXXXXXXXXXXXXX    ",
"XXXXXXXXXXXXXXXXXXXXXXXXXXXX    XXXXXXXXXXXXXXXXXXXXXXXXXXXX    ",
"XXXXXXXXXXXXXXXXXXXXXXXXXXXX    XXXXXXXXXXXXXXXXXXXXXXXXXXXX    ",
"XXXXXXXXXXXXXXXXXXXXXXXXXXXX    XXXXXXXXXXXXXXXXXXXXXXXXXXXX    ",
"XXXXXXXXXXXXXXXXXXXXXXXXXXXX    XXXXXXXXXXXXXXXXXXXXXXXXXXXX    ",
"XXXXXXXXXXXXXXXXXXXXXXXXXXXX    XXXXXXXXXXXXXXXXXXXXXXXXXXXX    ",
"XXXXXXXXXXXXXXXXXXXXXXXXXXXX    XXXXXXXXXXXXXXXXXXXXXXXXXXXX    ",
"XXXXXXXXXXXXXXXXXXXXXXXXXXXX    XXXXXXXXXXXXXXXXXXXXXXXXXXXX    ",
"XXXXXXXXXXXXXXXXXXXXXXXXXXXX    XXXXXXXXXXXXXXXXXXXXXXXXXXXX    ",
"XXXXXXXXXXXXXXXXXXXXXXXXXXXX    XXXXXXXXXXXXXXXXXXXXXXXXXXXX    ",
"XXXXXXXXXXXXXXXXXXXXXXXXXXXX    XXXXXXXXXXXXXXXXXXXXXXXXXXXX    ",
"XXXXXXXXXXXXXXXXXXXXXXXXXXXX    XXXXXXXXXXXXXXXXXXXXXX......    ",
"                                                                ",
"                                                                ",
"                                                                ",
"                                                                ",
"XXXXXXXXXXXX    XXXXXXXXXXXXXXXXXXXXXXXXXXXX    XXXXXXXXXXXXXXXX",
"XXXXXXXXXXXX    XXXXXXXXXXXXXXXXXXXXXXXXXXXX    XXXXXXXXXXXXXXXX",
"XXXXXXXXXXXX    XXXXXXXXXXXXXXXXXXXXXXXXXXXX    XXXXXXXXXXXXXXXX",
"XXXXXXXXXXXX    XXXXXXXXXXXXXXXXXXXXXXXXXXXX    XXXXXXXXXXXXXXXX",
"XXXXXXXXXXXX    XXXXXXXXXXXXXXXXXXXXXXXXXXXX    XXXXXXXXXXXXXXXX",
"XXXXXXXXXXXX    XXXXXXXXXXXXXXXXXXXXXXXXXXXX    XXXXXXXXXXXXXXXX",
"XXXXXXXXXXXX    XXXXXXXXXXXXXXXXXXXXXXXXXXXX    XXXXXXXXXXXXXXXX",
"XXXXXXXXXXXX    XXXXXXXXXXXXXXXXXXXXXXXXXXXX    XXXXXXXXXXXXXXXX",
"XXXXXXXXXXXX    XXXXXXXXXXXXXXXXXXXXXXXXXXXX    XXXXXXXXXXXXXXXX",
"XXXXXXXXXXXX    XXXXXXXXXXXXXXXXXXXXXXXXXXXX    XXXXXXXXXXXXXXXX",
"XXXXXXXXXXXX    XXXXXXXXXXXXXXXXXXXXXXXXXXXX    XXXXXXXXXXXXXXXX",
"XXXXXXXXXXXX    XXXXXXXXXXXXXXXXXXXXXX......    ................",
"                                                                ",
"                                                                ",
"                                                                ",
"                                                                "
};
